<svg xmlns="http://www.w3.org/2000/svg" width="1018.667" height="253.333" version="1.0" viewBox="0 0 764 190"><path d="M119.5 19.6c-25.1 2.5-37.8 4.9-57 11.1-15.9 5.1-27.4 10.7-34 16.5C22 52.9 19.3 59 23.2 59c.6 0 3.5-2.7 6.5-6C41.5 40.1 62.1 31.9 99 25.6c32.2-5.5 57.9-4.1 69.8 3.7 5.7 3.8 5.2 9.3-1.5 16.2-5 5.1-10 8.1-22.7 13.1-16.9 6.9-40.1 13.6-68.4 19.9-1.8.4-.7-1.2 4.9-7.7 8.7-10.1 20-26.8 22.4-33.2 1.6-4.1 1.6-4.9.4-5.7-3.2-2-4.6-.9-6.8 5-3.7 10.2-18 30.1-28.9 40.3-4.2 3.9-5.9 4.8-10.1 5.4-5.1.7-6.9 2.8-3.6 4 .8.4 1.5 1.2 1.5 1.9 0 1.6-18 17.1-32.8 28.2-6.3 4.7-11.2 8.7-10.9 8.9.7.8 17.8-9.6 26.2-16 4.4-3.3 11.1-8.6 14.8-11.8 3.8-3.2 7.4-5.8 8.1-5.8 2.1 0 11.3 8.5 20.3 18.7 7.2 8.2 16.8 20.6 31.2 40.2 1.3 1.9 2.7 2.9 2.9 2.3.4-1.3-13.6-21.7-24.6-35.8-7.4-9.4-15.8-18.5-23.1-24.8-4.3-3.8-4.3-3.8-2.4-5.8 1.4-1.3 8.3-3.5 21.4-6.8 21.8-5.4 43.8-12.1 59.6-18 25.4-9.6 37.1-22.6 28.4-31.9-3.4-3.7-11.7-7.7-18.7-9.1-5.4-1.1-30.6-2-36.9-1.4zM624.6 41.9c-6.9 7.6-16.5 18-21.3 23l-8.8 9.1-27.5-.1c-19.2 0-26.8-.3-25-1 3.3-1.3 42.1-7.9 46.5-7.9 2.4 0 3.5-.5 3.5-1.5s-1-1.5-3.2-1.5c-9.1 0-57 8.8-59.1 10.9-.6.6 0 1.4 1.4 2.2 1.8 1.1 9.6 1.5 31.4 1.7l29 .4-4.1 3.7c-4.7 4.1-20.6 20.9-27.8 29.4-5.2 6.1-5.6 8.3-.9 4.9 2.4-1.7 22.8-22.1 35.4-35.4l3.6-3.8 80.4.4c55.1.3 76.8.2 68.9-.5-6.3-.5-41.7-1.3-78.7-1.7l-67.2-.7L621.5 52c15.1-16 20.1-21.8 19.3-22.8-.6-.6-1.6-1.2-2.3-1.2-.7 0-7 6.3-13.9 13.9z"/><path d="M235.4 43.2c-10.7 7.4-30.6 24.6-39 33.6-4 4.4-6.3 6.2-6.8 5.4-1-1.6-6.8-1.5-14.3.3-18.1 4.3-42.3 20.9-42.3 29 0 1.2.8 2.9 1.8 3.8 3 2.7 8.3 2 15.9-1.9s28.8-19.2 27.9-20.1c-.3-.3-5.6 2.7-11.8 6.8-10.9 7.1-24.5 13.9-28 13.9-3.8 0-.8-6 6.1-12.2 8.6-7.8 25.6-15.4 38.4-17.3 5.5-.8 6 .2 1.7 3.3-1.6 1.3-3 2.7-3 3.3 0 .6-1.3 2.7-2.9 4.7-4.6 5.8-8.4 13.8-7.6 16.2.8 2.5 3.8 4.2 6 3.3 1.5-.5 1.5-.8-.6-2.4l-2.3-1.7 3.3-6.9c5.7-11.7 21.9-26.8 56.8-53.1 11.6-8.7 15-12.1 13.6-13.6-1.5-1.5-4.5-.2-12.9 5.6zM517.3 48.8C512.5 54.2 498 70 485.1 84c-25.2 27.5-26.6 29.2-25.7 31.5.9 2.6 3.2 1.7 8.3-3.2 4.4-4.4 19.7-15.6 28.5-21.1 4-2.5 14.9-6.5 15.6-5.7.5.4-1.2 2.7-14.5 19.3-4.6 5.7-8.3 10.8-8.3 11.3 0 1.5 1.5 1.1 4.4-1.2 2.5-2 17.3-19.6 20.9-24.9 3.7-5.4.8-9.8-5.6-8.5-3.6.8-16.3 7.8-25.2 13.9-3.3 2.3-6.7 4.6-7.5 5.1-2.2 1.3 3.2-4.7 26-29 26-27.7 27.8-29.7 27.3-31.3-1-2.6-3.4-.9-12 8.6zM256 57.5c-2 2.4.3 6.5 3.5 6.5 3.7 0 6.8-3.5 5.5-6-1.3-2.4-7.1-2.7-9-.5zM245.3 81.8c-1.8 2.6-7.5 9.6-12.7 15.6-11.7 13.5-16.2 19.6-14.3 19.6 1.9 0 22.2-20.7 29.2-29.8 5.6-7.2 6.4-10.2 2.8-10.2-1 0-3.2 2.2-5 4.8zM142 78.4c0 .4.6 1.5 1.2 2.6 1.1 1.7.6 2.6-4.2 7.5-8.8 9-30 22.8-37.6 24.5-5 1.1-6.1-.2-3.6-4.2 5.7-9.1 19.2-18.5 33-22.9 7.5-2.4 9.6-4.9 4.2-4.9-10.9 0-33.5 13.4-40.1 23.8-3.4 5.4-3.6 7.5-.9 10.2 2.9 2.9 9.3 2.6 16-.8 8.9-4.5 25.5-16.9 32-23.9 5.9-6.3 6.7-7.7 5.2-9.9-.8-1.2-5.2-2.9-5.2-2zM347.7 78.6c-.3.3 0 1.5.6 2.6 1.1 1.7.5 2.6-5.3 8.1-11.8 11.3-36.2 26-40.4 24.4-2.4-1-1.9-2.7 2.2-8.2 6.7-8.9 21.1-17.9 33-20.6 5.1-1.2 6.4-3 2.7-3.8-3.5-.6-18.7 5.2-25.9 9.9-14.4 9.5-20.9 19.7-15.8 24.3 4.8 4.3 12.7 1.3 31.9-12 11.5-8 21.3-17.6 21.3-20.8 0-1.5-3.5-4.7-4.3-3.9zM405.7 81.4c-3.1 1.9-7.6 5-10 7-6 4.9-7.1 4.6-4.6-1.1l2-4.8-2.1-1.7c-1.5-1.2-3.1-1.6-4.9-1.2-6.7 1.7-17.5 8.8-26.8 17.7-2.4 2.3-4.3 3.7-4.3 3.2 0-.4 2-4.6 4.5-9.1 4.2-7.8 4.4-8.4 2.6-9.3-2.5-1.4-4.9 1.3-10.1 11.8-2.3 4.7-5.3 10.2-6.6 12.3-2.9 4.6-3 5.4-.3 6.9 1.9 1 3.1.1 12.3-8.8 5.5-5.5 12.7-11.9 15.9-14.2 6.4-4.6 13.6-8.3 15-7.4 1.4.8-6.1 13.2-13.4 22.1-3.8 4.7-6.9 8.8-6.9 9.2 0 .4.7 1.4 1.6 2.1 1.5 1.2 2.4.5 8.2-6.1 10.6-12 19.2-19.9 26.5-24.2 3.8-2.2 7.2-3.7 7.5-3.3.9.9-2.8 7.2-11.7 19.8-4.2 5.9-8.2 11.7-9 12.8-1.1 1.6-1.1 1.9.1 1.9 2.5 0 26.8-32.5 26.8-35.9 0-1.2-3.2-3.1-5.2-3.1-.8 0-4 1.5-7.1 3.4zM449.1 81.5c-4 2-8.5 4.4-10 5.4-1.7 1.3-3.6 1.7-5.5 1.4-2.5-.5-4.2.8-16.4 12.8-22.5 22-50.2 50.2-50.2 51.1 0 .4 1 .8 2.3.8 1.6 0 10.4-8.1 31.7-29.1 16.2-16.1 32-30.8 35-32.8 11.4-7.3 26.5-12.3 28.4-9.3 1.6 2.7-9.1 14.7-19.3 21.6-7.6 5.2-18.6 10.3-25.7 12-5.1 1.3-5.4 1.4-2.3 1.5 11.1.3 35.9-12.6 46.6-24.2 5.5-5.9 6.3-9 3.2-12.3-3.3-3.5-8.7-3.2-17.8 1.1zM563 79.8c0 .4.5 1.3 1.1 1.9 2.5 2.5-19.6 20.6-33.6 27.5-12.1 6.1-16.6 5.9-12.6-.6 5.9-9.4 20.6-19.5 34-23.2 3.9-1.1 6.1-2.3 6.1-3.2 0-2.7-9.7-.6-19.5 4.3-19 9.3-30.4 22.6-24.6 28.4 5.1 5.1 15.2 1.3 33.7-12.7 17.1-12.8 21.7-18.5 18.2-22-1.4-1.4-2.8-1.6-2.8-.4zM635 79.7c0 .5.5 1.4 1.2 2.1 1.8 1.8-7.6 11-18.7 18.4-9.8 6.6-23.8 13.8-26.7 13.8-4.4 0 0-8.1 8.5-15.7 5.8-5 16.2-10.6 24.2-12.8 6.8-2 8.6-3.1 6.2-4.1-2.7-1-11.7 1.5-20.7 5.9-6.5 3.2-10.3 5.9-16.2 11.8-6.8 6.6-7.8 8.1-7.8 11.1 0 7 6.3 8.7 15.8 4.3 8.4-3.9 23.1-14.3 31-22.1 6.3-6.1 7.3-7.6 7-10-.2-1.8-1-3-2-3.2-1-.2-1.8 0-1.8.5zM660.2 80.1c-5.5 1-18 7.6-19.4 10.2-1.6 3 2.6 6.2 9.9 7.7 8.4 1.8 10.3 2.4 10.4 3.5.1 1.2-9.4 6.2-22.1 11.6-7.1 3-8.5 3.9-5.7 3.5 9.9-1.3 30.9-10.1 33.1-13.9 1.6-2.6-2.1-5.3-9.2-6.7-3.1-.6-7.5-1.6-9.7-2.2l-4-1 3-2.4c3.7-3 12.6-6.5 18.3-7.2 2.3-.2 4.1-.9 3.9-1.5-.5-1.7-4-2.4-8.5-1.6zM232.9 81.4c-2 .7-7 3.1-11.2 5.4l-7.6 4.2.2-2.6c.1-1.5-.3-2.9-1-3.1-1.2-.4-21.2 25.8-22 28.7-.3.9.2 2.2 1 2.9 1.2 1 2.2.4 5.3-3.6 10-12.7 20.3-21.2 34.1-28.1 8.9-4.5 9.6-6.8 1.2-3.8zM279 83.9c-14.3 4-30 12.3-36.6 19.3-5 5.3-5.6 8.6-2.2 11.8 4.3 4 12.9 2 31.6-7.4 5-2.5 9.2-4.3 9.2-3.8 0 .9-24.3 17.1-34.5 23-3.9 2.2-13.6 7.2-21.5 11.2-12.7 6.2-17.8 9.5-16.6 10.7.2.2 4.9-1.9 10.5-4.7 5.5-2.7 10.3-5 10.6-5 1.4 0 40.9-21.7 46.9-25.8 14.6-9.9 30.7-22.4 30.4-23.4-1.1-3.3-3.5-2.8-12.3 2.3-18.3 10.6-46.6 22.6-50.2 21.2-2.5-1-1.3-4.4 3.1-8.7 7-6.7 21.7-13.8 36.6-17.6 4.2-1.1 6.5-2.1 6.5-3.1 0-2.1-4.1-2.1-11.5 0z"/></svg>