<?xml version="1.0" encoding="UTF-8" standalone="no"?>
<!DOCTYPE svg PUBLIC "-//W3C//DTD SVG 1.1//EN" "http://www.w3.org/Graphics/SVG/1.1/DTD/svg11.dtd">
<svg xmlns="http://www.w3.org/2000/svg" version="1.1" viewBox="0.00 0.00 512.00 512.00">
<g stroke-width="2.00" fill="none" stroke-linecap="butt">
<path stroke="#f79591" vector-effect="non-scaling-stroke" d="
  M 68.87 269.80
  L 79.68 229.54
  A 0.58 0.57 6.3 0 0 79.10 228.82
  Q 63.62 229.42 56.29 240.42
  Q 53.35 244.84 51.07 253.80
  Q 46.28 272.65 41.28 290.97
  A 0.40 0.40 0.0 0 0 41.67 291.48
  Q 54.74 291.59 65.28 291.48
  C 92.26 291.20 117.67 278.55 126.41 251.57
  C 130.24 239.76 130.97 227.72 125.86 216.55
  C 120.93 205.79 110.66 201.32 99.17 201.11
  Q 81.95 200.79 61.84 200.99
  A 1.02 1.01 -82.7 0 0 60.88 201.74
  L 56.02 219.70
  Q 55.83 220.40 56.56 220.41
  Q 72.39 220.62 90.04 220.37
  Q 97.13 220.27 100.47 221.89
  C 108.00 225.55 108.12 234.15 106.43 241.48
  C 102.28 259.44 88.15 271.50 69.76 270.99
  Q 68.56 270.96 68.87 269.80"
/>
<path stroke="#f79591" vector-effect="non-scaling-stroke" d="
  M 299.91 235.01
  Q 300.80 235.01 300.56 235.87
  Q 296.55 250.36 292.68 265.25
  C 290.81 272.43 290.67 281.78 295.73 287.44
  C 301.94 294.38 314.33 292.77 322.56 290.76
  A 0.92 0.92 0.0 0 0 323.23 290.10
  L 327.00 275.77
  A 0.46 0.45 -84.4 0 0 326.54 275.20
  C 321.04 275.57 313.94 275.77 314.02 268.06
  Q 314.06 265.02 314.53 263.28
  Q 318.30 249.42 321.91 235.67
  A 0.80 0.80 0.0 0 1 322.68 235.08
  L 336.15 235.12
  A 0.88 0.88 0.0 0 0 337.01 234.47
  L 341.54 217.92
  A 0.37 0.36 -83.4 0 0 341.18 217.46
  L 327.48 217.60
  A 0.58 0.58 0.0 0 1 326.92 216.87
  L 330.93 201.93
  Q 331.19 200.95 330.18 200.94
  L 310.28 200.92
  A 0.61 0.60 -82.4 0 0 309.70 201.37
  L 305.69 216.81
  A 1.10 1.10 0.0 0 1 304.61 217.63
  L 297.59 217.54
  A 1.81 1.79 -66.9 0 0 296.26 218.08
  L 280.56 234.05
  Q 279.47 235.16 281.02 235.15
  L 299.91 235.01"
/>
<path stroke="#f79591" vector-effect="non-scaling-stroke" d="
  M 188.39 216.84
  Q 184.34 215.80 180.75 215.81
  Q 160.66 215.84 146.54 229.68
  C 135.63 240.38 130.16 256.51 133.29 271.60
  C 136.84 288.65 152.99 293.55 168.15 292.44
  C 180.99 291.51 191.86 284.81 193.62 271.23
  A 0.54 0.54 0.0 0 0 192.84 270.67
  C 183.53 275.36 172.47 278.17 162.56 275.50
  C 156.36 273.82 151.94 269.59 152.35 262.75
  A 0.71 0.71 0.0 0 1 153.07 262.09
  C 168.05 262.32 194.67 263.93 203.14 247.75
  C 209.95 234.72 202.10 220.36 188.39 216.84"
/>
<path stroke="#f79591" vector-effect="non-scaling-stroke" d="
  M 358.31 262.07
  Q 367.93 262.33 378.28 261.88
  C 390.61 261.35 405.55 257.09 409.75 244.70
  Q 412.50 236.54 408.86 228.82
  C 404.27 219.10 393.00 214.97 382.70 215.86
  Q 355.11 218.26 342.46 242.90
  Q 336.95 253.63 337.87 266.34
  C 339.01 282.05 348.57 290.44 363.41 292.25
  C 378.46 294.09 397.10 289.24 398.77 271.20
  A 0.41 0.40 -9.6 0 0 398.20 270.80
  C 387.65 275.54 372.34 280.20 362.04 272.62
  Q 357.25 269.10 357.61 262.72
  Q 357.65 262.06 358.31 262.07"
/>
<path stroke="#f79591" vector-effect="non-scaling-stroke" d="
  M 442.04 229.97
  Q 443.54 223.87 445.27 218.12
  A 0.49 0.49 0.0 0 0 444.80 217.49
  L 427.33 217.57
  A 0.82 0.82 0.0 0 0 426.55 218.18
  L 407.22 290.22
  A 0.36 0.36 0.0 0 0 407.55 290.68
  C 415.27 291.13 423.40 290.85 428.53 284.15
  Q 431.10 280.80 432.60 274.34
  Q 434.38 266.71 436.57 259.46
  C 440.52 246.38 450.08 238.33 464.08 237.55
  Q 464.82 237.51 465.02 236.78
  L 470.60 216.61
  A 0.71 0.70 -82.7 0 0 469.91 215.71
  C 458.83 215.87 449.36 221.71 442.76 230.32
  Q 441.57 231.87 442.04 229.97"
/>
<path stroke="#f79591" vector-effect="non-scaling-stroke" d="
  M 243.07 237.96
  A 0.34 0.34 0.0 0 1 242.52 237.87
  L 232.25 217.56
  A 0.34 0.34 0.0 0 0 231.95 217.37
  L 210.80 217.44
  A 0.34 0.34 0.0 0 0 210.50 217.93
  L 228.26 252.83
  A 0.34 0.34 0.0 0 1 228.20 253.22
  L 172.31 310.51
  A 0.34 0.34 0.0 0 0 172.56 311.09
  L 196.73 311.08
  A 0.34 0.34 0.0 0 0 196.97 310.98
  L 236.61 270.35
  A 0.34 0.34 0.0 0 1 237.15 270.44
  L 247.29 290.52
  A 0.34 0.34 0.0 0 0 247.59 290.71
  L 268.75 290.73
  A 0.34 0.34 0.0 0 0 269.05 290.24
  L 251.42 255.44
  A 0.34 0.34 0.0 0 1 251.48 255.05
  L 287.69 217.95
  A 0.34 0.34 0.0 0 0 287.45 217.37
  L 263.09 217.49
  A 0.34 0.34 0.0 0 0 262.85 217.59
  L 243.07 237.96"
/>
<path stroke="#f79591" vector-effect="non-scaling-stroke" d="
  M 155.61 246.69
  C 164.01 246.52 171.76 247.24 179.94 244.80
  Q 182.07 244.16 183.87 242.65
  C 186.69 240.29 187.69 236.10 184.11 233.82
  Q 180.26 231.37 175.28 231.86
  Q 161.57 233.23 155.05 245.80
  A 0.61 0.61 0.0 0 0 155.61 246.69"
/>
<path stroke="#f79591" vector-effect="non-scaling-stroke" d="
  M 377.39 246.37
  C 382.86 246.02 391.88 244.15 391.70 237.20
  C 391.62 234.31 387.90 232.65 385.46 232.18
  C 375.16 230.18 364.96 236.52 360.44 245.70
  A 0.59 0.59 0.0 0 0 360.94 246.55
  Q 369.33 246.88 377.39 246.37"
/>
</g>
<path fill="#ef2a22" d="
  M 0.00 0.00
  L 512.00 0.00
  L 512.00 512.00
  L 0.00 512.00
  L 0.00 0.00
  Z
  M 68.87 269.80
  L 79.68 229.54
  A 0.58 0.57 6.3 0 0 79.10 228.82
  Q 63.62 229.42 56.29 240.42
  Q 53.35 244.84 51.07 253.80
  Q 46.28 272.65 41.28 290.97
  A 0.40 0.40 0.0 0 0 41.67 291.48
  Q 54.74 291.59 65.28 291.48
  C 92.26 291.20 117.67 278.55 126.41 251.57
  C 130.24 239.76 130.97 227.72 125.86 216.55
  C 120.93 205.79 110.66 201.32 99.17 201.11
  Q 81.95 200.79 61.84 200.99
  A 1.02 1.01 -82.7 0 0 60.88 201.74
  L 56.02 219.70
  Q 55.83 220.40 56.56 220.41
  Q 72.39 220.62 90.04 220.37
  Q 97.13 220.27 100.47 221.89
  C 108.00 225.55 108.12 234.15 106.43 241.48
  C 102.28 259.44 88.15 271.50 69.76 270.99
  Q 68.56 270.96 68.87 269.80
  Z
  M 299.91 235.01
  Q 300.80 235.01 300.56 235.87
  Q 296.55 250.36 292.68 265.25
  C 290.81 272.43 290.67 281.78 295.73 287.44
  C 301.94 294.38 314.33 292.77 322.56 290.76
  A 0.92 0.92 0.0 0 0 323.23 290.10
  L 327.00 275.77
  A 0.46 0.45 -84.4 0 0 326.54 275.20
  C 321.04 275.57 313.94 275.77 314.02 268.06
  Q 314.06 265.02 314.53 263.28
  Q 318.30 249.42 321.91 235.67
  A 0.80 0.80 0.0 0 1 322.68 235.08
  L 336.15 235.12
  A 0.88 0.88 0.0 0 0 337.01 234.47
  L 341.54 217.92
  A 0.37 0.36 -83.4 0 0 341.18 217.46
  L 327.48 217.60
  A 0.58 0.58 0.0 0 1 326.92 216.87
  L 330.93 201.93
  Q 331.19 200.95 330.18 200.94
  L 310.28 200.92
  A 0.61 0.60 -82.4 0 0 309.70 201.37
  L 305.69 216.81
  A 1.10 1.10 0.0 0 1 304.61 217.63
  L 297.59 217.54
  A 1.81 1.79 -66.9 0 0 296.26 218.08
  L 280.56 234.05
  Q 279.47 235.16 281.02 235.15
  L 299.91 235.01
  Z
  M 188.39 216.84
  Q 184.34 215.80 180.75 215.81
  Q 160.66 215.84 146.54 229.68
  C 135.63 240.38 130.16 256.51 133.29 271.60
  C 136.84 288.65 152.99 293.55 168.15 292.44
  C 180.99 291.51 191.86 284.81 193.62 271.23
  A 0.54 0.54 0.0 0 0 192.84 270.67
  C 183.53 275.36 172.47 278.17 162.56 275.50
  C 156.36 273.82 151.94 269.59 152.35 262.75
  A 0.71 0.71 0.0 0 1 153.07 262.09
  C 168.05 262.32 194.67 263.93 203.14 247.75
  C 209.95 234.72 202.10 220.36 188.39 216.84
  Z
  M 358.31 262.07
  Q 367.93 262.33 378.28 261.88
  C 390.61 261.35 405.55 257.09 409.75 244.70
  Q 412.50 236.54 408.86 228.82
  C 404.27 219.10 393.00 214.97 382.70 215.86
  Q 355.11 218.26 342.46 242.90
  Q 336.95 253.63 337.87 266.34
  C 339.01 282.05 348.57 290.44 363.41 292.25
  C 378.46 294.09 397.10 289.24 398.77 271.20
  A 0.41 0.40 -9.6 0 0 398.20 270.80
  C 387.65 275.54 372.34 280.20 362.04 272.62
  Q 357.25 269.10 357.61 262.72
  Q 357.65 262.06 358.31 262.07
  Z
  M 442.04 229.97
  Q 443.54 223.87 445.27 218.12
  A 0.49 0.49 0.0 0 0 444.80 217.49
  L 427.33 217.57
  A 0.82 0.82 0.0 0 0 426.55 218.18
  L 407.22 290.22
  A 0.36 0.36 0.0 0 0 407.55 290.68
  C 415.27 291.13 423.40 290.85 428.53 284.15
  Q 431.10 280.80 432.60 274.34
  Q 434.38 266.71 436.57 259.46
  C 440.52 246.38 450.08 238.33 464.08 237.55
  Q 464.82 237.51 465.02 236.78
  L 470.60 216.61
  A 0.71 0.70 -82.7 0 0 469.91 215.71
  C 458.83 215.87 449.36 221.71 442.76 230.32
  Q 441.57 231.87 442.04 229.97
  Z
  M 243.07 237.96
  A 0.34 0.34 0.0 0 1 242.52 237.87
  L 232.25 217.56
  A 0.34 0.34 0.0 0 0 231.95 217.37
  L 210.80 217.44
  A 0.34 0.34 0.0 0 0 210.50 217.93
  L 228.26 252.83
  A 0.34 0.34 0.0 0 1 228.20 253.22
  L 172.31 310.51
  A 0.34 0.34 0.0 0 0 172.56 311.09
  L 196.73 311.08
  A 0.34 0.34 0.0 0 0 196.97 310.98
  L 236.61 270.35
  A 0.34 0.34 0.0 0 1 237.15 270.44
  L 247.29 290.52
  A 0.34 0.34 0.0 0 0 247.59 290.71
  L 268.75 290.73
  A 0.34 0.34 0.0 0 0 269.05 290.24
  L 251.42 255.44
  A 0.34 0.34 0.0 0 1 251.48 255.05
  L 287.69 217.95
  A 0.34 0.34 0.0 0 0 287.45 217.37
  L 263.09 217.49
  A 0.34 0.34 0.0 0 0 262.85 217.59
  L 243.07 237.96
  Z"
/>
<path fill="#ffffff" d="
  M 68.87 269.80
  Q 68.56 270.96 69.76 270.99
  C 88.15 271.50 102.28 259.44 106.43 241.48
  C 108.12 234.15 108.00 225.55 100.47 221.89
  Q 97.13 220.27 90.04 220.37
  Q 72.39 220.62 56.56 220.41
  Q 55.83 220.40 56.02 219.70
  L 60.88 201.74
  A 1.02 1.01 -82.7 0 1 61.84 200.99
  Q 81.95 200.79 99.17 201.11
  C 110.66 201.32 120.93 205.79 125.86 216.55
  C 130.97 227.72 130.24 239.76 126.41 251.57
  C 117.67 278.55 92.26 291.20 65.28 291.48
  Q 54.74 291.59 41.67 291.48
  A 0.40 0.40 0.0 0 1 41.28 290.97
  Q 46.28 272.65 51.07 253.80
  Q 53.35 244.84 56.29 240.42
  Q 63.62 229.42 79.10 228.82
  A 0.58 0.57 6.3 0 1 79.68 229.54
  L 68.87 269.80
  Z"
/>
<path fill="#ffffff" d="
  M 299.91 235.01
  L 281.02 235.15
  Q 279.47 235.16 280.56 234.05
  L 296.26 218.08
  A 1.81 1.79 -66.9 0 1 297.59 217.54
  L 304.61 217.63
  A 1.10 1.10 0.0 0 0 305.69 216.81
  L 309.70 201.37
  A 0.61 0.60 -82.4 0 1 310.28 200.92
  L 330.18 200.94
  Q 331.19 200.95 330.93 201.93
  L 326.92 216.87
  A 0.58 0.58 0.0 0 0 327.48 217.60
  L 341.18 217.46
  A 0.37 0.36 -83.4 0 1 341.54 217.92
  L 337.01 234.47
  A 0.88 0.88 0.0 0 1 336.15 235.12
  L 322.68 235.08
  A 0.80 0.80 0.0 0 0 321.91 235.67
  Q 318.30 249.42 314.53 263.28
  Q 314.06 265.02 314.02 268.06
  C 313.94 275.77 321.04 275.57 326.54 275.20
  A 0.46 0.45 -84.4 0 1 327.00 275.77
  L 323.23 290.10
  A 0.92 0.92 0.0 0 1 322.56 290.76
  C 314.33 292.77 301.94 294.38 295.73 287.44
  C 290.67 281.78 290.81 272.43 292.68 265.25
  Q 296.55 250.36 300.56 235.87
  Q 300.80 235.01 299.91 235.01
  Z"
/>
<path fill="#ffffff" d="
  M 188.39 216.84
  C 202.10 220.36 209.95 234.72 203.14 247.75
  C 194.67 263.93 168.05 262.32 153.07 262.09
  A 0.71 0.71 0.0 0 0 152.35 262.75
  C 151.94 269.59 156.36 273.82 162.56 275.50
  C 172.47 278.17 183.53 275.36 192.84 270.67
  A 0.54 0.54 0.0 0 1 193.62 271.23
  C 191.86 284.81 180.99 291.51 168.15 292.44
  C 152.99 293.55 136.84 288.65 133.29 271.60
  C 130.16 256.51 135.63 240.38 146.54 229.68
  Q 160.66 215.84 180.75 215.81
  Q 184.34 215.80 188.39 216.84
  Z
  M 155.61 246.69
  C 164.01 246.52 171.76 247.24 179.94 244.80
  Q 182.07 244.16 183.87 242.65
  C 186.69 240.29 187.69 236.10 184.11 233.82
  Q 180.26 231.37 175.28 231.86
  Q 161.57 233.23 155.05 245.80
  A 0.61 0.61 0.0 0 0 155.61 246.69
  Z"
/>
<path fill="#ffffff" d="
  M 357.61 262.72
  Q 357.25 269.10 362.04 272.62
  C 372.34 280.20 387.65 275.54 398.20 270.80
  A 0.41 0.40 -9.6 0 1 398.77 271.20
  C 397.10 289.24 378.46 294.09 363.41 292.25
  C 348.57 290.44 339.01 282.05 337.87 266.34
  Q 336.95 253.63 342.46 242.90
  Q 355.11 218.26 382.70 215.86
  C 393.00 214.97 404.27 219.10 408.86 228.82
  Q 412.50 236.54 409.75 244.70
  C 405.55 257.09 390.61 261.35 378.28 261.88
  Q 367.93 262.33 358.31 262.07
  Q 357.65 262.06 357.61 262.72
  Z
  M 377.39 246.37
  C 382.86 246.02 391.88 244.15 391.70 237.20
  C 391.62 234.31 387.90 232.65 385.46 232.18
  C 375.16 230.18 364.96 236.52 360.44 245.70
  A 0.59 0.59 0.0 0 0 360.94 246.55
  Q 369.33 246.88 377.39 246.37
  Z"
/>
<path fill="#ffffff" d="
  M 442.04 229.97
  Q 441.57 231.87 442.76 230.32
  C 449.36 221.71 458.83 215.87 469.91 215.71
  A 0.71 0.70 -82.7 0 1 470.60 216.61
  L 465.02 236.78
  Q 464.82 237.51 464.08 237.55
  C 450.08 238.33 440.52 246.38 436.57 259.46
  Q 434.38 266.71 432.60 274.34
  Q 431.10 280.80 428.53 284.15
  C 423.40 290.85 415.27 291.13 407.55 290.68
  A 0.36 0.36 0.0 0 1 407.22 290.22
  L 426.55 218.18
  A 0.82 0.82 0.0 0 1 427.33 217.57
  L 444.80 217.49
  A 0.49 0.49 0.0 0 1 445.27 218.12
  Q 443.54 223.87 442.04 229.97
  Z"
/>
<path fill="#ffffff" d="
  M 243.07 237.96
  L 262.85 217.59
  A 0.34 0.34 0.0 0 1 263.09 217.49
  L 287.45 217.37
  A 0.34 0.34 0.0 0 1 287.69 217.95
  L 251.48 255.05
  A 0.34 0.34 0.0 0 0 251.42 255.44
  L 269.05 290.24
  A 0.34 0.34 0.0 0 1 268.75 290.73
  L 247.59 290.71
  A 0.34 0.34 0.0 0 1 247.29 290.52
  L 237.15 270.44
  A 0.34 0.34 0.0 0 0 236.61 270.35
  L 196.97 310.98
  A 0.34 0.34 0.0 0 1 196.73 311.08
  L 172.56 311.09
  A 0.34 0.34 0.0 0 1 172.31 310.51
  L 228.20 253.22
  A 0.34 0.34 0.0 0 0 228.26 252.83
  L 210.50 217.93
  A 0.34 0.34 0.0 0 1 210.80 217.44
  L 231.95 217.37
  A 0.34 0.34 0.0 0 1 232.25 217.56
  L 242.52 237.87
  A 0.34 0.34 0.0 0 0 243.07 237.96
  Z"
/>
<path fill="#ef2a22" d="
  M 179.94 244.80
  C 171.76 247.24 164.01 246.52 155.61 246.69
  A 0.61 0.61 0.0 0 1 155.05 245.80
  Q 161.57 233.23 175.28 231.86
  Q 180.26 231.37 184.11 233.82
  C 187.69 236.10 186.69 240.29 183.87 242.65
  Q 182.07 244.16 179.94 244.80
  Z"
/>
<path fill="#ef2a22" d="
  M 377.39 246.37
  Q 369.33 246.88 360.94 246.55
  A 0.59 0.59 0.0 0 1 360.44 245.70
  C 364.96 236.52 375.16 230.18 385.46 232.18
  C 387.90 232.65 391.62 234.31 391.70 237.20
  C 391.88 244.15 382.86 246.02 377.39 246.37
  Z"
/>
</svg>
