<?xml version="1.0" encoding="UTF-8" standalone="no"?>
<!DOCTYPE svg PUBLIC "-//W3C//DTD SVG 1.1//EN" "http://www.w3.org/Graphics/SVG/1.1/DTD/svg11.dtd">
<svg xmlns="http://www.w3.org/2000/svg" version="1.1" viewBox="0.00 0.00 150.00 150.00">
<g stroke-width="2.00" fill="none" stroke-linecap="butt">
<path stroke="#86c2a2" vector-effect="non-scaling-stroke" d="
  M 87.05 42.87
  L 76.99 42.77
  A 0.49 0.48 0.0 0 0 76.49 43.26
  L 76.51 58.00
  A 0.49 0.49 0.0 0 0 77.00 58.49
  L 96.06 58.49
  A 0.56 0.55 -0.0 0 0 96.62 57.94
  L 96.63 43.43
  Q 96.63 42.80 96.00 42.80
  C 93.84 42.80 91.91 42.98 89.82 42.22
  Q 79.01 38.32 74.86 37.21
  Q 64.71 34.50 54.82 30.81
  Q 54.29 30.61 54.27 30.04
  L 54.21 27.50
  Q 54.19 26.77 53.46 26.76
  L 52.94 26.76
  Q 52.63 26.75 52.62 27.06
  L 52.54 57.75
  Q 52.54 58.59 53.37 58.46
  L 53.72 58.40
  A 0.64 0.63 85.8 0 0 54.26 57.77
  L 54.25 32.20
  A 0.39 0.39 0.0 0 1 54.78 31.83
  Q 65.87 35.86 77.25 39.07
  Q 82.50 40.55 87.15 42.32
  Q 88.61 42.88 87.05 42.87"
/>
<path stroke="#86c2a2" vector-effect="non-scaling-stroke" d="
  M 75.5971 43.2425
  A 0.47 0.47 0.0 0 0 75.1263 42.7733
  L 55.9663 42.8067
  A 0.47 0.47 0.0 0 0 55.4971 43.2776
  L 55.5229 58.0375
  A 0.47 0.47 0.0 0 0 55.9937 58.5067
  L 75.1537 58.4733
  A 0.47 0.47 0.0 0 0 75.6229 58.0024
  L 75.5971 43.2425"
/>
<path stroke="#86c2a2" vector-effect="non-scaling-stroke" d="
  M 71.09 86.53
  C 71.29 88.04 71.18 89.59 69.61 90.35
  C 59.96 94.98 55.88 79.48 63.20 74.42
  Q 67.03 71.76 70.83 75.37
  A 0.39 0.38 -43.2 0 0 71.35 75.38
  L 76.01 71.28
  Q 76.18 71.13 76.02 70.97
  C 64.81 59.02 51.96 70.93 53.04 83.87
  Q 53.60 90.62 58.00 95.06
  C 63.42 100.56 71.17 99.50 76.02 93.59
  Q 77.40 91.91 77.33 89.59
  Q 77.15 83.83 77.29 79.32
  Q 77.32 78.57 76.57 78.58
  L 64.95 78.59
  Q 64.25 78.59 64.25 79.30
  L 64.25 85.42
  A 0.66 0.66 0.0 0 0 64.92 86.08
  L 70.47 85.99
  Q 71.02 85.98 71.09 86.53"
/>
<path stroke="#86c2a2" vector-effect="non-scaling-stroke" d="
  M 117.2635 98.5699
  A 16.20 13.27 90.2 0 0 130.5899 82.4163
  A 16.20 13.27 90.2 0 0 117.3765 66.1701
  A 16.20 13.27 90.2 0 0 104.0501 82.3237
  A 16.20 13.27 90.2 0 0 117.2635 98.5699"
/>
<path stroke="#86c2a2" vector-effect="non-scaling-stroke" d="
  M 23.96 67.00
  A 0.47 0.47 0.0 0 0 23.49 66.53
  L 18.23 66.53
  A 0.47 0.47 0.0 0 0 17.76 67.00
  L 17.76 97.76
  A 0.47 0.47 0.0 0 0 18.23 98.23
  L 23.49 98.23
  A 0.47 0.47 0.0 0 0 23.96 97.76
  L 23.96 67.00"
/>
<path stroke="#86c2a2" vector-effect="non-scaling-stroke" d="
  M 34.81 91.98
  A 0.55 0.55 0.0 0 1 35.33 91.61
  L 45.23 91.57
  A 0.55 0.55 0.0 0 1 45.76 91.98
  L 47.36 97.83
  A 0.55 0.55 0.0 0 0 47.89 98.24
  L 53.46 98.22
  A 0.55 0.55 0.0 0 0 53.98 97.50
  L 44.16 66.93
  A 0.55 0.55 0.0 0 0 43.64 66.55
  L 36.72 66.52
  A 0.55 0.55 0.0 0 0 36.20 66.90
  L 26.31 97.54
  A 0.55 0.55 0.0 0 0 26.84 98.26
  L 32.28 98.23
  A 0.55 0.55 0.0 0 0 32.80 97.86
  L 34.81 91.98"
/>
<path stroke="#86c2a2" vector-effect="non-scaling-stroke" d="
  M 97.34 86.86
  Q 104.74 80.32 100.84 71.73
  C 99.65 69.12 96.76 66.73 93.89 66.68
  Q 88.14 66.56 81.60 66.66
  Q 81.03 66.67 81.03 67.25
  L 81.04 97.96
  Q 81.04 98.23 81.30 98.23
  L 87.00 98.24
  Q 87.24 98.24 87.24 98.00
  L 87.25 88.47
  Q 87.25 87.86 87.84 87.75
  Q 88.76 87.59 89.59 87.78
  Q 90.00 87.88 90.19 88.25
  L 95.23 98.03
  A 0.33 0.32 76.6 0 0 95.52 98.21
  Q 98.98 98.31 102.50 98.14
  A 0.12 0.11 -15.7 0 0 102.60 97.97
  L 97.18 87.72
  Q 96.92 87.23 97.34 86.86"
/>
<path stroke="#86c2a2" vector-effect="non-scaling-stroke" d="
  M 136.9920 75.3095
  A 3.69 3.06 90.9 0 0 140.1096 71.6681
  A 3.69 3.06 90.9 0 0 137.1080 67.9305
  A 3.69 3.06 90.9 0 0 133.9904 71.5719
  A 3.69 3.06 90.9 0 0 136.9920 75.3095"
/>
<path stroke="#86c2a2" vector-effect="non-scaling-stroke" d="
  M 49.75 115.73
  C 46.42 114.84 46.53 110.28 49.57 109.06
  Q 50.04 108.88 50.47 109.14
  L 51.22 109.59
  Q 51.67 109.86 52.09 109.54
  L 53.20 108.71
  A 0.57 0.57 0.0 0 0 53.29 107.88
  C 50.98 105.24 47.50 105.98 45.87 108.92
  Q 43.72 112.79 46.23 116.45
  C 47.96 118.97 51.44 119.37 53.31 116.80
  Q 53.66 116.32 53.21 115.93
  L 52.24 115.09
  Q 51.82 114.72 51.38 115.06
  L 50.77 115.53
  Q 50.31 115.89 49.75 115.73"
/>
<path stroke="#86c2a2" vector-effect="non-scaling-stroke" d="
  M 90.0575 118.4899
  A 6.09 4.90 90.4 0 0 94.9999 112.4342
  A 6.09 4.90 90.4 0 0 90.1425 106.3101
  A 6.09 4.90 90.4 0 0 85.2001 112.3658
  A 6.09 4.90 90.4 0 0 90.0575 118.4899"
/>
<path stroke="#86c2a2" vector-effect="non-scaling-stroke" d="
  M 98.68 109.45
  Q 99.78 108.75 101.00 109.55
  Q 101.52 109.90 101.97 109.46
  L 102.99 108.45
  Q 103.46 107.98 102.96 107.55
  C 97.27 102.63 92.63 112.83 100.07 113.64
  Q 100.85 113.72 100.86 114.51
  L 100.87 114.78
  A 0.95 0.94 -86.4 0 1 99.79 115.74
  Q 98.70 115.58 97.86 114.93
  Q 97.16 114.39 96.69 115.14
  L 96.36 115.66
  A 1.24 1.23 38.6 0 0 96.54 117.19
  C 100.05 120.65 105.70 116.76 102.73 112.28
  A 1.68 1.67 -6.4 0 0 101.92 111.64
  L 98.80 110.53
  A 0.60 0.60 0.0 0 1 98.68 109.45"
/>
<path stroke="#86c2a2" vector-effect="non-scaling-stroke" d="
  M 61.42 116.48
  L 61.55 117.58
  A 0.79 0.78 -3.3 0 0 62.33 118.27
  L 63.78 118.27
  Q 64.51 118.27 64.24 117.59
  Q 62.24 112.61 60.92 107.05
  Q 60.79 106.49 60.22 106.49
  L 58.40 106.48
  Q 57.69 106.48 57.47 107.15
  Q 56.27 110.76 55.15 114.67
  Q 54.71 116.20 53.98 117.54
  A 0.53 0.52 -70.1 0 0 54.33 118.30
  Q 55.01 118.44 55.71 118.36
  Q 56.28 118.29 56.46 117.75
  L 56.95 116.29
  Q 57.13 115.75 57.70 115.75
  L 60.62 115.77
  Q 61.34 115.77 61.42 116.48"
/>
<path stroke="#86c2a2" vector-effect="non-scaling-stroke" d="
  M 68.09 111.36
  L 69.76 113.80
  Q 70.09 114.29 70.32 113.75
  Q 70.88 112.38 71.82 111.09
  Q 72.37 110.32 72.36 111.26
  L 72.29 117.82
  Q 72.28 118.37 72.82 118.34
  L 74.24 118.25
  Q 74.48 118.24 74.48 118.00
  L 74.48 107.05
  Q 74.48 106.55 73.98 106.47
  Q 71.08 105.99 70.50 109.06
  A 0.42 0.42 0.0 0 1 69.74 109.22
  L 68.18 106.98
  Q 67.81 106.45 67.18 106.47
  L 65.73 106.50
  A 0.52 0.52 0.0 0 0 65.22 107.02
  L 65.23 118.00
  Q 65.23 118.27 65.50 118.27
  L 67.24 118.29
  Q 67.61 118.29 67.61 117.92
  L 67.54 111.53
  Q 67.53 110.54 68.09 111.36"
/>
<path stroke="#86c2a2" vector-effect="non-scaling-stroke" d="
  M 79.47 114.28
  C 80.60 114.52 81.83 114.56 82.75 113.71
  C 84.71 111.91 84.86 108.49 82.47 107.00
  C 80.98 106.06 78.93 106.69 77.22 106.41
  Q 76.50 106.29 76.50 107.02
  L 76.48 117.77
  Q 76.48 118.29 77.00 118.31
  Q 77.96 118.36 78.68 118.15
  Q 78.96 118.08 78.95 117.79
  L 78.84 114.81
  Q 78.82 114.15 79.47 114.28"
/>
<path stroke="#86c2a2" vector-effect="non-scaling-stroke" d="
  M 94.21 55.09
  A 0.34 0.34 0.0 0 0 94.75 54.82
  L 94.76 45.31
  A 0.34 0.34 0.0 0 0 94.42 44.97
  L 81.59 44.96
  A 0.34 0.34 0.0 0 0 81.39 45.57
  L 94.21 55.09"
/>
<path stroke="#86c2a2" vector-effect="non-scaling-stroke" d="
  M 78.75 46.10
  A 0.31 0.31 0.0 0 0 78.25 46.35
  L 78.25 56.02
  A 0.31 0.31 0.0 0 0 78.56 56.33
  L 91.44 56.29
  A 0.31 0.31 0.0 0 0 91.63 55.73
  L 78.75 46.10"
/>
<path stroke="#86c2a2" vector-effect="non-scaling-stroke" d="
  M 73.24 55.14
  A 0.32 0.32 0.0 0 0 73.75 54.88
  L 73.75 45.35
  A 0.32 0.32 0.0 0 0 73.43 45.03
  L 60.59 44.98
  A 0.32 0.32 0.0 0 0 60.40 45.56
  L 73.24 55.14"
/>
<path stroke="#86c2a2" vector-effect="non-scaling-stroke" d="
  M 57.73 46.11
  A 0.31 0.31 0.0 0 0 57.24 46.36
  L 57.23 56.00
  A 0.31 0.31 0.0 0 0 57.54 56.31
  L 70.51 56.31
  A 0.31 0.31 0.0 0 0 70.70 55.75
  L 57.73 46.11"
/>
<path stroke="#86c2a2" vector-effect="non-scaling-stroke" d="
  M 117.3500 91.1900
  A 8.85 6.82 90.0 0 0 124.1700 82.3400
  A 8.85 6.82 90.0 0 0 117.3500 73.4900
  A 8.85 6.82 90.0 0 0 110.5300 82.3400
  A 8.85 6.82 90.0 0 0 117.3500 91.1900"
/>
<path stroke="#86c2a2" vector-effect="non-scaling-stroke" d="
  M 37.40 83.97
  A 0.36 0.36 0.0 0 0 37.75 84.43
  L 42.59 84.41
  A 0.36 0.36 0.0 0 0 42.93 83.94
  L 40.47 76.04
  A 0.36 0.36 0.0 0 0 39.78 76.04
  L 37.40 83.97"
/>
<path stroke="#86c2a2" vector-effect="non-scaling-stroke" d="
  M 87.24 74.30
  L 87.24 79.92
  A 0.42 0.42 0.0 0 0 87.67 80.34
  L 92.80 80.33
  A 3.21 3.09 -0.1 0 0 96.00 77.23
  L 96.00 76.95
  A 3.21 3.09 -0.1 0 0 92.78 73.87
  L 87.65 73.88
  A 0.42 0.42 0.0 0 0 87.24 74.30"
/>
<path stroke="#86c2a2" vector-effect="non-scaling-stroke" d="
  M 137.0414 74.3499
  A 2.73 1.96 90.6 0 0 139.0299 71.6405
  A 2.73 1.96 90.6 0 0 137.0986 68.8901
  A 2.73 1.96 90.6 0 0 135.1101 71.5995
  A 2.73 1.96 90.6 0 0 137.0414 74.3499"
/>
<path stroke="#86c2a2" vector-effect="non-scaling-stroke" d="
  M 136.49 71.65
  Q 136.06 72.47 136.98 72.62
  Q 138.03 72.81 137.72 71.78
  Q 137.57 71.27 137.79 70.82
  Q 138.07 70.28 137.50 70.05
  Q 137.02 69.86 136.52 69.89
  Q 136.14 69.91 136.15 70.28
  Q 136.16 70.59 136.38 70.83
  Q 136.72 71.20 136.49 71.65"
/>
<path stroke="#86c2a2" vector-effect="non-scaling-stroke" d="
  M 90.1415 115.7000
  A 3.30 2.47 89.8 0 0 92.6000 112.3914
  A 3.30 2.47 89.8 0 0 90.1185 109.1000
  A 3.30 2.47 89.8 0 0 87.6600 112.4086
  A 3.30 2.47 89.8 0 0 90.1415 115.7000"
/>
<path stroke="#86c2a2" vector-effect="non-scaling-stroke" d="
  M 58.31 112.93
  Q 58.26 113.22 58.54 113.33
  Q 58.96 113.49 59.40 113.41
  Q 60.07 113.30 59.94 112.64
  Q 59.71 111.48 59.24 110.48
  Q 58.88 109.71 58.73 110.55
  L 58.31 112.93"
/>
<path stroke="#86c2a2" vector-effect="non-scaling-stroke" d="
  M 81.9049 109.9538
  A 0.72 0.72 0.0 0 0 81.1774 109.2414
  L 79.5175 109.2588
  A 0.72 0.72 0.0 0 0 78.8051 109.9863
  L 78.8151 110.9462
  A 0.72 0.72 0.0 0 0 79.5426 111.6586
  L 81.2025 111.6412
  A 0.72 0.72 0.0 0 0 81.9149 110.9137
  L 81.9049 109.9538"
/>
</g>
<path fill="#ffffff" d="
  M 0.00 0.00
  L 150.00 0.00
  L 150.00 150.00
  L 0.00 150.00
  L 0.00 0.00
  Z
  M 87.05 42.87
  L 76.99 42.77
  A 0.49 0.48 0.0 0 0 76.49 43.26
  L 76.51 58.00
  A 0.49 0.49 0.0 0 0 77.00 58.49
  L 96.06 58.49
  A 0.56 0.55 -0.0 0 0 96.62 57.94
  L 96.63 43.43
  Q 96.63 42.80 96.00 42.80
  C 93.84 42.80 91.91 42.98 89.82 42.22
  Q 79.01 38.32 74.86 37.21
  Q 64.71 34.50 54.82 30.81
  Q 54.29 30.61 54.27 30.04
  L 54.21 27.50
  Q 54.19 26.77 53.46 26.76
  L 52.94 26.76
  Q 52.63 26.75 52.62 27.06
  L 52.54 57.75
  Q 52.54 58.59 53.37 58.46
  L 53.72 58.40
  A 0.64 0.63 85.8 0 0 54.26 57.77
  L 54.25 32.20
  A 0.39 0.39 0.0 0 1 54.78 31.83
  Q 65.87 35.86 77.25 39.07
  Q 82.50 40.55 87.15 42.32
  Q 88.61 42.88 87.05 42.87
  Z
  M 75.5971 43.2425
  A 0.47 0.47 0.0 0 0 75.1263 42.7733
  L 55.9663 42.8067
  A 0.47 0.47 0.0 0 0 55.4971 43.2776
  L 55.5229 58.0375
  A 0.47 0.47 0.0 0 0 55.9937 58.5067
  L 75.1537 58.4733
  A 0.47 0.47 0.0 0 0 75.6229 58.0024
  L 75.5971 43.2425
  Z
  M 71.09 86.53
  C 71.29 88.04 71.18 89.59 69.61 90.35
  C 59.96 94.98 55.88 79.48 63.20 74.42
  Q 67.03 71.76 70.83 75.37
  A 0.39 0.38 -43.2 0 0 71.35 75.38
  L 76.01 71.28
  Q 76.18 71.13 76.02 70.97
  C 64.81 59.02 51.96 70.93 53.04 83.87
  Q 53.60 90.62 58.00 95.06
  C 63.42 100.56 71.17 99.50 76.02 93.59
  Q 77.40 91.91 77.33 89.59
  Q 77.15 83.83 77.29 79.32
  Q 77.32 78.57 76.57 78.58
  L 64.95 78.59
  Q 64.25 78.59 64.25 79.30
  L 64.25 85.42
  A 0.66 0.66 0.0 0 0 64.92 86.08
  L 70.47 85.99
  Q 71.02 85.98 71.09 86.53
  Z
  M 117.2635 98.5699
  A 16.20 13.27 90.2 0 0 130.5899 82.4163
  A 16.20 13.27 90.2 0 0 117.3765 66.1701
  A 16.20 13.27 90.2 0 0 104.0501 82.3237
  A 16.20 13.27 90.2 0 0 117.2635 98.5699
  Z
  M 23.96 67.00
  A 0.47 0.47 0.0 0 0 23.49 66.53
  L 18.23 66.53
  A 0.47 0.47 0.0 0 0 17.76 67.00
  L 17.76 97.76
  A 0.47 0.47 0.0 0 0 18.23 98.23
  L 23.49 98.23
  A 0.47 0.47 0.0 0 0 23.96 97.76
  L 23.96 67.00
  Z
  M 34.81 91.98
  A 0.55 0.55 0.0 0 1 35.33 91.61
  L 45.23 91.57
  A 0.55 0.55 0.0 0 1 45.76 91.98
  L 47.36 97.83
  A 0.55 0.55 0.0 0 0 47.89 98.24
  L 53.46 98.22
  A 0.55 0.55 0.0 0 0 53.98 97.50
  L 44.16 66.93
  A 0.55 0.55 0.0 0 0 43.64 66.55
  L 36.72 66.52
  A 0.55 0.55 0.0 0 0 36.20 66.90
  L 26.31 97.54
  A 0.55 0.55 0.0 0 0 26.84 98.26
  L 32.28 98.23
  A 0.55 0.55 0.0 0 0 32.80 97.86
  L 34.81 91.98
  Z
  M 97.34 86.86
  Q 104.74 80.32 100.84 71.73
  C 99.65 69.12 96.76 66.73 93.89 66.68
  Q 88.14 66.56 81.60 66.66
  Q 81.03 66.67 81.03 67.25
  L 81.04 97.96
  Q 81.04 98.23 81.30 98.23
  L 87.00 98.24
  Q 87.24 98.24 87.24 98.00
  L 87.25 88.47
  Q 87.25 87.86 87.84 87.75
  Q 88.76 87.59 89.59 87.78
  Q 90.00 87.88 90.19 88.25
  L 95.23 98.03
  A 0.33 0.32 76.6 0 0 95.52 98.21
  Q 98.98 98.31 102.50 98.14
  A 0.12 0.11 -15.7 0 0 102.60 97.97
  L 97.18 87.72
  Q 96.92 87.23 97.34 86.86
  Z
  M 136.9920 75.3095
  A 3.69 3.06 90.9 0 0 140.1096 71.6681
  A 3.69 3.06 90.9 0 0 137.1080 67.9305
  A 3.69 3.06 90.9 0 0 133.9904 71.5719
  A 3.69 3.06 90.9 0 0 136.9920 75.3095
  Z
  M 49.75 115.73
  C 46.42 114.84 46.53 110.28 49.57 109.06
  Q 50.04 108.88 50.47 109.14
  L 51.22 109.59
  Q 51.67 109.86 52.09 109.54
  L 53.20 108.71
  A 0.57 0.57 0.0 0 0 53.29 107.88
  C 50.98 105.24 47.50 105.98 45.87 108.92
  Q 43.72 112.79 46.23 116.45
  C 47.96 118.97 51.44 119.37 53.31 116.80
  Q 53.66 116.32 53.21 115.93
  L 52.24 115.09
  Q 51.82 114.72 51.38 115.06
  L 50.77 115.53
  Q 50.31 115.89 49.75 115.73
  Z
  M 90.0575 118.4899
  A 6.09 4.90 90.4 0 0 94.9999 112.4342
  A 6.09 4.90 90.4 0 0 90.1425 106.3101
  A 6.09 4.90 90.4 0 0 85.2001 112.3658
  A 6.09 4.90 90.4 0 0 90.0575 118.4899
  Z
  M 98.68 109.45
  Q 99.78 108.75 101.00 109.55
  Q 101.52 109.90 101.97 109.46
  L 102.99 108.45
  Q 103.46 107.98 102.96 107.55
  C 97.27 102.63 92.63 112.83 100.07 113.64
  Q 100.85 113.72 100.86 114.51
  L 100.87 114.78
  A 0.95 0.94 -86.4 0 1 99.79 115.74
  Q 98.70 115.58 97.86 114.93
  Q 97.16 114.39 96.69 115.14
  L 96.36 115.66
  A 1.24 1.23 38.6 0 0 96.54 117.19
  C 100.05 120.65 105.70 116.76 102.73 112.28
  A 1.68 1.67 -6.4 0 0 101.92 111.64
  L 98.80 110.53
  A 0.60 0.60 0.0 0 1 98.68 109.45
  Z
  M 61.42 116.48
  L 61.55 117.58
  A 0.79 0.78 -3.3 0 0 62.33 118.27
  L 63.78 118.27
  Q 64.51 118.27 64.24 117.59
  Q 62.24 112.61 60.92 107.05
  Q 60.79 106.49 60.22 106.49
  L 58.40 106.48
  Q 57.69 106.48 57.47 107.15
  Q 56.27 110.76 55.15 114.67
  Q 54.71 116.20 53.98 117.54
  A 0.53 0.52 -70.1 0 0 54.33 118.30
  Q 55.01 118.44 55.71 118.36
  Q 56.28 118.29 56.46 117.75
  L 56.95 116.29
  Q 57.13 115.75 57.70 115.75
  L 60.62 115.77
  Q 61.34 115.77 61.42 116.48
  Z
  M 68.09 111.36
  L 69.76 113.80
  Q 70.09 114.29 70.32 113.75
  Q 70.88 112.38 71.82 111.09
  Q 72.37 110.32 72.36 111.26
  L 72.29 117.82
  Q 72.28 118.37 72.82 118.34
  L 74.24 118.25
  Q 74.48 118.24 74.48 118.00
  L 74.48 107.05
  Q 74.48 106.55 73.98 106.47
  Q 71.08 105.99 70.50 109.06
  A 0.42 0.42 0.0 0 1 69.74 109.22
  L 68.18 106.98
  Q 67.81 106.45 67.18 106.47
  L 65.73 106.50
  A 0.52 0.52 0.0 0 0 65.22 107.02
  L 65.23 118.00
  Q 65.23 118.27 65.50 118.27
  L 67.24 118.29
  Q 67.61 118.29 67.61 117.92
  L 67.54 111.53
  Q 67.53 110.54 68.09 111.36
  Z
  M 79.47 114.28
  C 80.60 114.52 81.83 114.56 82.75 113.71
  C 84.71 111.91 84.86 108.49 82.47 107.00
  C 80.98 106.06 78.93 106.69 77.22 106.41
  Q 76.50 106.29 76.50 107.02
  L 76.48 117.77
  Q 76.48 118.29 77.00 118.31
  Q 77.96 118.36 78.68 118.15
  Q 78.96 118.08 78.95 117.79
  L 78.84 114.81
  Q 78.82 114.15 79.47 114.28
  Z"
/>
<path fill="#0d8545" d="
  M 87.15 42.32
  Q 82.50 40.55 77.25 39.07
  Q 65.87 35.86 54.78 31.83
  A 0.39 0.39 0.0 0 0 54.25 32.20
  L 54.26 57.77
  A 0.64 0.63 85.8 0 1 53.72 58.40
  L 53.37 58.46
  Q 52.54 58.59 52.54 57.75
  L 52.62 27.06
  Q 52.63 26.75 52.94 26.76
  L 53.46 26.76
  Q 54.19 26.77 54.21 27.50
  L 54.27 30.04
  Q 54.29 30.61 54.82 30.81
  Q 64.71 34.50 74.86 37.21
  Q 79.01 38.32 89.82 42.22
  C 91.91 42.98 93.84 42.80 96.00 42.80
  Q 96.63 42.80 96.63 43.43
  L 96.62 57.94
  A 0.56 0.55 0.0 0 1 96.06 58.49
  L 77.00 58.49
  A 0.49 0.49 0.0 0 1 76.51 58.00
  L 76.49 43.26
  A 0.49 0.48 0.0 0 1 76.99 42.77
  L 87.05 42.87
  Q 88.61 42.88 87.15 42.32
  Z
  M 94.21 55.09
  A 0.34 0.34 0.0 0 0 94.75 54.82
  L 94.76 45.31
  A 0.34 0.34 0.0 0 0 94.42 44.97
  L 81.59 44.96
  A 0.34 0.34 0.0 0 0 81.39 45.57
  L 94.21 55.09
  Z
  M 78.75 46.10
  A 0.31 0.31 0.0 0 0 78.25 46.35
  L 78.25 56.02
  A 0.31 0.31 0.0 0 0 78.56 56.33
  L 91.44 56.29
  A 0.31 0.31 0.0 0 0 91.63 55.73
  L 78.75 46.10
  Z"
/>
<path fill="#0d8545" d="
  M 75.6229 58.0024
  A 0.47 0.47 0.0 0 1 75.1537 58.4733
  L 55.9937 58.5067
  A 0.47 0.47 0.0 0 1 55.5229 58.0375
  L 55.4971 43.2776
  A 0.47 0.47 0.0 0 1 55.9663 42.8067
  L 75.1263 42.7733
  A 0.47 0.47 0.0 0 1 75.5971 43.2425
  L 75.6229 58.0024
  Z
  M 73.24 55.14
  A 0.32 0.32 0.0 0 0 73.75 54.88
  L 73.75 45.35
  A 0.32 0.32 0.0 0 0 73.43 45.03
  L 60.59 44.98
  A 0.32 0.32 0.0 0 0 60.40 45.56
  L 73.24 55.14
  Z
  M 57.73 46.11
  A 0.31 0.31 0.0 0 0 57.24 46.36
  L 57.23 56.00
  A 0.31 0.31 0.0 0 0 57.54 56.31
  L 70.51 56.31
  A 0.31 0.31 0.0 0 0 70.70 55.75
  L 57.73 46.11
  Z"
/>
<path fill="#ffffff" d="
  M 73.24 55.14
  L 60.40 45.56
  A 0.32 0.32 0.0 0 1 60.59 44.98
  L 73.43 45.03
  A 0.32 0.32 0.0 0 1 73.75 45.35
  L 73.75 54.88
  A 0.32 0.32 0.0 0 1 73.24 55.14
  Z"
/>
<path fill="#ffffff" d="
  M 94.21 55.09
  L 81.39 45.57
  A 0.34 0.34 0.0 0 1 81.59 44.96
  L 94.42 44.97
  A 0.34 0.34 0.0 0 1 94.76 45.31
  L 94.75 54.82
  A 0.34 0.34 0.0 0 1 94.21 55.09
  Z"
/>
<path fill="#ffffff" d="
  M 57.73 46.11
  L 70.70 55.75
  A 0.31 0.31 0.0 0 1 70.51 56.31
  L 57.54 56.31
  A 0.31 0.31 0.0 0 1 57.23 56.00
  L 57.24 46.36
  A 0.31 0.31 0.0 0 1 57.73 46.11
  Z"
/>
<path fill="#ffffff" d="
  M 78.75 46.10
  L 91.63 55.73
  A 0.31 0.31 0.0 0 1 91.44 56.29
  L 78.56 56.33
  A 0.31 0.31 0.0 0 1 78.25 56.02
  L 78.25 46.35
  A 0.31 0.31 0.0 0 1 78.75 46.10
  Z"
/>
<path fill="#0d8545" d="
  M 70.47 85.99
  L 64.92 86.08
  A 0.66 0.66 0.0 0 1 64.25 85.42
  L 64.25 79.30
  Q 64.25 78.59 64.95 78.59
  L 76.57 78.58
  Q 77.32 78.57 77.29 79.32
  Q 77.15 83.83 77.33 89.59
  Q 77.40 91.91 76.02 93.59
  C 71.17 99.50 63.42 100.56 58.00 95.06
  Q 53.60 90.62 53.04 83.87
  C 51.96 70.93 64.81 59.02 76.02 70.97
  Q 76.18 71.13 76.01 71.28
  L 71.35 75.38
  A 0.39 0.38 -43.2 0 1 70.83 75.37
  Q 67.03 71.76 63.20 74.42
  C 55.88 79.48 59.96 94.98 69.61 90.35
  C 71.18 89.59 71.29 88.04 71.09 86.53
  Q 71.02 85.98 70.47 85.99
  Z"
/>
<path fill="#0d8545" d="
  M 117.2635 98.5699
  A 16.20 13.27 90.2 0 1 104.0501 82.3237
  A 16.20 13.27 90.2 0 1 117.3765 66.1701
  A 16.20 13.27 90.2 0 1 130.5899 82.4163
  A 16.20 13.27 90.2 0 1 117.2635 98.5699
  Z
  M 117.3500 91.1900
  A 8.85 6.82 90.0 0 0 124.1700 82.3400
  A 8.85 6.82 90.0 0 0 117.3500 73.4900
  A 8.85 6.82 90.0 0 0 110.5300 82.3400
  A 8.85 6.82 90.0 0 0 117.3500 91.1900
  Z"
/>
<rect fill="#0d8545" x="17.76" y="66.53" width="6.20" height="31.70" rx="0.47"/>
<path fill="#0d8545" d="
  M 34.81 91.98
  L 32.80 97.86
  A 0.55 0.55 0.0 0 1 32.28 98.23
  L 26.84 98.26
  A 0.55 0.55 0.0 0 1 26.31 97.54
  L 36.20 66.90
  A 0.55 0.55 0.0 0 1 36.72 66.52
  L 43.64 66.55
  A 0.55 0.55 0.0 0 1 44.16 66.93
  L 53.98 97.50
  A 0.55 0.55 0.0 0 1 53.46 98.22
  L 47.89 98.24
  A 0.55 0.55 0.0 0 1 47.36 97.83
  L 45.76 91.98
  A 0.55 0.55 0.0 0 0 45.23 91.57
  L 35.33 91.61
  A 0.55 0.55 0.0 0 0 34.81 91.98
  Z
  M 37.40 83.97
  A 0.36 0.36 0.0 0 0 37.75 84.43
  L 42.59 84.41
  A 0.36 0.36 0.0 0 0 42.93 83.94
  L 40.47 76.04
  A 0.36 0.36 0.0 0 0 39.78 76.04
  L 37.40 83.97
  Z"
/>
<path fill="#0d8545" d="
  M 97.18 87.72
  L 102.60 97.97
  A 0.12 0.11 -15.7 0 1 102.50 98.14
  Q 98.98 98.31 95.52 98.21
  A 0.33 0.32 76.6 0 1 95.23 98.03
  L 90.19 88.25
  Q 90.00 87.88 89.59 87.78
  Q 88.76 87.59 87.84 87.75
  Q 87.25 87.86 87.25 88.47
  L 87.24 98.00
  Q 87.24 98.24 87.00 98.24
  L 81.30 98.23
  Q 81.04 98.23 81.04 97.96
  L 81.03 67.25
  Q 81.03 66.67 81.60 66.66
  Q 88.14 66.56 93.89 66.68
  C 96.76 66.73 99.65 69.12 100.84 71.73
  Q 104.74 80.32 97.34 86.86
  Q 96.92 87.23 97.18 87.72
  Z
  M 87.24 74.30
  L 87.24 79.92
  A 0.42 0.42 0.0 0 0 87.67 80.34
  L 92.80 80.33
  A 3.21 3.09 -0.1 0 0 96.00 77.23
  L 96.00 76.95
  A 3.21 3.09 -0.1 0 0 92.78 73.87
  L 87.65 73.88
  A 0.42 0.42 0.0 0 0 87.24 74.30
  Z"
/>
<path fill="#0d8545" d="
  M 136.9920 75.3095
  A 3.69 3.06 90.9 0 1 133.9904 71.5719
  A 3.69 3.06 90.9 0 1 137.1080 67.9305
  A 3.69 3.06 90.9 0 1 140.1096 71.6681
  A 3.69 3.06 90.9 0 1 136.9920 75.3095
  Z
  M 137.0414 74.3499
  A 2.73 1.96 90.6 0 0 139.0299 71.6405
  A 2.73 1.96 90.6 0 0 137.0986 68.8901
  A 2.73 1.96 90.6 0 0 135.1101 71.5995
  A 2.73 1.96 90.6 0 0 137.0414 74.3499
  Z"
/>
<path fill="#ffffff" d="
  M 137.0414 74.3499
  A 2.73 1.96 90.6 0 1 135.1101 71.5995
  A 2.73 1.96 90.6 0 1 137.0986 68.8901
  A 2.73 1.96 90.6 0 1 139.0299 71.6405
  A 2.73 1.96 90.6 0 1 137.0414 74.3499
  Z
  M 136.49 71.65
  Q 136.06 72.47 136.98 72.62
  Q 138.03 72.81 137.72 71.78
  Q 137.57 71.27 137.79 70.82
  Q 138.07 70.28 137.50 70.05
  Q 137.02 69.86 136.52 69.89
  Q 136.14 69.91 136.15 70.28
  Q 136.16 70.59 136.38 70.83
  Q 136.72 71.20 136.49 71.65
  Z"
/>
<path fill="#0d8545" d="
  M 136.38 70.83
  Q 136.16 70.59 136.15 70.28
  Q 136.14 69.91 136.52 69.89
  Q 137.02 69.86 137.50 70.05
  Q 138.07 70.28 137.79 70.82
  Q 137.57 71.27 137.72 71.78
  Q 138.03 72.81 136.98 72.62
  Q 136.06 72.47 136.49 71.65
  Q 136.72 71.20 136.38 70.83
  Z"
/>
<ellipse fill="#ffffff" cx="0.00" cy="0.00" transform="translate(117.35,82.34) rotate(90.0)" rx="8.85" ry="6.82"/>
<path fill="#ffffff" d="
  M 87.24 74.30
  A 0.42 0.42 0.0 0 1 87.65 73.88
  L 92.78 73.87
  A 3.21 3.09 -0.1 0 1 96.00 76.95
  L 96.00 77.23
  A 3.21 3.09 -0.1 0 1 92.80 80.33
  L 87.67 80.34
  A 0.42 0.42 0.0 0 1 87.24 79.92
  L 87.24 74.30
  Z"
/>
<path fill="#ffffff" d="
  M 37.40 83.97
  L 39.78 76.04
  A 0.36 0.36 0.0 0 1 40.47 76.04
  L 42.93 83.94
  A 0.36 0.36 0.0 0 1 42.59 84.41
  L 37.75 84.43
  A 0.36 0.36 0.0 0 1 37.40 83.97
  Z"
/>
<path fill="#0d8545" d="
  M 50.77 115.53
  L 51.38 115.06
  Q 51.82 114.72 52.24 115.09
  L 53.21 115.93
  Q 53.66 116.32 53.31 116.80
  C 51.44 119.37 47.96 118.97 46.23 116.45
  Q 43.72 112.79 45.87 108.92
  C 47.50 105.98 50.98 105.24 53.29 107.88
  A 0.57 0.57 0.0 0 1 53.20 108.71
  L 52.09 109.54
  Q 51.67 109.86 51.22 109.59
  L 50.47 109.14
  Q 50.04 108.88 49.57 109.06
  C 46.53 110.28 46.42 114.84 49.75 115.73
  Q 50.31 115.89 50.77 115.53
  Z"
/>
<path fill="#0d8545" d="
  M 90.0575 118.4899
  A 6.09 4.90 90.4 0 1 85.2001 112.3658
  A 6.09 4.90 90.4 0 1 90.1425 106.3101
  A 6.09 4.90 90.4 0 1 94.9999 112.4342
  A 6.09 4.90 90.4 0 1 90.0575 118.4899
  Z
  M 90.1415 115.7000
  A 3.30 2.47 89.8 0 0 92.6000 112.3914
  A 3.30 2.47 89.8 0 0 90.1185 109.1000
  A 3.30 2.47 89.8 0 0 87.6600 112.4086
  A 3.30 2.47 89.8 0 0 90.1415 115.7000
  Z"
/>
<path fill="#0d8545" d="
  M 98.68 109.45
  A 0.60 0.60 0.0 0 0 98.80 110.53
  L 101.92 111.64
  A 1.68 1.67 -6.4 0 1 102.73 112.28
  C 105.70 116.76 100.05 120.65 96.54 117.19
  A 1.24 1.23 38.6 0 1 96.36 115.66
  L 96.69 115.14
  Q 97.16 114.39 97.86 114.93
  Q 98.70 115.58 99.79 115.74
  A 0.95 0.94 -86.4 0 0 100.87 114.78
  L 100.86 114.51
  Q 100.85 113.72 100.07 113.64
  C 92.63 112.83 97.27 102.63 102.96 107.55
  Q 103.46 107.98 102.99 108.45
  L 101.97 109.46
  Q 101.52 109.90 101.00 109.55
  Q 99.78 108.75 98.68 109.45
  Z"
/>
<path fill="#0d8545" d="
  M 60.62 115.77
  L 57.70 115.75
  Q 57.13 115.75 56.95 116.29
  L 56.46 117.75
  Q 56.28 118.29 55.71 118.36
  Q 55.01 118.44 54.33 118.30
  A 0.53 0.52 -70.1 0 1 53.98 117.54
  Q 54.71 116.20 55.15 114.67
  Q 56.27 110.76 57.47 107.15
  Q 57.69 106.48 58.40 106.48
  L 60.22 106.49
  Q 60.79 106.49 60.92 107.05
  Q 62.24 112.61 64.24 117.59
  Q 64.51 118.27 63.78 118.27
  L 62.33 118.27
  A 0.79 0.78 -3.3 0 1 61.55 117.58
  L 61.42 116.48
  Q 61.34 115.77 60.62 115.77
  Z
  M 58.31 112.93
  Q 58.26 113.22 58.54 113.33
  Q 58.96 113.49 59.40 113.41
  Q 60.07 113.30 59.94 112.64
  Q 59.71 111.48 59.24 110.48
  Q 58.88 109.71 58.73 110.55
  L 58.31 112.93
  Z"
/>
<path fill="#0d8545" d="
  M 67.54 111.53
  L 67.61 117.92
  Q 67.61 118.29 67.24 118.29
  L 65.50 118.27
  Q 65.23 118.27 65.23 118.00
  L 65.22 107.02
  A 0.52 0.52 0.0 0 1 65.73 106.50
  L 67.18 106.47
  Q 67.81 106.45 68.18 106.98
  L 69.74 109.22
  A 0.42 0.42 0.0 0 0 70.50 109.06
  Q 71.08 105.99 73.98 106.47
  Q 74.48 106.55 74.48 107.05
  L 74.48 118.00
  Q 74.48 118.24 74.24 118.25
  L 72.82 118.34
  Q 72.28 118.37 72.29 117.82
  L 72.36 111.26
  Q 72.37 110.32 71.82 111.09
  Q 70.88 112.38 70.32 113.75
  Q 70.09 114.29 69.76 113.80
  L 68.09 111.36
  Q 67.53 110.54 67.54 111.53
  Z"
/>
<path fill="#0d8545" d="
  M 78.84 114.81
  L 78.95 117.79
  Q 78.96 118.08 78.68 118.15
  Q 77.96 118.36 77.00 118.31
  Q 76.48 118.29 76.48 117.77
  L 76.50 107.02
  Q 76.50 106.29 77.22 106.41
  C 78.93 106.69 80.98 106.06 82.47 107.00
  C 84.86 108.49 84.71 111.91 82.75 113.71
  C 81.83 114.56 80.60 114.52 79.47 114.28
  Q 78.82 114.15 78.84 114.81
  Z
  M 81.9049 109.9538
  A 0.72 0.72 0.0 0 0 81.1774 109.2414
  L 79.5175 109.2588
  A 0.72 0.72 0.0 0 0 78.8051 109.9863
  L 78.8151 110.9462
  A 0.72 0.72 0.0 0 0 79.5426 111.6586
  L 81.2025 111.6412
  A 0.72 0.72 0.0 0 0 81.9149 110.9137
  L 81.9049 109.9538
  Z"
/>
<ellipse fill="#ffffff" cx="0.00" cy="0.00" transform="translate(90.13,112.40) rotate(89.8)" rx="3.30" ry="2.47"/>
<rect fill="#ffffff" x="-1.55" y="-1.20" transform="translate(80.36,110.45) rotate(-0.6)" width="3.10" height="2.40" rx="0.72"/>
<path fill="#ffffff" d="
  M 58.31 112.93
  L 58.73 110.55
  Q 58.88 109.71 59.24 110.48
  Q 59.71 111.48 59.94 112.64
  Q 60.07 113.30 59.40 113.41
  Q 58.96 113.49 58.54 113.33
  Q 58.26 113.22 58.31 112.93
  Z"
/>
</svg>
