<?xml version="1.0" encoding="UTF-8" standalone="no"?>
<!DOCTYPE svg PUBLIC "-//W3C//DTD SVG 1.1//EN" "http://www.w3.org/Graphics/SVG/1.1/DTD/svg11.dtd">
<svg xmlns="http://www.w3.org/2000/svg" version="1.1" viewBox="0.00 0.00 320.00 320.00">
<g stroke-width="2.00" fill="none" stroke-linecap="butt">
<path stroke="#8696a8" vector-effect="non-scaling-stroke" d="
  M 100.77 118.84
  C 120.02 127.89 140.71 111.82 136.42 91.01
  C 132.31 71.02 105.85 64.27 92.83 80.16
  Q 83.89 91.09 88.36 104.91
  C 89.02 106.93 90.26 108.71 91.07 110.66
  Q 91.28 111.17 91.15 111.71
  Q 85.79 134.01 94.78 154.89
  C 102.92 173.78 117.33 184.32 136.87 188.56
  C 150.28 191.46 164.62 193.12 177.85 190.46
  A 0.36 0.36 0.0 0 0 178.12 189.99
  L 178.02 189.68
  Q 177.94 189.43 177.69 189.45
  C 166.26 190.39 155.64 188.79 144.68 186.22
  C 126.99 182.07 112.59 174.28 104.41 157.95
  Q 95.56 140.28 99.96 119.25
  Q 100.11 118.53 100.77 118.84"
/>
<path stroke="#8696a8" vector-effect="non-scaling-stroke" d="
  M 193.46 229.40
  L 175.06 229.34
  Q 174.35 229.34 174.33 230.05
  L 174.28 232.00
  Q 174.26 232.73 175.00 232.73
  L 231.11 232.73
  Q 231.70 232.73 231.70 232.14
  L 231.70 229.99
  Q 231.70 229.35 231.05 229.35
  L 215.69 229.34
  Q 214.99 229.34 214.74 228.69
  L 165.89 100.23
  Q 165.69 99.71 165.15 99.58
  Q 164.26 99.37 163.35 99.58
  Q 162.81 99.70 162.62 100.23
  L 134.52 178.49
  A 0.62 0.61 16.1 0 0 134.97 179.30
  L 137.04 179.73
  Q 137.76 179.88 138.00 179.19
  L 155.48 129.74
  A 0.43 0.43 0.0 0 1 156.16 129.54
  Q 156.60 129.88 156.80 130.42
  Q 175.01 179.78 193.84 228.85
  A 0.41 0.40 80.1 0 1 193.46 229.40"
/>
<path stroke="#8696a8" vector-effect="non-scaling-stroke" d="
  M 141.26 229.36
  C 137.00 229.58 121.49 231.11 122.99 222.94
  Q 123.77 218.68 125.40 214.20
  Q 129.69 202.40 133.15 192.65
  Q 133.45 191.79 132.61 191.43
  L 131.00 190.75
  Q 130.17 190.39 129.88 191.24
  Q 122.97 211.29 118.48 222.57
  C 115.28 230.59 108.00 229.24 101.11 229.41
  Q 100.74 229.42 100.74 229.78
  L 100.74 232.22
  Q 100.74 232.69 101.22 232.69
  L 141.18 232.72
  Q 142.07 232.72 142.11 231.83
  L 142.18 230.28
  Q 142.23 229.31 141.26 229.36"
/>
</g>
<path fill="#0c2d50" d="
  M 0.00 0.00
  L 320.00 0.00
  L 320.00 320.00
  L 0.00 320.00
  L 0.00 0.00
  Z
  M 100.77 118.84
  C 120.02 127.89 140.71 111.82 136.42 91.01
  C 132.31 71.02 105.85 64.27 92.83 80.16
  Q 83.89 91.09 88.36 104.91
  C 89.02 106.93 90.26 108.71 91.07 110.66
  Q 91.28 111.17 91.15 111.71
  Q 85.79 134.01 94.78 154.89
  C 102.92 173.78 117.33 184.32 136.87 188.56
  C 150.28 191.46 164.62 193.12 177.85 190.46
  A 0.36 0.36 0.0 0 0 178.12 189.99
  L 178.02 189.68
  Q 177.94 189.43 177.69 189.45
  C 166.26 190.39 155.64 188.79 144.68 186.22
  C 126.99 182.07 112.59 174.28 104.41 157.95
  Q 95.56 140.28 99.96 119.25
  Q 100.11 118.53 100.77 118.84
  Z
  M 193.46 229.40
  L 175.06 229.34
  Q 174.35 229.34 174.33 230.05
  L 174.28 232.00
  Q 174.26 232.73 175.00 232.73
  L 231.11 232.73
  Q 231.70 232.73 231.70 232.14
  L 231.70 229.99
  Q 231.70 229.35 231.05 229.35
  L 215.69 229.34
  Q 214.99 229.34 214.74 228.69
  L 165.89 100.23
  Q 165.69 99.71 165.15 99.58
  Q 164.26 99.37 163.35 99.58
  Q 162.81 99.70 162.62 100.23
  L 134.52 178.49
  A 0.62 0.61 16.1 0 0 134.97 179.30
  L 137.04 179.73
  Q 137.76 179.88 138.00 179.19
  L 155.48 129.74
  A 0.43 0.43 0.0 0 1 156.16 129.54
  Q 156.60 129.88 156.80 130.42
  Q 175.01 179.78 193.84 228.85
  A 0.41 0.40 80.1 0 1 193.46 229.40
  Z
  M 141.26 229.36
  C 137.00 229.58 121.49 231.11 122.99 222.94
  Q 123.77 218.68 125.40 214.20
  Q 129.69 202.40 133.15 192.65
  Q 133.45 191.79 132.61 191.43
  L 131.00 190.75
  Q 130.17 190.39 129.88 191.24
  Q 122.97 211.29 118.48 222.57
  C 115.28 230.59 108.00 229.24 101.11 229.41
  Q 100.74 229.42 100.74 229.78
  L 100.74 232.22
  Q 100.74 232.69 101.22 232.69
  L 141.18 232.72
  Q 142.07 232.72 142.11 231.83
  L 142.18 230.28
  Q 142.23 229.31 141.26 229.36
  Z"
/>
<path fill="#ffffff" d="
  M 99.96 119.25
  Q 95.56 140.28 104.41 157.95
  C 112.59 174.28 126.99 182.07 144.68 186.22
  C 155.64 188.79 166.26 190.39 177.69 189.45
  Q 177.94 189.43 178.02 189.68
  L 178.12 189.99
  A 0.36 0.36 0.0 0 1 177.85 190.46
  C 164.62 193.12 150.28 191.46 136.87 188.56
  C 117.33 184.32 102.92 173.78 94.78 154.89
  Q 85.79 134.01 91.15 111.71
  Q 91.28 111.17 91.07 110.66
  C 90.26 108.71 89.02 106.93 88.36 104.91
  Q 83.89 91.09 92.83 80.16
  C 105.85 64.27 132.31 71.02 136.42 91.01
  C 140.71 111.82 120.02 127.89 100.77 118.84
  Q 100.11 118.53 99.96 119.25
  Z"
/>
<path fill="#ffffff" d="
  M 193.46 229.40
  A 0.41 0.40 80.1 0 0 193.84 228.85
  Q 175.01 179.78 156.80 130.42
  Q 156.60 129.88 156.16 129.54
  A 0.43 0.43 0.0 0 0 155.48 129.74
  L 138.00 179.19
  Q 137.76 179.88 137.04 179.73
  L 134.97 179.30
  A 0.62 0.61 16.1 0 1 134.52 178.49
  L 162.62 100.23
  Q 162.81 99.70 163.35 99.58
  Q 164.26 99.37 165.15 99.58
  Q 165.69 99.71 165.89 100.23
  L 214.74 228.69
  Q 214.99 229.34 215.69 229.34
  L 231.05 229.35
  Q 231.70 229.35 231.70 229.99
  L 231.70 232.14
  Q 231.70 232.73 231.11 232.73
  L 175.00 232.73
  Q 174.26 232.73 174.28 232.00
  L 174.33 230.05
  Q 174.35 229.34 175.06 229.34
  L 193.46 229.40
  Z"
/>
<path fill="#ffffff" d="
  M 122.99 222.94
  C 121.49 231.11 137.00 229.58 141.26 229.36
  Q 142.23 229.31 142.18 230.28
  L 142.11 231.83
  Q 142.07 232.72 141.18 232.72
  L 101.22 232.69
  Q 100.74 232.69 100.74 232.22
  L 100.74 229.78
  Q 100.74 229.42 101.11 229.41
  C 108.00 229.24 115.28 230.59 118.48 222.57
  Q 122.97 211.29 129.88 191.24
  Q 130.17 190.39 131.00 190.75
  L 132.61 191.43
  Q 133.45 191.79 133.15 192.65
  Q 129.69 202.40 125.40 214.20
  Q 123.77 218.68 122.99 222.94
  Z"
/>
</svg>
