<?xml version="1.0" encoding="UTF-8" standalone="no"?>
<!DOCTYPE svg PUBLIC "-//W3C//DTD SVG 1.1//EN" "http://www.w3.org/Graphics/SVG/1.1/DTD/svg11.dtd">
<svg xmlns="http://www.w3.org/2000/svg" version="1.1" viewBox="0.00 0.00 900.00 900.00">
<g stroke-width="2.00" fill="none" stroke-linecap="butt">
<path stroke="#808080" vector-effect="non-scaling-stroke" d="
  M 299.69 84.20
  C 318.65 76.24 339.92 76.94 355.38 91.66
  C 359.65 95.72 362.62 101.51 364.24 107.17
  Q 366.96 116.69 368.09 125.83
  Q 370.55 145.81 374.50 164.62
  Q 376.29 173.14 380.62 178.91
  C 386.33 186.51 391.49 193.72 396.20 201.51
  C 399.68 207.25 404.58 213.98 412.19 209.52
  C 415.30 207.70 415.29 200.58 414.89 197.69
  Q 414.38 193.88 414.33 190.45
  Q 414.23 182.53 414.00 174.51
  Q 413.79 167.17 414.95 158.48
  C 416.39 147.64 416.14 136.89 416.22 126.20
  C 416.25 122.46 417.01 118.92 416.63 115.27
  Q 416.23 111.49 416.16 107.63
  Q 416.04 100.68 414.07 92.75
  Q 412.72 87.33 409.92 82.65
  C 400.31 66.60 385.85 55.83 367.81 51.10
  Q 361.04 49.32 357.25 48.85
  Q 352.89 48.30 344.91 48.64
  C 339.95 48.84 333.58 50.22 329.58 52.33
  Q 311.88 61.70 300.37 77.77
  C 299.24 79.33 297.93 80.90 297.78 82.83
  Q 297.62 85.07 299.69 84.20"
/>
<path stroke="#808080" vector-effect="non-scaling-stroke" d="
  M 478.34 178.90
  C 484.27 171.70 485.65 162.34 487.55 153.46
  C 488.19 150.46 488.47 147.50 489.22 144.54
  Q 490.01 141.38 490.49 137.83
  Q 491.17 132.75 491.79 127.78
  Q 492.79 119.81 495.26 110.50
  C 497.16 103.33 499.84 97.06 505.33 92.13
  Q 517.88 80.86 534.32 79.39
  Q 550.52 77.93 566.76 84.30
  A 1.16 1.16 0.0 0 0 568.34 83.12
  Q 568.18 81.35 567.05 79.81
  C 559.17 69.15 550.84 62.36 540.01 55.55
  Q 534.68 52.20 528.07 50.31
  Q 522.30 48.66 516.00 48.54
  Q 508.65 48.41 503.80 48.99
  C 482.13 51.61 463.27 60.78 449.73 78.28
  Q 444.78 84.69 442.65 91.48
  C 441.57 94.93 441.31 98.43 440.52 101.99
  Q 439.75 105.48 439.66 109.61
  Q 439.19 130.48 440.58 150.21
  C 440.75 152.63 441.26 154.88 441.39 157.31
  Q 441.54 159.99 441.84 162.63
  Q 443.23 174.61 441.97 187.00
  Q 441.29 193.66 441.41 200.70
  C 441.48 204.44 441.26 207.66 444.98 209.52
  Q 451.96 213.01 457.10 206.89
  Q 461.46 201.70 467.08 193.54
  Q 471.23 187.52 478.34 178.90"
/>
<path stroke="#808080" vector-effect="non-scaling-stroke" d="
  M 435.85 94.21
  C 436.86 85.31 442.21 78.34 447.88 71.68
  A 0.95 0.95 0.0 0 0 447.86 70.42
  C 445.03 67.34 441.73 63.61 437.79 62.18
  C 430.08 59.38 423.85 60.78 416.46 63.94
  C 413.08 65.39 411.46 67.78 409.05 70.25
  A 1.20 1.20 0.0 0 0 408.95 71.81
  Q 412.56 76.67 415.73 81.72
  Q 419.63 87.93 420.44 97.89
  Q 420.80 102.32 421.16 106.32
  Q 421.55 110.62 421.59 114.86
  Q 421.72 129.10 421.35 135.30
  Q 420.69 146.40 420.62 156.24
  C 420.60 159.68 419.87 162.94 419.81 166.24
  Q 419.58 177.24 419.57 189.20
  Q 419.57 193.53 420.16 196.80
  Q 420.89 200.82 420.74 204.53
  C 420.47 211.01 430.70 210.37 433.79 207.54
  Q 434.74 206.67 434.90 204.65
  Q 435.52 196.43 436.51 188.25
  Q 437.08 183.51 436.29 173.08
  C 435.90 167.93 435.81 162.79 435.46 157.73
  Q 435.06 152.02 434.88 146.25
  Q 434.73 141.80 434.39 137.08
  C 433.88 130.25 434.01 123.70 433.98 116.89
  Q 433.96 111.69 434.55 106.08
  Q 435.18 100.14 435.85 94.21"
/>
<path stroke="#808080" vector-effect="non-scaling-stroke" d="
  M 302.29 148.70
  C 313.63 150.50 323.53 154.74 333.09 161.33
  Q 343.36 168.40 351.04 176.10
  Q 359.57 184.66 367.28 191.47
  Q 375.23 198.48 385.93 203.04
  Q 387.58 203.75 389.30 203.33
  A 0.74 0.74 0.0 0 0 389.77 202.24
  C 385.53 194.90 379.33 188.93 374.99 182.21
  Q 370.68 175.54 368.80 164.37
  C 368.38 161.89 367.54 159.66 367.18 157.17
  C 366.38 151.57 364.94 146.19 364.09 140.53
  Q 362.20 127.91 360.03 115.35
  C 357.25 99.28 347.75 87.95 331.39 84.63
  Q 326.37 83.62 323.51 83.64
  Q 303.66 83.77 288.70 96.43
  C 280.81 103.11 274.40 109.95 271.53 119.82
  Q 270.02 125.04 270.16 132.97
  Q 270.31 141.10 270.22 149.57
  A 1.08 1.08 0.0 0 0 271.53 150.64
  Q 280.36 148.68 288.19 147.84
  Q 292.61 147.37 296.52 147.88
  Q 299.47 148.26 302.29 148.70"
/>
<path stroke="#808080" vector-effect="non-scaling-stroke" d="
  M 474.48 202.05
  Q 487.61 196.59 498.15 186.91
  C 514.71 171.71 532.20 155.80 554.54 150.22
  Q 562.38 148.26 570.32 147.76
  C 578.77 147.22 587.75 148.71 596.50 150.29
  A 1.39 1.39 0.0 0 0 598.13 149.03
  Q 599.13 136.68 597.62 124.42
  C 596.01 111.31 586.12 102.50 576.27 95.02
  Q 566.24 87.39 552.99 84.83
  Q 550.55 84.36 545.68 83.82
  C 540.58 83.26 535.05 83.85 530.35 84.86
  Q 511.12 88.99 503.56 106.13
  Q 500.95 112.05 499.57 121.34
  C 498.05 131.59 496.32 141.61 494.11 151.60
  Q 492.47 159.01 490.96 166.42
  Q 490.09 170.71 488.19 175.18
  C 485.24 182.10 481.25 186.74 476.10 192.20
  Q 471.90 196.64 468.75 201.91
  A 0.91 0.91 0.0 0 0 469.39 203.28
  C 471.66 203.64 472.59 202.84 474.48 202.05"
/>
<path stroke="#808080" vector-effect="non-scaling-stroke" d="
  M 346.72 379.99
  Q 345.95 368.12 350.57 359.08
  Q 352.50 355.29 353.84 351.98
  Q 354.05 351.45 353.80 350.95
  C 351.60 346.65 347.15 345.41 343.06 343.84
  Q 334.69 340.62 329.99 333.78
  Q 324.18 325.34 320.87 313.64
  C 320.14 311.07 320.19 308.68 319.73 306.15
  Q 319.26 303.57 319.69 300.43
  Q 320.48 294.56 319.04 287.26
  Q 317.94 281.70 316.86 276.13
  Q 316.41 273.81 316.78 271.29
  Q 317.25 268.19 317.97 266.49
  Q 323.60 253.15 335.22 244.62
  C 339.00 241.84 347.20 237.05 348.22 232.02
  Q 349.28 226.79 347.50 221.98
  Q 346.60 219.54 346.44 216.70
  Q 346.25 213.13 347.16 210.98
  C 348.76 207.17 352.25 202.67 356.60 201.71
  Q 362.13 200.49 368.08 200.89
  Q 369.75 201.00 368.38 200.04
  Q 366.45 198.71 364.65 197.06
  Q 356.75 189.83 349.75 182.79
  Q 337.74 170.70 323.05 162.56
  Q 309.26 154.91 292.63 153.66
  Q 286.69 153.21 279.87 154.26
  Q 272.27 155.43 266.79 157.48
  Q 261.57 159.43 255.47 163.21
  Q 241.34 171.96 236.01 188.51
  Q 232.04 200.82 231.62 213.88
  Q 231.42 219.76 231.06 224.44
  C 230.26 234.59 230.63 244.98 230.66 255.33
  Q 230.66 257.89 233.25 257.48
  C 245.98 255.46 255.84 247.60 265.36 239.05
  Q 269.55 235.28 276.92 226.99
  Q 286.54 216.15 291.78 211.78
  Q 298.88 205.86 308.58 203.66
  Q 312.96 202.67 315.41 202.52
  Q 321.70 202.11 326.45 206.15
  A 0.82 0.82 0.0 0 1 326.12 207.57
  C 322.90 208.35 319.37 208.47 316.06 208.91
  C 307.88 210.00 301.54 213.30 295.70 219.56
  Q 280.52 235.84 266.72 248.27
  Q 262.42 252.14 257.75 255.41
  C 251.29 259.93 244.29 263.06 237.15 265.71
  C 232.33 267.49 227.37 270.10 222.68 272.44
  Q 208.65 279.44 200.01 290.92
  Q 185.34 310.39 181.02 334.45
  C 179.85 340.96 179.99 347.13 179.55 353.52
  C 179.24 357.96 179.66 362.96 180.61 367.25
  Q 182.14 374.16 188.13 380.83
  Q 194.33 387.72 200.57 394.56
  Q 211.04 406.02 216.95 422.52
  A 1.95 1.94 -12.7 0 0 218.99 423.80
  C 220.36 423.65 221.10 422.46 221.43 421.22
  Q 225.36 406.29 229.60 397.05
  Q 232.72 390.28 238.47 384.70
  C 250.32 373.20 259.23 359.74 268.29 346.25
  Q 276.42 334.16 281.37 321.08
  Q 283.35 315.83 284.03 311.13
  Q 284.60 307.11 285.06 303.24
  A 3.11 3.00 60.6 0 1 285.26 302.47
  Q 286.53 299.33 287.97 299.51
  Q 289.96 299.76 289.98 301.76
  Q 290.11 312.98 287.86 323.11
  Q 287.54 324.57 286.93 325.96
  C 282.28 336.57 277.14 347.57 270.66 357.11
  Q 261.66 370.35 251.81 382.39
  C 248.96 385.86 245.29 388.56 242.72 392.09
  Q 236.71 400.33 233.20 409.64
  Q 227.91 423.67 221.40 444.46
  C 220.23 448.22 219.45 452.05 218.58 455.89
  C 217.41 461.04 217.08 467.17 217.99 472.25
  C 220.05 483.86 225.75 497.44 232.97 507.13
  Q 237.57 513.30 245.13 518.12
  Q 263.72 529.96 284.90 533.97
  C 288.16 534.59 291.24 534.55 294.46 534.96
  Q 297.90 535.40 301.64 535.13
  Q 306.45 534.79 311.00 534.44
  A 1.63 1.62 85.3 0 0 312.48 532.68
  C 311.88 526.09 310.44 519.92 311.11 513.15
  Q 312.10 502.95 313.97 496.19
  Q 318.55 479.59 322.38 463.50
  C 323.15 460.26 323.07 456.94 323.81 453.63
  C 324.96 448.48 324.93 442.77 325.12 437.50
  Q 325.28 432.99 326.01 431.24
  C 326.82 429.29 329.38 428.85 331.01 429.99
  C 332.66 431.15 332.75 434.37 332.99 436.20
  Q 333.46 439.85 333.84 443.58
  Q 334.25 447.64 333.95 450.97
  Q 332.52 466.89 328.89 479.75
  Q 325.08 493.23 321.81 505.78
  C 321.04 508.76 321.06 511.76 320.67 514.79
  Q 320.27 517.84 320.62 521.50
  Q 321.00 525.54 321.54 529.35
  Q 322.45 535.77 326.36 544.13
  C 328.33 548.34 331.63 552.53 334.50 556.48
  Q 344.26 569.89 361.26 572.33
  Q 366.60 573.09 368.54 573.19
  Q 380.40 573.78 391.31 573.43
  Q 395.22 573.30 399.00 572.44
  C 404.62 571.16 410.94 570.99 416.61 572.71
  Q 420.48 573.89 424.36 575.01
  A 6.42 6.40 45.7 0 0 427.75 575.06
  C 433.33 573.61 439.43 571.21 444.73 570.80
  Q 452.45 570.19 458.08 571.30
  C 468.38 573.34 478.75 572.75 489.09 572.41
  Q 492.10 572.31 494.99 571.87
  C 499.66 571.17 504.70 570.70 508.99 569.28
  Q 520.70 565.41 527.82 556.38
  C 531.02 552.33 534.50 548.39 537.04 543.92
  Q 540.48 537.83 542.38 529.60
  C 543.10 526.51 543.02 523.54 543.46 520.46
  Q 543.92 517.20 543.46 514.04
  C 542.99 510.77 543.03 507.77 542.07 504.46
  Q 538.48 492.09 534.96 480.51
  C 532.24 471.60 530.37 462.47 529.27 453.68
  Q 527.94 443.13 531.07 431.05
  C 532.18 426.74 538.50 428.58 538.38 433.16
  C 538.18 441.06 539.42 449.03 540.56 456.70
  C 542.49 469.80 548.01 485.25 551.65 499.06
  Q 554.17 508.63 553.43 522.46
  C 553.25 525.82 552.35 529.00 552.44 532.28
  A 1.33 1.33 0.0 0 0 553.79 533.58
  Q 557.26 533.52 560.89 533.95
  C 566.37 534.60 570.90 534.00 576.06 533.66
  C 590.06 532.77 604.02 528.02 616.83 521.80
  C 626.19 517.26 634.97 511.78 640.81 503.31
  C 647.38 493.79 653.70 480.70 654.85 469.28
  C 655.85 459.32 653.05 449.18 649.63 439.63
  Q 644.64 425.74 638.58 409.97
  Q 635.64 402.32 630.22 394.53
  C 627.10 390.06 622.92 387.06 619.41 383.21
  Q 611.07 374.10 601.79 362.20
  C 593.16 351.12 586.19 339.03 580.71 326.85
  Q 575.98 316.33 576.84 300.50
  A 1.00 0.99 80.3 0 1 577.44 299.65
  Q 578.99 299.01 580.48 299.51
  Q 581.22 299.76 581.42 300.52
  C 582.50 304.57 582.52 308.49 583.51 312.55
  C 587.38 328.40 597.53 342.53 607.56 355.59
  C 614.38 364.49 620.74 373.44 628.49 380.31
  Q 635.36 386.40 638.14 390.19
  C 644.53 398.91 648.43 411.55 651.38 421.28
  C 651.74 422.47 652.60 423.26 653.89 423.11
  A 2.20 2.19 -80.7 0 0 655.63 421.85
  C 658.13 416.36 660.77 410.58 664.08 405.63
  Q 669.65 397.27 676.85 390.47
  C 680.87 386.68 684.84 382.68 688.56 378.61
  Q 692.73 374.05 694.93 367.58
  Q 696.46 363.09 696.44 356.36
  Q 696.42 348.25 695.96 343.17
  Q 693.13 312.59 672.57 288.79
  C 666.16 281.35 657.28 275.42 648.51 271.60
  C 643.03 269.21 637.63 266.45 631.97 264.58
  Q 617.58 259.83 606.97 251.79
  C 595.23 242.89 584.10 232.51 573.71 222.25
  C 565.75 214.40 558.81 209.62 548.02 208.52
  Q 542.70 207.98 537.66 207.30
  A 0.71 0.70 18.8 0 1 537.14 206.25
  C 539.10 202.92 545.14 202.13 548.71 202.25
  C 558.50 202.57 568.34 206.26 575.79 212.45
  Q 582.89 218.35 590.55 226.31
  Q 599.12 235.22 605.26 240.24
  C 615.31 248.46 626.34 256.34 639.57 256.92
  A 1.32 1.31 -88.5 0 0 640.94 255.61
  Q 641.02 242.09 640.80 229.31
  C 640.70 223.83 639.89 218.56 639.88 213.07
  C 639.88 207.80 638.58 202.50 637.72 197.18
  Q 636.73 191.01 633.40 183.88
  C 626.52 169.13 613.40 160.79 598.16 156.12
  C 594.34 154.95 590.52 154.70 586.67 154.06
  Q 582.75 153.41 578.58 153.46
  Q 557.01 153.70 539.40 163.17
  Q 525.07 170.88 516.13 178.85
  Q 505.26 188.53 494.80 197.74
  Q 493.34 199.03 491.42 200.10
  Q 489.86 200.97 491.65 200.94
  C 500.07 200.79 507.31 199.82 512.89 207.55
  C 516.98 213.24 515.81 218.04 513.75 223.98
  C 511.65 230.03 513.75 234.21 518.66 237.85
  Q 525.12 242.63 531.64 247.36
  Q 536.28 250.72 538.98 254.34
  C 542.96 259.66 548.25 266.85 547.59 273.78
  Q 547.06 279.27 545.73 284.44
  Q 543.44 293.38 544.52 300.93
  C 544.94 303.83 544.26 306.25 544.04 309.09
  Q 543.81 312.11 542.77 315.05
  C 538.53 326.94 531.88 339.10 519.65 343.20
  C 513.29 345.34 503.79 347.66 510.02 356.94
  C 512.71 360.94 514.84 366.33 514.85 371.34
  Q 514.86 375.53 515.39 379.49
  A 0.49 0.48 3.3 0 1 514.79 380.02
  C 512.82 379.53 510.96 378.95 509.17 377.92
  C 506.56 376.42 499.69 373.17 498.04 376.85
  Q 497.87 377.23 498.02 377.62
  Q 499.98 382.67 503.99 386.31
  C 506.54 388.64 506.78 391.37 506.51 394.67
  Q 506.47 395.23 505.91 395.28
  C 501.06 395.68 498.04 391.60 493.34 390.80
  C 490.50 390.31 488.57 392.87 488.41 395.48
  Q 488.14 399.69 488.92 403.09
  C 489.71 406.56 491.03 415.84 484.84 414.19
  Q 458.90 407.29 434.48 390.34
  Q 434.01 390.01 433.99 389.44
  Q 433.82 384.78 433.76 379.91
  C 433.74 378.67 434.58 377.82 435.61 377.31
  C 451.16 369.53 463.99 356.52 475.69 343.99
  A 0.77 0.77 0.0 0 0 475.12 342.70
  C 470.80 342.72 466.60 341.72 462.27 341.73
  C 454.48 341.75 447.12 340.91 439.00 341.38
  C 427.94 342.04 416.81 341.76 405.73 341.74
  C 398.49 341.73 391.46 342.72 384.09 342.95
  A 0.93 0.93 0.0 0 0 383.40 344.47
  Q 391.20 353.84 400.31 362.94
  Q 409.61 372.23 421.14 378.36
  A 1.13 1.12 -76.7 0 1 421.74 379.34
  Q 421.83 383.49 421.77 388.28
  Q 421.74 390.70 419.78 392.07
  Q 410.43 398.57 401.43 403.88
  C 398.03 405.88 394.37 407.38 390.74 408.99
  C 385.40 411.35 380.06 412.83 374.72 415.12
  Q 374.23 415.33 373.70 415.23
  C 370.25 414.54 369.58 411.07 370.24 408.14
  C 371.19 403.94 373.22 396.01 370.44 392.81
  Q 368.20 390.24 364.98 391.87
  C 362.35 393.20 358.35 396.20 355.50 396.03
  A 0.82 0.82 0.0 0 1 354.73 395.26
  C 354.57 392.32 354.87 389.34 356.97 387.00
  C 359.05 384.69 361.49 381.84 362.47 378.85
  A 2.30 2.29 7.1 0 0 360.13 375.85
  Q 355.91 376.13 352.29 378.46
  Q 350.09 379.87 347.51 380.56
  Q 346.77 380.75 346.72 379.99"
/>
<path stroke="#808080" vector-effect="non-scaling-stroke" d="
  M 469.60 270.07
  C 474.21 266.76 482.59 269.36 487.80 269.06
  C 493.94 268.70 498.81 266.21 504.32 262.76
  Q 508.67 260.04 512.62 259.49
  Q 519.46 258.52 526.60 258.24
  A 0.36 0.35 2.8 0 0 526.94 257.94
  Q 527.00 257.53 526.70 257.25
  Q 513.65 244.87 495.59 242.45
  Q 484.36 240.94 474.38 241.36
  Q 466.98 241.67 461.11 245.95
  C 458.19 248.08 454.35 249.99 450.94 249.48
  Q 447.44 248.97 443.06 247.93
  Q 439.79 247.15 442.23 249.46
  Q 444.53 251.62 447.13 253.58
  C 451.47 256.86 452.78 261.46 453.50 266.73
  Q 454.09 271.05 454.41 275.27
  C 454.84 280.67 455.26 285.39 457.07 290.86
  Q 462.90 308.54 469.51 325.58
  C 470.69 328.65 472.37 330.70 474.64 332.86
  A 1.44 1.44 0.0 0 0 476.53 332.94
  Q 477.62 332.09 477.26 330.72
  Q 473.34 315.95 469.13 300.46
  Q 466.02 289.01 466.94 276.58
  C 467.11 274.41 467.81 271.35 469.60 270.07"
/>
<path stroke="#808080" vector-effect="non-scaling-stroke" d="
  M 345.29 260.67
  C 352.78 262.19 357.96 268.13 365.19 269.57
  Q 371.73 270.88 378.38 269.73
  Q 379.87 269.47 381.03 269.71
  C 383.21 270.16 386.05 269.84 387.78 271.09
  Q 390.00 272.69 390.34 275.61
  Q 391.27 283.53 390.40 291.27
  Q 389.81 296.52 387.27 306.30
  Q 383.89 319.33 380.50 332.36
  Q 380.25 333.33 380.53 334.03
  Q 380.96 335.08 382.14 335.20
  Q 382.67 335.25 383.03 334.86
  Q 386.88 330.70 387.43 329.17
  Q 390.88 319.58 394.42 310.25
  C 396.88 303.74 398.86 297.42 400.89 290.99
  C 401.75 288.27 402.05 285.61 402.47 282.83
  Q 402.93 279.78 403.09 276.79
  Q 403.41 270.92 404.68 264.30
  C 406.08 257.00 410.97 254.33 416.06 249.89
  A 0.67 0.66 -59.7 0 0 415.76 248.74
  Q 415.48 248.69 415.01 248.79
  Q 411.13 249.64 407.52 250.37
  C 402.50 251.38 397.90 247.96 393.72 245.25
  C 389.17 242.31 383.81 242.05 378.43 242.16
  Q 371.42 242.30 363.94 243.15
  Q 345.80 245.20 332.64 257.01
  Q 329.51 259.82 333.71 259.75
  Q 340.22 259.65 345.29 260.67"
/>
<path stroke="#e68e98" vector-effect="non-scaling-stroke" d="
  M 788.3996 584.7893
  A 26.87 24.06 -0.3 0 0 761.4040 560.8703
  A 26.87 24.06 -0.3 0 0 734.6604 585.0707
  A 26.87 24.06 -0.3 0 0 761.6560 608.9897
  A 26.87 24.06 -0.3 0 0 788.3996 584.7893"
/>
<path stroke="#e68e98" vector-effect="non-scaling-stroke" d="
  M 500.31 723.29
  L 500.37 732.38
  A 0.51 0.50 0.0 0 0 500.88 732.88
  L 548.11 732.94
  A 0.80 0.79 -0.4 0 0 548.91 732.14
  L 548.06 619.06
  A 0.38 0.38 0.0 0 0 547.68 618.68
  L 500.78 618.66
  Q 500.22 618.66 500.22 619.22
  L 500.20 628.71
  Q 500.20 630.02 499.30 629.07
  C 479.01 607.58 445.97 612.80 433.50 639.55
  C 426.90 653.71 426.16 670.51 427.36 685.99
  Q 427.96 693.69 430.32 702.01
  C 436.27 723.03 448.73 737.38 472.60 735.80
  C 482.52 735.14 492.99 730.86 499.53 723.01
  Q 500.31 722.07 500.31 723.29"
/>
<path stroke="#e68e98" vector-effect="non-scaling-stroke" d="
  M 372.75 629.83
  C 371.36 628.31 370.20 626.56 368.57 625.28
  Q 358.39 617.29 346.17 616.23
  C 327.78 614.63 313.38 624.07 305.90 640.44
  Q 301.27 650.57 300.15 660.66
  Q 298.98 671.13 299.35 682.92
  Q 299.83 697.82 305.35 710.64
  C 310.86 723.42 317.54 732.42 331.46 736.10
  Q 341.54 738.76 351.83 735.94
  Q 362.53 733.02 369.45 725.91
  C 370.47 724.86 371.10 723.50 372.14 722.45
  A 0.47 0.47 0.0 0 1 372.94 722.83
  C 372.00 731.31 372.00 740.01 372.13 749.06
  C 372.22 756.42 367.59 761.83 359.79 761.55
  C 350.47 761.22 354.05 749.04 356.62 744.27
  Q 357.42 742.79 355.74 742.70
  Q 354.88 742.66 354.00 742.72
  Q 331.76 744.26 310.48 744.29
  A 1.41 1.38 -72.2 0 0 309.34 744.89
  Q 300.49 757.60 307.03 771.78
  C 311.21 780.86 321.12 785.70 330.64 788.02
  Q 352.95 793.46 378.20 791.23
  C 382.73 790.83 387.18 789.70 391.64 788.49
  Q 413.90 782.45 419.28 759.75
  Q 421.18 751.71 421.19 746.29
  Q 421.29 683.10 421.30 619.25
  A 0.50 0.50 0.0 0 0 420.80 618.75
  L 374.17 618.74
  A 0.83 0.83 0.0 0 0 373.34 619.58
  L 373.46 629.54
  Q 373.48 630.62 372.75 629.83"
/>
<path stroke="#e68e98" vector-effect="non-scaling-stroke" d="
  M 243.56 629.43
  Q 243.57 630.52 242.83 629.72
  Q 231.42 617.46 215.75 616.25
  C 204.51 615.37 193.10 619.88 185.15 627.94
  C 179.78 633.38 175.65 641.37 173.69 648.72
  Q 171.66 656.31 171.23 659.92
  Q 169.51 674.55 170.86 688.08
  C 171.37 693.27 172.66 698.52 174.08 703.49
  C 176.70 712.62 182.03 723.58 189.71 729.28
  Q 198.55 735.83 209.94 736.30
  C 222.20 736.80 235.47 733.04 242.56 723.68
  Q 242.71 723.49 242.92 723.38
  Q 243.09 723.29 243.28 723.25
  Q 243.90 723.12 243.89 723.76
  L 243.72 732.47
  A 1.00 1.00 0.0 0 0 244.72 733.49
  L 291.46 733.48
  Q 292.41 733.48 292.40 732.54
  L 291.39 619.65
  A 0.49 0.48 -0.6 0 0 290.90 619.18
  L 244.15 619.20
  A 0.65 0.64 -0.4 0 0 243.50 619.85
  L 243.56 629.43"
/>
<path stroke="#e68e98" vector-effect="non-scaling-stroke" d="
  M 131.58 633.79
  L 131.69 620.25
  Q 131.70 619.30 130.75 619.30
  L 94.12 619.40
  Q 93.39 619.40 93.39 620.13
  L 93.80 732.48
  Q 93.81 733.65 94.98 733.65
  L 133.56 733.64
  Q 134.14 733.64 134.30 733.08
  Q 134.41 732.70 134.41 732.00
  Q 134.42 708.36 135.62 681.69
  Q 136.08 671.45 136.76 669.28
  C 139.64 660.08 151.16 656.98 159.86 656.76
  Q 162.47 656.70 164.90 656.51
  A 0.74 0.73 87.9 0 0 165.58 655.77
  L 165.60 617.23
  A 0.96 0.96 0.0 0 0 164.54 616.28
  Q 144.36 618.36 132.34 634.05
  Q 131.57 635.07 131.58 633.79"
/>
<path stroke="#e68e98" vector-effect="non-scaling-stroke" d="
  M 782.94 619.14
  A 0.65 0.65 0.0 0 0 782.29 618.49
  L 740.43 618.49
  A 0.65 0.65 0.0 0 0 739.78 619.14
  L 739.78 732.84
  A 0.65 0.65 0.0 0 0 740.43 733.49
  L 782.29 733.49
  A 0.65 0.65 0.0 0 0 782.94 732.84
  L 782.94 619.14"
/>
<path stroke="#e68e98" vector-effect="non-scaling-stroke" d="
  M 609.21 695.77
  A 0.20 0.20 0.0 0 1 609.05 695.44
  Q 624.61 676.45 638.45 659.60
  C 641.48 655.91 641.65 652.88 641.69 647.52
  Q 641.79 633.17 641.68 619.19
  A 0.47 0.46 90.0 0 0 641.22 618.72
  L 555.23 618.72
  Q 554.88 618.72 554.88 619.08
  L 555.68 654.21
  A 0.80 0.79 0.4 0 0 556.46 654.99
  Q 569.41 655.26 581.80 655.01
  Q 586.05 654.92 590.40 655.27
  A 0.46 0.46 0.0 0 1 590.71 656.02
  Q 574.95 675.03 560.62 691.53
  C 556.27 696.55 554.66 699.88 554.56 705.96
  Q 554.37 718.35 554.14 732.80
  A 0.68 0.67 -89.6 0 0 554.81 733.49
  L 639.78 733.49
  A 0.77 0.77 0.0 0 0 640.55 732.72
  L 640.59 696.69
  Q 640.59 695.54 639.44 695.54
  L 609.21 695.77"
/>
<path stroke="#e68e98" vector-effect="non-scaling-stroke" d="
  M 699.21 695.77
  A 0.15 0.15 0.0 0 1 699.09 695.53
  Q 713.23 678.01 728.22 659.94
  Q 731.70 655.75 731.73 650.25
  Q 731.83 634.64 731.70 619.19
  A 0.48 0.48 0.0 0 0 731.22 618.72
  L 647.04 618.73
  Q 646.70 618.73 646.70 619.06
  L 646.78 653.74
  Q 646.78 655.15 648.18 655.12
  Q 664.42 654.88 679.16 655.12
  Q 679.91 655.13 680.64 655.32
  A 0.43 0.43 0.0 0 1 680.86 656.02
  Q 664.42 675.28 648.33 694.45
  C 644.90 698.54 644.63 702.47 644.41 707.60
  Q 643.88 720.19 643.73 732.51
  A 0.97 0.97 0.0 0 0 644.70 733.49
  L 728.92 733.48
  A 0.65 0.64 90.0 0 0 729.56 732.83
  L 729.54 695.98
  A 0.40 0.40 0.0 0 0 729.13 695.58
  L 699.21 695.77"
/>
<path stroke="#e68e98" vector-effect="non-scaling-stroke" d="
  M 580.83 807.60
  C 588.29 797.83 587.68 781.33 580.68 771.91
  C 575.65 765.12 567.76 762.29 559.68 764.24
  C 552.08 766.08 546.21 773.13 544.24 780.74
  C 541.75 790.34 542.82 800.40 548.83 808.30
  Q 552.42 813.01 556.87 814.42
  Q 562.37 816.17 566.95 815.04
  A 2.56 2.55 -23.9 0 1 569.70 816.10
  L 572.88 820.83
  A 1.72 1.71 -30.3 0 0 575.08 821.40
  L 585.96 815.80
  A 0.89 0.88 -34.8 0 0 586.21 814.42
  L 580.87 808.56
  Q 580.45 808.09 580.83 807.60"
/>
<path stroke="#e68e98" vector-effect="non-scaling-stroke" d="
  M 483.58 793.46
  L 477.49 765.95
  Q 477.39 765.50 476.93 765.50
  L 462.23 765.52
  A 0.83 0.82 -14.5 0 0 461.51 766.74
  Q 462.36 768.34 462.92 770.19
  Q 468.88 790.02 474.59 808.60
  Q 475.47 811.44 476.23 814.63
  Q 476.59 816.11 478.10 816.12
  L 488.61 816.20
  Q 490.43 816.21 490.94 814.47
  Q 497.43 792.49 503.18 773.92
  C 504.00 771.29 504.35 768.84 505.78 766.39
  A 0.58 0.58 0.0 0 0 505.27 765.52
  L 490.76 765.51
  Q 490.17 765.51 490.03 766.08
  Q 487.30 777.73 484.35 789.21
  Q 484.08 790.25 484.02 791.28
  Q 483.96 792.34 483.84 793.40
  Q 483.75 794.20 483.58 793.46"
/>
<path stroke="#e68e98" vector-effect="non-scaling-stroke" d="
  M 528.10 810.39
  L 528.52 815.30
  A 1.03 1.03 0.0 0 0 529.55 816.24
  L 543.75 816.11
  Q 544.44 816.10 544.29 815.43
  Q 543.37 811.48 542.23 807.49
  Q 537.07 789.43 531.99 771.07
  Q 531.42 769.01 531.01 766.40
  A 1.02 1.02 0.0 0 0 530.00 765.54
  L 515.51 765.50
  A 1.67 1.65 7.8 0 0 513.91 766.70
  L 500.01 815.37
  A 0.67 0.67 0.0 0 0 500.65 816.22
  L 514.52 816.20
  A 0.88 0.87 -82.1 0 0 515.36 815.56
  L 516.75 810.52
  A 1.32 1.31 7.2 0 1 518.01 809.55
  L 527.14 809.50
  Q 528.03 809.50 528.10 810.39"
/>
<path stroke="#e68e98" vector-effect="non-scaling-stroke" d="
  M 608.48 801.19
  C 604.82 800.92 605.23 794.59 605.23 791.96
  Q 605.26 779.06 605.22 766.19
  Q 605.22 765.52 604.55 765.52
  L 591.02 765.51
  Q 590.49 765.51 590.48 766.05
  Q 590.38 782.55 590.60 797.80
  Q 590.74 807.31 596.96 812.88
  C 601.75 817.18 608.88 818.26 614.79 816.39
  Q 626.37 812.71 627.18 798.93
  Q 627.97 785.36 627.43 766.11
  Q 627.42 765.48 626.79 765.48
  L 613.54 765.50
  A 0.58 0.58 0.0 0 0 612.96 766.08
  Q 613.12 781.91 612.78 795.92
  C 612.71 798.59 611.76 801.44 608.48 801.19"
/>
<path stroke="#e68e98" vector-effect="non-scaling-stroke" d="
  M 647.84 780.32
  A 0.83 0.83 0.0 0 1 648.66 779.42
  L 660.16 779.20
  A 0.83 0.83 0.0 0 0 660.97 778.37
  L 661.02 766.35
  A 0.83 0.83 0.0 0 0 660.19 765.52
  L 634.48 765.49
  A 0.83 0.83 0.0 0 0 633.65 766.32
  L 633.69 815.32
  A 0.83 0.83 0.0 0 0 634.52 816.15
  L 660.38 816.22
  A 0.83 0.83 0.0 0 0 661.21 815.38
  L 661.13 802.76
  A 0.83 0.83 0.0 0 0 660.31 801.94
  L 648.89 801.80
  A 0.83 0.83 0.0 0 1 648.07 801.01
  L 647.94 798.00
  A 0.83 0.83 0.0 0 1 648.75 797.14
  L 658.55 796.96
  A 0.83 0.83 0.0 0 0 659.36 796.13
  L 659.29 784.78
  A 0.83 0.83 0.0 0 0 658.48 783.96
  L 648.87 783.70
  A 0.83 0.83 0.0 0 1 648.07 782.94
  L 647.84 780.32"
/>
<path stroke="#e68e98" vector-effect="non-scaling-stroke" d="
  M 679.77 802.30
  Q 679.43 798.43 680.95 802.01
  L 686.65 815.40
  A 1.25 1.24 77.9 0 0 687.81 816.16
  L 703.17 816.13
  A 0.29 0.29 0.0 0 0 703.42 815.69
  Q 702.95 814.92 702.54 814.18
  Q 697.92 805.83 693.09 796.47
  A 0.88 0.88 0.0 0 1 693.56 795.24
  Q 697.22 793.86 698.80 790.26
  Q 702.49 781.80 698.28 773.18
  C 695.70 767.88 690.74 765.75 685.16 765.60
  Q 675.91 765.35 665.97 765.57
  A 0.42 0.41 89.3 0 0 665.57 765.99
  L 665.61 815.51
  A 0.65 0.65 0.0 0 0 666.26 816.16
  L 679.69 816.18
  Q 680.20 816.18 680.21 815.68
  Q 680.38 809.04 679.77 802.30"
/>
<path stroke="#e68e98" vector-effect="non-scaling-stroke" d="
  M 720.29 766.30
  A 0.79 0.79 0.0 0 0 719.50 765.51
  L 705.78 765.51
  A 0.79 0.79 0.0 0 0 704.99 766.30
  L 704.99 815.38
  A 0.79 0.79 0.0 0 0 705.78 816.17
  L 719.50 816.17
  A 0.79 0.79 0.0 0 0 720.29 815.38
  L 720.29 766.30"
/>
<path stroke="#e68e98" vector-effect="non-scaling-stroke" d="
  M 738.71 809.59
  L 747.98 809.49
  Q 748.73 809.48 748.84 810.22
  L 749.58 815.40
  A 0.82 0.82 0.0 0 0 750.39 816.10
  L 764.85 816.23
  A 0.82 0.82 0.0 0 0 765.65 815.19
  Q 760.05 795.48 754.30 774.89
  C 753.49 771.97 752.43 769.23 752.03 766.22
  A 0.79 0.79 0.0 0 0 751.25 765.53
  L 736.02 765.50
  Q 735.44 765.50 735.29 766.06
  Q 728.75 789.41 721.89 812.66
  Q 721.59 813.65 720.99 815.01
  A 0.85 0.85 0.0 0 0 721.78 816.21
  L 736.48 816.04
  A 0.63 0.62 -86.1 0 0 737.08 815.51
  L 737.81 810.38
  Q 737.92 809.60 738.71 809.59"
/>
<path stroke="#808080" vector-effect="non-scaling-stroke" d="
  M 393.18 419.15
  Q 387.53 421.67 381.90 424.96
  Q 381.46 425.22 381.33 425.71
  C 379.46 432.72 380.61 438.57 381.47 445.36
  C 381.85 448.36 385.71 450.14 388.30 450.39
  Q 399.48 451.43 408.60 455.59
  C 411.66 456.99 414.98 458.19 417.03 461.12
  C 419.88 465.20 426.32 470.85 431.48 467.34
  Q 435.74 464.43 438.88 460.56
  C 441.46 457.39 444.80 456.36 448.26 454.94
  Q 459.66 450.28 469.70 449.73
  Q 471.60 449.63 473.73 448.83
  C 478.14 447.17 478.16 441.86 478.73 438.06
  Q 479.68 431.57 478.08 425.50
  A 2.05 2.04 5.6 0 0 477.00 424.19
  C 471.65 421.58 466.33 418.64 460.65 416.85
  C 455.57 415.25 450.57 413.35 445.37 412.37
  C 438.39 411.05 431.86 409.86 424.59 410.68
  Q 407.94 412.56 393.18 419.15"
/>
<path stroke="#e68e98" vector-effect="non-scaling-stroke" d="
  M 497.50 689.89
  C 501.25 683.06 501.21 673.68 500.18 665.85
  C 499.72 662.40 498.24 658.98 496.43 656.04
  C 492.53 649.67 483.37 649.73 479.11 655.67
  Q 476.25 659.67 475.52 664.20
  C 474.17 672.69 473.76 684.93 479.31 692.12
  C 484.74 699.16 493.46 697.27 497.50 689.89"
/>
<path stroke="#e68e98" vector-effect="non-scaling-stroke" d="
  M 369.51 694.74
  C 371.70 691.32 373.02 687.56 373.51 683.44
  C 374.56 674.65 375.33 647.91 359.28 651.72
  C 352.62 653.31 350.94 663.92 350.44 669.75
  C 349.74 678.09 349.78 695.36 360.14 698.70
  C 363.56 699.81 367.68 697.59 369.51 694.74"
/>
<path stroke="#e68e98" vector-effect="non-scaling-stroke" d="
  M 232.84 696.98
  C 238.77 696.50 242.60 691.18 243.85 685.70
  Q 246.28 675.02 244.04 663.80
  C 243.12 659.23 239.82 653.12 234.82 651.97
  C 228.51 650.52 223.80 654.16 221.45 660.04
  C 218.95 666.28 218.73 672.32 219.13 678.77
  C 219.57 685.88 223.54 697.72 232.84 696.98"
/>
<path stroke="#e68e98" vector-effect="non-scaling-stroke" d="
  M 565.1530 802.8887
  A 13.82 5.89 89.2 0 0 570.8494 788.9878
  A 13.82 5.89 89.2 0 0 564.7670 775.2513
  A 13.82 5.89 89.2 0 0 559.0706 789.1522
  A 13.82 5.89 89.2 0 0 565.1530 802.8887"
/>
<path stroke="#e68e98" vector-effect="non-scaling-stroke" d="
  M 524.41 795.21
  Q 523.17 791.52 522.38 782.25
  Q 522.37 782.19 522.31 782.19
  L 522.05 782.19
  Q 521.64 782.18 521.61 782.58
  Q 521.04 790.08 519.72 796.87
  Q 519.59 797.54 520.27 797.54
  L 524.49 797.48
  A 0.47 0.47 0.0 0 0 524.93 796.88
  Q 524.69 796.05 524.41 795.21"
/>
<path stroke="#e68e98" vector-effect="non-scaling-stroke" d="
  M 680.12 779.58
  L 680.10 787.34
  A 0.93 0.93 0.0 0 0 681.02 788.27
  L 682.07 788.28
  A 4.24 4.07 0.2 0 0 686.33 784.22
  L 686.33 782.74
  A 4.24 4.07 0.2 0 0 682.11 778.66
  L 681.06 778.65
  A 0.93 0.93 0.0 0 0 680.12 779.58"
/>
<path stroke="#e68e98" vector-effect="non-scaling-stroke" d="
  M 743.29 782.96
  C 742.99 785.32 742.94 787.41 742.24 789.71
  C 741.52 792.09 741.22 794.60 740.82 797.05
  A 0.44 0.44 0.0 0 0 741.26 797.56
  L 745.33 797.47
  Q 745.86 797.46 745.82 796.93
  Q 745.52 793.12 744.49 789.59
  C 743.85 787.41 743.67 785.24 743.61 782.98
  Q 743.60 782.84 743.46 782.83
  L 743.45 782.83
  Q 743.31 782.82 743.29 782.96"
/>
</g>
<path fill="#ffffff" d="
  M 0.00 0.00
  L 900.00 0.00
  L 900.00 900.00
  L 0.00 900.00
  L 0.00 0.00
  Z
  M 299.69 84.20
  C 318.65 76.24 339.92 76.94 355.38 91.66
  C 359.65 95.72 362.62 101.51 364.24 107.17
  Q 366.96 116.69 368.09 125.83
  Q 370.55 145.81 374.50 164.62
  Q 376.29 173.14 380.62 178.91
  C 386.33 186.51 391.49 193.72 396.20 201.51
  C 399.68 207.25 404.58 213.98 412.19 209.52
  C 415.30 207.70 415.29 200.58 414.89 197.69
  Q 414.38 193.88 414.33 190.45
  Q 414.23 182.53 414.00 174.51
  Q 413.79 167.17 414.95 158.48
  C 416.39 147.64 416.14 136.89 416.22 126.20
  C 416.25 122.46 417.01 118.92 416.63 115.27
  Q 416.23 111.49 416.16 107.63
  Q 416.04 100.68 414.07 92.75
  Q 412.72 87.33 409.92 82.65
  C 400.31 66.60 385.85 55.83 367.81 51.10
  Q 361.04 49.32 357.25 48.85
  Q 352.89 48.30 344.91 48.64
  C 339.95 48.84 333.58 50.22 329.58 52.33
  Q 311.88 61.70 300.37 77.77
  C 299.24 79.33 297.93 80.90 297.78 82.83
  Q 297.62 85.07 299.69 84.20
  Z
  M 478.34 178.90
  C 484.27 171.70 485.65 162.34 487.55 153.46
  C 488.19 150.46 488.47 147.50 489.22 144.54
  Q 490.01 141.38 490.49 137.83
  Q 491.17 132.75 491.79 127.78
  Q 492.79 119.81 495.26 110.50
  C 497.16 103.33 499.84 97.06 505.33 92.13
  Q 517.88 80.86 534.32 79.39
  Q 550.52 77.93 566.76 84.30
  A 1.16 1.16 0.0 0 0 568.34 83.12
  Q 568.18 81.35 567.05 79.81
  C 559.17 69.15 550.84 62.36 540.01 55.55
  Q 534.68 52.20 528.07 50.31
  Q 522.30 48.66 516.00 48.54
  Q 508.65 48.41 503.80 48.99
  C 482.13 51.61 463.27 60.78 449.73 78.28
  Q 444.78 84.69 442.65 91.48
  C 441.57 94.93 441.31 98.43 440.52 101.99
  Q 439.75 105.48 439.66 109.61
  Q 439.19 130.48 440.58 150.21
  C 440.75 152.63 441.26 154.88 441.39 157.31
  Q 441.54 159.99 441.84 162.63
  Q 443.23 174.61 441.97 187.00
  Q 441.29 193.66 441.41 200.70
  C 441.48 204.44 441.26 207.66 444.98 209.52
  Q 451.96 213.01 457.10 206.89
  Q 461.46 201.70 467.08 193.54
  Q 471.23 187.52 478.34 178.90
  Z
  M 435.85 94.21
  C 436.86 85.31 442.21 78.34 447.88 71.68
  A 0.95 0.95 0.0 0 0 447.86 70.42
  C 445.03 67.34 441.73 63.61 437.79 62.18
  C 430.08 59.38 423.85 60.78 416.46 63.94
  C 413.08 65.39 411.46 67.78 409.05 70.25
  A 1.20 1.20 0.0 0 0 408.95 71.81
  Q 412.56 76.67 415.73 81.72
  Q 419.63 87.93 420.44 97.89
  Q 420.80 102.32 421.16 106.32
  Q 421.55 110.62 421.59 114.86
  Q 421.72 129.10 421.35 135.30
  Q 420.69 146.40 420.62 156.24
  C 420.60 159.68 419.87 162.94 419.81 166.24
  Q 419.58 177.24 419.57 189.20
  Q 419.57 193.53 420.16 196.80
  Q 420.89 200.82 420.74 204.53
  C 420.47 211.01 430.70 210.37 433.79 207.54
  Q 434.74 206.67 434.90 204.65
  Q 435.52 196.43 436.51 188.25
  Q 437.08 183.51 436.29 173.08
  C 435.90 167.93 435.81 162.79 435.46 157.73
  Q 435.06 152.02 434.88 146.25
  Q 434.73 141.80 434.39 137.08
  C 433.88 130.25 434.01 123.70 433.98 116.89
  Q 433.96 111.69 434.55 106.08
  Q 435.18 100.14 435.85 94.21
  Z
  M 302.29 148.70
  C 313.63 150.50 323.53 154.74 333.09 161.33
  Q 343.36 168.40 351.04 176.10
  Q 359.57 184.66 367.28 191.47
  Q 375.23 198.48 385.93 203.04
  Q 387.58 203.75 389.30 203.33
  A 0.74 0.74 0.0 0 0 389.77 202.24
  C 385.53 194.90 379.33 188.93 374.99 182.21
  Q 370.68 175.54 368.80 164.37
  C 368.38 161.89 367.54 159.66 367.18 157.17
  C 366.38 151.57 364.94 146.19 364.09 140.53
  Q 362.20 127.91 360.03 115.35
  C 357.25 99.28 347.75 87.95 331.39 84.63
  Q 326.37 83.62 323.51 83.64
  Q 303.66 83.77 288.70 96.43
  C 280.81 103.11 274.40 109.95 271.53 119.82
  Q 270.02 125.04 270.16 132.97
  Q 270.31 141.10 270.22 149.57
  A 1.08 1.08 0.0 0 0 271.53 150.64
  Q 280.36 148.68 288.19 147.84
  Q 292.61 147.37 296.52 147.88
  Q 299.47 148.26 302.29 148.70
  Z
  M 474.48 202.05
  Q 487.61 196.59 498.15 186.91
  C 514.71 171.71 532.20 155.80 554.54 150.22
  Q 562.38 148.26 570.32 147.76
  C 578.77 147.22 587.75 148.71 596.50 150.29
  A 1.39 1.39 0.0 0 0 598.13 149.03
  Q 599.13 136.68 597.62 124.42
  C 596.01 111.31 586.12 102.50 576.27 95.02
  Q 566.24 87.39 552.99 84.83
  Q 550.55 84.36 545.68 83.82
  C 540.58 83.26 535.05 83.85 530.35 84.86
  Q 511.12 88.99 503.56 106.13
  Q 500.95 112.05 499.57 121.34
  C 498.05 131.59 496.32 141.61 494.11 151.60
  Q 492.47 159.01 490.96 166.42
  Q 490.09 170.71 488.19 175.18
  C 485.24 182.10 481.25 186.74 476.10 192.20
  Q 471.90 196.64 468.75 201.91
  A 0.91 0.91 0.0 0 0 469.39 203.28
  C 471.66 203.64 472.59 202.84 474.48 202.05
  Z
  M 346.72 379.99
  Q 345.95 368.12 350.57 359.08
  Q 352.50 355.29 353.84 351.98
  Q 354.05 351.45 353.80 350.95
  C 351.60 346.65 347.15 345.41 343.06 343.84
  Q 334.69 340.62 329.99 333.78
  Q 324.18 325.34 320.87 313.64
  C 320.14 311.07 320.19 308.68 319.73 306.15
  Q 319.26 303.57 319.69 300.43
  Q 320.48 294.56 319.04 287.26
  Q 317.94 281.70 316.86 276.13
  Q 316.41 273.81 316.78 271.29
  Q 317.25 268.19 317.97 266.49
  Q 323.60 253.15 335.22 244.62
  C 339.00 241.84 347.20 237.05 348.22 232.02
  Q 349.28 226.79 347.50 221.98
  Q 346.60 219.54 346.44 216.70
  Q 346.25 213.13 347.16 210.98
  C 348.76 207.17 352.25 202.67 356.60 201.71
  Q 362.13 200.49 368.08 200.89
  Q 369.75 201.00 368.38 200.04
  Q 366.45 198.71 364.65 197.06
  Q 356.75 189.83 349.75 182.79
  Q 337.74 170.70 323.05 162.56
  Q 309.26 154.91 292.63 153.66
  Q 286.69 153.21 279.87 154.26
  Q 272.27 155.43 266.79 157.48
  Q 261.57 159.43 255.47 163.21
  Q 241.34 171.96 236.01 188.51
  Q 232.04 200.82 231.62 213.88
  Q 231.42 219.76 231.06 224.44
  C 230.26 234.59 230.63 244.98 230.66 255.33
  Q 230.66 257.89 233.25 257.48
  C 245.98 255.46 255.84 247.60 265.36 239.05
  Q 269.55 235.28 276.92 226.99
  Q 286.54 216.15 291.78 211.78
  Q 298.88 205.86 308.58 203.66
  Q 312.96 202.67 315.41 202.52
  Q 321.70 202.11 326.45 206.15
  A 0.82 0.82 0.0 0 1 326.12 207.57
  C 322.90 208.35 319.37 208.47 316.06 208.91
  C 307.88 210.00 301.54 213.30 295.70 219.56
  Q 280.52 235.84 266.72 248.27
  Q 262.42 252.14 257.75 255.41
  C 251.29 259.93 244.29 263.06 237.15 265.71
  C 232.33 267.49 227.37 270.10 222.68 272.44
  Q 208.65 279.44 200.01 290.92
  Q 185.34 310.39 181.02 334.45
  C 179.85 340.96 179.99 347.13 179.55 353.52
  C 179.24 357.96 179.66 362.96 180.61 367.25
  Q 182.14 374.16 188.13 380.83
  Q 194.33 387.72 200.57 394.56
  Q 211.04 406.02 216.95 422.52
  A 1.95 1.94 -12.7 0 0 218.99 423.80
  C 220.36 423.65 221.10 422.46 221.43 421.22
  Q 225.36 406.29 229.60 397.05
  Q 232.72 390.28 238.47 384.70
  C 250.32 373.20 259.23 359.74 268.29 346.25
  Q 276.42 334.16 281.37 321.08
  Q 283.35 315.83 284.03 311.13
  Q 284.60 307.11 285.06 303.24
  A 3.11 3.00 60.6 0 1 285.26 302.47
  Q 286.53 299.33 287.97 299.51
  Q 289.96 299.76 289.98 301.76
  Q 290.11 312.98 287.86 323.11
  Q 287.54 324.57 286.93 325.96
  C 282.28 336.57 277.14 347.57 270.66 357.11
  Q 261.66 370.35 251.81 382.39
  C 248.96 385.86 245.29 388.56 242.72 392.09
  Q 236.71 400.33 233.20 409.64
  Q 227.91 423.67 221.40 444.46
  C 220.23 448.22 219.45 452.05 218.58 455.89
  C 217.41 461.04 217.08 467.17 217.99 472.25
  C 220.05 483.86 225.75 497.44 232.97 507.13
  Q 237.57 513.30 245.13 518.12
  Q 263.72 529.96 284.90 533.97
  C 288.16 534.59 291.24 534.55 294.46 534.96
  Q 297.90 535.40 301.64 535.13
  Q 306.45 534.79 311.00 534.44
  A 1.63 1.62 85.3 0 0 312.48 532.68
  C 311.88 526.09 310.44 519.92 311.11 513.15
  Q 312.10 502.95 313.97 496.19
  Q 318.55 479.59 322.38 463.50
  C 323.15 460.26 323.07 456.94 323.81 453.63
  C 324.96 448.48 324.93 442.77 325.12 437.50
  Q 325.28 432.99 326.01 431.24
  C 326.82 429.29 329.38 428.85 331.01 429.99
  C 332.66 431.15 332.75 434.37 332.99 436.20
  Q 333.46 439.85 333.84 443.58
  Q 334.25 447.64 333.95 450.97
  Q 332.52 466.89 328.89 479.75
  Q 325.08 493.23 321.81 505.78
  C 321.04 508.76 321.06 511.76 320.67 514.79
  Q 320.27 517.84 320.62 521.50
  Q 321.00 525.54 321.54 529.35
  Q 322.45 535.77 326.36 544.13
  C 328.33 548.34 331.63 552.53 334.50 556.48
  Q 344.26 569.89 361.26 572.33
  Q 366.60 573.09 368.54 573.19
  Q 380.40 573.78 391.31 573.43
  Q 395.22 573.30 399.00 572.44
  C 404.62 571.16 410.94 570.99 416.61 572.71
  Q 420.48 573.89 424.36 575.01
  A 6.42 6.40 45.7 0 0 427.75 575.06
  C 433.33 573.61 439.43 571.21 444.73 570.80
  Q 452.45 570.19 458.08 571.30
  C 468.38 573.34 478.75 572.75 489.09 572.41
  Q 492.10 572.31 494.99 571.87
  C 499.66 571.17 504.70 570.70 508.99 569.28
  Q 520.70 565.41 527.82 556.38
  C 531.02 552.33 534.50 548.39 537.04 543.92
  Q 540.48 537.83 542.38 529.60
  C 543.10 526.51 543.02 523.54 543.46 520.46
  Q 543.92 517.20 543.46 514.04
  C 542.99 510.77 543.03 507.77 542.07 504.46
  Q 538.48 492.09 534.96 480.51
  C 532.24 471.60 530.37 462.47 529.27 453.68
  Q 527.94 443.13 531.07 431.05
  C 532.18 426.74 538.50 428.58 538.38 433.16
  C 538.18 441.06 539.42 449.03 540.56 456.70
  C 542.49 469.80 548.01 485.25 551.65 499.06
  Q 554.17 508.63 553.43 522.46
  C 553.25 525.82 552.35 529.00 552.44 532.28
  A 1.33 1.33 0.0 0 0 553.79 533.58
  Q 557.26 533.52 560.89 533.95
  C 566.37 534.60 570.90 534.00 576.06 533.66
  C 590.06 532.77 604.02 528.02 616.83 521.80
  C 626.19 517.26 634.97 511.78 640.81 503.31
  C 647.38 493.79 653.70 480.70 654.85 469.28
  C 655.85 459.32 653.05 449.18 649.63 439.63
  Q 644.64 425.74 638.58 409.97
  Q 635.64 402.32 630.22 394.53
  C 627.10 390.06 622.92 387.06 619.41 383.21
  Q 611.07 374.10 601.79 362.20
  C 593.16 351.12 586.19 339.03 580.71 326.85
  Q 575.98 316.33 576.84 300.50
  A 1.00 0.99 80.3 0 1 577.44 299.65
  Q 578.99 299.01 580.48 299.51
  Q 581.22 299.76 581.42 300.52
  C 582.50 304.57 582.52 308.49 583.51 312.55
  C 587.38 328.40 597.53 342.53 607.56 355.59
  C 614.38 364.49 620.74 373.44 628.49 380.31
  Q 635.36 386.40 638.14 390.19
  C 644.53 398.91 648.43 411.55 651.38 421.28
  C 651.74 422.47 652.60 423.26 653.89 423.11
  A 2.20 2.19 -80.7 0 0 655.63 421.85
  C 658.13 416.36 660.77 410.58 664.08 405.63
  Q 669.65 397.27 676.85 390.47
  C 680.87 386.68 684.84 382.68 688.56 378.61
  Q 692.73 374.05 694.93 367.58
  Q 696.46 363.09 696.44 356.36
  Q 696.42 348.25 695.96 343.17
  Q 693.13 312.59 672.57 288.79
  C 666.16 281.35 657.28 275.42 648.51 271.60
  C 643.03 269.21 637.63 266.45 631.97 264.58
  Q 617.58 259.83 606.97 251.79
  C 595.23 242.89 584.10 232.51 573.71 222.25
  C 565.75 214.40 558.81 209.62 548.02 208.52
  Q 542.70 207.98 537.66 207.30
  A 0.71 0.70 18.8 0 1 537.14 206.25
  C 539.10 202.92 545.14 202.13 548.71 202.25
  C 558.50 202.57 568.34 206.26 575.79 212.45
  Q 582.89 218.35 590.55 226.31
  Q 599.12 235.22 605.26 240.24
  C 615.31 248.46 626.34 256.34 639.57 256.92
  A 1.32 1.31 -88.5 0 0 640.94 255.61
  Q 641.02 242.09 640.80 229.31
  C 640.70 223.83 639.89 218.56 639.88 213.07
  C 639.88 207.80 638.58 202.50 637.72 197.18
  Q 636.73 191.01 633.40 183.88
  C 626.52 169.13 613.40 160.79 598.16 156.12
  C 594.34 154.95 590.52 154.70 586.67 154.06
  Q 582.75 153.41 578.58 153.46
  Q 557.01 153.70 539.40 163.17
  Q 525.07 170.88 516.13 178.85
  Q 505.26 188.53 494.80 197.74
  Q 493.34 199.03 491.42 200.10
  Q 489.86 200.97 491.65 200.94
  C 500.07 200.79 507.31 199.82 512.89 207.55
  C 516.98 213.24 515.81 218.04 513.75 223.98
  C 511.65 230.03 513.75 234.21 518.66 237.85
  Q 525.12 242.63 531.64 247.36
  Q 536.28 250.72 538.98 254.34
  C 542.96 259.66 548.25 266.85 547.59 273.78
  Q 547.06 279.27 545.73 284.44
  Q 543.44 293.38 544.52 300.93
  C 544.94 303.83 544.26 306.25 544.04 309.09
  Q 543.81 312.11 542.77 315.05
  C 538.53 326.94 531.88 339.10 519.65 343.20
  C 513.29 345.34 503.79 347.66 510.02 356.94
  C 512.71 360.94 514.84 366.33 514.85 371.34
  Q 514.86 375.53 515.39 379.49
  A 0.49 0.48 3.3 0 1 514.79 380.02
  C 512.82 379.53 510.96 378.95 509.17 377.92
  C 506.56 376.42 499.69 373.17 498.04 376.85
  Q 497.87 377.23 498.02 377.62
  Q 499.98 382.67 503.99 386.31
  C 506.54 388.64 506.78 391.37 506.51 394.67
  Q 506.47 395.23 505.91 395.28
  C 501.06 395.68 498.04 391.60 493.34 390.80
  C 490.50 390.31 488.57 392.87 488.41 395.48
  Q 488.14 399.69 488.92 403.09
  C 489.71 406.56 491.03 415.84 484.84 414.19
  Q 458.90 407.29 434.48 390.34
  Q 434.01 390.01 433.99 389.44
  Q 433.82 384.78 433.76 379.91
  C 433.74 378.67 434.58 377.82 435.61 377.31
  C 451.16 369.53 463.99 356.52 475.69 343.99
  A 0.77 0.77 0.0 0 0 475.12 342.70
  C 470.80 342.72 466.60 341.72 462.27 341.73
  C 454.48 341.75 447.12 340.91 439.00 341.38
  C 427.94 342.04 416.81 341.76 405.73 341.74
  C 398.49 341.73 391.46 342.72 384.09 342.95
  A 0.93 0.93 0.0 0 0 383.40 344.47
  Q 391.20 353.84 400.31 362.94
  Q 409.61 372.23 421.14 378.36
  A 1.13 1.12 -76.7 0 1 421.74 379.34
  Q 421.83 383.49 421.77 388.28
  Q 421.74 390.70 419.78 392.07
  Q 410.43 398.57 401.43 403.88
  C 398.03 405.88 394.37 407.38 390.74 408.99
  C 385.40 411.35 380.06 412.83 374.72 415.12
  Q 374.23 415.33 373.70 415.23
  C 370.25 414.54 369.58 411.07 370.24 408.14
  C 371.19 403.94 373.22 396.01 370.44 392.81
  Q 368.20 390.24 364.98 391.87
  C 362.35 393.20 358.35 396.20 355.50 396.03
  A 0.82 0.82 0.0 0 1 354.73 395.26
  C 354.57 392.32 354.87 389.34 356.97 387.00
  C 359.05 384.69 361.49 381.84 362.47 378.85
  A 2.30 2.29 7.1 0 0 360.13 375.85
  Q 355.91 376.13 352.29 378.46
  Q 350.09 379.87 347.51 380.56
  Q 346.77 380.75 346.72 379.99
  Z
  M 469.60 270.07
  C 474.21 266.76 482.59 269.36 487.80 269.06
  C 493.94 268.70 498.81 266.21 504.32 262.76
  Q 508.67 260.04 512.62 259.49
  Q 519.46 258.52 526.60 258.24
  A 0.36 0.35 2.8 0 0 526.94 257.94
  Q 527.00 257.53 526.70 257.25
  Q 513.65 244.87 495.59 242.45
  Q 484.36 240.94 474.38 241.36
  Q 466.98 241.67 461.11 245.95
  C 458.19 248.08 454.35 249.99 450.94 249.48
  Q 447.44 248.97 443.06 247.93
  Q 439.79 247.15 442.23 249.46
  Q 444.53 251.62 447.13 253.58
  C 451.47 256.86 452.78 261.46 453.50 266.73
  Q 454.09 271.05 454.41 275.27
  C 454.84 280.67 455.26 285.39 457.07 290.86
  Q 462.90 308.54 469.51 325.58
  C 470.69 328.65 472.37 330.70 474.64 332.86
  A 1.44 1.44 0.0 0 0 476.53 332.94
  Q 477.62 332.09 477.26 330.72
  Q 473.34 315.95 469.13 300.46
  Q 466.02 289.01 466.94 276.58
  C 467.11 274.41 467.81 271.35 469.60 270.07
  Z
  M 345.29 260.67
  C 352.78 262.19 357.96 268.13 365.19 269.57
  Q 371.73 270.88 378.38 269.73
  Q 379.87 269.47 381.03 269.71
  C 383.21 270.16 386.05 269.84 387.78 271.09
  Q 390.00 272.69 390.34 275.61
  Q 391.27 283.53 390.40 291.27
  Q 389.81 296.52 387.27 306.30
  Q 383.89 319.33 380.50 332.36
  Q 380.25 333.33 380.53 334.03
  Q 380.96 335.08 382.14 335.20
  Q 382.67 335.25 383.03 334.86
  Q 386.88 330.70 387.43 329.17
  Q 390.88 319.58 394.42 310.25
  C 396.88 303.74 398.86 297.42 400.89 290.99
  C 401.75 288.27 402.05 285.61 402.47 282.83
  Q 402.93 279.78 403.09 276.79
  Q 403.41 270.92 404.68 264.30
  C 406.08 257.00 410.97 254.33 416.06 249.89
  A 0.67 0.66 -59.7 0 0 415.76 248.74
  Q 415.48 248.69 415.01 248.79
  Q 411.13 249.64 407.52 250.37
  C 402.50 251.38 397.90 247.96 393.72 245.25
  C 389.17 242.31 383.81 242.05 378.43 242.16
  Q 371.42 242.30 363.94 243.15
  Q 345.80 245.20 332.64 257.01
  Q 329.51 259.82 333.71 259.75
  Q 340.22 259.65 345.29 260.67
  Z
  M 788.3996 584.7893
  A 26.87 24.06 -0.3 0 0 761.4040 560.8703
  A 26.87 24.06 -0.3 0 0 734.6604 585.0707
  A 26.87 24.06 -0.3 0 0 761.6560 608.9897
  A 26.87 24.06 -0.3 0 0 788.3996 584.7893
  Z
  M 500.31 723.29
  L 500.37 732.38
  A 0.51 0.50 0.0 0 0 500.88 732.88
  L 548.11 732.94
  A 0.80 0.79 -0.4 0 0 548.91 732.14
  L 548.06 619.06
  A 0.38 0.38 0.0 0 0 547.68 618.68
  L 500.78 618.66
  Q 500.22 618.66 500.22 619.22
  L 500.20 628.71
  Q 500.20 630.02 499.30 629.07
  C 479.01 607.58 445.97 612.80 433.50 639.55
  C 426.90 653.71 426.16 670.51 427.36 685.99
  Q 427.96 693.69 430.32 702.01
  C 436.27 723.03 448.73 737.38 472.60 735.80
  C 482.52 735.14 492.99 730.86 499.53 723.01
  Q 500.31 722.07 500.31 723.29
  Z
  M 372.75 629.83
  C 371.36 628.31 370.20 626.56 368.57 625.28
  Q 358.39 617.29 346.17 616.23
  C 327.78 614.63 313.38 624.07 305.90 640.44
  Q 301.27 650.57 300.15 660.66
  Q 298.98 671.13 299.35 682.92
  Q 299.83 697.82 305.35 710.64
  C 310.86 723.42 317.54 732.42 331.46 736.10
  Q 341.54 738.76 351.83 735.94
  Q 362.53 733.02 369.45 725.91
  C 370.47 724.86 371.10 723.50 372.14 722.45
  A 0.47 0.47 0.0 0 1 372.94 722.83
  C 372.00 731.31 372.00 740.01 372.13 749.06
  C 372.22 756.42 367.59 761.83 359.79 761.55
  C 350.47 761.22 354.05 749.04 356.62 744.27
  Q 357.42 742.79 355.74 742.70
  Q 354.88 742.66 354.00 742.72
  Q 331.76 744.26 310.48 744.29
  A 1.41 1.38 -72.2 0 0 309.34 744.89
  Q 300.49 757.60 307.03 771.78
  C 311.21 780.86 321.12 785.70 330.64 788.02
  Q 352.95 793.46 378.20 791.23
  C 382.73 790.83 387.18 789.70 391.64 788.49
  Q 413.90 782.45 419.28 759.75
  Q 421.18 751.71 421.19 746.29
  Q 421.29 683.10 421.30 619.25
  A 0.50 0.50 0.0 0 0 420.80 618.75
  L 374.17 618.74
  A 0.83 0.83 0.0 0 0 373.34 619.58
  L 373.46 629.54
  Q 373.48 630.62 372.75 629.83
  Z
  M 243.56 629.43
  Q 243.57 630.52 242.83 629.72
  Q 231.42 617.46 215.75 616.25
  C 204.51 615.37 193.10 619.88 185.15 627.94
  C 179.78 633.38 175.65 641.37 173.69 648.72
  Q 171.66 656.31 171.23 659.92
  Q 169.51 674.55 170.86 688.08
  C 171.37 693.27 172.66 698.52 174.08 703.49
  C 176.70 712.62 182.03 723.58 189.71 729.28
  Q 198.55 735.83 209.94 736.30
  C 222.20 736.80 235.47 733.04 242.56 723.68
  Q 242.71 723.49 242.92 723.38
  Q 243.09 723.29 243.28 723.25
  Q 243.90 723.12 243.89 723.76
  L 243.72 732.47
  A 1.00 1.00 0.0 0 0 244.72 733.49
  L 291.46 733.48
  Q 292.41 733.48 292.40 732.54
  L 291.39 619.65
  A 0.49 0.48 -0.6 0 0 290.90 619.18
  L 244.15 619.20
  A 0.65 0.64 -0.4 0 0 243.50 619.85
  L 243.56 629.43
  Z
  M 131.58 633.79
  L 131.69 620.25
  Q 131.70 619.30 130.75 619.30
  L 94.12 619.40
  Q 93.39 619.40 93.39 620.13
  L 93.80 732.48
  Q 93.81 733.65 94.98 733.65
  L 133.56 733.64
  Q 134.14 733.64 134.30 733.08
  Q 134.41 732.70 134.41 732.00
  Q 134.42 708.36 135.62 681.69
  Q 136.08 671.45 136.76 669.28
  C 139.64 660.08 151.16 656.98 159.86 656.76
  Q 162.47 656.70 164.90 656.51
  A 0.74 0.73 87.9 0 0 165.58 655.77
  L 165.60 617.23
  A 0.96 0.96 0.0 0 0 164.54 616.28
  Q 144.36 618.36 132.34 634.05
  Q 131.57 635.07 131.58 633.79
  Z
  M 782.94 619.14
  A 0.65 0.65 0.0 0 0 782.29 618.49
  L 740.43 618.49
  A 0.65 0.65 0.0 0 0 739.78 619.14
  L 739.78 732.84
  A 0.65 0.65 0.0 0 0 740.43 733.49
  L 782.29 733.49
  A 0.65 0.65 0.0 0 0 782.94 732.84
  L 782.94 619.14
  Z
  M 609.21 695.77
  A 0.20 0.20 0.0 0 1 609.05 695.44
  Q 624.61 676.45 638.45 659.60
  C 641.48 655.91 641.65 652.88 641.69 647.52
  Q 641.79 633.17 641.68 619.19
  A 0.47 0.46 90.0 0 0 641.22 618.72
  L 555.23 618.72
  Q 554.88 618.72 554.88 619.08
  L 555.68 654.21
  A 0.80 0.79 0.4 0 0 556.46 654.99
  Q 569.41 655.26 581.80 655.01
  Q 586.05 654.92 590.40 655.27
  A 0.46 0.46 0.0 0 1 590.71 656.02
  Q 574.95 675.03 560.62 691.53
  C 556.27 696.55 554.66 699.88 554.56 705.96
  Q 554.37 718.35 554.14 732.80
  A 0.68 0.67 -89.6 0 0 554.81 733.49
  L 639.78 733.49
  A 0.77 0.77 0.0 0 0 640.55 732.72
  L 640.59 696.69
  Q 640.59 695.54 639.44 695.54
  L 609.21 695.77
  Z
  M 699.21 695.77
  A 0.15 0.15 0.0 0 1 699.09 695.53
  Q 713.23 678.01 728.22 659.94
  Q 731.70 655.75 731.73 650.25
  Q 731.83 634.64 731.70 619.19
  A 0.48 0.48 0.0 0 0 731.22 618.72
  L 647.04 618.73
  Q 646.70 618.73 646.70 619.06
  L 646.78 653.74
  Q 646.78 655.15 648.18 655.12
  Q 664.42 654.88 679.16 655.12
  Q 679.91 655.13 680.64 655.32
  A 0.43 0.43 0.0 0 1 680.86 656.02
  Q 664.42 675.28 648.33 694.45
  C 644.90 698.54 644.63 702.47 644.41 707.60
  Q 643.88 720.19 643.73 732.51
  A 0.97 0.97 0.0 0 0 644.70 733.49
  L 728.92 733.48
  A 0.65 0.64 90.0 0 0 729.56 732.83
  L 729.54 695.98
  A 0.40 0.40 0.0 0 0 729.13 695.58
  L 699.21 695.77
  Z
  M 580.83 807.60
  C 588.29 797.83 587.68 781.33 580.68 771.91
  C 575.65 765.12 567.76 762.29 559.68 764.24
  C 552.08 766.08 546.21 773.13 544.24 780.74
  C 541.75 790.34 542.82 800.40 548.83 808.30
  Q 552.42 813.01 556.87 814.42
  Q 562.37 816.17 566.95 815.04
  A 2.56 2.55 -23.9 0 1 569.70 816.10
  L 572.88 820.83
  A 1.72 1.71 -30.3 0 0 575.08 821.40
  L 585.96 815.80
  A 0.89 0.88 -34.8 0 0 586.21 814.42
  L 580.87 808.56
  Q 580.45 808.09 580.83 807.60
  Z
  M 483.58 793.46
  L 477.49 765.95
  Q 477.39 765.50 476.93 765.50
  L 462.23 765.52
  A 0.83 0.82 -14.5 0 0 461.51 766.74
  Q 462.36 768.34 462.92 770.19
  Q 468.88 790.02 474.59 808.60
  Q 475.47 811.44 476.23 814.63
  Q 476.59 816.11 478.10 816.12
  L 488.61 816.20
  Q 490.43 816.21 490.94 814.47
  Q 497.43 792.49 503.18 773.92
  C 504.00 771.29 504.35 768.84 505.78 766.39
  A 0.58 0.58 0.0 0 0 505.27 765.52
  L 490.76 765.51
  Q 490.17 765.51 490.03 766.08
  Q 487.30 777.73 484.35 789.21
  Q 484.08 790.25 484.02 791.28
  Q 483.96 792.34 483.84 793.40
  Q 483.75 794.20 483.58 793.46
  Z
  M 528.10 810.39
  L 528.52 815.30
  A 1.03 1.03 0.0 0 0 529.55 816.24
  L 543.75 816.11
  Q 544.44 816.10 544.29 815.43
  Q 543.37 811.48 542.23 807.49
  Q 537.07 789.43 531.99 771.07
  Q 531.42 769.01 531.01 766.40
  A 1.02 1.02 0.0 0 0 530.00 765.54
  L 515.51 765.50
  A 1.67 1.65 7.8 0 0 513.91 766.70
  L 500.01 815.37
  A 0.67 0.67 0.0 0 0 500.65 816.22
  L 514.52 816.20
  A 0.88 0.87 -82.1 0 0 515.36 815.56
  L 516.75 810.52
  A 1.32 1.31 7.2 0 1 518.01 809.55
  L 527.14 809.50
  Q 528.03 809.50 528.10 810.39
  Z
  M 608.48 801.19
  C 604.82 800.92 605.23 794.59 605.23 791.96
  Q 605.26 779.06 605.22 766.19
  Q 605.22 765.52 604.55 765.52
  L 591.02 765.51
  Q 590.49 765.51 590.48 766.05
  Q 590.38 782.55 590.60 797.80
  Q 590.74 807.31 596.96 812.88
  C 601.75 817.18 608.88 818.26 614.79 816.39
  Q 626.37 812.71 627.18 798.93
  Q 627.97 785.36 627.43 766.11
  Q 627.42 765.48 626.79 765.48
  L 613.54 765.50
  A 0.58 0.58 0.0 0 0 612.96 766.08
  Q 613.12 781.91 612.78 795.92
  C 612.71 798.59 611.76 801.44 608.48 801.19
  Z
  M 647.84 780.32
  A 0.83 0.83 0.0 0 1 648.66 779.42
  L 660.16 779.20
  A 0.83 0.83 0.0 0 0 660.97 778.37
  L 661.02 766.35
  A 0.83 0.83 0.0 0 0 660.19 765.52
  L 634.48 765.49
  A 0.83 0.83 0.0 0 0 633.65 766.32
  L 633.69 815.32
  A 0.83 0.83 0.0 0 0 634.52 816.15
  L 660.38 816.22
  A 0.83 0.83 0.0 0 0 661.21 815.38
  L 661.13 802.76
  A 0.83 0.83 0.0 0 0 660.31 801.94
  L 648.89 801.80
  A 0.83 0.83 0.0 0 1 648.07 801.01
  L 647.94 798.00
  A 0.83 0.83 0.0 0 1 648.75 797.14
  L 658.55 796.96
  A 0.83 0.83 0.0 0 0 659.36 796.13
  L 659.29 784.78
  A 0.83 0.83 0.0 0 0 658.48 783.96
  L 648.87 783.70
  A 0.83 0.83 0.0 0 1 648.07 782.94
  L 647.84 780.32
  Z
  M 679.77 802.30
  Q 679.43 798.43 680.95 802.01
  L 686.65 815.40
  A 1.25 1.24 77.9 0 0 687.81 816.16
  L 703.17 816.13
  A 0.29 0.29 0.0 0 0 703.42 815.69
  Q 702.95 814.92 702.54 814.18
  Q 697.92 805.83 693.09 796.47
  A 0.88 0.88 0.0 0 1 693.56 795.24
  Q 697.22 793.86 698.80 790.26
  Q 702.49 781.80 698.28 773.18
  C 695.70 767.88 690.74 765.75 685.16 765.60
  Q 675.91 765.35 665.97 765.57
  A 0.42 0.41 89.3 0 0 665.57 765.99
  L 665.61 815.51
  A 0.65 0.65 0.0 0 0 666.26 816.16
  L 679.69 816.18
  Q 680.20 816.18 680.21 815.68
  Q 680.38 809.04 679.77 802.30
  Z
  M 720.29 766.30
  A 0.79 0.79 0.0 0 0 719.50 765.51
  L 705.78 765.51
  A 0.79 0.79 0.0 0 0 704.99 766.30
  L 704.99 815.38
  A 0.79 0.79 0.0 0 0 705.78 816.17
  L 719.50 816.17
  A 0.79 0.79 0.0 0 0 720.29 815.38
  L 720.29 766.30
  Z
  M 738.71 809.59
  L 747.98 809.49
  Q 748.73 809.48 748.84 810.22
  L 749.58 815.40
  A 0.82 0.82 0.0 0 0 750.39 816.10
  L 764.85 816.23
  A 0.82 0.82 0.0 0 0 765.65 815.19
  Q 760.05 795.48 754.30 774.89
  C 753.49 771.97 752.43 769.23 752.03 766.22
  A 0.79 0.79 0.0 0 0 751.25 765.53
  L 736.02 765.50
  Q 735.44 765.50 735.29 766.06
  Q 728.75 789.41 721.89 812.66
  Q 721.59 813.65 720.99 815.01
  A 0.85 0.85 0.0 0 0 721.78 816.21
  L 736.48 816.04
  A 0.63 0.62 -86.1 0 0 737.08 815.51
  L 737.81 810.38
  Q 737.92 809.60 738.71 809.59
  Z"
/>
<path fill="#000000" d="
  M 355.38 91.66
  C 339.92 76.94 318.65 76.24 299.69 84.20
  Q 297.62 85.07 297.78 82.83
  C 297.93 80.90 299.24 79.33 300.37 77.77
  Q 311.88 61.70 329.58 52.33
  C 333.58 50.22 339.95 48.84 344.91 48.64
  Q 352.89 48.30 357.25 48.85
  Q 361.04 49.32 367.81 51.10
  C 385.85 55.83 400.31 66.60 409.92 82.65
  Q 412.72 87.33 414.07 92.75
  Q 416.04 100.68 416.16 107.63
  Q 416.23 111.49 416.63 115.27
  C 417.01 118.92 416.25 122.46 416.22 126.20
  C 416.14 136.89 416.39 147.64 414.95 158.48
  Q 413.79 167.17 414.00 174.51
  Q 414.23 182.53 414.33 190.45
  Q 414.38 193.88 414.89 197.69
  C 415.29 200.58 415.30 207.70 412.19 209.52
  C 404.58 213.98 399.68 207.25 396.20 201.51
  C 391.49 193.72 386.33 186.51 380.62 178.91
  Q 376.29 173.14 374.50 164.62
  Q 370.55 145.81 368.09 125.83
  Q 366.96 116.69 364.24 107.17
  C 362.62 101.51 359.65 95.72 355.38 91.66
  Z"
/>
<path fill="#000000" d="
  M 487.55 153.46
  C 485.65 162.34 484.27 171.70 478.34 178.90
  Q 471.23 187.52 467.08 193.54
  Q 461.46 201.70 457.10 206.89
  Q 451.96 213.01 444.98 209.52
  C 441.26 207.66 441.48 204.44 441.41 200.70
  Q 441.29 193.66 441.97 187.00
  Q 443.23 174.61 441.84 162.63
  Q 441.54 159.99 441.39 157.31
  C 441.26 154.88 440.75 152.63 440.58 150.21
  Q 439.19 130.48 439.66 109.61
  Q 439.75 105.48 440.52 101.99
  C 441.31 98.43 441.57 94.93 442.65 91.48
  Q 444.78 84.69 449.73 78.28
  C 463.27 60.78 482.13 51.61 503.80 48.99
  Q 508.65 48.41 516.00 48.54
  Q 522.30 48.66 528.07 50.31
  Q 534.68 52.20 540.01 55.55
  C 550.84 62.36 559.17 69.15 567.05 79.81
  Q 568.18 81.35 568.34 83.12
  A 1.16 1.16 0.0 0 1 566.76 84.30
  Q 550.52 77.93 534.32 79.39
  Q 517.88 80.86 505.33 92.13
  C 499.84 97.06 497.16 103.33 495.26 110.50
  Q 492.79 119.81 491.79 127.78
  Q 491.17 132.75 490.49 137.83
  Q 490.01 141.38 489.22 144.54
  C 488.47 147.50 488.19 150.46 487.55 153.46
  Z"
/>
<path fill="#000000" d="
  M 447.88 71.68
  C 442.21 78.34 436.86 85.31 435.85 94.21
  Q 435.18 100.14 434.55 106.08
  Q 433.96 111.69 433.98 116.89
  C 434.01 123.70 433.88 130.25 434.39 137.08
  Q 434.73 141.80 434.88 146.25
  Q 435.06 152.02 435.46 157.73
  C 435.81 162.79 435.90 167.93 436.29 173.08
  Q 437.08 183.51 436.51 188.25
  Q 435.52 196.43 434.90 204.65
  Q 434.74 206.67 433.79 207.54
  C 430.70 210.37 420.47 211.01 420.74 204.53
  Q 420.89 200.82 420.16 196.80
  Q 419.57 193.53 419.57 189.20
  Q 419.58 177.24 419.81 166.24
  C 419.87 162.94 420.60 159.68 420.62 156.24
  Q 420.69 146.40 421.35 135.30
  Q 421.72 129.10 421.59 114.86
  Q 421.55 110.62 421.16 106.32
  Q 420.80 102.32 420.44 97.89
  Q 419.63 87.93 415.73 81.72
  Q 412.56 76.67 408.95 71.81
  A 1.20 1.20 0.0 0 1 409.05 70.25
  C 411.46 67.78 413.08 65.39 416.46 63.94
  C 423.85 60.78 430.08 59.38 437.79 62.18
  C 441.73 63.61 445.03 67.34 447.86 70.42
  A 0.95 0.95 0.0 0 1 447.88 71.68
  Z"
/>
<path fill="#000000" d="
  M 333.09 161.33
  C 323.53 154.74 313.63 150.50 302.29 148.70
  Q 299.47 148.26 296.52 147.88
  Q 292.61 147.37 288.19 147.84
  Q 280.36 148.68 271.53 150.64
  A 1.08 1.08 0.0 0 1 270.22 149.57
  Q 270.31 141.10 270.16 132.97
  Q 270.02 125.04 271.53 119.82
  C 274.40 109.95 280.81 103.11 288.70 96.43
  Q 303.66 83.77 323.51 83.64
  Q 326.37 83.62 331.39 84.63
  C 347.75 87.95 357.25 99.28 360.03 115.35
  Q 362.20 127.91 364.09 140.53
  C 364.94 146.19 366.38 151.57 367.18 157.17
  C 367.54 159.66 368.38 161.89 368.80 164.37
  Q 370.68 175.54 374.99 182.21
  C 379.33 188.93 385.53 194.90 389.77 202.24
  A 0.74 0.74 0.0 0 1 389.30 203.33
  Q 387.58 203.75 385.93 203.04
  Q 375.23 198.48 367.28 191.47
  Q 359.57 184.66 351.04 176.10
  Q 343.36 168.40 333.09 161.33
  Z"
/>
<path fill="#000000" d="
  M 474.48 202.05
  C 472.59 202.84 471.66 203.64 469.39 203.28
  A 0.91 0.91 0.0 0 1 468.75 201.91
  Q 471.90 196.64 476.10 192.20
  C 481.25 186.74 485.24 182.10 488.19 175.18
  Q 490.09 170.71 490.96 166.42
  Q 492.47 159.01 494.11 151.60
  C 496.32 141.61 498.05 131.59 499.57 121.34
  Q 500.95 112.05 503.56 106.13
  Q 511.12 88.99 530.35 84.86
  C 535.05 83.85 540.58 83.26 545.68 83.82
  Q 550.55 84.36 552.99 84.83
  Q 566.24 87.39 576.27 95.02
  C 586.12 102.50 596.01 111.31 597.62 124.42
  Q 599.13 136.68 598.13 149.03
  A 1.39 1.39 0.0 0 1 596.50 150.29
  C 587.75 148.71 578.77 147.22 570.32 147.76
  Q 562.38 148.26 554.54 150.22
  C 532.20 155.80 514.71 171.71 498.15 186.91
  Q 487.61 196.59 474.48 202.05
  Z"
/>
<path fill="#000000" d="
  M 347.51 380.56
  Q 350.09 379.87 352.29 378.46
  Q 355.91 376.13 360.13 375.85
  A 2.30 2.29 7.1 0 1 362.47 378.85
  C 361.49 381.84 359.05 384.69 356.97 387.00
  C 354.87 389.34 354.57 392.32 354.73 395.26
  A 0.82 0.82 0.0 0 0 355.50 396.03
  C 358.35 396.20 362.35 393.20 364.98 391.87
  Q 368.20 390.24 370.44 392.81
  C 373.22 396.01 371.19 403.94 370.24 408.14
  C 369.58 411.07 370.25 414.54 373.70 415.23
  Q 374.23 415.33 374.72 415.12
  C 380.06 412.83 385.40 411.35 390.74 408.99
  C 394.37 407.38 398.03 405.88 401.43 403.88
  Q 410.43 398.57 419.78 392.07
  Q 421.74 390.70 421.77 388.28
  Q 421.83 383.49 421.74 379.34
  A 1.13 1.12 -76.7 0 0 421.14 378.36
  Q 409.61 372.23 400.31 362.94
  Q 391.20 353.84 383.40 344.47
  A 0.93 0.93 0.0 0 1 384.09 342.95
  C 391.46 342.72 398.49 341.73 405.73 341.74
  C 416.81 341.76 427.94 342.04 439.00 341.38
  C 447.12 340.91 454.48 341.75 462.27 341.73
  C 466.60 341.72 470.80 342.72 475.12 342.70
  A 0.77 0.77 0.0 0 1 475.69 343.99
  C 463.99 356.52 451.16 369.53 435.61 377.31
  C 434.58 377.82 433.74 378.67 433.76 379.91
  Q 433.82 384.78 433.99 389.44
  Q 434.01 390.01 434.48 390.34
  Q 458.90 407.29 484.84 414.19
  C 491.03 415.84 489.71 406.56 488.92 403.09
  Q 488.14 399.69 488.41 395.48
  C 488.57 392.87 490.50 390.31 493.34 390.80
  C 498.04 391.60 501.06 395.68 505.91 395.28
  Q 506.47 395.23 506.51 394.67
  C 506.78 391.37 506.54 388.64 503.99 386.31
  Q 499.98 382.67 498.02 377.62
  Q 497.87 377.23 498.04 376.85
  C 499.69 373.17 506.56 376.42 509.17 377.92
  C 510.96 378.95 512.82 379.53 514.79 380.02
  A 0.49 0.48 3.3 0 0 515.39 379.49
  Q 514.86 375.53 514.85 371.34
  C 514.84 366.33 512.71 360.94 510.02 356.94
  C 503.79 347.66 513.29 345.34 519.65 343.20
  C 531.88 339.10 538.53 326.94 542.77 315.05
  Q 543.81 312.11 544.04 309.09
  C 544.26 306.25 544.94 303.83 544.52 300.93
  Q 543.44 293.38 545.73 284.44
  Q 547.06 279.27 547.59 273.78
  C 548.25 266.85 542.96 259.66 538.98 254.34
  Q 536.28 250.72 531.64 247.36
  Q 525.12 242.63 518.66 237.85
  C 513.75 234.21 511.65 230.03 513.75 223.98
  C 515.81 218.04 516.98 213.24 512.89 207.55
  C 507.31 199.82 500.07 200.79 491.65 200.94
  Q 489.86 200.97 491.42 200.10
  Q 493.34 199.03 494.80 197.74
  Q 505.26 188.53 516.13 178.85
  Q 525.07 170.88 539.40 163.17
  Q 557.01 153.70 578.58 153.46
  Q 582.75 153.41 586.67 154.06
  C 590.52 154.70 594.34 154.95 598.16 156.12
  C 613.40 160.79 626.52 169.13 633.40 183.88
  Q 636.73 191.01 637.72 197.18
  C 638.58 202.50 639.88 207.80 639.88 213.07
  C 639.89 218.56 640.70 223.83 640.80 229.31
  Q 641.02 242.09 640.94 255.61
  A 1.32 1.31 -88.5 0 1 639.57 256.92
  C 626.34 256.34 615.31 248.46 605.26 240.24
  Q 599.12 235.22 590.55 226.31
  Q 582.89 218.35 575.79 212.45
  C 568.34 206.26 558.50 202.57 548.71 202.25
  C 545.14 202.13 539.10 202.92 537.14 206.25
  A 0.71 0.70 18.8 0 0 537.66 207.30
  Q 542.70 207.98 548.02 208.52
  C 558.81 209.62 565.75 214.40 573.71 222.25
  C 584.10 232.51 595.23 242.89 606.97 251.79
  Q 617.58 259.83 631.97 264.58
  C 637.63 266.45 643.03 269.21 648.51 271.60
  C 657.28 275.42 666.16 281.35 672.57 288.79
  Q 693.13 312.59 695.96 343.17
  Q 696.42 348.25 696.44 356.36
  Q 696.46 363.09 694.93 367.58
  Q 692.73 374.05 688.56 378.61
  C 684.84 382.68 680.87 386.68 676.85 390.47
  Q 669.65 397.27 664.08 405.63
  C 660.77 410.58 658.13 416.36 655.63 421.85
  A 2.20 2.19 -80.7 0 1 653.89 423.11
  C 652.60 423.26 651.74 422.47 651.38 421.28
  C 648.43 411.55 644.53 398.91 638.14 390.19
  Q 635.36 386.40 628.49 380.31
  C 620.74 373.44 614.38 364.49 607.56 355.59
  C 597.53 342.53 587.38 328.40 583.51 312.55
  C 582.52 308.49 582.50 304.57 581.42 300.52
  Q 581.22 299.76 580.48 299.51
  Q 578.99 299.01 577.44 299.65
  A 1.00 0.99 80.3 0 0 576.84 300.50
  Q 575.98 316.33 580.71 326.85
  C 586.19 339.03 593.16 351.12 601.79 362.20
  Q 611.07 374.10 619.41 383.21
  C 622.92 387.06 627.10 390.06 630.22 394.53
  Q 635.64 402.32 638.58 409.97
  Q 644.64 425.74 649.63 439.63
  C 653.05 449.18 655.85 459.32 654.85 469.28
  C 653.70 480.70 647.38 493.79 640.81 503.31
  C 634.97 511.78 626.19 517.26 616.83 521.80
  C 604.02 528.02 590.06 532.77 576.06 533.66
  C 570.90 534.00 566.37 534.60 560.89 533.95
  Q 557.26 533.52 553.79 533.58
  A 1.33 1.33 0.0 0 1 552.44 532.28
  C 552.35 529.00 553.25 525.82 553.43 522.46
  Q 554.17 508.63 551.65 499.06
  C 548.01 485.25 542.49 469.80 540.56 456.70
  C 539.42 449.03 538.18 441.06 538.38 433.16
  C 538.50 428.58 532.18 426.74 531.07 431.05
  Q 527.94 443.13 529.27 453.68
  C 530.37 462.47 532.24 471.60 534.96 480.51
  Q 538.48 492.09 542.07 504.46
  C 543.03 507.77 542.99 510.77 543.46 514.04
  Q 543.92 517.20 543.46 520.46
  C 543.02 523.54 543.10 526.51 542.38 529.60
  Q 540.48 537.83 537.04 543.92
  C 534.50 548.39 531.02 552.33 527.82 556.38
  Q 520.70 565.41 508.99 569.28
  C 504.70 570.70 499.66 571.17 494.99 571.87
  Q 492.10 572.31 489.09 572.41
  C 478.75 572.75 468.38 573.34 458.08 571.30
  Q 452.45 570.19 444.73 570.80
  C 439.43 571.21 433.33 573.61 427.75 575.06
  A 6.42 6.40 45.7 0 1 424.36 575.01
  Q 420.48 573.89 416.61 572.71
  C 410.94 570.99 404.62 571.16 399.00 572.44
  Q 395.22 573.30 391.31 573.43
  Q 380.40 573.78 368.54 573.19
  Q 366.60 573.09 361.26 572.33
  Q 344.26 569.89 334.50 556.48
  C 331.63 552.53 328.33 548.34 326.36 544.13
  Q 322.45 535.77 321.54 529.35
  Q 321.00 525.54 320.62 521.50
  Q 320.27 517.84 320.67 514.79
  C 321.06 511.76 321.04 508.76 321.81 505.78
  Q 325.08 493.23 328.89 479.75
  Q 332.52 466.89 333.95 450.97
  Q 334.25 447.64 333.84 443.58
  Q 333.46 439.85 332.99 436.20
  C 332.75 434.37 332.66 431.15 331.01 429.99
  C 329.38 428.85 326.82 429.29 326.01 431.24
  Q 325.28 432.99 325.12 437.50
  C 324.93 442.77 324.96 448.48 323.81 453.63
  C 323.07 456.94 323.15 460.26 322.38 463.50
  Q 318.55 479.59 313.97 496.19
  Q 312.10 502.95 311.11 513.15
  C 310.44 519.92 311.88 526.09 312.48 532.68
  A 1.63 1.62 85.3 0 1 311.00 534.44
  Q 306.45 534.79 301.64 535.13
  Q 297.90 535.40 294.46 534.96
  C 291.24 534.55 288.16 534.59 284.90 533.97
  Q 263.72 529.96 245.13 518.12
  Q 237.57 513.30 232.97 507.13
  C 225.75 497.44 220.05 483.86 217.99 472.25
  C 217.08 467.17 217.41 461.04 218.58 455.89
  C 219.45 452.05 220.23 448.22 221.40 444.46
  Q 227.91 423.67 233.20 409.64
  Q 236.71 400.33 242.72 392.09
  C 245.29 388.56 248.96 385.86 251.81 382.39
  Q 261.66 370.35 270.66 357.11
  C 277.14 347.57 282.28 336.57 286.93 325.96
  Q 287.54 324.57 287.86 323.11
  Q 290.11 312.98 289.98 301.76
  Q 289.96 299.76 287.97 299.51
  Q 286.53 299.33 285.26 302.47
  A 3.11 3.00 60.6 0 0 285.06 303.24
  Q 284.60 307.11 284.03 311.13
  Q 283.35 315.83 281.37 321.08
  Q 276.42 334.16 268.29 346.25
  C 259.23 359.74 250.32 373.20 238.47 384.70
  Q 232.72 390.28 229.60 397.05
  Q 225.36 406.29 221.43 421.22
  C 221.10 422.46 220.36 423.65 218.99 423.80
  A 1.95 1.94 -12.7 0 1 216.95 422.52
  Q 211.04 406.02 200.57 394.56
  Q 194.33 387.72 188.13 380.83
  Q 182.14 374.16 180.61 367.25
  C 179.66 362.96 179.24 357.96 179.55 353.52
  C 179.99 347.13 179.85 340.96 181.02 334.45
  Q 185.34 310.39 200.01 290.92
  Q 208.65 279.44 222.68 272.44
  C 227.37 270.10 232.33 267.49 237.15 265.71
  C 244.29 263.06 251.29 259.93 257.75 255.41
  Q 262.42 252.14 266.72 248.27
  Q 280.52 235.84 295.70 219.56
  C 301.54 213.30 307.88 210.00 316.06 208.91
  C 319.37 208.47 322.90 208.35 326.12 207.57
  A 0.82 0.82 0.0 0 0 326.45 206.15
  Q 321.70 202.11 315.41 202.52
  Q 312.96 202.67 308.58 203.66
  Q 298.88 205.86 291.78 211.78
  Q 286.54 216.15 276.92 226.99
  Q 269.55 235.28 265.36 239.05
  C 255.84 247.60 245.98 255.46 233.25 257.48
  Q 230.66 257.89 230.66 255.33
  C 230.63 244.98 230.26 234.59 231.06 224.44
  Q 231.42 219.76 231.62 213.88
  Q 232.04 200.82 236.01 188.51
  Q 241.34 171.96 255.47 163.21
  Q 261.57 159.43 266.79 157.48
  Q 272.27 155.43 279.87 154.26
  Q 286.69 153.21 292.63 153.66
  Q 309.26 154.91 323.05 162.56
  Q 337.74 170.70 349.75 182.79
  Q 356.75 189.83 364.65 197.06
  Q 366.45 198.71 368.38 200.04
  Q 369.75 201.00 368.08 200.89
  Q 362.13 200.49 356.60 201.71
  C 352.25 202.67 348.76 207.17 347.16 210.98
  Q 346.25 213.13 346.44 216.70
  Q 346.60 219.54 347.50 221.98
  Q 349.28 226.79 348.22 232.02
  C 347.20 237.05 339.00 241.84 335.22 244.62
  Q 323.60 253.15 317.97 266.49
  Q 317.25 268.19 316.78 271.29
  Q 316.41 273.81 316.86 276.13
  Q 317.94 281.70 319.04 287.26
  Q 320.48 294.56 319.69 300.43
  Q 319.26 303.57 319.73 306.15
  C 320.19 308.68 320.14 311.07 320.87 313.64
  Q 324.18 325.34 329.99 333.78
  Q 334.69 340.62 343.06 343.84
  C 347.15 345.41 351.60 346.65 353.80 350.95
  Q 354.05 351.45 353.84 351.98
  Q 352.50 355.29 350.57 359.08
  Q 345.95 368.12 346.72 379.99
  Q 346.77 380.75 347.51 380.56
  Z
  M 393.18 419.15
  Q 387.53 421.67 381.90 424.96
  Q 381.46 425.22 381.33 425.71
  C 379.46 432.72 380.61 438.57 381.47 445.36
  C 381.85 448.36 385.71 450.14 388.30 450.39
  Q 399.48 451.43 408.60 455.59
  C 411.66 456.99 414.98 458.19 417.03 461.12
  C 419.88 465.20 426.32 470.85 431.48 467.34
  Q 435.74 464.43 438.88 460.56
  C 441.46 457.39 444.80 456.36 448.26 454.94
  Q 459.66 450.28 469.70 449.73
  Q 471.60 449.63 473.73 448.83
  C 478.14 447.17 478.16 441.86 478.73 438.06
  Q 479.68 431.57 478.08 425.50
  A 2.05 2.04 5.6 0 0 477.00 424.19
  C 471.65 421.58 466.33 418.64 460.65 416.85
  C 455.57 415.25 450.57 413.35 445.37 412.37
  C 438.39 411.05 431.86 409.86 424.59 410.68
  Q 407.94 412.56 393.18 419.15
  Z"
/>
<path fill="#000000" d="
  M 469.60 270.07
  C 467.81 271.35 467.11 274.41 466.94 276.58
  Q 466.02 289.01 469.13 300.46
  Q 473.34 315.95 477.26 330.72
  Q 477.62 332.09 476.53 332.94
  A 1.44 1.44 0.0 0 1 474.64 332.86
  C 472.37 330.70 470.69 328.65 469.51 325.58
  Q 462.90 308.54 457.07 290.86
  C 455.26 285.39 454.84 280.67 454.41 275.27
  Q 454.09 271.05 453.50 266.73
  C 452.78 261.46 451.47 256.86 447.13 253.58
  Q 444.53 251.62 442.23 249.46
  Q 439.79 247.15 443.06 247.93
  Q 447.44 248.97 450.94 249.48
  C 454.35 249.99 458.19 248.08 461.11 245.95
  Q 466.98 241.67 474.38 241.36
  Q 484.36 240.94 495.59 242.45
  Q 513.65 244.87 526.70 257.25
  Q 527.00 257.53 526.94 257.94
  A 0.36 0.35 2.8 0 1 526.60 258.24
  Q 519.46 258.52 512.62 259.49
  Q 508.67 260.04 504.32 262.76
  C 498.81 266.21 493.94 268.70 487.80 269.06
  C 482.59 269.36 474.21 266.76 469.60 270.07
  Z"
/>
<path fill="#000000" d="
  M 345.29 260.67
  Q 340.22 259.65 333.71 259.75
  Q 329.51 259.82 332.64 257.01
  Q 345.80 245.20 363.94 243.15
  Q 371.42 242.30 378.43 242.16
  C 383.81 242.05 389.17 242.31 393.72 245.25
  C 397.90 247.96 402.50 251.38 407.52 250.37
  Q 411.13 249.64 415.01 248.79
  Q 415.48 248.69 415.76 248.74
  A 0.67 0.66 -59.7 0 1 416.06 249.89
  C 410.97 254.33 406.08 257.00 404.68 264.30
  Q 403.41 270.92 403.09 276.79
  Q 402.93 279.78 402.47 282.83
  C 402.05 285.61 401.75 288.27 400.89 290.99
  C 398.86 297.42 396.88 303.74 394.42 310.25
  Q 390.88 319.58 387.43 329.17
  Q 386.88 330.70 383.03 334.86
  Q 382.67 335.25 382.14 335.20
  Q 380.96 335.08 380.53 334.03
  Q 380.25 333.33 380.50 332.36
  Q 383.89 319.33 387.27 306.30
  Q 389.81 296.52 390.40 291.27
  Q 391.27 283.53 390.34 275.61
  Q 390.00 272.69 387.78 271.09
  C 386.05 269.84 383.21 270.16 381.03 269.71
  Q 379.87 269.47 378.38 269.73
  Q 371.73 270.88 365.19 269.57
  C 357.96 268.13 352.78 262.19 345.29 260.67
  Z"
/>
<path fill="#ffffff" d="
  M 393.18 419.15
  Q 407.94 412.56 424.59 410.68
  C 431.86 409.86 438.39 411.05 445.37 412.37
  C 450.57 413.35 455.57 415.25 460.65 416.85
  C 466.33 418.64 471.65 421.58 477.00 424.19
  A 2.05 2.04 5.6 0 1 478.08 425.50
  Q 479.68 431.57 478.73 438.06
  C 478.16 441.86 478.14 447.17 473.73 448.83
  Q 471.60 449.63 469.70 449.73
  Q 459.66 450.28 448.26 454.94
  C 444.80 456.36 441.46 457.39 438.88 460.56
  Q 435.74 464.43 431.48 467.34
  C 426.32 470.85 419.88 465.20 417.03 461.12
  C 414.98 458.19 411.66 456.99 408.60 455.59
  Q 399.48 451.43 388.30 450.39
  C 385.71 450.14 381.85 448.36 381.47 445.36
  C 380.61 438.57 379.46 432.72 381.33 425.71
  Q 381.46 425.22 381.90 424.96
  Q 387.53 421.67 393.18 419.15
  Z"
/>
<ellipse fill="#cd1d31" cx="0.00" cy="0.00" transform="translate(761.53,584.93) rotate(-0.3)" rx="26.87" ry="24.06"/>
<path fill="#cd1d31" d="
  M 500.31 723.29
  Q 500.31 722.07 499.53 723.01
  C 492.99 730.86 482.52 735.14 472.60 735.80
  C 448.73 737.38 436.27 723.03 430.32 702.01
  Q 427.96 693.69 427.36 685.99
  C 426.16 670.51 426.90 653.71 433.50 639.55
  C 445.97 612.80 479.01 607.58 499.30 629.07
  Q 500.20 630.02 500.20 628.71
  L 500.22 619.22
  Q 500.22 618.66 500.78 618.66
  L 547.68 618.68
  A 0.38 0.38 0.0 0 1 548.06 619.06
  L 548.91 732.14
  A 0.80 0.79 -0.4 0 1 548.11 732.94
  L 500.88 732.88
  A 0.51 0.50 0.0 0 1 500.37 732.38
  L 500.31 723.29
  Z
  M 497.50 689.89
  C 501.25 683.06 501.21 673.68 500.18 665.85
  C 499.72 662.40 498.24 658.98 496.43 656.04
  C 492.53 649.67 483.37 649.73 479.11 655.67
  Q 476.25 659.67 475.52 664.20
  C 474.17 672.69 473.76 684.93 479.31 692.12
  C 484.74 699.16 493.46 697.27 497.50 689.89
  Z"
/>
<path fill="#cd1d31" d="
  M 373.46 629.54
  L 373.34 619.58
  A 0.83 0.83 0.0 0 1 374.17 618.74
  L 420.80 618.75
  A 0.50 0.50 0.0 0 1 421.30 619.25
  Q 421.29 683.10 421.19 746.29
  Q 421.18 751.71 419.28 759.75
  Q 413.90 782.45 391.64 788.49
  C 387.18 789.70 382.73 790.83 378.20 791.23
  Q 352.95 793.46 330.64 788.02
  C 321.12 785.70 311.21 780.86 307.03 771.78
  Q 300.49 757.60 309.34 744.89
  A 1.41 1.38 -72.2 0 1 310.48 744.29
  Q 331.76 744.26 354.00 742.72
  Q 354.88 742.66 355.74 742.70
  Q 357.42 742.79 356.62 744.27
  C 354.05 749.04 350.47 761.22 359.79 761.55
  C 367.59 761.83 372.22 756.42 372.13 749.06
  C 372.00 740.01 372.00 731.31 372.94 722.83
  A 0.47 0.47 0.0 0 0 372.14 722.45
  C 371.10 723.50 370.47 724.86 369.45 725.91
  Q 362.53 733.02 351.83 735.94
  Q 341.54 738.76 331.46 736.10
  C 317.54 732.42 310.86 723.42 305.35 710.64
  Q 299.83 697.82 299.35 682.92
  Q 298.98 671.13 300.15 660.66
  Q 301.27 650.57 305.90 640.44
  C 313.38 624.07 327.78 614.63 346.17 616.23
  Q 358.39 617.29 368.57 625.28
  C 370.20 626.56 371.36 628.31 372.75 629.83
  Q 373.48 630.62 373.46 629.54
  Z
  M 369.51 694.74
  C 371.70 691.32 373.02 687.56 373.51 683.44
  C 374.56 674.65 375.33 647.91 359.28 651.72
  C 352.62 653.31 350.94 663.92 350.44 669.75
  C 349.74 678.09 349.78 695.36 360.14 698.70
  C 363.56 699.81 367.68 697.59 369.51 694.74
  Z"
/>
<path fill="#cd1d31" d="
  M 243.56 629.43
  L 243.50 619.85
  A 0.65 0.64 -0.4 0 1 244.15 619.20
  L 290.90 619.18
  A 0.49 0.48 -0.6 0 1 291.39 619.65
  L 292.40 732.54
  Q 292.41 733.48 291.46 733.48
  L 244.72 733.49
  A 1.00 1.00 0.0 0 1 243.72 732.47
  L 243.89 723.76
  Q 243.90 723.12 243.28 723.25
  Q 243.09 723.29 242.92 723.38
  Q 242.71 723.49 242.56 723.68
  C 235.47 733.04 222.20 736.80 209.94 736.30
  Q 198.55 735.83 189.71 729.28
  C 182.03 723.58 176.70 712.62 174.08 703.49
  C 172.66 698.52 171.37 693.27 170.86 688.08
  Q 169.51 674.55 171.23 659.92
  Q 171.66 656.31 173.69 648.72
  C 175.65 641.37 179.78 633.38 185.15 627.94
  C 193.10 619.88 204.51 615.37 215.75 616.25
  Q 231.42 617.46 242.83 629.72
  Q 243.57 630.52 243.56 629.43
  Z
  M 232.84 696.98
  C 238.77 696.50 242.60 691.18 243.85 685.70
  Q 246.28 675.02 244.04 663.80
  C 243.12 659.23 239.82 653.12 234.82 651.97
  C 228.51 650.52 223.80 654.16 221.45 660.04
  C 218.95 666.28 218.73 672.32 219.13 678.77
  C 219.57 685.88 223.54 697.72 232.84 696.98
  Z"
/>
<path fill="#cd1d31" d="
  M 131.58 633.79
  Q 131.57 635.07 132.34 634.05
  Q 144.36 618.36 164.54 616.28
  A 0.96 0.96 0.0 0 1 165.60 617.23
  L 165.58 655.77
  A 0.74 0.73 87.9 0 1 164.90 656.51
  Q 162.47 656.70 159.86 656.76
  C 151.16 656.98 139.64 660.08 136.76 669.28
  Q 136.08 671.45 135.62 681.69
  Q 134.42 708.36 134.41 732.00
  Q 134.41 732.70 134.30 733.08
  Q 134.14 733.64 133.56 733.64
  L 94.98 733.65
  Q 93.81 733.65 93.80 732.48
  L 93.39 620.13
  Q 93.39 619.40 94.12 619.40
  L 130.75 619.30
  Q 131.70 619.30 131.69 620.25
  L 131.58 633.79
  Z"
/>
<rect fill="#cd1d31" x="739.78" y="618.49" width="43.16" height="115.00" rx="0.65"/>
<path fill="#cd1d31" d="
  M 609.21 695.77
  L 639.44 695.54
  Q 640.59 695.54 640.59 696.69
  L 640.55 732.72
  A 0.77 0.77 0.0 0 1 639.78 733.49
  L 554.81 733.49
  A 0.68 0.67 -89.6 0 1 554.14 732.80
  Q 554.37 718.35 554.56 705.96
  C 554.66 699.88 556.27 696.55 560.62 691.53
  Q 574.95 675.03 590.71 656.02
  A 0.46 0.46 0.0 0 0 590.40 655.27
  Q 586.05 654.92 581.80 655.01
  Q 569.41 655.26 556.46 654.99
  A 0.80 0.79 0.4 0 1 555.68 654.21
  L 554.88 619.08
  Q 554.88 618.72 555.23 618.72
  L 641.22 618.72
  A 0.47 0.46 -90.0 0 1 641.68 619.19
  Q 641.79 633.17 641.69 647.52
  C 641.65 652.88 641.48 655.91 638.45 659.60
  Q 624.61 676.45 609.05 695.44
  A 0.20 0.20 0.0 0 0 609.21 695.77
  Z"
/>
<path fill="#cd1d31" d="
  M 699.21 695.77
  L 729.13 695.58
  A 0.40 0.40 0.0 0 1 729.54 695.98
  L 729.56 732.83
  A 0.65 0.64 -90.0 0 1 728.92 733.48
  L 644.70 733.49
  A 0.97 0.97 0.0 0 1 643.73 732.51
  Q 643.88 720.19 644.41 707.60
  C 644.63 702.47 644.90 698.54 648.33 694.45
  Q 664.42 675.28 680.86 656.02
  A 0.43 0.43 0.0 0 0 680.64 655.32
  Q 679.91 655.13 679.16 655.12
  Q 664.42 654.88 648.18 655.12
  Q 646.78 655.15 646.78 653.74
  L 646.70 619.06
  Q 646.70 618.73 647.04 618.73
  L 731.22 618.72
  A 0.48 0.48 0.0 0 1 731.70 619.19
  Q 731.83 634.64 731.73 650.25
  Q 731.70 655.75 728.22 659.94
  Q 713.23 678.01 699.09 695.53
  A 0.15 0.15 0.0 0 0 699.21 695.77
  Z"
/>
<path fill="#ffffff" d="
  M 369.51 694.74
  C 367.68 697.59 363.56 699.81 360.14 698.70
  C 349.78 695.36 349.74 678.09 350.44 669.75
  C 350.94 663.92 352.62 653.31 359.28 651.72
  C 375.33 647.91 374.56 674.65 373.51 683.44
  C 373.02 687.56 371.70 691.32 369.51 694.74
  Z"
/>
<path fill="#ffffff" d="
  M 497.50 689.89
  C 493.46 697.27 484.74 699.16 479.31 692.12
  C 473.76 684.93 474.17 672.69 475.52 664.20
  Q 476.25 659.67 479.11 655.67
  C 483.37 649.73 492.53 649.67 496.43 656.04
  C 498.24 658.98 499.72 662.40 500.18 665.85
  C 501.21 673.68 501.25 683.06 497.50 689.89
  Z"
/>
<path fill="#ffffff" d="
  M 243.85 685.70
  C 242.60 691.18 238.77 696.50 232.84 696.98
  C 223.54 697.72 219.57 685.88 219.13 678.77
  C 218.73 672.32 218.95 666.28 221.45 660.04
  C 223.80 654.16 228.51 650.52 234.82 651.97
  C 239.82 653.12 243.12 659.23 244.04 663.80
  Q 246.28 675.02 243.85 685.70
  Z"
/>
<path fill="#cd1d31" d="
  M 580.87 808.56
  L 586.21 814.42
  A 0.89 0.88 -34.8 0 1 585.96 815.80
  L 575.08 821.40
  A 1.72 1.71 -30.3 0 1 572.88 820.83
  L 569.70 816.10
  A 2.56 2.55 -23.9 0 0 566.95 815.04
  Q 562.37 816.17 556.87 814.42
  Q 552.42 813.01 548.83 808.30
  C 542.82 800.40 541.75 790.34 544.24 780.74
  C 546.21 773.13 552.08 766.08 559.68 764.24
  C 567.76 762.29 575.65 765.12 580.68 771.91
  C 587.68 781.33 588.29 797.83 580.83 807.60
  Q 580.45 808.09 580.87 808.56
  Z
  M 565.1530 802.8887
  A 13.82 5.89 89.2 0 0 570.8494 788.9878
  A 13.82 5.89 89.2 0 0 564.7670 775.2513
  A 13.82 5.89 89.2 0 0 559.0706 789.1522
  A 13.82 5.89 89.2 0 0 565.1530 802.8887
  Z"
/>
<path fill="#cd1d31" d="
  M 483.84 793.40
  Q 483.96 792.34 484.02 791.28
  Q 484.08 790.25 484.35 789.21
  Q 487.30 777.73 490.03 766.08
  Q 490.17 765.51 490.76 765.51
  L 505.27 765.52
  A 0.58 0.58 0.0 0 1 505.78 766.39
  C 504.35 768.84 504.00 771.29 503.18 773.92
  Q 497.43 792.49 490.94 814.47
  Q 490.43 816.21 488.61 816.20
  L 478.10 816.12
  Q 476.59 816.11 476.23 814.63
  Q 475.47 811.44 474.59 808.60
  Q 468.88 790.02 462.92 770.19
  Q 462.36 768.34 461.51 766.74
  A 0.83 0.82 -14.5 0 1 462.23 765.52
  L 476.93 765.50
  Q 477.39 765.50 477.49 765.95
  L 483.58 793.46
  Q 483.75 794.20 483.84 793.40
  Z"
/>
<path fill="#cd1d31" d="
  M 527.14 809.50
  L 518.01 809.55
  A 1.32 1.31 7.2 0 0 516.75 810.52
  L 515.36 815.56
  A 0.88 0.87 -82.1 0 1 514.52 816.20
  L 500.65 816.22
  A 0.67 0.67 0.0 0 1 500.01 815.37
  L 513.91 766.70
  A 1.67 1.65 7.8 0 1 515.51 765.50
  L 530.00 765.54
  A 1.02 1.02 0.0 0 1 531.01 766.40
  Q 531.42 769.01 531.99 771.07
  Q 537.07 789.43 542.23 807.49
  Q 543.37 811.48 544.29 815.43
  Q 544.44 816.10 543.75 816.11
  L 529.55 816.24
  A 1.03 1.03 0.0 0 1 528.52 815.30
  L 528.10 810.39
  Q 528.03 809.50 527.14 809.50
  Z
  M 524.41 795.21
  Q 523.17 791.52 522.38 782.25
  Q 522.37 782.19 522.31 782.19
  L 522.05 782.19
  Q 521.64 782.18 521.61 782.58
  Q 521.04 790.08 519.72 796.87
  Q 519.59 797.54 520.27 797.54
  L 524.49 797.48
  A 0.47 0.47 0.0 0 0 524.93 796.88
  Q 524.69 796.05 524.41 795.21
  Z"
/>
<path fill="#cd1d31" d="
  M 605.23 791.96
  C 605.23 794.59 604.82 800.92 608.48 801.19
  C 611.76 801.44 612.71 798.59 612.78 795.92
  Q 613.12 781.91 612.96 766.08
  A 0.58 0.58 0.0 0 1 613.54 765.50
  L 626.79 765.48
  Q 627.42 765.48 627.43 766.11
  Q 627.97 785.36 627.18 798.93
  Q 626.37 812.71 614.79 816.39
  C 608.88 818.26 601.75 817.18 596.96 812.88
  Q 590.74 807.31 590.60 797.80
  Q 590.38 782.55 590.48 766.05
  Q 590.49 765.51 591.02 765.51
  L 604.55 765.52
  Q 605.22 765.52 605.22 766.19
  Q 605.26 779.06 605.23 791.96
  Z"
/>
<path fill="#cd1d31" d="
  M 647.84 780.32
  L 648.07 782.94
  A 0.83 0.83 0.0 0 0 648.87 783.70
  L 658.48 783.96
  A 0.83 0.83 0.0 0 1 659.29 784.78
  L 659.36 796.13
  A 0.83 0.83 0.0 0 1 658.55 796.96
  L 648.75 797.14
  A 0.83 0.83 0.0 0 0 647.94 798.00
  L 648.07 801.01
  A 0.83 0.83 0.0 0 0 648.89 801.80
  L 660.31 801.94
  A 0.83 0.83 0.0 0 1 661.13 802.76
  L 661.21 815.38
  A 0.83 0.83 0.0 0 1 660.38 816.22
  L 634.52 816.15
  A 0.83 0.83 0.0 0 1 633.69 815.32
  L 633.65 766.32
  A 0.83 0.83 0.0 0 1 634.48 765.49
  L 660.19 765.52
  A 0.83 0.83 0.0 0 1 661.02 766.35
  L 660.97 778.37
  A 0.83 0.83 0.0 0 1 660.16 779.20
  L 648.66 779.42
  A 0.83 0.83 0.0 0 0 647.84 780.32
  Z"
/>
<path fill="#cd1d31" d="
  M 679.77 802.30
  Q 680.38 809.04 680.21 815.68
  Q 680.20 816.18 679.69 816.18
  L 666.26 816.16
  A 0.65 0.65 0.0 0 1 665.61 815.51
  L 665.57 765.99
  A 0.42 0.41 89.3 0 1 665.97 765.57
  Q 675.91 765.35 685.16 765.60
  C 690.74 765.75 695.70 767.88 698.28 773.18
  Q 702.49 781.80 698.80 790.26
  Q 697.22 793.86 693.56 795.24
  A 0.88 0.88 0.0 0 0 693.09 796.47
  Q 697.92 805.83 702.54 814.18
  Q 702.95 814.92 703.42 815.69
  A 0.29 0.29 0.0 0 1 703.17 816.13
  L 687.81 816.16
  A 1.25 1.24 77.9 0 1 686.65 815.40
  L 680.95 802.01
  Q 679.43 798.43 679.77 802.30
  Z
  M 680.12 779.58
  L 680.10 787.34
  A 0.93 0.93 0.0 0 0 681.02 788.27
  L 682.07 788.28
  A 4.24 4.07 0.2 0 0 686.33 784.22
  L 686.33 782.74
  A 4.24 4.07 0.2 0 0 682.11 778.66
  L 681.06 778.65
  A 0.93 0.93 0.0 0 0 680.12 779.58
  Z"
/>
<rect fill="#cd1d31" x="704.99" y="765.51" width="15.30" height="50.66" rx="0.79"/>
<path fill="#cd1d31" d="
  M 737.81 810.38
  L 737.08 815.51
  A 0.63 0.62 -86.1 0 1 736.48 816.04
  L 721.78 816.21
  A 0.85 0.85 0.0 0 1 720.99 815.01
  Q 721.59 813.65 721.89 812.66
  Q 728.75 789.41 735.29 766.06
  Q 735.44 765.50 736.02 765.50
  L 751.25 765.53
  A 0.79 0.79 0.0 0 1 752.03 766.22
  C 752.43 769.23 753.49 771.97 754.30 774.89
  Q 760.05 795.48 765.65 815.19
  A 0.82 0.82 0.0 0 1 764.85 816.23
  L 750.39 816.10
  A 0.82 0.82 0.0 0 1 749.58 815.40
  L 748.84 810.22
  Q 748.73 809.48 747.98 809.49
  L 738.71 809.59
  Q 737.92 809.60 737.81 810.38
  Z
  M 743.29 782.96
  C 742.99 785.32 742.94 787.41 742.24 789.71
  C 741.52 792.09 741.22 794.60 740.82 797.05
  A 0.44 0.44 0.0 0 0 741.26 797.56
  L 745.33 797.47
  Q 745.86 797.46 745.82 796.93
  Q 745.52 793.12 744.49 789.59
  C 743.85 787.41 743.67 785.24 743.61 782.98
  Q 743.60 782.84 743.46 782.83
  L 743.45 782.83
  Q 743.31 782.82 743.29 782.96
  Z"
/>
<ellipse fill="#ffffff" cx="0.00" cy="0.00" transform="translate(564.96,789.07) rotate(89.2)" rx="13.82" ry="5.89"/>
<path fill="#ffffff" d="
  M 680.12 779.58
  A 0.93 0.93 0.0 0 1 681.06 778.65
  L 682.11 778.66
  A 4.24 4.07 0.2 0 1 686.33 782.74
  L 686.33 784.22
  A 4.24 4.07 0.2 0 1 682.07 788.28
  L 681.02 788.27
  A 0.93 0.93 0.0 0 1 680.10 787.34
  L 680.12 779.58
  Z"
/>
<path fill="#ffffff" d="
  M 524.41 795.21
  Q 524.69 796.05 524.93 796.88
  A 0.47 0.47 0.0 0 1 524.49 797.48
  L 520.27 797.54
  Q 519.59 797.54 519.72 796.87
  Q 521.04 790.08 521.61 782.58
  Q 521.64 782.18 522.05 782.19
  L 522.31 782.19
  Q 522.37 782.19 522.38 782.25
  Q 523.17 791.52 524.41 795.21
  Z"
/>
<path fill="#ffffff" d="
  M 742.24 789.71
  C 742.94 787.41 742.99 785.32 743.29 782.96
  Q 743.31 782.82 743.45 782.83
  L 743.46 782.83
  Q 743.60 782.84 743.61 782.98
  C 743.67 785.24 743.85 787.41 744.49 789.59
  Q 745.52 793.12 745.82 796.93
  Q 745.86 797.46 745.33 797.47
  L 741.26 797.56
  A 0.44 0.44 0.0 0 1 740.82 797.05
  C 741.22 794.60 741.52 792.09 742.24 789.71
  Z"
/>
</svg>
