<?xml version="1.0" encoding="UTF-8" standalone="no"?>
<!DOCTYPE svg PUBLIC "-//W3C//DTD SVG 1.1//EN" "http://www.w3.org/Graphics/SVG/1.1/DTD/svg11.dtd">
<svg xmlns="http://www.w3.org/2000/svg" version="1.1" viewBox="0.00 0.00 1000.00 1000.00">
<g stroke-width="2.00" fill="none" stroke-linecap="butt">
<path stroke="#96b38d" vector-effect="non-scaling-stroke" d="
  M 496.08 140.01
  L 491.80 175.90
  A 1.05 1.05 0.0 0 0 492.71 177.07
  L 510.20 179.15
  A 19.90 18.71 6.8 0 0 532.18 162.93
  L 532.27 162.12
  A 19.90 18.71 6.8 0 0 514.73 141.18
  L 497.24 139.10
  A 1.05 1.05 0.0 0 0 496.08 140.01"
/>
<path stroke="#96b38d" vector-effect="non-scaling-stroke" d="
  M 462.8046 157.7359
  A 21.06 19.94 -6.5 0 0 439.6227 140.3082
  A 21.06 19.94 -6.5 0 0 420.9554 162.5041
  A 21.06 19.94 -6.5 0 0 444.1373 179.9318
  A 21.06 19.94 -6.5 0 0 462.8046 157.7359"
/>
<path stroke="#96b38d" vector-effect="non-scaling-stroke" d="
  M 553.02 164.29
  A 0.45 0.45 0.0 0 1 552.71 163.73
  L 554.92 155.84
  A 0.45 0.45 0.0 0 1 555.48 155.53
  L 574.21 160.94
  A 0.45 0.45 0.0 0 0 574.76 160.64
  L 576.45 155.24
  A 0.45 0.45 0.0 0 0 576.14 154.67
  L 549.39 147.10
  A 0.45 0.45 0.0 0 0 548.84 147.41
  L 538.60 183.31
  A 0.45 0.45 0.0 0 0 538.91 183.86
  L 566.31 191.58
  A 0.45 0.45 0.0 0 0 566.86 191.29
  L 568.58 185.93
  A 0.45 0.45 0.0 0 0 568.27 185.36
  L 548.59 179.79
  A 0.45 0.45 0.0 0 1 548.28 179.22
  L 550.86 170.78
  A 0.45 0.45 0.0 0 1 551.41 170.48
  L 567.86 175.13
  A 0.45 0.45 0.0 0 0 568.42 174.81
  L 569.83 169.71
  A 0.45 0.45 0.0 0 0 569.53 169.15
  L 553.02 164.29"
/>
<path stroke="#96b38d" vector-effect="non-scaling-stroke" d="
  M 399.20 157.26
  Q 401.08 164.31 403.22 172.16
  C 403.73 174.06 404.66 176.69 403.80 178.63
  Q 402.08 182.54 397.22 182.30
  Q 395.53 182.22 392.77 180.45
  Q 391.71 179.76 391.23 180.94
  L 389.43 185.36
  Q 388.98 186.48 390.03 187.05
  C 394.69 189.60 400.31 189.32 405.14 187.19
  C 411.05 184.57 413.58 179.00 411.96 172.91
  Q 409.14 162.31 405.12 147.62
  A 0.53 0.52 -15.5 0 0 404.47 147.26
  Q 394.27 150.15 384.14 152.74
  Q 383.86 152.81 383.94 153.09
  L 385.56 158.95
  Q 385.65 159.27 385.96 159.18
  L 397.21 156.11
  Q 398.78 155.69 399.20 157.26"
/>
<path stroke="#96b38d" vector-effect="non-scaling-stroke" d="
  M 358.32 179.41
  A 0.35 0.35 0.0 0 1 357.86 179.22
  L 354.53 171.47
  A 0.35 0.35 0.0 0 1 354.72 171.00
  L 372.90 163.46
  A 0.35 0.35 0.0 0 0 373.09 163.01
  L 370.89 157.51
  A 0.35 0.35 0.0 0 0 370.43 157.32
  L 344.54 168.25
  A 0.35 0.35 0.0 0 0 344.36 168.71
  L 358.97 203.27
  A 0.35 0.35 0.0 0 0 359.43 203.45
  L 386.03 192.20
  A 0.35 0.35 0.0 0 0 386.21 191.73
  L 383.69 186.47
  A 0.35 0.35 0.0 0 0 383.24 186.30
  L 364.63 194.13
  A 0.35 0.35 0.0 0 1 364.18 193.95
  L 360.39 185.80
  A 0.35 0.35 0.0 0 1 360.58 185.33
  L 376.70 178.59
  A 0.35 0.35 0.0 0 0 376.89 178.14
  L 374.79 172.87
  A 0.35 0.35 0.0 0 0 374.33 172.68
  L 358.32 179.41"
/>
<path stroke="#96b38d" vector-effect="non-scaling-stroke" d="
  M 587.07 189.83
  A 1.15 1.14 -65.8 0 1 588.58 189.25
  Q 593.40 191.44 597.69 193.07
  Q 603.02 195.09 608.68 193.36
  C 612.93 192.06 615.33 188.14 616.62 184.19
  Q 617.46 181.61 616.88 178.58
  Q 615.55 171.55 608.56 168.12
  Q 600.68 164.25 591.83 160.43
  A 0.55 0.54 -66.3 0 0 591.12 160.71
  L 575.66 194.76
  A 0.24 0.24 0.0 0 0 575.78 195.08
  L 582.99 198.26
  A 0.32 0.31 24.4 0 0 583.40 198.11
  L 587.07 189.83"
/>
<path stroke="#96b38d" vector-effect="non-scaling-stroke" d="
  M 349.58 201.68
  A 0.86 0.86 0.0 0 0 348.38 201.36
  L 333.06 210.49
  A 0.86 0.86 0.0 0 1 331.88 210.19
  L 316.69 184.53
  A 0.86 0.86 0.0 0 0 315.53 184.22
  L 309.72 187.44
  A 0.86 0.86 0.0 0 0 309.40 188.63
  L 328.06 220.19
  A 0.86 0.86 0.0 0 0 329.24 220.49
  L 351.66 207.24
  A 0.86 0.86 0.0 0 0 351.98 206.09
  L 349.58 201.68"
/>
<path stroke="#96b38d" vector-effect="non-scaling-stroke" d="
  M 657.2142 218.9582
  A 21.11 19.86 33.1 0 0 650.3756 190.7929
  A 21.11 19.86 33.1 0 0 621.8458 195.9018
  A 21.11 19.86 33.1 0 0 628.6844 224.0671
  A 21.11 19.86 33.1 0 0 657.2142 218.9582"
/>
<path stroke="#96b38d" vector-effect="non-scaling-stroke" d="
  M 296.51 231.31
  C 303.42 226.70 311.35 219.23 308.00 210.16
  Q 305.54 203.51 299.00 201.77
  Q 292.39 200.00 285.71 205.02
  Q 279.48 209.70 271.94 215.95
  A 0.50 0.50 0.0 0 0 271.87 216.66
  L 295.17 245.88
  A 0.27 0.26 -38.0 0 0 295.54 245.92
  L 301.59 241.06
  Q 301.82 240.88 301.64 240.66
  L 296.13 233.74
  Q 294.99 232.32 296.51 231.31"
/>
<path stroke="#855232" vector-effect="non-scaling-stroke" d="
  M 543.82 734.66
  Q 544.28 733.37 545.62 733.65
  Q 557.53 736.17 567.49 736.41
  C 576.14 736.62 585.75 734.96 594.15 732.78
  Q 609.55 728.80 625.26 717.41
  C 628.85 714.81 631.91 711.65 635.31 708.85
  C 638.32 706.38 640.31 703.20 642.99 700.42
  C 645.43 697.89 647.46 694.96 649.61 692.17
  A 2.40 2.39 37.0 0 1 652.93 691.71
  C 657.08 694.76 660.84 698.31 665.07 701.45
  Q 678.84 711.67 690.65 717.33
  Q 716.30 729.63 747.54 733.62
  C 756.08 734.71 764.87 734.36 773.53 734.42
  C 784.41 734.50 794.96 732.71 805.28 730.12
  Q 818.69 726.74 832.36 719.04
  Q 841.82 713.71 848.43 707.38
  Q 852.77 703.22 856.77 698.97
  C 870.29 684.58 878.81 665.83 882.97 646.45
  Q 887.90 623.42 886.01 599.76
  Q 882.71 558.75 850.95 533.33
  Q 849.52 532.18 849.22 531.10
  A 1.38 1.37 82.5 0 1 850.54 529.37
  L 884.52 529.31
  A 2.63 2.62 5.0 0 0 887.09 527.16
  Q 888.38 519.95 889.66 511.62
  Q 895.34 474.46 899.23 449.98
  Q 900.25 443.53 900.55 437.70
  A 1.17 1.17 0.0 0 0 899.38 436.47
  Q 813.88 436.43 728.25 436.39
  Q 726.68 436.39 725.54 435.56
  Q 724.71 434.94 724.62 433.86
  C 722.94 413.00 718.90 391.92 711.90 372.22
  Q 706.39 356.69 699.89 343.23
  Q 684.90 312.16 658.23 283.01
  Q 653.64 277.98 647.82 272.59
  Q 639.47 264.83 636.43 262.32
  Q 578.49 214.33 504.20 205.67
  Q 494.37 204.52 484.27 204.34
  Q 470.33 204.10 460.01 204.80
  Q 421.25 207.45 383.84 222.29
  Q 380.11 223.77 377.07 225.26
  C 371.46 228.01 365.67 230.29 360.29 233.29
  Q 349.65 239.24 339.84 245.60
  Q 332.52 250.34 324.21 256.86
  Q 315.01 264.07 309.03 269.56
  C 302.51 275.56 295.86 282.24 290.32 288.76
  Q 282.42 298.06 278.17 303.75
  Q 268.33 316.93 260.95 329.93
  Q 250.46 348.42 242.16 371.10
  Q 240.87 374.61 239.74 378.68
  C 237.96 385.06 235.80 391.43 234.56 397.83
  C 232.95 406.15 231.07 414.81 230.24 423.42
  Q 229.78 428.23 229.33 433.22
  A 2.47 2.47 0.0 0 1 226.88 435.47
  C 219.35 435.52 211.88 435.84 204.70 435.71
  Q 187.38 435.41 160.07 435.60
  C 157.43 435.62 157.56 437.29 157.20 439.32
  Q 149.81 480.71 142.69 522.77
  Q 142.25 525.38 142.10 527.87
  A 2.24 2.23 1.9 0 0 144.33 530.24
  Q 177.54 530.29 210.76 530.34
  Q 211.93 530.34 212.41 531.35
  Q 212.86 532.31 212.36 533.39
  Q 211.86 534.48 211.71 535.56
  Q 210.34 545.09 208.39 555.25
  Q 206.23 566.56 204.91 574.85
  C 202.60 589.36 199.58 605.22 197.31 618.36
  Q 191.35 652.98 185.19 686.61
  C 184.74 689.07 184.66 691.81 184.17 694.24
  Q 180.61 711.91 178.08 729.44
  Q 177.68 732.26 180.53 732.26
  L 271.76 732.32
  Q 272.94 732.32 273.13 731.15
  Q 277.79 702.84 282.84 676.52
  Q 283.28 674.22 283.79 671.79
  Q 284.74 667.30 286.60 671.50
  C 288.77 676.40 290.34 681.53 293.00 686.26
  Q 298.16 695.43 300.40 698.46
  Q 323.23 729.42 361.78 734.98
  Q 365.59 735.53 370.02 735.99
  Q 374.10 736.42 377.98 736.35
  Q 409.08 735.75 433.67 721.20
  C 438.87 718.12 443.79 714.52 448.80 710.96
  Q 453.33 707.73 452.24 713.18
  Q 451.57 716.54 451.03 719.77
  Q 446.72 745.77 443.02 766.54
  Q 442.65 768.63 442.28 770.75
  Q 439.34 787.45 436.18 806.49
  Q 435.47 810.76 434.46 815.02
  A 1.00 0.99 -86.4 0 0 435.53 816.24
  Q 437.16 816.07 438.93 815.25
  Q 463.44 804.04 487.54 792.79
  Q 492.39 790.52 497.58 788.19
  Q 517.18 779.42 536.16 770.23
  A 2.44 2.42 -6.6 0 0 537.48 768.58
  Q 539.21 760.97 540.15 753.93
  C 540.81 749.00 541.97 744.10 542.68 739.14
  Q 542.99 736.98 543.82 734.66"
/>
<path stroke="#96b38d" vector-effect="non-scaling-stroke" d="
  M 680.75 249.52
  C 682.95 249.42 684.85 250.28 687.11 249.64
  C 695.11 247.36 700.06 239.44 696.20 231.34
  Q 694.36 227.48 691.45 224.61
  Q 685.42 218.65 679.55 213.40
  Q 679.10 213.00 678.69 213.44
  L 652.97 240.65
  Q 652.84 240.78 652.97 240.91
  L 658.76 246.51
  A 0.33 0.33 0.0 0 0 659.24 246.49
  Q 662.21 243.20 664.53 240.33
  C 665.55 239.07 667.16 238.92 668.27 240.25
  Q 669.70 241.96 671.43 243.33
  A 3.08 3.06 23.6 0 1 672.56 246.20
  L 670.85 257.55
  Q 670.82 257.74 670.96 257.87
  L 677.06 263.74
  A 0.12 0.12 0.0 0 0 677.26 263.67
  L 678.96 251.16
  Q 679.17 249.59 680.75 249.52"
/>
<path stroke="#96b38d" vector-effect="non-scaling-stroke" d="
  M 261.14 259.70
  Q 258.97 259.89 256.89 259.50
  Q 247.04 257.62 234.89 255.44
  A 1.67 1.67 0.0 0 0 233.28 256.05
  L 230.00 260.26
  Q 229.71 260.63 230.06 260.95
  L 258.15 285.63
  Q 258.28 285.74 258.41 285.61
  L 263.43 280.17
  A 0.25 0.25 0.0 0 0 263.41 279.80
  L 248.76 267.03
  Q 246.50 265.06 249.49 265.18
  Q 251.48 265.25 253.68 265.67
  Q 260.96 267.04 267.06 268.06
  A 2.94 2.94 0.0 0 0 270.33 264.24
  L 264.45 246.31
  A 0.82 0.81 -13.4 0 1 265.11 245.25
  Q 265.59 245.18 265.96 245.49
  Q 274.14 252.47 281.28 258.86
  Q 281.69 259.23 282.07 258.82
  L 286.64 253.86
  A 0.49 0.49 0.0 0 0 286.60 253.16
  L 258.75 228.69
  Q 258.03 228.06 257.42 228.78
  L 254.08 232.70
  A 1.47 1.47 0.0 0 0 253.81 234.11
  L 261.82 258.66
  Q 262.13 259.61 261.14 259.70"
/>
<path stroke="#96b38d" vector-effect="non-scaling-stroke" d="
  M 711.84 256.33
  A 0.57 0.57 0.0 0 1 711.76 257.13
  L 687.99 276.32
  A 0.57 0.57 0.0 0 0 687.91 277.12
  L 692.52 282.63
  A 0.57 0.57 0.0 0 0 693.32 282.71
  L 717.13 263.65
  A 0.57 0.57 0.0 0 1 717.93 263.75
  L 724.84 272.78
  A 0.57 0.57 0.0 0 0 725.64 272.88
  L 730.13 269.44
  A 0.57 0.57 0.0 0 0 730.23 268.64
  L 710.10 243.37
  A 0.57 0.57 0.0 0 0 709.29 243.28
  L 704.91 246.86
  A 0.57 0.57 0.0 0 0 704.83 247.66
  L 711.84 256.33"
/>
<path stroke="#96b38d" vector-effect="non-scaling-stroke" d="
  M 736.6288 278.7411
  A 0.26 0.26 0.0 0 0 736.2695 278.6627
  L 704.4941 299.0622
  A 0.26 0.26 0.0 0 0 704.4157 299.4215
  L 708.6512 306.0189
  A 0.26 0.26 0.0 0 0 709.0105 306.0973
  L 740.7859 285.6978
  A 0.26 0.26 0.0 0 0 740.8643 285.3385
  L 736.6288 278.7411"
/>
<path stroke="#96b38d" vector-effect="non-scaling-stroke" d="
  M 214.7145 318.8276
  A 21.09 19.94 122.9 0 0 242.9120 311.9509
  A 21.09 19.94 122.9 0 0 237.6255 283.4124
  A 21.09 19.94 122.9 0 0 209.4280 290.2891
  A 21.09 19.94 122.9 0 0 214.7145 318.8276"
/>
<path stroke="#96b38d" vector-effect="non-scaling-stroke" d="
  M 732.44 325.19
  A 0.57 0.57 0.0 0 1 732.38 324.38
  L 750.98 302.85
  A 0.49 0.48 52.8 0 0 751.05 302.32
  L 747.33 294.91
  Q 747.14 294.55 746.88 294.86
  L 720.60 325.59
  Q 720.14 326.13 720.45 326.76
  L 723.55 332.98
  A 0.99 0.98 -12.1 0 0 724.40 333.52
  C 732.84 333.79 741.37 332.52 749.86 332.56
  C 755.01 332.58 759.99 331.82 765.14 331.63
  Q 765.34 331.62 765.25 331.45
  L 761.83 324.71
  A 0.38 0.37 -12.2 0 0 761.51 324.51
  Q 756.75 324.34 752.51 324.89
  C 746.24 325.71 740.14 325.38 733.73 325.65
  Q 733.02 325.68 732.44 325.19"
/>
<path stroke="#96b38d" vector-effect="non-scaling-stroke" d="
  M 201.08 352.13
  C 196.34 350.15 192.88 344.76 193.75 339.38
  Q 195.02 331.50 201.89 328.62
  Q 202.41 328.40 202.19 327.88
  L 199.94 322.39
  Q 199.72 321.85 199.15 321.97
  Q 197.58 322.30 196.33 323.17
  C 188.28 328.79 183.74 340.26 187.88 349.77
  C 191.07 357.09 197.85 361.42 205.62 361.71
  C 213.06 361.99 219.19 358.29 222.95 352.07
  Q 228.83 342.32 225.15 332.42
  Q 224.70 331.21 223.53 331.75
  L 218.98 333.84
  Q 217.92 334.34 218.36 335.43
  Q 221.15 342.37 216.95 348.02
  Q 210.87 356.20 201.08 352.13"
/>
<path stroke="#96b38d" vector-effect="non-scaling-stroke" d="
  M 762.3687 385.8799
  A 21.14 19.91 73.6 0 0 775.4999 359.9786
  A 21.14 19.91 73.6 0 0 750.4313 345.3201
  A 21.14 19.91 73.6 0 0 737.3001 371.2214
  A 21.14 19.91 73.6 0 0 762.3687 385.8799"
/>
<path stroke="#96b38d" vector-effect="non-scaling-stroke" d="
  M 503.69 146.97
  L 500.64 170.76
  A 0.45 0.45 0.0 0 0 501.03 171.26
  L 509.86 172.39
  A 12.41 11.53 7.3 0 0 523.64 162.54
  L 523.87 160.73
  A 12.41 11.53 7.3 0 0 513.02 147.72
  L 504.20 146.59
  A 0.45 0.45 0.0 0 0 503.69 146.97"
/>
<path stroke="#96b38d" vector-effect="non-scaling-stroke" d="
  M 442.7616 172.9217
  A 12.85 12.60 86.2 0 0 454.4823 159.2649
  A 12.85 12.60 86.2 0 0 441.0584 147.2783
  A 12.85 12.60 86.2 0 0 429.3377 160.9351
  A 12.85 12.60 86.2 0 0 442.7616 172.9217"
/>
<path stroke="#96b38d" vector-effect="non-scaling-stroke" d="
  M 595.75 171.03
  L 591.04 181.32
  A 1.29 1.29 0.0 0 0 591.67 183.03
  L 598.39 186.10
  A 7.31 6.64 24.6 0 0 607.80 183.11
  L 608.05 182.54
  A 7.31 6.64 24.6 0 0 604.17 173.46
  L 597.46 170.39
  A 1.29 1.29 0.0 0 0 595.75 171.03"
/>
<path stroke="#96b38d" vector-effect="non-scaling-stroke" d="
  M 632.6683 218.2218
  A 12.81 12.50 122.6 0 0 650.1007 214.1646
  A 12.81 12.50 122.6 0 0 646.4717 196.6382
  A 12.81 12.50 122.6 0 0 629.0393 200.6954
  A 12.81 12.50 122.6 0 0 632.6683 218.2218"
/>
<path stroke="#96b38d" vector-effect="non-scaling-stroke" d="
  M 282.86 217.00
  L 290.47 226.43
  A 0.88 0.88 0.0 0 0 291.71 226.56
  L 298.06 221.44
  A 7.06 6.51 -38.9 0 0 299.46 211.94
  L 298.92 211.27
  A 7.06 6.51 -38.9 0 0 289.34 210.64
  L 282.99 215.76
  A 0.88 0.88 0.0 0 0 282.86 217.00"
/>
<path stroke="#ee9ea4" vector-effect="non-scaling-stroke" d="
  M 289.23 633.36
  Q 290.40 652.90 294.48 667.02
  C 303.91 699.64 330.54 722.53 364.25 726.92
  C 397.94 731.32 429.19 719.71 453.37 695.10
  Q 459.59 688.77 464.83 683.19
  Q 466.20 681.73 465.86 683.71
  L 445.35 802.53
  A 0.32 0.32 0.0 0 0 445.80 802.87
  L 528.75 764.64
  A 2.26 2.25 -7.7 0 0 530.02 762.98
  L 537.13 722.03
  A 0.52 0.52 0.0 0 1 537.87 721.65
  Q 544.61 724.92 551.90 726.33
  Q 569.48 729.71 587.74 725.80
  C 611.13 720.80 630.43 705.23 643.87 685.53
  Q 646.66 681.45 649.19 677.51
  A 0.32 0.32 0.0 0 1 649.67 677.44
  Q 656.04 682.92 661.64 687.81
  C 675.09 699.54 691.07 709.43 707.85 715.52
  Q 745.39 729.13 783.38 725.53
  Q 805.09 723.48 823.33 714.41
  C 846.45 702.91 863.25 681.83 871.19 657.43
  Q 878.74 634.19 877.96 606.63
  C 877.27 582.40 869.01 561.09 850.84 544.46
  Q 836.81 531.62 819.81 521.44
  Q 818.66 520.74 820.00 520.74
  L 879.21 520.74
  A 0.63 0.63 0.0 0 0 879.83 520.20
  Q 884.50 488.16 889.26 458.76
  Q 890.31 452.33 891.11 445.18
  A 0.39 0.39 0.0 0 0 890.72 444.74
  L 717.48 444.74
  A 0.69 0.68 -1.3 0 1 716.79 444.09
  Q 716.12 432.34 714.62 420.94
  C 706.68 360.74 676.06 305.81 629.27 267.44
  Q 574.77 222.75 504.58 214.20
  Q 494.98 213.03 484.50 212.79
  Q 469.88 212.46 459.27 213.30
  C 403.86 217.67 351.13 240.27 311.12 279.22
  Q 295.69 294.24 285.31 308.17
  Q 240.59 368.21 237.07 443.51
  Q 237.03 444.27 236.27 444.27
  L 165.77 444.31
  A 1.10 1.10 0.0 0 0 164.69 445.22
  L 151.50 521.06
  Q 151.38 521.74 152.07 521.74
  L 222.34 521.74
  A 0.53 0.53 0.0 0 1 222.86 522.35
  L 187.46 723.15
  Q 187.32 723.96 188.15 723.96
  L 265.26 723.95
  A 0.69 0.68 -84.9 0 0 265.93 723.38
  Q 272.90 682.95 280.20 641.31
  C 280.49 639.69 280.49 638.04 282.05 637.00
  Q 285.37 634.79 288.44 632.94
  Q 289.18 632.49 289.23 633.36"
/>
<path stroke="#8b8f9a" vector-effect="non-scaling-stroke" d="
  M 667.91 380.63
  L 645.26 378.22
  Q 644.69 378.16 644.61 378.73
  L 633.33 461.19
  A 2.04 2.03 -61.8 0 0 633.81 462.79
  L 673.47 507.97
  Q 673.88 508.43 673.71 509.02
  Q 668.12 528.10 659.32 545.22
  Q 658.98 545.89 659.28 546.58
  Q 664.92 559.55 666.51 574.48
  Q 666.68 576.01 667.50 574.71
  C 690.71 538.18 703.40 496.46 703.39 453.42
  Q 703.39 399.66 680.06 352.53
  C 653.24 298.35 605.65 256.84 548.27 237.84
  C 487.93 217.87 420.90 224.46 365.74 255.80
  Q 324.06 279.47 295.45 318.29
  Q 253.38 375.35 251.20 447.47
  A 0.52 0.51 -88.9 0 0 251.71 448.01
  L 272.45 448.01
  Q 273.00 448.01 273.01 447.46
  Q 273.97 409.85 288.05 375.40
  Q 288.56 374.13 288.80 375.48
  L 290.87 387.26
  A 0.58 0.58 0.0 0 0 291.74 387.67
  L 348.37 354.90
  A 3.64 3.64 0.0 0 0 349.88 353.18
  L 377.96 286.69
  A 0.69 0.68 24.8 0 0 377.63 285.81
  L 367.66 280.82
  Q 366.90 280.44 367.63 279.99
  Q 425.34 243.94 494.10 248.79
  Q 495.74 248.90 494.33 249.76
  L 466.11 266.87
  A 0.45 0.45 0.0 0 0 466.10 267.63
  L 519.77 302.18
  A 6.10 6.06 61.8 0 0 522.89 303.13
  L 596.18 304.75
  A 0.73 0.73 0.0 0 0 596.93 304.06
  L 597.84 288.08
  A 0.27 0.27 0.0 0 1 598.27 287.88
  Q 645.13 322.87 666.95 376.41
  Q 667.71 378.26 668.30 380.15
  Q 668.47 380.69 667.91 380.63"
/>
<path stroke="#8b8f9a" vector-effect="non-scaling-stroke" d="
  M 402.57 481.14
  A 0.50 0.50 0.0 0 0 402.87 481.57
  L 482.21 515.36
  A 0.50 0.50 0.0 0 0 482.71 515.30
  L 560.86 456.38
  A 0.50 0.50 0.0 0 0 561.01 455.76
  L 508.82 348.61
  A 0.50 0.50 0.0 0 0 508.24 348.35
  L 396.23 379.15
  A 0.50 0.50 0.0 0 0 395.87 379.67
  L 402.57 481.14"
/>
<path stroke="#8b8f9a" vector-effect="non-scaling-stroke" d="
  M 168.20 507.38
  A 0.52 0.52 0.0 0 0 168.71 507.99
  L 239.06 508.00
  A 0.52 0.52 0.0 0 1 239.57 508.61
  L 204.17 709.64
  A 0.52 0.52 0.0 0 0 204.68 710.25
  L 254.31 710.25
  A 0.52 0.52 0.0 0 0 254.83 709.82
  L 290.29 508.43
  A 0.52 0.52 0.0 0 1 290.81 508.00
  L 361.55 508.00
  A 0.52 0.52 0.0 0 0 362.06 507.57
  L 370.57 458.61
  A 0.52 0.52 0.0 0 0 370.06 458.00
  L 177.20 458.00
  A 0.52 0.52 0.0 0 0 176.69 458.43
  L 168.20 507.38"
/>
<path stroke="#8b8f9a" vector-effect="non-scaling-stroke" d="
  M 751.51 548.55
  L 760.79 507.17
  A 0.55 0.54 -83.3 0 1 761.32 506.75
  L 867.82 506.75
  A 0.68 0.68 0.0 0 0 868.49 506.18
  L 875.77 459.05
  A 0.48 0.48 0.0 0 0 875.30 458.50
  L 726.49 458.50
  A 0.30 0.29 6.0 0 0 726.20 458.73
  L 698.76 583.43
  Q 698.71 583.64 698.91 583.73
  L 738.31 600.90
  A 1.44 1.42 39.0 0 0 739.72 600.76
  C 742.41 598.87 744.87 596.66 747.66 595.03
  Q 769.25 582.34 793.65 587.80
  C 815.36 592.65 820.89 613.36 816.54 633.04
  C 812.85 649.72 799.66 659.68 783.48 662.75
  C 753.53 668.46 724.19 656.03 701.04 638.00
  A 0.67 0.67 0.0 0 0 700.09 638.14
  L 671.83 677.36
  A 0.70 0.70 0.0 0 0 671.94 678.30
  Q 694.42 697.68 722.30 705.82
  C 740.06 711.00 758.06 713.41 776.54 712.38
  C 810.31 710.49 838.47 696.12 853.89 664.97
  C 863.45 645.64 866.40 620.26 864.13 598.81
  C 861.32 572.16 845.43 550.37 819.36 542.38
  C 808.02 538.91 796.61 538.13 784.64 538.56
  C 773.24 538.96 762.14 542.86 752.11 548.98
  Q 751.30 549.48 751.51 548.55"
/>
<path stroke="#8b8f9a" vector-effect="non-scaling-stroke" d="
  M 460.69 543.98
  C 447.87 527.00 428.33 518.14 406.82 517.10
  Q 377.27 515.67 352.64 532.13
  C 318.79 554.75 302.67 595.81 303.73 636.95
  C 304.79 678.58 329.85 712.10 373.84 714.00
  Q 407.43 715.45 433.80 694.75
  C 459.41 674.65 473.35 644.06 476.45 611.55
  C 478.70 588.04 475.12 563.09 460.69 543.98"
/>
<path stroke="#8b8f9a" vector-effect="non-scaling-stroke" d="
  M 557.55 531.59
  L 559.32 521.51
  A 0.39 0.38 82.7 0 0 558.78 521.09
  L 505.69 545.59
  A 1.29 1.29 0.0 0 0 504.95 546.54
  L 463.82 778.97
  A 0.42 0.42 0.0 0 0 464.41 779.42
  L 517.04 755.19
  A 2.02 2.00 82.7 0 0 518.18 753.70
  L 527.58 699.24
  A 0.33 0.33 0.0 0 1 528.11 699.03
  Q 534.83 704.21 542.30 708.29
  C 553.10 714.19 565.87 714.80 578.01 713.60
  Q 592.05 712.20 604.41 705.02
  C 642.76 682.77 656.48 633.10 656.92 591.03
  C 657.20 564.14 649.33 533.86 622.05 522.12
  Q 611.26 517.48 596.48 516.97
  C 580.93 516.44 569.60 522.22 558.11 531.90
  Q 557.39 532.51 557.55 531.59"
/>
<path stroke="#96b38d" vector-effect="non-scaling-stroke" d="
  M 680.05 224.39
  L 671.63 233.33
  A 0.82 0.82 0.0 0 0 671.66 234.48
  L 677.46 239.95
  A 7.23 6.68 43.3 0 0 687.31 240.05
  L 687.69 239.64
  A 7.23 6.68 43.3 0 0 687.01 229.82
  L 681.21 224.35
  A 0.82 0.82 0.0 0 0 680.05 224.39"
/>
<path stroke="#96b38d" vector-effect="non-scaling-stroke" d="
  M 236.8597 308.2421
  A 12.87 12.62 33.6 0 0 233.1238 290.6085
  A 12.87 12.62 33.6 0 0 215.4203 293.9979
  A 12.87 12.62 33.6 0 0 219.1562 311.6315
  A 12.87 12.62 33.6 0 0 236.8597 308.2421"
/>
<path stroke="#96b38d" vector-effect="non-scaling-stroke" d="
  M 768.5736 361.7353
  A 12.81 12.56 -17.7 0 0 752.5513 353.6646
  A 12.81 12.56 -17.7 0 0 744.1664 369.5247
  A 12.81 12.56 -17.7 0 0 760.1887 377.5954
  A 12.81 12.56 -17.7 0 0 768.5736 361.7353"
/>
<path stroke="#8b8f9a" vector-effect="non-scaling-stroke" d="
  M 403.61 565.89
  C 389.30 562.76 375.90 570.42 367.68 582.17
  C 357.77 596.34 354.38 615.35 355.11 632.87
  C 355.73 647.81 363.01 663.54 379.51 665.71
  C 393.04 667.50 405.47 659.81 413.15 648.66
  C 423.84 633.14 427.27 610.73 425.00 592.70
  C 423.44 580.36 415.96 568.59 403.61 565.89"
/>
<path stroke="#8b8f9a" vector-effect="non-scaling-stroke" d="
  M 591.06 566.67
  Q 579.56 562.06 567.45 566.69
  C 561.35 569.01 555.02 574.38 550.06 579.02
  Q 548.96 580.03 548.70 581.54
  Q 542.55 616.16 536.49 650.09
  A 1.09 1.08 30.1 0 0 536.73 650.98
  Q 541.69 656.99 548.54 661.54
  C 554.14 665.26 560.56 666.61 567.21 666.75
  C 582.20 667.06 592.67 653.74 597.82 641.00
  Q 605.01 623.17 605.51 600.46
  C 605.78 588.51 603.92 571.82 591.06 566.67"
/>
</g>
<path fill="#2d671b" d="
  M 0.00 0.00
  L 1000.00 0.00
  L 1000.00 1000.00
  L 0.00 1000.00
  L 0.00 0.00
  Z
  M 496.08 140.01
  L 491.80 175.90
  A 1.05 1.05 0.0 0 0 492.71 177.07
  L 510.20 179.15
  A 19.90 18.71 6.8 0 0 532.18 162.93
  L 532.27 162.12
  A 19.90 18.71 6.8 0 0 514.73 141.18
  L 497.24 139.10
  A 1.05 1.05 0.0 0 0 496.08 140.01
  Z
  M 462.8046 157.7359
  A 21.06 19.94 -6.5 0 0 439.6227 140.3082
  A 21.06 19.94 -6.5 0 0 420.9554 162.5041
  A 21.06 19.94 -6.5 0 0 444.1373 179.9318
  A 21.06 19.94 -6.5 0 0 462.8046 157.7359
  Z
  M 553.02 164.29
  A 0.45 0.45 0.0 0 1 552.71 163.73
  L 554.92 155.84
  A 0.45 0.45 0.0 0 1 555.48 155.53
  L 574.21 160.94
  A 0.45 0.45 0.0 0 0 574.76 160.64
  L 576.45 155.24
  A 0.45 0.45 0.0 0 0 576.14 154.67
  L 549.39 147.10
  A 0.45 0.45 0.0 0 0 548.84 147.41
  L 538.60 183.31
  A 0.45 0.45 0.0 0 0 538.91 183.86
  L 566.31 191.58
  A 0.45 0.45 0.0 0 0 566.86 191.29
  L 568.58 185.93
  A 0.45 0.45 0.0 0 0 568.27 185.36
  L 548.59 179.79
  A 0.45 0.45 0.0 0 1 548.28 179.22
  L 550.86 170.78
  A 0.45 0.45 0.0 0 1 551.41 170.48
  L 567.86 175.13
  A 0.45 0.45 0.0 0 0 568.42 174.81
  L 569.83 169.71
  A 0.45 0.45 0.0 0 0 569.53 169.15
  L 553.02 164.29
  Z
  M 399.20 157.26
  Q 401.08 164.31 403.22 172.16
  C 403.73 174.06 404.66 176.69 403.80 178.63
  Q 402.08 182.54 397.22 182.30
  Q 395.53 182.22 392.77 180.45
  Q 391.71 179.76 391.23 180.94
  L 389.43 185.36
  Q 388.98 186.48 390.03 187.05
  C 394.69 189.60 400.31 189.32 405.14 187.19
  C 411.05 184.57 413.58 179.00 411.96 172.91
  Q 409.14 162.31 405.12 147.62
  A 0.53 0.52 -15.5 0 0 404.47 147.26
  Q 394.27 150.15 384.14 152.74
  Q 383.86 152.81 383.94 153.09
  L 385.56 158.95
  Q 385.65 159.27 385.96 159.18
  L 397.21 156.11
  Q 398.78 155.69 399.20 157.26
  Z
  M 358.32 179.41
  A 0.35 0.35 0.0 0 1 357.86 179.22
  L 354.53 171.47
  A 0.35 0.35 0.0 0 1 354.72 171.00
  L 372.90 163.46
  A 0.35 0.35 0.0 0 0 373.09 163.01
  L 370.89 157.51
  A 0.35 0.35 0.0 0 0 370.43 157.32
  L 344.54 168.25
  A 0.35 0.35 0.0 0 0 344.36 168.71
  L 358.97 203.27
  A 0.35 0.35 0.0 0 0 359.43 203.45
  L 386.03 192.20
  A 0.35 0.35 0.0 0 0 386.21 191.73
  L 383.69 186.47
  A 0.35 0.35 0.0 0 0 383.24 186.30
  L 364.63 194.13
  A 0.35 0.35 0.0 0 1 364.18 193.95
  L 360.39 185.80
  A 0.35 0.35 0.0 0 1 360.58 185.33
  L 376.70 178.59
  A 0.35 0.35 0.0 0 0 376.89 178.14
  L 374.79 172.87
  A 0.35 0.35 0.0 0 0 374.33 172.68
  L 358.32 179.41
  Z
  M 587.07 189.83
  A 1.15 1.14 -65.8 0 1 588.58 189.25
  Q 593.40 191.44 597.69 193.07
  Q 603.02 195.09 608.68 193.36
  C 612.93 192.06 615.33 188.14 616.62 184.19
  Q 617.46 181.61 616.88 178.58
  Q 615.55 171.55 608.56 168.12
  Q 600.68 164.25 591.83 160.43
  A 0.55 0.54 -66.3 0 0 591.12 160.71
  L 575.66 194.76
  A 0.24 0.24 0.0 0 0 575.78 195.08
  L 582.99 198.26
  A 0.32 0.31 24.4 0 0 583.40 198.11
  L 587.07 189.83
  Z
  M 349.58 201.68
  A 0.86 0.86 0.0 0 0 348.38 201.36
  L 333.06 210.49
  A 0.86 0.86 0.0 0 1 331.88 210.19
  L 316.69 184.53
  A 0.86 0.86 0.0 0 0 315.53 184.22
  L 309.72 187.44
  A 0.86 0.86 0.0 0 0 309.40 188.63
  L 328.06 220.19
  A 0.86 0.86 0.0 0 0 329.24 220.49
  L 351.66 207.24
  A 0.86 0.86 0.0 0 0 351.98 206.09
  L 349.58 201.68
  Z
  M 657.2142 218.9582
  A 21.11 19.86 33.1 0 0 650.3756 190.7929
  A 21.11 19.86 33.1 0 0 621.8458 195.9018
  A 21.11 19.86 33.1 0 0 628.6844 224.0671
  A 21.11 19.86 33.1 0 0 657.2142 218.9582
  Z
  M 296.51 231.31
  C 303.42 226.70 311.35 219.23 308.00 210.16
  Q 305.54 203.51 299.00 201.77
  Q 292.39 200.00 285.71 205.02
  Q 279.48 209.70 271.94 215.95
  A 0.50 0.50 0.0 0 0 271.87 216.66
  L 295.17 245.88
  A 0.27 0.26 -38.0 0 0 295.54 245.92
  L 301.59 241.06
  Q 301.82 240.88 301.64 240.66
  L 296.13 233.74
  Q 294.99 232.32 296.51 231.31
  Z
  M 543.82 734.66
  Q 544.28 733.37 545.62 733.65
  Q 557.53 736.17 567.49 736.41
  C 576.14 736.62 585.75 734.96 594.15 732.78
  Q 609.55 728.80 625.26 717.41
  C 628.85 714.81 631.91 711.65 635.31 708.85
  C 638.32 706.38 640.31 703.20 642.99 700.42
  C 645.43 697.89 647.46 694.96 649.61 692.17
  A 2.40 2.39 37.0 0 1 652.93 691.71
  C 657.08 694.76 660.84 698.31 665.07 701.45
  Q 678.84 711.67 690.65 717.33
  Q 716.30 729.63 747.54 733.62
  C 756.08 734.71 764.87 734.36 773.53 734.42
  C 784.41 734.50 794.96 732.71 805.28 730.12
  Q 818.69 726.74 832.36 719.04
  Q 841.82 713.71 848.43 707.38
  Q 852.77 703.22 856.77 698.97
  C 870.29 684.58 878.81 665.83 882.97 646.45
  Q 887.90 623.42 886.01 599.76
  Q 882.71 558.75 850.95 533.33
  Q 849.52 532.18 849.22 531.10
  A 1.38 1.37 82.5 0 1 850.54 529.37
  L 884.52 529.31
  A 2.63 2.62 5.0 0 0 887.09 527.16
  Q 888.38 519.95 889.66 511.62
  Q 895.34 474.46 899.23 449.98
  Q 900.25 443.53 900.55 437.70
  A 1.17 1.17 0.0 0 0 899.38 436.47
  Q 813.88 436.43 728.25 436.39
  Q 726.68 436.39 725.54 435.56
  Q 724.71 434.94 724.62 433.86
  C 722.94 413.00 718.90 391.92 711.90 372.22
  Q 706.39 356.69 699.89 343.23
  Q 684.90 312.16 658.23 283.01
  Q 653.64 277.98 647.82 272.59
  Q 639.47 264.83 636.43 262.32
  Q 578.49 214.33 504.20 205.67
  Q 494.37 204.52 484.27 204.34
  Q 470.33 204.10 460.01 204.80
  Q 421.25 207.45 383.84 222.29
  Q 380.11 223.77 377.07 225.26
  C 371.46 228.01 365.67 230.29 360.29 233.29
  Q 349.65 239.24 339.84 245.60
  Q 332.52 250.34 324.21 256.86
  Q 315.01 264.07 309.03 269.56
  C 302.51 275.56 295.86 282.24 290.32 288.76
  Q 282.42 298.06 278.17 303.75
  Q 268.33 316.93 260.95 329.93
  Q 250.46 348.42 242.16 371.10
  Q 240.87 374.61 239.74 378.68
  C 237.96 385.06 235.80 391.43 234.56 397.83
  C 232.95 406.15 231.07 414.81 230.24 423.42
  Q 229.78 428.23 229.33 433.22
  A 2.47 2.47 0.0 0 1 226.88 435.47
  C 219.35 435.52 211.88 435.84 204.70 435.71
  Q 187.38 435.41 160.07 435.60
  C 157.43 435.62 157.56 437.29 157.20 439.32
  Q 149.81 480.71 142.69 522.77
  Q 142.25 525.38 142.10 527.87
  A 2.24 2.23 1.9 0 0 144.33 530.24
  Q 177.54 530.29 210.76 530.34
  Q 211.93 530.34 212.41 531.35
  Q 212.86 532.31 212.36 533.39
  Q 211.86 534.48 211.71 535.56
  Q 210.34 545.09 208.39 555.25
  Q 206.23 566.56 204.91 574.85
  C 202.60 589.36 199.58 605.22 197.31 618.36
  Q 191.35 652.98 185.19 686.61
  C 184.74 689.07 184.66 691.81 184.17 694.24
  Q 180.61 711.91 178.08 729.44
  Q 177.68 732.26 180.53 732.26
  L 271.76 732.32
  Q 272.94 732.32 273.13 731.15
  Q 277.79 702.84 282.84 676.52
  Q 283.28 674.22 283.79 671.79
  Q 284.74 667.30 286.60 671.50
  C 288.77 676.40 290.34 681.53 293.00 686.26
  Q 298.16 695.43 300.40 698.46
  Q 323.23 729.42 361.78 734.98
  Q 365.59 735.53 370.02 735.99
  Q 374.10 736.42 377.98 736.35
  Q 409.08 735.75 433.67 721.20
  C 438.87 718.12 443.79 714.52 448.80 710.96
  Q 453.33 707.73 452.24 713.18
  Q 451.57 716.54 451.03 719.77
  Q 446.72 745.77 443.02 766.54
  Q 442.65 768.63 442.28 770.75
  Q 439.34 787.45 436.18 806.49
  Q 435.47 810.76 434.46 815.02
  A 1.00 0.99 -86.4 0 0 435.53 816.24
  Q 437.16 816.07 438.93 815.25
  Q 463.44 804.04 487.54 792.79
  Q 492.39 790.52 497.58 788.19
  Q 517.18 779.42 536.16 770.23
  A 2.44 2.42 -6.6 0 0 537.48 768.58
  Q 539.21 760.97 540.15 753.93
  C 540.81 749.00 541.97 744.10 542.68 739.14
  Q 542.99 736.98 543.82 734.66
  Z
  M 680.75 249.52
  C 682.95 249.42 684.85 250.28 687.11 249.64
  C 695.11 247.36 700.06 239.44 696.20 231.34
  Q 694.36 227.48 691.45 224.61
  Q 685.42 218.65 679.55 213.40
  Q 679.10 213.00 678.69 213.44
  L 652.97 240.65
  Q 652.84 240.78 652.97 240.91
  L 658.76 246.51
  A 0.33 0.33 0.0 0 0 659.24 246.49
  Q 662.21 243.20 664.53 240.33
  C 665.55 239.07 667.16 238.92 668.27 240.25
  Q 669.70 241.96 671.43 243.33
  A 3.08 3.06 23.6 0 1 672.56 246.20
  L 670.85 257.55
  Q 670.82 257.74 670.96 257.87
  L 677.06 263.74
  A 0.12 0.12 0.0 0 0 677.26 263.67
  L 678.96 251.16
  Q 679.17 249.59 680.75 249.52
  Z
  M 261.14 259.70
  Q 258.97 259.89 256.89 259.50
  Q 247.04 257.62 234.89 255.44
  A 1.67 1.67 0.0 0 0 233.28 256.05
  L 230.00 260.26
  Q 229.71 260.63 230.06 260.95
  L 258.15 285.63
  Q 258.28 285.74 258.41 285.61
  L 263.43 280.17
  A 0.25 0.25 0.0 0 0 263.41 279.80
  L 248.76 267.03
  Q 246.50 265.06 249.49 265.18
  Q 251.48 265.25 253.68 265.67
  Q 260.96 267.04 267.06 268.06
  A 2.94 2.94 0.0 0 0 270.33 264.24
  L 264.45 246.31
  A 0.82 0.81 -13.4 0 1 265.11 245.25
  Q 265.59 245.18 265.96 245.49
  Q 274.14 252.47 281.28 258.86
  Q 281.69 259.23 282.07 258.82
  L 286.64 253.86
  A 0.49 0.49 0.0 0 0 286.60 253.16
  L 258.75 228.69
  Q 258.03 228.06 257.42 228.78
  L 254.08 232.70
  A 1.47 1.47 0.0 0 0 253.81 234.11
  L 261.82 258.66
  Q 262.13 259.61 261.14 259.70
  Z
  M 711.84 256.33
  A 0.57 0.57 0.0 0 1 711.76 257.13
  L 687.99 276.32
  A 0.57 0.57 0.0 0 0 687.91 277.12
  L 692.52 282.63
  A 0.57 0.57 0.0 0 0 693.32 282.71
  L 717.13 263.65
  A 0.57 0.57 0.0 0 1 717.93 263.75
  L 724.84 272.78
  A 0.57 0.57 0.0 0 0 725.64 272.88
  L 730.13 269.44
  A 0.57 0.57 0.0 0 0 730.23 268.64
  L 710.10 243.37
  A 0.57 0.57 0.0 0 0 709.29 243.28
  L 704.91 246.86
  A 0.57 0.57 0.0 0 0 704.83 247.66
  L 711.84 256.33
  Z
  M 736.6288 278.7411
  A 0.26 0.26 0.0 0 0 736.2695 278.6627
  L 704.4941 299.0622
  A 0.26 0.26 0.0 0 0 704.4157 299.4215
  L 708.6512 306.0189
  A 0.26 0.26 0.0 0 0 709.0105 306.0973
  L 740.7859 285.6978
  A 0.26 0.26 0.0 0 0 740.8643 285.3385
  L 736.6288 278.7411
  Z
  M 214.7145 318.8276
  A 21.09 19.94 122.9 0 0 242.9120 311.9509
  A 21.09 19.94 122.9 0 0 237.6255 283.4124
  A 21.09 19.94 122.9 0 0 209.4280 290.2891
  A 21.09 19.94 122.9 0 0 214.7145 318.8276
  Z
  M 732.44 325.19
  A 0.57 0.57 0.0 0 1 732.38 324.38
  L 750.98 302.85
  A 0.49 0.48 52.8 0 0 751.05 302.32
  L 747.33 294.91
  Q 747.14 294.55 746.88 294.86
  L 720.60 325.59
  Q 720.14 326.13 720.45 326.76
  L 723.55 332.98
  A 0.99 0.98 -12.1 0 0 724.40 333.52
  C 732.84 333.79 741.37 332.52 749.86 332.56
  C 755.01 332.58 759.99 331.82 765.14 331.63
  Q 765.34 331.62 765.25 331.45
  L 761.83 324.71
  A 0.38 0.37 -12.2 0 0 761.51 324.51
  Q 756.75 324.34 752.51 324.89
  C 746.24 325.71 740.14 325.38 733.73 325.65
  Q 733.02 325.68 732.44 325.19
  Z
  M 201.08 352.13
  C 196.34 350.15 192.88 344.76 193.75 339.38
  Q 195.02 331.50 201.89 328.62
  Q 202.41 328.40 202.19 327.88
  L 199.94 322.39
  Q 199.72 321.85 199.15 321.97
  Q 197.58 322.30 196.33 323.17
  C 188.28 328.79 183.74 340.26 187.88 349.77
  C 191.07 357.09 197.85 361.42 205.62 361.71
  C 213.06 361.99 219.19 358.29 222.95 352.07
  Q 228.83 342.32 225.15 332.42
  Q 224.70 331.21 223.53 331.75
  L 218.98 333.84
  Q 217.92 334.34 218.36 335.43
  Q 221.15 342.37 216.95 348.02
  Q 210.87 356.20 201.08 352.13
  Z
  M 762.3687 385.8799
  A 21.14 19.91 73.6 0 0 775.4999 359.9786
  A 21.14 19.91 73.6 0 0 750.4313 345.3201
  A 21.14 19.91 73.6 0 0 737.3001 371.2214
  A 21.14 19.91 73.6 0 0 762.3687 385.8799
  Z"
/>
<path fill="#ffffff" d="
  M 496.08 140.01
  A 1.05 1.05 0.0 0 1 497.24 139.10
  L 514.73 141.18
  A 19.90 18.71 6.8 0 1 532.27 162.12
  L 532.18 162.93
  A 19.90 18.71 6.8 0 1 510.20 179.15
  L 492.71 177.07
  A 1.05 1.05 0.0 0 1 491.80 175.90
  L 496.08 140.01
  Z
  M 503.69 146.97
  L 500.64 170.76
  A 0.45 0.45 0.0 0 0 501.03 171.26
  L 509.86 172.39
  A 12.41 11.53 7.3 0 0 523.64 162.54
  L 523.87 160.73
  A 12.41 11.53 7.3 0 0 513.02 147.72
  L 504.20 146.59
  A 0.45 0.45 0.0 0 0 503.69 146.97
  Z"
/>
<path fill="#ffffff" d="
  M 462.8046 157.7359
  A 21.06 19.94 -6.5 0 1 444.1373 179.9318
  A 21.06 19.94 -6.5 0 1 420.9554 162.5041
  A 21.06 19.94 -6.5 0 1 439.6227 140.3082
  A 21.06 19.94 -6.5 0 1 462.8046 157.7359
  Z
  M 442.7616 172.9217
  A 12.85 12.60 86.2 0 0 454.4823 159.2649
  A 12.85 12.60 86.2 0 0 441.0584 147.2783
  A 12.85 12.60 86.2 0 0 429.3377 160.9351
  A 12.85 12.60 86.2 0 0 442.7616 172.9217
  Z"
/>
<path fill="#2d671b" d="
  M 503.69 146.97
  A 0.45 0.45 0.0 0 1 504.20 146.59
  L 513.02 147.72
  A 12.41 11.53 7.3 0 1 523.87 160.73
  L 523.64 162.54
  A 12.41 11.53 7.3 0 1 509.86 172.39
  L 501.03 171.26
  A 0.45 0.45 0.0 0 1 500.64 170.76
  L 503.69 146.97
  Z"
/>
<path fill="#ffffff" d="
  M 553.02 164.29
  L 569.53 169.15
  A 0.45 0.45 0.0 0 1 569.83 169.71
  L 568.42 174.81
  A 0.45 0.45 0.0 0 1 567.86 175.13
  L 551.41 170.48
  A 0.45 0.45 0.0 0 0 550.86 170.78
  L 548.28 179.22
  A 0.45 0.45 0.0 0 0 548.59 179.79
  L 568.27 185.36
  A 0.45 0.45 0.0 0 1 568.58 185.93
  L 566.86 191.29
  A 0.45 0.45 0.0 0 1 566.31 191.58
  L 538.91 183.86
  A 0.45 0.45 0.0 0 1 538.60 183.31
  L 548.84 147.41
  A 0.45 0.45 0.0 0 1 549.39 147.10
  L 576.14 154.67
  A 0.45 0.45 0.0 0 1 576.45 155.24
  L 574.76 160.64
  A 0.45 0.45 0.0 0 1 574.21 160.94
  L 555.48 155.53
  A 0.45 0.45 0.0 0 0 554.92 155.84
  L 552.71 163.73
  A 0.45 0.45 0.0 0 0 553.02 164.29
  Z"
/>
<path fill="#ffffff" d="
  M 399.20 157.26
  Q 398.78 155.69 397.21 156.11
  L 385.96 159.18
  Q 385.65 159.27 385.56 158.95
  L 383.94 153.09
  Q 383.86 152.81 384.14 152.74
  Q 394.27 150.15 404.47 147.26
  A 0.53 0.52 -15.5 0 1 405.12 147.62
  Q 409.14 162.31 411.96 172.91
  C 413.58 179.00 411.05 184.57 405.14 187.19
  C 400.31 189.32 394.69 189.60 390.03 187.05
  Q 388.98 186.48 389.43 185.36
  L 391.23 180.94
  Q 391.71 179.76 392.77 180.45
  Q 395.53 182.22 397.22 182.30
  Q 402.08 182.54 403.80 178.63
  C 404.66 176.69 403.73 174.06 403.22 172.16
  Q 401.08 164.31 399.20 157.26
  Z"
/>
<ellipse fill="#2d671b" cx="0.00" cy="0.00" transform="translate(441.91,160.10) rotate(86.2)" rx="12.85" ry="12.60"/>
<path fill="#ffffff" d="
  M 358.32 179.41
  L 374.33 172.68
  A 0.35 0.35 0.0 0 1 374.79 172.87
  L 376.89 178.14
  A 0.35 0.35 0.0 0 1 376.70 178.59
  L 360.58 185.33
  A 0.35 0.35 0.0 0 0 360.39 185.80
  L 364.18 193.95
  A 0.35 0.35 0.0 0 0 364.63 194.13
  L 383.24 186.30
  A 0.35 0.35 0.0 0 1 383.69 186.47
  L 386.21 191.73
  A 0.35 0.35 0.0 0 1 386.03 192.20
  L 359.43 203.45
  A 0.35 0.35 0.0 0 1 358.97 203.27
  L 344.36 168.71
  A 0.35 0.35 0.0 0 1 344.54 168.25
  L 370.43 157.32
  A 0.35 0.35 0.0 0 1 370.89 157.51
  L 373.09 163.01
  A 0.35 0.35 0.0 0 1 372.90 163.46
  L 354.72 171.00
  A 0.35 0.35 0.0 0 0 354.53 171.47
  L 357.86 179.22
  A 0.35 0.35 0.0 0 0 358.32 179.41
  Z"
/>
<path fill="#ffffff" d="
  M 587.07 189.83
  L 583.40 198.11
  A 0.32 0.31 24.4 0 1 582.99 198.26
  L 575.78 195.08
  A 0.24 0.24 0.0 0 1 575.66 194.76
  L 591.12 160.71
  A 0.55 0.54 -66.3 0 1 591.83 160.43
  Q 600.68 164.25 608.56 168.12
  Q 615.55 171.55 616.88 178.58
  Q 617.46 181.61 616.62 184.19
  C 615.33 188.14 612.93 192.06 608.68 193.36
  Q 603.02 195.09 597.69 193.07
  Q 593.40 191.44 588.58 189.25
  A 1.15 1.14 -65.8 0 0 587.07 189.83
  Z
  M 595.75 171.03
  L 591.04 181.32
  A 1.29 1.29 0.0 0 0 591.67 183.03
  L 598.39 186.10
  A 7.31 6.64 24.6 0 0 607.80 183.11
  L 608.05 182.54
  A 7.31 6.64 24.6 0 0 604.17 173.46
  L 597.46 170.39
  A 1.29 1.29 0.0 0 0 595.75 171.03
  Z"
/>
<path fill="#2d671b" d="
  M 595.75 171.03
  A 1.29 1.29 0.0 0 1 597.46 170.39
  L 604.17 173.46
  A 7.31 6.64 24.6 0 1 608.05 182.54
  L 607.80 183.11
  A 7.31 6.64 24.6 0 1 598.39 186.10
  L 591.67 183.03
  A 1.29 1.29 0.0 0 1 591.04 181.32
  L 595.75 171.03
  Z"
/>
<path fill="#ffffff" d="
  M 349.58 201.68
  L 351.98 206.09
  A 0.86 0.86 0.0 0 1 351.66 207.24
  L 329.24 220.49
  A 0.86 0.86 0.0 0 1 328.06 220.19
  L 309.40 188.63
  A 0.86 0.86 0.0 0 1 309.72 187.44
  L 315.53 184.22
  A 0.86 0.86 0.0 0 1 316.69 184.53
  L 331.88 210.19
  A 0.86 0.86 0.0 0 0 333.06 210.49
  L 348.38 201.36
  A 0.86 0.86 0.0 0 1 349.58 201.68
  Z"
/>
<path fill="#ffffff" d="
  M 657.2142 218.9582
  A 21.11 19.86 33.1 0 1 628.6844 224.0671
  A 21.11 19.86 33.1 0 1 621.8458 195.9018
  A 21.11 19.86 33.1 0 1 650.3756 190.7929
  A 21.11 19.86 33.1 0 1 657.2142 218.9582
  Z
  M 632.6683 218.2218
  A 12.81 12.50 122.6 0 0 650.1007 214.1646
  A 12.81 12.50 122.6 0 0 646.4717 196.6382
  A 12.81 12.50 122.6 0 0 629.0393 200.6954
  A 12.81 12.50 122.6 0 0 632.6683 218.2218
  Z"
/>
<ellipse fill="#2d671b" cx="0.00" cy="0.00" transform="translate(639.57,207.43) rotate(122.6)" rx="12.81" ry="12.50"/>
<path fill="#ffffff" d="
  M 296.51 231.31
  Q 294.99 232.32 296.13 233.74
  L 301.64 240.66
  Q 301.82 240.88 301.59 241.06
  L 295.54 245.92
  A 0.27 0.26 -38.0 0 1 295.17 245.88
  L 271.87 216.66
  A 0.50 0.50 0.0 0 1 271.94 215.95
  Q 279.48 209.70 285.71 205.02
  Q 292.39 200.00 299.00 201.77
  Q 305.54 203.51 308.00 210.16
  C 311.35 219.23 303.42 226.70 296.51 231.31
  Z
  M 282.86 217.00
  L 290.47 226.43
  A 0.88 0.88 0.0 0 0 291.71 226.56
  L 298.06 221.44
  A 7.06 6.51 -38.9 0 0 299.46 211.94
  L 298.92 211.27
  A 7.06 6.51 -38.9 0 0 289.34 210.64
  L 282.99 215.76
  A 0.88 0.88 0.0 0 0 282.86 217.00
  Z"
/>
<path fill="#dd3c49" d="
  M 543.82 734.66
  Q 542.99 736.98 542.68 739.14
  C 541.97 744.10 540.81 749.00 540.15 753.93
  Q 539.21 760.97 537.48 768.58
  A 2.44 2.42 -6.6 0 1 536.16 770.23
  Q 517.18 779.42 497.58 788.19
  Q 492.39 790.52 487.54 792.79
  Q 463.44 804.04 438.93 815.25
  Q 437.16 816.07 435.53 816.24
  A 1.00 0.99 -86.4 0 1 434.46 815.02
  Q 435.47 810.76 436.18 806.49
  Q 439.34 787.45 442.28 770.75
  Q 442.65 768.63 443.02 766.54
  Q 446.72 745.77 451.03 719.77
  Q 451.57 716.54 452.24 713.18
  Q 453.33 707.73 448.80 710.96
  C 443.79 714.52 438.87 718.12 433.67 721.20
  Q 409.08 735.75 377.98 736.35
  Q 374.10 736.42 370.02 735.99
  Q 365.59 735.53 361.78 734.98
  Q 323.23 729.42 300.40 698.46
  Q 298.16 695.43 293.00 686.26
  C 290.34 681.53 288.77 676.40 286.60 671.50
  Q 284.74 667.30 283.79 671.79
  Q 283.28 674.22 282.84 676.52
  Q 277.79 702.84 273.13 731.15
  Q 272.94 732.32 271.76 732.32
  L 180.53 732.26
  Q 177.68 732.26 178.08 729.44
  Q 180.61 711.91 184.17 694.24
  C 184.66 691.81 184.74 689.07 185.19 686.61
  Q 191.35 652.98 197.31 618.36
  C 199.58 605.22 202.60 589.36 204.91 574.85
  Q 206.23 566.56 208.39 555.25
  Q 210.34 545.09 211.71 535.56
  Q 211.86 534.48 212.36 533.39
  Q 212.86 532.31 212.41 531.35
  Q 211.93 530.34 210.76 530.34
  Q 177.54 530.29 144.33 530.24
  A 2.24 2.23 1.9 0 1 142.10 527.87
  Q 142.25 525.38 142.69 522.77
  Q 149.81 480.71 157.20 439.32
  C 157.56 437.29 157.43 435.62 160.07 435.60
  Q 187.38 435.41 204.70 435.71
  C 211.88 435.84 219.35 435.52 226.88 435.47
  A 2.47 2.47 0.0 0 0 229.33 433.22
  Q 229.78 428.23 230.24 423.42
  C 231.07 414.81 232.95 406.15 234.56 397.83
  C 235.80 391.43 237.96 385.06 239.74 378.68
  Q 240.87 374.61 242.16 371.10
  Q 250.46 348.42 260.95 329.93
  Q 268.33 316.93 278.17 303.75
  Q 282.42 298.06 290.32 288.76
  C 295.86 282.24 302.51 275.56 309.03 269.56
  Q 315.01 264.07 324.21 256.86
  Q 332.52 250.34 339.84 245.60
  Q 349.65 239.24 360.29 233.29
  C 365.67 230.29 371.46 228.01 377.07 225.26
  Q 380.11 223.77 383.84 222.29
  Q 421.25 207.45 460.01 204.80
  Q 470.33 204.10 484.27 204.34
  Q 494.37 204.52 504.20 205.67
  Q 578.49 214.33 636.43 262.32
  Q 639.47 264.83 647.82 272.59
  Q 653.64 277.98 658.23 283.01
  Q 684.90 312.16 699.89 343.23
  Q 706.39 356.69 711.90 372.22
  C 718.90 391.92 722.94 413.00 724.62 433.86
  Q 724.71 434.94 725.54 435.56
  Q 726.68 436.39 728.25 436.39
  Q 813.88 436.43 899.38 436.47
  A 1.17 1.17 0.0 0 1 900.55 437.70
  Q 900.25 443.53 899.23 449.98
  Q 895.34 474.46 889.66 511.62
  Q 888.38 519.95 887.09 527.16
  A 2.63 2.62 5.0 0 1 884.52 529.31
  L 850.54 529.37
  A 1.38 1.37 82.5 0 0 849.22 531.10
  Q 849.52 532.18 850.95 533.33
  Q 882.71 558.75 886.01 599.76
  Q 887.90 623.42 882.97 646.45
  C 878.81 665.83 870.29 684.58 856.77 698.97
  Q 852.77 703.22 848.43 707.38
  Q 841.82 713.71 832.36 719.04
  Q 818.69 726.74 805.28 730.12
  C 794.96 732.71 784.41 734.50 773.53 734.42
  C 764.87 734.36 756.08 734.71 747.54 733.62
  Q 716.30 729.63 690.65 717.33
  Q 678.84 711.67 665.07 701.45
  C 660.84 698.31 657.08 694.76 652.93 691.71
  A 2.40 2.39 37.0 0 0 649.61 692.17
  C 647.46 694.96 645.43 697.89 642.99 700.42
  C 640.31 703.20 638.32 706.38 635.31 708.85
  C 631.91 711.65 628.85 714.81 625.26 717.41
  Q 609.55 728.80 594.15 732.78
  C 585.75 734.96 576.14 736.62 567.49 736.41
  Q 557.53 736.17 545.62 733.65
  Q 544.28 733.37 543.82 734.66
  Z
  M 289.23 633.36
  Q 290.40 652.90 294.48 667.02
  C 303.91 699.64 330.54 722.53 364.25 726.92
  C 397.94 731.32 429.19 719.71 453.37 695.10
  Q 459.59 688.77 464.83 683.19
  Q 466.20 681.73 465.86 683.71
  L 445.35 802.53
  A 0.32 0.32 0.0 0 0 445.80 802.87
  L 528.75 764.64
  A 2.26 2.25 -7.7 0 0 530.02 762.98
  L 537.13 722.03
  A 0.52 0.52 0.0 0 1 537.87 721.65
  Q 544.61 724.92 551.90 726.33
  Q 569.48 729.71 587.74 725.80
  C 611.13 720.80 630.43 705.23 643.87 685.53
  Q 646.66 681.45 649.19 677.51
  A 0.32 0.32 0.0 0 1 649.67 677.44
  Q 656.04 682.92 661.64 687.81
  C 675.09 699.54 691.07 709.43 707.85 715.52
  Q 745.39 729.13 783.38 725.53
  Q 805.09 723.48 823.33 714.41
  C 846.45 702.91 863.25 681.83 871.19 657.43
  Q 878.74 634.19 877.96 606.63
  C 877.27 582.40 869.01 561.09 850.84 544.46
  Q 836.81 531.62 819.81 521.44
  Q 818.66 520.74 820.00 520.74
  L 879.21 520.74
  A 0.63 0.63 0.0 0 0 879.83 520.20
  Q 884.50 488.16 889.26 458.76
  Q 890.31 452.33 891.11 445.18
  A 0.39 0.39 0.0 0 0 890.72 444.74
  L 717.48 444.74
  A 0.69 0.68 -1.3 0 1 716.79 444.09
  Q 716.12 432.34 714.62 420.94
  C 706.68 360.74 676.06 305.81 629.27 267.44
  Q 574.77 222.75 504.58 214.20
  Q 494.98 213.03 484.50 212.79
  Q 469.88 212.46 459.27 213.30
  C 403.86 217.67 351.13 240.27 311.12 279.22
  Q 295.69 294.24 285.31 308.17
  Q 240.59 368.21 237.07 443.51
  Q 237.03 444.27 236.27 444.27
  L 165.77 444.31
  A 1.10 1.10 0.0 0 0 164.69 445.22
  L 151.50 521.06
  Q 151.38 521.74 152.07 521.74
  L 222.34 521.74
  A 0.53 0.53 0.0 0 1 222.86 522.35
  L 187.46 723.15
  Q 187.32 723.96 188.15 723.96
  L 265.26 723.95
  A 0.69 0.68 -84.9 0 0 265.93 723.38
  Q 272.90 682.95 280.20 641.31
  C 280.49 639.69 280.49 638.04 282.05 637.00
  Q 285.37 634.79 288.44 632.94
  Q 289.18 632.49 289.23 633.36
  Z"
/>
<path fill="#2d671b" d="
  M 282.86 217.00
  A 0.88 0.88 0.0 0 1 282.99 215.76
  L 289.34 210.64
  A 7.06 6.51 -38.9 0 1 298.92 211.27
  L 299.46 211.94
  A 7.06 6.51 -38.9 0 1 298.06 221.44
  L 291.71 226.56
  A 0.88 0.88 0.0 0 1 290.47 226.43
  L 282.86 217.00
  Z"
/>
<path fill="#ffffff" d="
  M 288.44 632.94
  Q 285.37 634.79 282.05 637.00
  C 280.49 638.04 280.49 639.69 280.20 641.31
  Q 272.90 682.95 265.93 723.38
  A 0.69 0.68 -84.9 0 1 265.26 723.95
  L 188.15 723.96
  Q 187.32 723.96 187.46 723.15
  L 222.86 522.35
  A 0.53 0.53 0.0 0 0 222.34 521.74
  L 152.07 521.74
  Q 151.38 521.74 151.50 521.06
  L 164.69 445.22
  A 1.10 1.10 0.0 0 1 165.77 444.31
  L 236.27 444.27
  Q 237.03 444.27 237.07 443.51
  Q 240.59 368.21 285.31 308.17
  Q 295.69 294.24 311.12 279.22
  C 351.13 240.27 403.86 217.67 459.27 213.30
  Q 469.88 212.46 484.50 212.79
  Q 494.98 213.03 504.58 214.20
  Q 574.77 222.75 629.27 267.44
  C 676.06 305.81 706.68 360.74 714.62 420.94
  Q 716.12 432.34 716.79 444.09
  A 0.69 0.68 -1.3 0 0 717.48 444.74
  L 890.72 444.74
  A 0.39 0.39 0.0 0 1 891.11 445.18
  Q 890.31 452.33 889.26 458.76
  Q 884.50 488.16 879.83 520.20
  A 0.63 0.63 0.0 0 1 879.21 520.74
  L 820.00 520.74
  Q 818.66 520.74 819.81 521.44
  Q 836.81 531.62 850.84 544.46
  C 869.01 561.09 877.27 582.40 877.96 606.63
  Q 878.74 634.19 871.19 657.43
  C 863.25 681.83 846.45 702.91 823.33 714.41
  Q 805.09 723.48 783.38 725.53
  Q 745.39 729.13 707.85 715.52
  C 691.07 709.43 675.09 699.54 661.64 687.81
  Q 656.04 682.92 649.67 677.44
  A 0.32 0.32 0.0 0 0 649.19 677.51
  Q 646.66 681.45 643.87 685.53
  C 630.43 705.23 611.13 720.80 587.74 725.80
  Q 569.48 729.71 551.90 726.33
  Q 544.61 724.92 537.87 721.65
  A 0.52 0.52 0.0 0 0 537.13 722.03
  L 530.02 762.98
  A 2.26 2.25 -7.7 0 1 528.75 764.64
  L 445.80 802.87
  A 0.32 0.32 0.0 0 1 445.35 802.53
  L 465.86 683.71
  Q 466.20 681.73 464.83 683.19
  Q 459.59 688.77 453.37 695.10
  C 429.19 719.71 397.94 731.32 364.25 726.92
  C 330.54 722.53 303.91 699.64 294.48 667.02
  Q 290.40 652.90 289.23 633.36
  Q 289.18 632.49 288.44 632.94
  Z
  M 667.91 380.63
  L 645.26 378.22
  Q 644.69 378.16 644.61 378.73
  L 633.33 461.19
  A 2.04 2.03 -61.8 0 0 633.81 462.79
  L 673.47 507.97
  Q 673.88 508.43 673.71 509.02
  Q 668.12 528.10 659.32 545.22
  Q 658.98 545.89 659.28 546.58
  Q 664.92 559.55 666.51 574.48
  Q 666.68 576.01 667.50 574.71
  C 690.71 538.18 703.40 496.46 703.39 453.42
  Q 703.39 399.66 680.06 352.53
  C 653.24 298.35 605.65 256.84 548.27 237.84
  C 487.93 217.87 420.90 224.46 365.74 255.80
  Q 324.06 279.47 295.45 318.29
  Q 253.38 375.35 251.20 447.47
  A 0.52 0.51 -88.9 0 0 251.71 448.01
  L 272.45 448.01
  Q 273.00 448.01 273.01 447.46
  Q 273.97 409.85 288.05 375.40
  Q 288.56 374.13 288.80 375.48
  L 290.87 387.26
  A 0.58 0.58 0.0 0 0 291.74 387.67
  L 348.37 354.90
  A 3.64 3.64 0.0 0 0 349.88 353.18
  L 377.96 286.69
  A 0.69 0.68 24.8 0 0 377.63 285.81
  L 367.66 280.82
  Q 366.90 280.44 367.63 279.99
  Q 425.34 243.94 494.10 248.79
  Q 495.74 248.90 494.33 249.76
  L 466.11 266.87
  A 0.45 0.45 0.0 0 0 466.10 267.63
  L 519.77 302.18
  A 6.10 6.06 61.8 0 0 522.89 303.13
  L 596.18 304.75
  A 0.73 0.73 0.0 0 0 596.93 304.06
  L 597.84 288.08
  A 0.27 0.27 0.0 0 1 598.27 287.88
  Q 645.13 322.87 666.95 376.41
  Q 667.71 378.26 668.30 380.15
  Q 668.47 380.69 667.91 380.63
  Z
  M 402.57 481.14
  A 0.50 0.50 0.0 0 0 402.87 481.57
  L 482.21 515.36
  A 0.50 0.50 0.0 0 0 482.71 515.30
  L 560.86 456.38
  A 0.50 0.50 0.0 0 0 561.01 455.76
  L 508.82 348.61
  A 0.50 0.50 0.0 0 0 508.24 348.35
  L 396.23 379.15
  A 0.50 0.50 0.0 0 0 395.87 379.67
  L 402.57 481.14
  Z
  M 168.20 507.38
  A 0.52 0.52 0.0 0 0 168.71 507.99
  L 239.06 508.00
  A 0.52 0.52 0.0 0 1 239.57 508.61
  L 204.17 709.64
  A 0.52 0.52 0.0 0 0 204.68 710.25
  L 254.31 710.25
  A 0.52 0.52 0.0 0 0 254.83 709.82
  L 290.29 508.43
  A 0.52 0.52 0.0 0 1 290.81 508.00
  L 361.55 508.00
  A 0.52 0.52 0.0 0 0 362.06 507.57
  L 370.57 458.61
  A 0.52 0.52 0.0 0 0 370.06 458.00
  L 177.20 458.00
  A 0.52 0.52 0.0 0 0 176.69 458.43
  L 168.20 507.38
  Z
  M 751.51 548.55
  L 760.79 507.17
  A 0.55 0.54 -83.3 0 1 761.32 506.75
  L 867.82 506.75
  A 0.68 0.68 0.0 0 0 868.49 506.18
  L 875.77 459.05
  A 0.48 0.48 0.0 0 0 875.30 458.50
  L 726.49 458.50
  A 0.30 0.29 6.0 0 0 726.20 458.73
  L 698.76 583.43
  Q 698.71 583.64 698.91 583.73
  L 738.31 600.90
  A 1.44 1.42 39.0 0 0 739.72 600.76
  C 742.41 598.87 744.87 596.66 747.66 595.03
  Q 769.25 582.34 793.65 587.80
  C 815.36 592.65 820.89 613.36 816.54 633.04
  C 812.85 649.72 799.66 659.68 783.48 662.75
  C 753.53 668.46 724.19 656.03 701.04 638.00
  A 0.67 0.67 0.0 0 0 700.09 638.14
  L 671.83 677.36
  A 0.70 0.70 0.0 0 0 671.94 678.30
  Q 694.42 697.68 722.30 705.82
  C 740.06 711.00 758.06 713.41 776.54 712.38
  C 810.31 710.49 838.47 696.12 853.89 664.97
  C 863.45 645.64 866.40 620.26 864.13 598.81
  C 861.32 572.16 845.43 550.37 819.36 542.38
  C 808.02 538.91 796.61 538.13 784.64 538.56
  C 773.24 538.96 762.14 542.86 752.11 548.98
  Q 751.30 549.48 751.51 548.55
  Z
  M 460.69 543.98
  C 447.87 527.00 428.33 518.14 406.82 517.10
  Q 377.27 515.67 352.64 532.13
  C 318.79 554.75 302.67 595.81 303.73 636.95
  C 304.79 678.58 329.85 712.10 373.84 714.00
  Q 407.43 715.45 433.80 694.75
  C 459.41 674.65 473.35 644.06 476.45 611.55
  C 478.70 588.04 475.12 563.09 460.69 543.98
  Z
  M 557.55 531.59
  L 559.32 521.51
  A 0.39 0.38 82.7 0 0 558.78 521.09
  L 505.69 545.59
  A 1.29 1.29 0.0 0 0 504.95 546.54
  L 463.82 778.97
  A 0.42 0.42 0.0 0 0 464.41 779.42
  L 517.04 755.19
  A 2.02 2.00 82.7 0 0 518.18 753.70
  L 527.58 699.24
  A 0.33 0.33 0.0 0 1 528.11 699.03
  Q 534.83 704.21 542.30 708.29
  C 553.10 714.19 565.87 714.80 578.01 713.60
  Q 592.05 712.20 604.41 705.02
  C 642.76 682.77 656.48 633.10 656.92 591.03
  C 657.20 564.14 649.33 533.86 622.05 522.12
  Q 611.26 517.48 596.48 516.97
  C 580.93 516.44 569.60 522.22 558.11 531.90
  Q 557.39 532.51 557.55 531.59
  Z"
/>
<path fill="#ffffff" d="
  M 680.75 249.52
  Q 679.17 249.59 678.96 251.16
  L 677.26 263.67
  A 0.12 0.12 0.0 0 1 677.06 263.74
  L 670.96 257.87
  Q 670.82 257.74 670.85 257.55
  L 672.56 246.20
  A 3.08 3.06 23.6 0 0 671.43 243.33
  Q 669.70 241.96 668.27 240.25
  C 667.16 238.92 665.55 239.07 664.53 240.33
  Q 662.21 243.20 659.24 246.49
  A 0.33 0.33 0.0 0 1 658.76 246.51
  L 652.97 240.91
  Q 652.84 240.78 652.97 240.65
  L 678.69 213.44
  Q 679.10 213.00 679.55 213.40
  Q 685.42 218.65 691.45 224.61
  Q 694.36 227.48 696.20 231.34
  C 700.06 239.44 695.11 247.36 687.11 249.64
  C 684.85 250.28 682.95 249.42 680.75 249.52
  Z
  M 680.05 224.39
  L 671.63 233.33
  A 0.82 0.82 0.0 0 0 671.66 234.48
  L 677.46 239.95
  A 7.23 6.68 43.3 0 0 687.31 240.05
  L 687.69 239.64
  A 7.23 6.68 43.3 0 0 687.01 229.82
  L 681.21 224.35
  A 0.82 0.82 0.0 0 0 680.05 224.39
  Z"
/>
<path fill="#2d671b" d="
  M 680.05 224.39
  A 0.82 0.82 0.0 0 1 681.21 224.35
  L 687.01 229.82
  A 7.23 6.68 43.3 0 1 687.69 239.64
  L 687.31 240.05
  A 7.23 6.68 43.3 0 1 677.46 239.95
  L 671.66 234.48
  A 0.82 0.82 0.0 0 1 671.63 233.33
  L 680.05 224.39
  Z"
/>
<path fill="#171f34" d="
  M 668.30 380.15
  Q 667.71 378.26 666.95 376.41
  Q 645.13 322.87 598.27 287.88
  A 0.27 0.27 0.0 0 0 597.84 288.08
  L 596.93 304.06
  A 0.73 0.73 0.0 0 1 596.18 304.75
  L 522.89 303.13
  A 6.10 6.06 61.8 0 1 519.77 302.18
  L 466.10 267.63
  A 0.45 0.45 0.0 0 1 466.11 266.87
  L 494.33 249.76
  Q 495.74 248.90 494.10 248.79
  Q 425.34 243.94 367.63 279.99
  Q 366.90 280.44 367.66 280.82
  L 377.63 285.81
  A 0.69 0.68 24.8 0 1 377.96 286.69
  L 349.88 353.18
  A 3.64 3.64 0.0 0 1 348.37 354.90
  L 291.74 387.67
  A 0.58 0.58 0.0 0 1 290.87 387.26
  L 288.80 375.48
  Q 288.56 374.13 288.05 375.40
  Q 273.97 409.85 273.01 447.46
  Q 273.00 448.01 272.45 448.01
  L 251.71 448.01
  A 0.52 0.51 -88.9 0 1 251.20 447.47
  Q 253.38 375.35 295.45 318.29
  Q 324.06 279.47 365.74 255.80
  C 420.90 224.46 487.93 217.87 548.27 237.84
  C 605.65 256.84 653.24 298.35 680.06 352.53
  Q 703.39 399.66 703.39 453.42
  C 703.40 496.46 690.71 538.18 667.50 574.71
  Q 666.68 576.01 666.51 574.48
  Q 664.92 559.55 659.28 546.58
  Q 658.98 545.89 659.32 545.22
  Q 668.12 528.10 673.71 509.02
  Q 673.88 508.43 673.47 507.97
  L 633.81 462.79
  A 2.04 2.03 -61.8 0 1 633.33 461.19
  L 644.61 378.73
  Q 644.69 378.16 645.26 378.22
  L 667.91 380.63
  Q 668.47 380.69 668.30 380.15
  Z"
/>
<path fill="#ffffff" d="
  M 261.14 259.70
  Q 262.13 259.61 261.82 258.66
  L 253.81 234.11
  A 1.47 1.47 0.0 0 1 254.08 232.70
  L 257.42 228.78
  Q 258.03 228.06 258.75 228.69
  L 286.60 253.16
  A 0.49 0.49 0.0 0 1 286.64 253.86
  L 282.07 258.82
  Q 281.69 259.23 281.28 258.86
  Q 274.14 252.47 265.96 245.49
  Q 265.59 245.18 265.11 245.25
  A 0.82 0.81 -13.4 0 0 264.45 246.31
  L 270.33 264.24
  A 2.94 2.94 0.0 0 1 267.06 268.06
  Q 260.96 267.04 253.68 265.67
  Q 251.48 265.25 249.49 265.18
  Q 246.50 265.06 248.76 267.03
  L 263.41 279.80
  A 0.25 0.25 0.0 0 1 263.43 280.17
  L 258.41 285.61
  Q 258.28 285.74 258.15 285.63
  L 230.06 260.95
  Q 229.71 260.63 230.00 260.26
  L 233.28 256.05
  A 1.67 1.67 0.0 0 1 234.89 255.44
  Q 247.04 257.62 256.89 259.50
  Q 258.97 259.89 261.14 259.70
  Z"
/>
<path fill="#ffffff" d="
  M 711.84 256.33
  L 704.83 247.66
  A 0.57 0.57 0.0 0 1 704.91 246.86
  L 709.29 243.28
  A 0.57 0.57 0.0 0 1 710.10 243.37
  L 730.23 268.64
  A 0.57 0.57 0.0 0 1 730.13 269.44
  L 725.64 272.88
  A 0.57 0.57 0.0 0 1 724.84 272.78
  L 717.93 263.75
  A 0.57 0.57 0.0 0 0 717.13 263.65
  L 693.32 282.71
  A 0.57 0.57 0.0 0 1 692.52 282.63
  L 687.91 277.12
  A 0.57 0.57 0.0 0 1 687.99 276.32
  L 711.76 257.13
  A 0.57 0.57 0.0 0 0 711.84 256.33
  Z"
/>
<rect fill="#ffffff" x="-19.14" y="-4.18" transform="translate(722.64,292.38) rotate(-32.7)" width="38.28" height="8.36" rx="0.26"/>
<path fill="#ffffff" d="
  M 214.7145 318.8276
  A 21.09 19.94 122.9 0 1 209.4280 290.2891
  A 21.09 19.94 122.9 0 1 237.6255 283.4124
  A 21.09 19.94 122.9 0 1 242.9120 311.9509
  A 21.09 19.94 122.9 0 1 214.7145 318.8276
  Z
  M 236.8597 308.2421
  A 12.87 12.62 33.6 0 0 233.1238 290.6085
  A 12.87 12.62 33.6 0 0 215.4203 293.9979
  A 12.87 12.62 33.6 0 0 219.1562 311.6315
  A 12.87 12.62 33.6 0 0 236.8597 308.2421
  Z"
/>
<ellipse fill="#2d671b" cx="0.00" cy="0.00" transform="translate(226.14,301.12) rotate(33.6)" rx="12.87" ry="12.62"/>
<path fill="#ffffff" d="
  M 732.44 325.19
  Q 733.02 325.68 733.73 325.65
  C 740.14 325.38 746.24 325.71 752.51 324.89
  Q 756.75 324.34 761.51 324.51
  A 0.38 0.37 -12.2 0 1 761.83 324.71
  L 765.25 331.45
  Q 765.34 331.62 765.14 331.63
  C 759.99 331.82 755.01 332.58 749.86 332.56
  C 741.37 332.52 732.84 333.79 724.40 333.52
  A 0.99 0.98 -12.1 0 1 723.55 332.98
  L 720.45 326.76
  Q 720.14 326.13 720.60 325.59
  L 746.88 294.86
  Q 747.14 294.55 747.33 294.91
  L 751.05 302.32
  A 0.49 0.48 52.8 0 1 750.98 302.85
  L 732.38 324.38
  A 0.57 0.57 0.0 0 0 732.44 325.19
  Z"
/>
<path fill="#ffffff" d="
  M 201.08 352.13
  Q 210.87 356.20 216.95 348.02
  Q 221.15 342.37 218.36 335.43
  Q 217.92 334.34 218.98 333.84
  L 223.53 331.75
  Q 224.70 331.21 225.15 332.42
  Q 228.83 342.32 222.95 352.07
  C 219.19 358.29 213.06 361.99 205.62 361.71
  C 197.85 361.42 191.07 357.09 187.88 349.77
  C 183.74 340.26 188.28 328.79 196.33 323.17
  Q 197.58 322.30 199.15 321.97
  Q 199.72 321.85 199.94 322.39
  L 202.19 327.88
  Q 202.41 328.40 201.89 328.62
  Q 195.02 331.50 193.75 339.38
  C 192.88 344.76 196.34 350.15 201.08 352.13
  Z"
/>
<path fill="#ffffff" d="
  M 762.3687 385.8799
  A 21.14 19.91 73.6 0 1 737.3001 371.2214
  A 21.14 19.91 73.6 0 1 750.4313 345.3201
  A 21.14 19.91 73.6 0 1 775.4999 359.9786
  A 21.14 19.91 73.6 0 1 762.3687 385.8799
  Z
  M 768.5736 361.7353
  A 12.81 12.56 -17.7 0 0 752.5513 353.6646
  A 12.81 12.56 -17.7 0 0 744.1664 369.5247
  A 12.81 12.56 -17.7 0 0 760.1887 377.5954
  A 12.81 12.56 -17.7 0 0 768.5736 361.7353
  Z"
/>
<path fill="#171f34" d="
  M 402.57 481.14
  L 395.87 379.67
  A 0.50 0.50 0.0 0 1 396.23 379.15
  L 508.24 348.35
  A 0.50 0.50 0.0 0 1 508.82 348.61
  L 561.01 455.76
  A 0.50 0.50 0.0 0 1 560.86 456.38
  L 482.71 515.30
  A 0.50 0.50 0.0 0 1 482.21 515.36
  L 402.87 481.57
  A 0.50 0.50 0.0 0 1 402.57 481.14
  Z"
/>
<ellipse fill="#2d671b" cx="0.00" cy="0.00" transform="translate(756.37,365.63) rotate(-17.7)" rx="12.81" ry="12.56"/>
<path fill="#171f34" d="
  M 168.20 507.38
  L 176.69 458.43
  A 0.52 0.52 0.0 0 1 177.20 458.00
  L 370.06 458.00
  A 0.52 0.52 0.0 0 1 370.57 458.61
  L 362.06 507.57
  A 0.52 0.52 0.0 0 1 361.55 508.00
  L 290.81 508.00
  A 0.52 0.52 0.0 0 0 290.29 508.43
  L 254.83 709.82
  A 0.52 0.52 0.0 0 1 254.31 710.25
  L 204.68 710.25
  A 0.52 0.52 0.0 0 1 204.17 709.64
  L 239.57 508.61
  A 0.52 0.52 0.0 0 0 239.06 508.00
  L 168.71 507.99
  A 0.52 0.52 0.0 0 1 168.20 507.38
  Z"
/>
<path fill="#171f34" d="
  M 752.11 548.98
  C 762.14 542.86 773.24 538.96 784.64 538.56
  C 796.61 538.13 808.02 538.91 819.36 542.38
  C 845.43 550.37 861.32 572.16 864.13 598.81
  C 866.40 620.26 863.45 645.64 853.89 664.97
  C 838.47 696.12 810.31 710.49 776.54 712.38
  C 758.06 713.41 740.06 711.00 722.30 705.82
  Q 694.42 697.68 671.94 678.30
  A 0.70 0.70 0.0 0 1 671.83 677.36
  L 700.09 638.14
  A 0.67 0.67 0.0 0 1 701.04 638.00
  C 724.19 656.03 753.53 668.46 783.48 662.75
  C 799.66 659.68 812.85 649.72 816.54 633.04
  C 820.89 613.36 815.36 592.65 793.65 587.80
  Q 769.25 582.34 747.66 595.03
  C 744.87 596.66 742.41 598.87 739.72 600.76
  A 1.44 1.42 39.0 0 1 738.31 600.90
  L 698.91 583.73
  Q 698.71 583.64 698.76 583.43
  L 726.20 458.73
  A 0.30 0.29 6.0 0 1 726.49 458.50
  L 875.30 458.50
  A 0.48 0.48 0.0 0 1 875.77 459.05
  L 868.49 506.18
  A 0.68 0.68 0.0 0 1 867.82 506.75
  L 761.32 506.75
  A 0.55 0.54 -83.3 0 0 760.79 507.17
  L 751.51 548.55
  Q 751.30 549.48 752.11 548.98
  Z"
/>
<path fill="#171f34" d="
  M 406.82 517.10
  C 428.33 518.14 447.87 527.00 460.69 543.98
  C 475.12 563.09 478.70 588.04 476.45 611.55
  C 473.35 644.06 459.41 674.65 433.80 694.75
  Q 407.43 715.45 373.84 714.00
  C 329.85 712.10 304.79 678.58 303.73 636.95
  C 302.67 595.81 318.79 554.75 352.64 532.13
  Q 377.27 515.67 406.82 517.10
  Z
  M 403.61 565.89
  C 389.30 562.76 375.90 570.42 367.68 582.17
  C 357.77 596.34 354.38 615.35 355.11 632.87
  C 355.73 647.81 363.01 663.54 379.51 665.71
  C 393.04 667.50 405.47 659.81 413.15 648.66
  C 423.84 633.14 427.27 610.73 425.00 592.70
  C 423.44 580.36 415.96 568.59 403.61 565.89
  Z"
/>
<path fill="#171f34" d="
  M 558.11 531.90
  C 569.60 522.22 580.93 516.44 596.48 516.97
  Q 611.26 517.48 622.05 522.12
  C 649.33 533.86 657.20 564.14 656.92 591.03
  C 656.48 633.10 642.76 682.77 604.41 705.02
  Q 592.05 712.20 578.01 713.60
  C 565.87 714.80 553.10 714.19 542.30 708.29
  Q 534.83 704.21 528.11 699.03
  A 0.33 0.33 0.0 0 0 527.58 699.24
  L 518.18 753.70
  A 2.02 2.00 82.7 0 1 517.04 755.19
  L 464.41 779.42
  A 0.42 0.42 0.0 0 1 463.82 778.97
  L 504.95 546.54
  A 1.29 1.29 0.0 0 1 505.69 545.59
  L 558.78 521.09
  A 0.39 0.38 82.7 0 1 559.32 521.51
  L 557.55 531.59
  Q 557.39 532.51 558.11 531.90
  Z
  M 591.06 566.67
  Q 579.56 562.06 567.45 566.69
  C 561.35 569.01 555.02 574.38 550.06 579.02
  Q 548.96 580.03 548.70 581.54
  Q 542.55 616.16 536.49 650.09
  A 1.09 1.08 30.1 0 0 536.73 650.98
  Q 541.69 656.99 548.54 661.54
  C 554.14 665.26 560.56 666.61 567.21 666.75
  C 582.20 667.06 592.67 653.74 597.82 641.00
  Q 605.01 623.17 605.51 600.46
  C 605.78 588.51 603.92 571.82 591.06 566.67
  Z"
/>
<path fill="#ffffff" d="
  M 591.06 566.67
  C 603.92 571.82 605.78 588.51 605.51 600.46
  Q 605.01 623.17 597.82 641.00
  C 592.67 653.74 582.20 667.06 567.21 666.75
  C 560.56 666.61 554.14 665.26 548.54 661.54
  Q 541.69 656.99 536.73 650.98
  A 1.09 1.08 30.1 0 1 536.49 650.09
  Q 542.55 616.16 548.70 581.54
  Q 548.96 580.03 550.06 579.02
  C 555.02 574.38 561.35 569.01 567.45 566.69
  Q 579.56 562.06 591.06 566.67
  Z"
/>
<path fill="#ffffff" d="
  M 367.68 582.17
  C 375.90 570.42 389.30 562.76 403.61 565.89
  C 415.96 568.59 423.44 580.36 425.00 592.70
  C 427.27 610.73 423.84 633.14 413.15 648.66
  C 405.47 659.81 393.04 667.50 379.51 665.71
  C 363.01 663.54 355.73 647.81 355.11 632.87
  C 354.38 615.35 357.77 596.34 367.68 582.17
  Z"
/>
</svg>
