<?xml version="1.0" encoding="UTF-8" standalone="no"?>
<!DOCTYPE svg PUBLIC "-//W3C//DTD SVG 1.1//EN" "http://www.w3.org/Graphics/SVG/1.1/DTD/svg11.dtd">
<svg xmlns="http://www.w3.org/2000/svg" version="1.1" viewBox="0.00 0.00 512.00 512.00">
<g stroke-width="2.00" fill="none" stroke-linecap="butt">
<path stroke="#80bd80" vector-effect="non-scaling-stroke" d="
  M 346.03 379.14
  Q 347.69 383.60 350.32 388.20
  C 351.88 390.92 354.34 392.77 356.15 395.37
  Q 363.06 405.25 376.52 411.31
  Q 396.64 420.36 416.02 419.21
  Q 426.43 418.59 432.16 417.08
  C 440.35 414.91 450.09 411.83 457.26 407.51
  Q 464.02 403.44 468.23 399.72
  Q 474.25 394.39 480.31 385.39
  C 482.72 381.82 484.28 377.83 486.34 374.11
  C 488.93 369.42 490.32 364.55 491.28 359.28
  C 494.07 343.92 494.66 323.81 485.48 310.30
  Q 482.05 305.25 479.17 301.25
  C 472.64 292.17 460.33 286.62 449.65 283.73
  A 0.40 0.40 0.0 0 1 449.49 283.04
  Q 449.88 282.71 450.39 282.61
  C 460.13 280.74 470.09 280.43 479.85 280.47
  A 1.07 1.06 4.4 0 0 480.91 279.57
  C 482.95 266.42 484.81 253.81 487.72 239.96
  Q 489.73 230.40 490.82 220.56
  Q 490.86 220.17 490.47 220.17
  C 473.39 219.89 456.64 219.73 439.85 223.22
  C 432.89 224.67 426.13 227.70 419.20 230.09
  A 0.31 0.31 0.0 0 1 418.79 229.80
  Q 418.39 206.20 412.56 183.49
  C 411.45 179.20 409.49 175.27 408.10 171.06
  Q 404.51 160.18 398.09 146.84
  Q 395.42 141.31 392.68 137.30
  Q 389.71 132.97 386.98 128.59
  C 383.25 122.59 378.81 117.15 374.50 111.50
  Q 373.18 109.77 371.56 108.29
  C 368.85 105.81 366.41 102.88 363.75 100.23
  Q 360.52 97.00 357.12 93.70
  C 351.39 88.14 344.85 83.54 338.37 78.73
  C 335.55 76.64 332.41 75.21 329.67 73.09
  Q 326.46 70.62 322.91 68.70
  C 313.23 63.50 303.17 58.91 292.85 55.61
  Q 291.91 55.31 287.24 53.28
  Q 284.81 52.23 281.49 51.34
  Q 229.52 37.41 178.23 50.46
  C 172.52 51.91 167.48 54.18 162.09 56.14
  Q 151.33 60.05 139.87 65.66
  Q 131.68 69.66 126.76 73.49
  C 124.48 75.26 121.80 76.35 119.48 78.06
  Q 113.97 82.14 108.12 86.48
  Q 102.74 90.47 97.97 95.37
  Q 93.57 99.90 88.39 104.91
  Q 84.37 108.80 81.09 113.08
  C 77.30 118.02 73.36 122.86 70.07 128.12
  Q 68.11 131.25 65.92 134.43
  Q 61.95 140.19 58.87 146.51
  Q 53.91 156.71 50.47 166.13
  Q 48.98 170.23 47.12 174.72
  Q 45.08 179.68 43.71 185.49
  C 40.46 199.28 38.83 212.28 38.12 226.16
  Q 38.09 226.81 37.44 226.80
  L 30.53 226.75
  Q 29.84 226.75 29.68 227.42
  C 28.97 230.38 28.00 233.14 27.49 236.19
  Q 23.20 261.52 18.97 286.62
  Q 18.86 287.27 19.52 287.27
  L 63.23 287.24
  Q 63.58 287.23 63.52 287.59
  Q 57.62 322.08 51.14 360.39
  Q 49.47 370.24 47.40 380.04
  Q 43.92 396.52 41.54 413.30
  Q 41.47 413.78 41.96 413.78
  L 101.74 413.76
  A 1.14 1.13 -85.6 0 0 102.86 412.80
  Q 103.61 407.82 104.83 402.88
  C 107.02 394.01 108.48 384.68 109.89 375.77
  Q 110.22 373.67 110.81 375.72
  Q 113.03 383.51 118.14 391.35
  Q 122.28 397.70 128.15 402.47
  Q 135.08 408.12 141.03 410.68
  Q 153.08 415.87 167.96 416.54
  C 171.47 416.70 174.72 415.80 178.12 415.41
  C 191.00 413.92 203.23 408.43 213.58 400.36
  Q 214.59 399.57 214.37 400.84
  L 203.12 466.52
  Q 202.83 468.16 204.32 467.41
  Q 213.88 462.62 222.75 459.08
  C 227.95 457.01 232.44 453.93 237.52 451.70
  Q 251.76 445.45 268.08 438.17
  A 1.74 1.73 82.7 0 0 269.09 436.86
  L 272.65 415.24
  A 0.63 0.62 8.3 0 1 273.34 414.73
  C 278.81 415.39 284.33 416.82 289.74 416.44
  Q 303.54 415.45 314.94 410.13
  Q 323.22 406.26 329.86 399.57
  Q 334.38 395.01 338.16 390.37
  Q 342.12 385.51 345.22 379.11
  A 0.44 0.44 0.0 0 1 346.03 379.14"
/>
<path stroke="#80bd80" vector-effect="non-scaling-stroke" d="
  M 382.50 259.77
  L 383.90 252.63
  A 3.63 3.63 0.0 0 1 385.20 250.47
  C 393.74 243.54 402.29 237.09 412.48 233.13
  A 0.73 0.72 79.6 0 0 412.93 232.47
  C 413.09 221.06 411.98 209.78 409.29 198.58
  Q 407.87 192.65 406.53 186.99
  Q 402.91 171.64 395.46 155.32
  Q 392.55 148.95 388.20 142.11
  Q 384.36 136.08 380.15 129.20
  Q 376.29 122.88 372.92 119.52
  Q 368.49 115.10 364.72 109.97
  Q 362.83 107.41 358.42 103.21
  Q 354.74 99.71 351.15 96.96
  C 347.62 94.26 344.84 90.87 341.26 88.17
  Q 338.87 86.36 336.51 84.86
  Q 328.65 79.87 320.82 74.96
  Q 315.20 71.44 309.17 68.55
  C 299.87 64.10 292.73 61.64 281.73 58.16
  Q 279.10 57.33 276.26 56.68
  C 272.65 55.86 268.99 55.05 265.46 53.84
  Q 263.05 53.02 260.47 52.59
  Q 232.89 48.09 204.56 51.45
  Q 197.37 52.30 189.19 54.41
  C 174.68 58.15 161.58 62.01 147.76 68.35
  Q 141.86 71.05 135.60 75.09
  C 128.01 79.98 119.69 84.30 112.98 90.37
  Q 108.58 94.36 103.35 98.77
  Q 98.85 102.57 93.85 107.91
  C 91.40 110.52 89.59 113.64 87.02 116.01
  C 79.23 123.15 74.34 133.35 68.59 142.00
  Q 65.34 146.88 62.80 152.15
  Q 55.04 168.26 50.63 185.30
  Q 49.23 190.69 48.23 194.17
  Q 46.87 198.89 46.20 202.99
  Q 44.31 214.53 43.99 226.23
  A 0.53 0.53 0.0 0 0 44.52 226.77
  L 80.01 226.75
  Q 80.51 226.75 80.51 227.26
  L 80.45 232.31
  Q 80.45 232.75 80.01 232.75
  L 35.52 232.69
  A 1.08 1.07 -85.3 0 0 34.46 233.59
  C 32.62 244.31 30.98 255.67 28.49 266.67
  Q 27.01 273.22 25.98 280.17
  A 0.51 0.50 4.3 0 0 26.49 280.75
  L 70.00 280.72
  Q 71.08 280.71 70.94 281.78
  Q 69.76 290.99 67.65 300.71
  Q 65.35 311.36 63.91 319.79
  Q 56.59 362.87 49.20 406.72
  Q 49.01 407.82 50.13 407.82
  L 97.22 407.77
  Q 97.87 407.77 97.97 407.14
  Q 100.46 392.33 102.58 379.37
  C 104.04 370.51 106.36 362.97 107.64 353.98
  Q 107.85 352.49 109.09 351.65
  L 111.75 349.84
  Q 112.95 349.02 112.91 350.47
  Q 112.55 364.92 118.15 378.91
  Q 120.69 385.26 123.71 388.57
  Q 127.06 392.24 130.76 396.45
  C 133.78 399.88 137.52 402.46 141.64 404.40
  Q 161.41 413.69 183.66 408.52
  Q 191.40 406.72 199.69 402.47
  Q 205.34 399.58 211.22 393.93
  Q 217.46 387.92 222.05 382.99
  Q 222.92 382.06 223.63 380.93
  Q 224.55 379.45 224.26 381.16
  Q 222.58 390.82 221.13 399.22
  C 220.34 403.82 218.85 408.52 218.09 413.16
  Q 214.93 432.56 211.60 451.24
  Q 211.08 454.22 210.77 457.19
  A 0.33 0.33 0.0 0 0 211.20 457.53
  C 214.21 456.51 216.70 454.68 219.50 453.37
  Q 230.58 448.21 238.98 444.70
  Q 251.29 439.56 262.93 433.50
  A 2.05 2.05 0.0 0 0 264.01 432.02
  L 268.14 407.25
  A 0.66 0.66 0.0 0 1 269.08 406.76
  Q 273.62 408.88 278.64 409.63
  Q 299.32 412.72 316.70 402.48
  Q 320.64 400.16 323.20 397.54
  Q 328.98 391.60 334.77 384.91
  Q 336.77 382.60 338.07 379.86
  Q 340.31 375.18 342.72 370.16
  C 344.09 367.31 345.05 364.29 346.08 361.31
  Q 347.00 358.63 347.42 361.43
  C 348.56 368.95 350.75 376.19 354.92 383.16
  Q 358.60 389.29 363.61 394.90
  Q 368.13 399.97 373.27 402.96
  Q 384.33 409.38 396.61 411.28
  Q 426.19 415.86 450.57 404.37
  C 454.78 402.38 459.08 399.69 462.24 396.29
  C 465.32 392.98 469.16 390.65 471.86 387.09
  C 478.39 378.48 483.39 367.81 485.08 357.01
  C 485.87 351.96 486.94 346.92 486.97 341.92
  Q 487.04 331.77 483.30 320.23
  C 480.99 313.10 477.04 308.03 472.30 302.50
  Q 470.10 299.92 467.24 298.06
  Q 461.51 294.33 456.88 292.37
  Q 443.53 286.74 425.43 287.20
  Q 423.90 287.24 425.20 286.43
  Q 428.55 284.33 431.99 282.49
  Q 435.28 280.73 439.20 279.48
  C 450.95 275.74 462.83 274.81 475.21 274.78
  Q 475.82 274.78 475.92 274.18
  L 483.33 227.24
  Q 483.43 226.66 482.84 226.63
  Q 463.46 225.71 446.54 228.56
  Q 427.99 231.68 409.93 240.66
  Q 404.85 243.19 400.01 247.02
  Q 395.29 250.74 390.31 254.17
  C 387.77 255.91 385.58 258.20 383.15 260.17
  Q 382.29 260.87 382.50 259.77"
/>
<path stroke="#80a9de" vector-effect="non-scaling-stroke" d="
  M 203.64 78.61
  C 206.76 78.45 212.21 78.12 214.51 75.71
  C 216.90 73.21 216.84 68.55 215.93 65.53
  Q 214.18 59.71 208.01 60.13
  Q 201.30 60.59 194.70 61.44
  A 0.36 0.36 0.0 0 0 194.38 61.85
  L 197.46 88.83
  Q 197.50 89.19 197.87 89.14
  L 203.70 88.30
  Q 203.91 88.27 203.89 88.07
  L 202.90 79.49
  Q 202.80 78.65 203.64 78.61"
/>
<path stroke="#80a9de" vector-effect="non-scaling-stroke" d="
  M 259.39 83.97
  A 0.49 0.49 0.0 0 1 259.00 83.39
  L 263.18 61.96
  A 0.49 0.49 0.0 0 0 262.79 61.39
  L 257.43 60.34
  A 0.49 0.49 0.0 0 0 256.85 60.73
  L 251.59 87.25
  A 0.49 0.49 0.0 0 0 251.98 87.82
  L 270.62 91.37
  A 0.49 0.49 0.0 0 0 271.19 90.98
  L 271.94 87.03
  A 0.49 0.49 0.0 0 0 271.56 86.46
  L 259.39 83.97"
/>
<path stroke="#80a9de" vector-effect="non-scaling-stroke" d="
  M 139.72 91.50
  Q 141.07 93.94 142.94 95.72
  C 146.57 99.17 149.70 103.43 152.80 107.36
  Q 153.22 107.90 153.84 107.59
  L 157.80 105.60
  Q 158.22 105.40 158.12 104.94
  Q 156.30 96.01 154.35 88.14
  Q 152.53 80.84 155.45 87.77
  Q 158.29 94.54 162.38 102.29
  A 1.35 1.35 0.0 0 0 164.21 102.85
  L 167.32 101.20
  Q 168.33 100.66 167.80 99.64
  L 155.75 76.28
  A 0.66 0.65 -26.4 0 0 154.88 75.99
  L 148.68 79.01
  Q 148.16 79.27 148.28 79.84
  L 152.62 99.46
  Q 152.83 100.43 152.21 99.66
  L 139.70 84.33
  Q 138.98 83.44 137.96 83.97
  L 132.54 86.75
  Q 131.21 87.44 131.86 88.79
  L 143.07 112.16
  Q 143.61 113.29 144.73 112.73
  Q 146.47 111.84 148.23 110.37
  Q 148.95 109.78 148.49 108.97
  C 146.34 105.13 144.82 101.31 142.37 97.59
  Q 140.43 94.65 139.50 91.60
  Q 139.14 90.45 139.72 91.50"
/>
<path stroke="#80a9de" vector-effect="non-scaling-stroke" d="
  M 314.58 92.81
  L 317.28 88.13
  A 0.49 0.48 -58.4 0 1 317.96 87.96
  L 328.90 95.13
  Q 329.95 95.82 330.47 94.68
  L 331.99 91.36
  Q 332.39 90.49 331.56 90.02
  L 315.01 80.66
  A 0.56 0.55 -59.6 0 0 314.27 80.86
  C 309.52 88.65 305.98 96.59 301.14 104.19
  Q 300.63 104.98 301.47 105.42
  Q 306.90 108.27 311.40 111.45
  C 313.70 113.07 316.27 114.07 318.64 115.49
  A 0.88 0.88 0.0 0 0 319.86 115.17
  L 321.82 111.70
  Q 322.29 110.87 321.45 110.43
  L 308.76 103.67
  A 0.55 0.54 29.2 0 1 308.54 102.91
  L 311.38 97.99
  Q 311.62 97.57 312.04 97.80
  L 322.84 103.47
  Q 323.68 103.92 324.18 103.11
  L 325.69 100.68
  Q 326.21 99.84 325.35 99.35
  L 314.70 93.27
  Q 314.41 93.10 314.58 92.81"
/>
<path stroke="#8099d7" vector-effect="non-scaling-stroke" d="
  M 349.52 192.69
  L 336.27 191.30
  Q 335.65 191.23 335.59 191.85
  C 334.84 199.38 332.95 206.35 332.04 213.81
  Q 330.31 227.93 328.41 241.72
  C 328.08 244.10 329.71 246.16 331.29 247.72
  C 336.90 253.27 342.46 259.32 347.34 265.83
  C 348.63 267.55 351.24 271.05 353.31 272.15
  A 1.09 1.09 0.0 0 1 353.84 273.46
  C 353.28 275.19 352.20 276.67 351.71 278.39
  Q 349.23 287.09 344.69 295.59
  Q 344.40 296.13 344.63 296.70
  Q 347.70 304.48 348.93 314.12
  Q 349.05 315.11 349.58 314.26
  C 351.63 310.92 354.09 308.27 355.92 304.65
  Q 365.93 284.87 369.52 264.46
  C 371.64 252.44 373.52 240.62 372.11 228.40
  C 369.93 209.58 366.07 192.12 357.94 175.17
  Q 354.65 168.32 349.41 160.70
  Q 344.50 153.56 339.94 147.31
  Q 337.09 143.40 332.91 139.74
  Q 328.94 136.28 324.73 131.86
  Q 320.76 127.71 316.35 124.65
  Q 301.89 114.63 289.76 108.71
  Q 277.14 102.55 260.17 99.09
  Q 219.74 90.84 179.40 105.06
  Q 172.74 107.41 167.82 110.28
  Q 164.72 112.09 161.64 113.65
  C 155.69 116.67 150.29 120.60 144.69 124.42
  Q 139.94 127.66 135.49 132.22
  Q 131.33 136.48 126.73 141.10
  C 124.46 143.39 121.94 145.37 120.05 148.11
  C 115.70 154.39 111.17 160.31 107.49 166.98
  Q 105.94 169.80 104.09 172.86
  Q 100.71 178.45 97.74 186.71
  Q 88.93 211.17 88.84 234.42
  Q 88.84 235.10 89.52 235.10
  L 101.02 235.18
  A 0.89 0.89 0.0 0 0 101.91 234.32
  Q 102.23 221.81 104.27 213.60
  Q 107.07 202.39 111.23 190.50
  Q 111.37 190.08 111.65 189.76
  A 0.33 0.33 0.0 0 1 112.23 189.93
  L 113.12 196.48
  A 0.74 0.74 0.0 0 0 114.25 197.00
  C 120.01 193.41 125.98 190.70 131.60 186.87
  Q 138.37 182.26 147.48 177.93
  C 149.15 177.13 150.34 176.04 151.04 174.27
  C 155.06 164.10 159.09 153.81 163.83 143.96
  Q 166.18 139.08 168.05 134.00
  Q 168.25 133.46 167.73 133.20
  L 161.45 130.05
  A 0.37 0.37 0.0 0 1 161.42 129.40
  Q 180.55 117.45 202.58 112.99
  C 207.78 111.94 212.93 110.13 218.17 109.78
  Q 229.40 109.04 240.67 109.59
  Q 242.56 109.69 240.94 110.66
  L 223.81 121.02
  Q 223.09 121.45 223.79 121.91
  L 255.72 142.83
  Q 257.48 143.98 259.57 144.01
  L 304.83 144.78
  Q 305.40 144.79 305.45 144.23
  L 306.21 135.04
  A 0.27 0.27 0.0 0 1 306.64 134.85
  C 311.91 139.13 318.29 143.21 322.64 148.64
  Q 326.70 153.71 331.37 158.95
  Q 335.92 164.05 338.94 169.15
  Q 346.02 181.11 349.98 192.11
  Q 350.21 192.77 349.52 192.69"
/>
<path stroke="#80a9de" vector-effect="non-scaling-stroke" d="
  M 113.8460 142.1825
  A 15.12 13.72 42.9 0 0 112.1095 121.8395
  A 15.12 13.72 42.9 0 0 91.6940 121.5975
  A 15.12 13.72 42.9 0 0 93.4305 141.9405
  A 15.12 13.72 42.9 0 0 113.8460 142.1825"
/>
<path stroke="#80a9de" vector-effect="non-scaling-stroke" d="
  M 373.23 128.53
  Q 373.57 128.19 373.16 127.94
  Q 370.97 126.55 369.18 124.35
  A 0.46 0.46 0.0 0 0 368.51 124.30
  C 363.40 128.88 359.28 133.98 353.95 138.25
  Q 350.93 140.66 348.96 137.78
  Q 347.60 135.80 351.13 132.79
  Q 352.16 131.91 351.33 130.84
  L 348.94 127.78
  Q 348.16 126.78 347.35 127.75
  C 344.06 131.67 341.18 136.53 345.36 141.21
  Q 351.59 148.19 358.81 141.93
  Q 365.62 136.03 373.23 128.53"
/>
<path stroke="#80a9de" vector-effect="non-scaling-stroke" d="
  M 391.59 192.25
  C 398.57 188.85 400.29 179.85 396.28 173.36
  Q 390.56 164.09 380.77 167.37
  C 377.51 168.46 373.22 171.45 370.81 173.97
  Q 367.00 177.95 368.67 184.64
  Q 370.48 191.86 376.84 194.33
  C 381.66 196.20 387.14 194.41 391.59 192.25"
/>
<path stroke="#80a9de" vector-effect="non-scaling-stroke" d="
  M 82.98 187.49
  C 78.83 192.41 71.06 186.77 68.09 183.25
  Q 66.10 180.88 67.41 178.12
  Q 69.42 173.87 73.51 174.47
  Q 74.15 174.56 74.40 173.97
  L 76.24 169.55
  Q 76.48 168.98 75.96 168.65
  C 72.40 166.36 65.66 170.47 63.63 173.53
  Q 59.09 180.36 63.24 187.83
  Q 64.33 189.79 66.01 190.91
  C 71.95 194.87 78.86 197.06 85.56 193.08
  C 88.59 191.28 89.96 188.46 90.58 185.15
  Q 92.20 176.56 84.71 172.63
  Q 84.50 172.52 84.40 172.73
  L 82.21 177.64
  A 0.31 0.31 0.0 0 0 82.30 178.01
  Q 87.49 182.15 82.98 187.49"
/>
<path stroke="#8094d5" vector-effect="non-scaling-stroke" d="
  M 248.30 172.94
  Q 225.93 178.87 203.55 184.80
  Q 197.53 186.40 191.64 188.45
  Q 185.41 190.61 179.66 191.75
  Q 179.04 191.87 179.07 192.50
  Q 179.87 211.32 181.61 227.50
  C 182.60 236.78 183.19 246.09 183.71 255.14
  Q 183.75 255.86 184.41 256.14
  Q 190.78 258.86 197.25 261.62
  C 203.37 264.24 209.21 267.38 215.48 269.78
  Q 223.81 272.96 232.85 276.90
  A 0.98 0.97 38.7 0 0 233.79 276.80
  C 239.24 272.98 244.65 269.73 249.57 265.25
  Q 252.83 262.27 257.00 259.41
  Q 270.42 250.16 283.15 239.61"
/>
<path stroke="#80a9de" vector-effect="non-scaling-stroke" d="
  M 283.15 239.61
  L 250.39 173.00
  Q 250.16 172.54 249.65 172.54
  Q 248.97 172.54 248.30 172.94"
/>
<path stroke="#003eb4" vector-effect="non-scaling-stroke" d="
  M 283.15 239.61
  Q 270.79 235.25 260.44 230.13
  C 258.57 229.21 256.50 228.73 254.71 227.75
  Q 244.68 222.31 233.65 218.06
  A 1.08 1.08 0.0 0 1 233.06 216.61
  C 235.26 211.82 236.47 206.70 238.77 202.04
  C 241.70 196.11 243.51 189.39 245.93 183.19
  Q 248.20 177.38 249.12 174.50
  Q 249.47 173.42 248.30 172.94"
/>
<path stroke="#8094d5" vector-effect="non-scaling-stroke" d="
  M 398.85 303.15
  Q 402.24 295.36 408.78 288.68
  C 410.42 287.01 412.41 285.89 414.01 284.09
  C 417.45 280.23 422.90 277.18 427.48 275.15
  Q 446.19 266.88 468.20 266.73
  A 0.57 0.57 0.0 0 0 468.76 266.25
  L 473.70 235.22
  A 0.37 0.37 0.0 0 0 473.34 234.79
  Q 451.19 234.44 430.70 240.93
  Q 425.13 242.69 421.63 244.64
  Q 417.38 247.01 413.16 249.06
  C 399.64 255.64 387.87 266.55 378.49 278.88
  C 376.25 281.83 374.86 285.12 372.61 287.84
  Q 370.17 290.77 368.54 294.00
  Q 353.52 323.67 355.86 355.47
  Q 356.77 367.77 361.94 378.55
  Q 365.32 385.61 370.64 390.02
  Q 374.73 393.42 380.08 396.99
  C 383.63 399.36 387.23 400.89 391.22 401.87
  Q 413.82 407.40 435.65 401.39
  C 438.56 400.59 442.14 399.45 444.66 397.79
  C 447.97 395.60 451.58 394.23 454.69 391.80
  C 466.40 382.67 474.56 370.26 476.90 355.75
  C 478.92 343.24 479.10 331.35 474.13 319.63
  Q 471.98 314.56 468.69 311.24
  Q 463.19 305.68 455.35 300.76
  Q 453.22 299.42 450.85 298.71
  Q 436.16 294.29 421.54 295.74
  Q 414.14 296.47 410.06 297.84
  Q 404.22 299.81 399.78 303.82
  Q 397.77 305.63 398.85 303.15"
/>
<path stroke="#8094d5" vector-effect="non-scaling-stroke" d="
  M 80.92 273.07
  Q 74.89 308.98 68.54 345.88
  C 67.82 350.06 66.52 354.23 65.79 358.39
  Q 62.32 378.33 58.83 399.16
  Q 58.73 399.71 59.29 399.71
  L 90.28 399.77
  A 0.88 0.88 0.0 0 0 91.16 398.92
  Q 91.24 396.87 91.66 394.41
  Q 97.97 357.74 103.77 323.21
  C 104.33 319.87 105.39 316.64 105.99 313.42
  Q 109.25 295.96 112.95 273.01
  A 0.62 0.61 -84.9 0 1 113.55 272.50
  L 157.28 272.51
  A 0.79 0.78 3.7 0 0 158.06 271.83
  Q 159.75 258.67 163.05 244.46
  Q 163.43 242.81 163.46 241.31
  Q 163.47 240.81 162.98 240.81
  L 41.99 240.86
  Q 41.58 240.86 41.52 241.26
  L 36.46 271.94
  Q 36.36 272.52 36.95 272.52
  L 80.46 272.53
  A 0.47 0.46 4.7 0 1 80.92 273.07"
/>
<path stroke="#8094d5" vector-effect="non-scaling-stroke" d="
  M 281.12 287.20
  L 281.92 277.04
  Q 281.95 276.68 281.60 276.78
  Q 274.93 278.81 269.39 281.89
  Q 262.93 285.48 259.82 286.75
  Q 254.25 289.02 248.73 291.60
  A 1.98 1.97 81.1 0 0 247.62 293.13
  Q 244.55 317.10 239.94 342.04
  C 239.41 344.93 238.36 347.83 237.86 350.78
  Q 230.07 396.42 222.24 442.55
  Q 222.11 443.33 222.81 442.99
  L 254.76 427.75
  A 2.20 2.18 81.7 0 0 255.99 426.08
  Q 256.77 420.71 257.95 415.78
  C 259.73 408.29 260.91 400.45 262.01 392.77
  A 0.40 0.40 0.0 0 1 262.63 392.50
  Q 266.00 394.73 269.19 397.27
  C 277.68 404.03 293.81 402.69 303.31 399.72
  C 307.16 398.52 310.18 395.79 313.60 393.84
  C 320.20 390.10 326.44 383.01 329.61 376.63
  Q 331.34 373.16 333.51 369.89
  C 335.49 366.90 336.59 363.55 337.65 360.21
  Q 341.89 346.74 342.81 333.06
  C 343.59 321.34 343.21 310.93 339.10 299.93
  C 336.31 292.47 330.37 287.12 323.89 282.55
  Q 321.25 280.69 318.06 279.83
  C 308.77 277.32 299.01 276.76 290.34 280.92
  C 287.18 282.43 284.33 285.31 281.47 287.39
  Q 281.08 287.67 281.12 287.20"
/>
<path stroke="#8094d5" vector-effect="non-scaling-stroke" d="
  M 223.39 363.85
  C 229.40 349.43 231.59 333.21 229.27 317.94
  Q 228.18 310.81 224.55 302.42
  C 221.24 294.79 214.41 289.01 207.73 284.34
  Q 203.56 281.42 198.74 280.06
  Q 183.18 275.68 167.59 280.14
  Q 161.36 281.93 155.07 285.95
  Q 149.15 289.75 143.52 294.55
  Q 139.41 298.05 136.14 303.07
  Q 131.77 309.76 129.08 315.45
  C 127.31 319.20 126.32 323.38 124.77 327.21
  Q 123.14 331.24 122.40 335.76
  Q 120.25 348.99 121.98 361.75
  C 122.81 367.91 124.65 371.38 126.74 376.32
  C 129.58 383.04 133.25 388.02 139.06 392.67
  C 141.40 394.53 144.15 395.62 146.64 397.24
  Q 149.33 399.00 152.47 399.97
  C 162.93 403.21 174.51 402.68 185.30 399.63
  C 189.86 398.34 194.05 395.27 198.24 392.94
  C 204.16 389.65 210.26 384.60 213.75 379.15
  C 216.98 374.09 221.11 369.33 223.39 363.85"
/>
<path stroke="#80a9de" vector-effect="non-scaling-stroke" d="
  M 201.33 66.04
  L 202.37 73.53
  A 0.41 0.41 0.0 0 0 202.83 73.88
  L 206.64 73.35
  A 4.75 3.89 -7.9 0 0 210.81 68.85
  L 210.73 68.25
  A 4.75 3.89 -7.9 0 0 205.49 65.05
  L 201.68 65.58
  A 0.41 0.41 0.0 0 0 201.33 66.04"
/>
<path stroke="#80a9de" vector-effect="non-scaling-stroke" d="
  M 110.0742 138.6749
  A 9.95 7.77 42.6 0 0 108.0093 126.2205
  A 9.95 7.77 42.6 0 0 95.4258 125.2051
  A 9.95 7.77 42.6 0 0 97.4907 137.6595
  A 9.95 7.77 42.6 0 0 110.0742 138.6749"
/>
<path stroke="#80a9de" vector-effect="non-scaling-stroke" d="
  M 390.29 185.06
  C 394.74 181.68 394.22 176.32 389.21 173.88
  C 382.83 170.77 370.83 177.24 375.05 185.28
  C 378.99 192.78 385.57 188.65 390.29 185.06"
/>
<path stroke="#8094d5" vector-effect="non-scaling-stroke" d="
  M 422.57 325.39
  C 411.00 324.65 401.16 325.12 392.41 333.31
  C 386.37 338.95 384.58 348.53 385.74 356.14
  Q 386.68 362.29 389.93 365.22
  Q 396.44 371.08 405.74 372.38
  C 419.29 374.28 438.87 373.27 444.42 357.97
  C 448.31 347.23 447.17 335.36 436.83 329.15
  Q 431.53 325.97 422.57 325.39"
/>
<path stroke="#8094d5" vector-effect="non-scaling-stroke" d="
  M 277.52 370.09
  Q 289.79 374.65 298.37 367.74
  Q 303.75 363.41 307.37 351.99
  Q 310.36 342.54 310.70 330.42
  C 310.96 320.89 309.22 310.53 298.23 308.45
  C 288.61 306.63 282.80 311.66 275.65 317.34
  A 1.60 1.55 -15.1 0 0 275.07 318.31
  Q 271.71 337.35 268.22 357.84
  Q 267.87 359.93 267.72 361.99
  A 1.28 1.24 27.2 0 0 268.02 362.88
  Q 272.54 368.24 277.52 370.09"
/>
<path stroke="#8094d5" vector-effect="non-scaling-stroke" d="
  M 159.42 322.29
  C 155.41 330.04 153.92 338.05 153.59 346.66
  C 153.34 353.19 154.47 362.28 159.19 366.59
  Q 165.42 372.27 173.21 371.38
  Q 180.96 370.48 186.47 365.42
  Q 190.86 361.38 193.94 353.25
  Q 198.75 340.54 197.25 325.71
  C 195.56 308.99 179.28 303.54 166.71 313.68
  Q 161.86 317.58 159.42 322.29"
/>
</g>
<path fill="#ffffff" d="
  M 0.00 0.00
  L 512.00 0.00
  L 512.00 512.00
  L 0.00 512.00
  L 0.00 0.00
  Z
  M 346.03 379.14
  Q 347.69 383.60 350.32 388.20
  C 351.88 390.92 354.34 392.77 356.15 395.37
  Q 363.06 405.25 376.52 411.31
  Q 396.64 420.36 416.02 419.21
  Q 426.43 418.59 432.16 417.08
  C 440.35 414.91 450.09 411.83 457.26 407.51
  Q 464.02 403.44 468.23 399.72
  Q 474.25 394.39 480.31 385.39
  C 482.72 381.82 484.28 377.83 486.34 374.11
  C 488.93 369.42 490.32 364.55 491.28 359.28
  C 494.07 343.92 494.66 323.81 485.48 310.30
  Q 482.05 305.25 479.17 301.25
  C 472.64 292.17 460.33 286.62 449.65 283.73
  A 0.40 0.40 0.0 0 1 449.49 283.04
  Q 449.88 282.71 450.39 282.61
  C 460.13 280.74 470.09 280.43 479.85 280.47
  A 1.07 1.06 4.4 0 0 480.91 279.57
  C 482.95 266.42 484.81 253.81 487.72 239.96
  Q 489.73 230.40 490.82 220.56
  Q 490.86 220.17 490.47 220.17
  C 473.39 219.89 456.64 219.73 439.85 223.22
  C 432.89 224.67 426.13 227.70 419.20 230.09
  A 0.31 0.31 0.0 0 1 418.79 229.80
  Q 418.39 206.20 412.56 183.49
  C 411.45 179.20 409.49 175.27 408.10 171.06
  Q 404.51 160.18 398.09 146.84
  Q 395.42 141.31 392.68 137.30
  Q 389.71 132.97 386.98 128.59
  C 383.25 122.59 378.81 117.15 374.50 111.50
  Q 373.18 109.77 371.56 108.29
  C 368.85 105.81 366.41 102.88 363.75 100.23
  Q 360.52 97.00 357.12 93.70
  C 351.39 88.14 344.85 83.54 338.37 78.73
  C 335.55 76.64 332.41 75.21 329.67 73.09
  Q 326.46 70.62 322.91 68.70
  C 313.23 63.50 303.17 58.91 292.85 55.61
  Q 291.91 55.31 287.24 53.28
  Q 284.81 52.23 281.49 51.34
  Q 229.52 37.41 178.23 50.46
  C 172.52 51.91 167.48 54.18 162.09 56.14
  Q 151.33 60.05 139.87 65.66
  Q 131.68 69.66 126.76 73.49
  C 124.48 75.26 121.80 76.35 119.48 78.06
  Q 113.97 82.14 108.12 86.48
  Q 102.74 90.47 97.97 95.37
  Q 93.57 99.90 88.39 104.91
  Q 84.37 108.80 81.09 113.08
  C 77.30 118.02 73.36 122.86 70.07 128.12
  Q 68.11 131.25 65.92 134.43
  Q 61.95 140.19 58.87 146.51
  Q 53.91 156.71 50.47 166.13
  Q 48.98 170.23 47.12 174.72
  Q 45.08 179.68 43.71 185.49
  C 40.46 199.28 38.83 212.28 38.12 226.16
  Q 38.09 226.81 37.44 226.80
  L 30.53 226.75
  Q 29.84 226.75 29.68 227.42
  C 28.97 230.38 28.00 233.14 27.49 236.19
  Q 23.20 261.52 18.97 286.62
  Q 18.86 287.27 19.52 287.27
  L 63.23 287.24
  Q 63.58 287.23 63.52 287.59
  Q 57.62 322.08 51.14 360.39
  Q 49.47 370.24 47.40 380.04
  Q 43.92 396.52 41.54 413.30
  Q 41.47 413.78 41.96 413.78
  L 101.74 413.76
  A 1.14 1.13 -85.6 0 0 102.86 412.80
  Q 103.61 407.82 104.83 402.88
  C 107.02 394.01 108.48 384.68 109.89 375.77
  Q 110.22 373.67 110.81 375.72
  Q 113.03 383.51 118.14 391.35
  Q 122.28 397.70 128.15 402.47
  Q 135.08 408.12 141.03 410.68
  Q 153.08 415.87 167.96 416.54
  C 171.47 416.70 174.72 415.80 178.12 415.41
  C 191.00 413.92 203.23 408.43 213.58 400.36
  Q 214.59 399.57 214.37 400.84
  L 203.12 466.52
  Q 202.83 468.16 204.32 467.41
  Q 213.88 462.62 222.75 459.08
  C 227.95 457.01 232.44 453.93 237.52 451.70
  Q 251.76 445.45 268.08 438.17
  A 1.74 1.73 82.7 0 0 269.09 436.86
  L 272.65 415.24
  A 0.63 0.62 8.3 0 1 273.34 414.73
  C 278.81 415.39 284.33 416.82 289.74 416.44
  Q 303.54 415.45 314.94 410.13
  Q 323.22 406.26 329.86 399.57
  Q 334.38 395.01 338.16 390.37
  Q 342.12 385.51 345.22 379.11
  A 0.44 0.44 0.0 0 1 346.03 379.14
  Z"
/>
<path fill="#007a00" d="
  M 346.03 379.14
  A 0.44 0.44 0.0 0 0 345.22 379.11
  Q 342.12 385.51 338.16 390.37
  Q 334.38 395.01 329.86 399.57
  Q 323.22 406.26 314.94 410.13
  Q 303.54 415.45 289.74 416.44
  C 284.33 416.82 278.81 415.39 273.34 414.73
  A 0.63 0.62 8.3 0 0 272.65 415.24
  L 269.09 436.86
  A 1.74 1.73 82.7 0 1 268.08 438.17
  Q 251.76 445.45 237.52 451.70
  C 232.44 453.93 227.95 457.01 222.75 459.08
  Q 213.88 462.62 204.32 467.41
  Q 202.83 468.16 203.12 466.52
  L 214.37 400.84
  Q 214.59 399.57 213.58 400.36
  C 203.23 408.43 191.00 413.92 178.12 415.41
  C 174.72 415.80 171.47 416.70 167.96 416.54
  Q 153.08 415.87 141.03 410.68
  Q 135.08 408.12 128.15 402.47
  Q 122.28 397.70 118.14 391.35
  Q 113.03 383.51 110.81 375.72
  Q 110.22 373.67 109.89 375.77
  C 108.48 384.68 107.02 394.01 104.83 402.88
  Q 103.61 407.82 102.86 412.80
  A 1.14 1.13 -85.6 0 1 101.74 413.76
  L 41.96 413.78
  Q 41.47 413.78 41.54 413.30
  Q 43.92 396.52 47.40 380.04
  Q 49.47 370.24 51.14 360.39
  Q 57.62 322.08 63.52 287.59
  Q 63.58 287.23 63.23 287.24
  L 19.52 287.27
  Q 18.86 287.27 18.97 286.62
  Q 23.20 261.52 27.49 236.19
  C 28.00 233.14 28.97 230.38 29.68 227.42
  Q 29.84 226.75 30.53 226.75
  L 37.44 226.80
  Q 38.09 226.81 38.12 226.16
  C 38.83 212.28 40.46 199.28 43.71 185.49
  Q 45.08 179.68 47.12 174.72
  Q 48.98 170.23 50.47 166.13
  Q 53.91 156.71 58.87 146.51
  Q 61.95 140.19 65.92 134.43
  Q 68.11 131.25 70.07 128.12
  C 73.36 122.86 77.30 118.02 81.09 113.08
  Q 84.37 108.80 88.39 104.91
  Q 93.57 99.90 97.97 95.37
  Q 102.74 90.47 108.12 86.48
  Q 113.97 82.14 119.48 78.06
  C 121.80 76.35 124.48 75.26 126.76 73.49
  Q 131.68 69.66 139.87 65.66
  Q 151.33 60.05 162.09 56.14
  C 167.48 54.18 172.52 51.91 178.23 50.46
  Q 229.52 37.41 281.49 51.34
  Q 284.81 52.23 287.24 53.28
  Q 291.91 55.31 292.85 55.61
  C 303.17 58.91 313.23 63.50 322.91 68.70
  Q 326.46 70.62 329.67 73.09
  C 332.41 75.21 335.55 76.64 338.37 78.73
  C 344.85 83.54 351.39 88.14 357.12 93.70
  Q 360.52 97.00 363.75 100.23
  C 366.41 102.88 368.85 105.81 371.56 108.29
  Q 373.18 109.77 374.50 111.50
  C 378.81 117.15 383.25 122.59 386.98 128.59
  Q 389.71 132.97 392.68 137.30
  Q 395.42 141.31 398.09 146.84
  Q 404.51 160.18 408.10 171.06
  C 409.49 175.27 411.45 179.20 412.56 183.49
  Q 418.39 206.20 418.79 229.80
  A 0.31 0.31 0.0 0 0 419.20 230.09
  C 426.13 227.70 432.89 224.67 439.85 223.22
  C 456.64 219.73 473.39 219.89 490.47 220.17
  Q 490.86 220.17 490.82 220.56
  Q 489.73 230.40 487.72 239.96
  C 484.81 253.81 482.95 266.42 480.91 279.57
  A 1.07 1.06 4.4 0 1 479.85 280.47
  C 470.09 280.43 460.13 280.74 450.39 282.61
  Q 449.88 282.71 449.49 283.04
  A 0.40 0.40 0.0 0 0 449.65 283.73
  C 460.33 286.62 472.64 292.17 479.17 301.25
  Q 482.05 305.25 485.48 310.30
  C 494.66 323.81 494.07 343.92 491.28 359.28
  C 490.32 364.55 488.93 369.42 486.34 374.11
  C 484.28 377.83 482.72 381.82 480.31 385.39
  Q 474.25 394.39 468.23 399.72
  Q 464.02 403.44 457.26 407.51
  C 450.09 411.83 440.35 414.91 432.16 417.08
  Q 426.43 418.59 416.02 419.21
  Q 396.64 420.36 376.52 411.31
  Q 363.06 405.25 356.15 395.37
  C 354.34 392.77 351.88 390.92 350.32 388.20
  Q 347.69 383.60 346.03 379.14
  Z
  M 382.50 259.77
  L 383.90 252.63
  A 3.63 3.63 0.0 0 1 385.20 250.47
  C 393.74 243.54 402.29 237.09 412.48 233.13
  A 0.73 0.72 79.6 0 0 412.93 232.47
  C 413.09 221.06 411.98 209.78 409.29 198.58
  Q 407.87 192.65 406.53 186.99
  Q 402.91 171.64 395.46 155.32
  Q 392.55 148.95 388.20 142.11
  Q 384.36 136.08 380.15 129.20
  Q 376.29 122.88 372.92 119.52
  Q 368.49 115.10 364.72 109.97
  Q 362.83 107.41 358.42 103.21
  Q 354.74 99.71 351.15 96.96
  C 347.62 94.26 344.84 90.87 341.26 88.17
  Q 338.87 86.36 336.51 84.86
  Q 328.65 79.87 320.82 74.96
  Q 315.20 71.44 309.17 68.55
  C 299.87 64.10 292.73 61.64 281.73 58.16
  Q 279.10 57.33 276.26 56.68
  C 272.65 55.86 268.99 55.05 265.46 53.84
  Q 263.05 53.02 260.47 52.59
  Q 232.89 48.09 204.56 51.45
  Q 197.37 52.30 189.19 54.41
  C 174.68 58.15 161.58 62.01 147.76 68.35
  Q 141.86 71.05 135.60 75.09
  C 128.01 79.98 119.69 84.30 112.98 90.37
  Q 108.58 94.36 103.35 98.77
  Q 98.85 102.57 93.85 107.91
  C 91.40 110.52 89.59 113.64 87.02 116.01
  C 79.23 123.15 74.34 133.35 68.59 142.00
  Q 65.34 146.88 62.80 152.15
  Q 55.04 168.26 50.63 185.30
  Q 49.23 190.69 48.23 194.17
  Q 46.87 198.89 46.20 202.99
  Q 44.31 214.53 43.99 226.23
  A 0.53 0.53 0.0 0 0 44.52 226.77
  L 80.01 226.75
  Q 80.51 226.75 80.51 227.26
  L 80.45 232.31
  Q 80.45 232.75 80.01 232.75
  L 35.52 232.69
  A 1.08 1.07 -85.3 0 0 34.46 233.59
  C 32.62 244.31 30.98 255.67 28.49 266.67
  Q 27.01 273.22 25.98 280.17
  A 0.51 0.50 4.3 0 0 26.49 280.75
  L 70.00 280.72
  Q 71.08 280.71 70.94 281.78
  Q 69.76 290.99 67.65 300.71
  Q 65.35 311.36 63.91 319.79
  Q 56.59 362.87 49.20 406.72
  Q 49.01 407.82 50.13 407.82
  L 97.22 407.77
  Q 97.87 407.77 97.97 407.14
  Q 100.46 392.33 102.58 379.37
  C 104.04 370.51 106.36 362.97 107.64 353.98
  Q 107.85 352.49 109.09 351.65
  L 111.75 349.84
  Q 112.95 349.02 112.91 350.47
  Q 112.55 364.92 118.15 378.91
  Q 120.69 385.26 123.71 388.57
  Q 127.06 392.24 130.76 396.45
  C 133.78 399.88 137.52 402.46 141.64 404.40
  Q 161.41 413.69 183.66 408.52
  Q 191.40 406.72 199.69 402.47
  Q 205.34 399.58 211.22 393.93
  Q 217.46 387.92 222.05 382.99
  Q 222.92 382.06 223.63 380.93
  Q 224.55 379.45 224.26 381.16
  Q 222.58 390.82 221.13 399.22
  C 220.34 403.82 218.85 408.52 218.09 413.16
  Q 214.93 432.56 211.60 451.24
  Q 211.08 454.22 210.77 457.19
  A 0.33 0.33 0.0 0 0 211.20 457.53
  C 214.21 456.51 216.70 454.68 219.50 453.37
  Q 230.58 448.21 238.98 444.70
  Q 251.29 439.56 262.93 433.50
  A 2.05 2.05 0.0 0 0 264.01 432.02
  L 268.14 407.25
  A 0.66 0.66 0.0 0 1 269.08 406.76
  Q 273.62 408.88 278.64 409.63
  Q 299.32 412.72 316.70 402.48
  Q 320.64 400.16 323.20 397.54
  Q 328.98 391.60 334.77 384.91
  Q 336.77 382.60 338.07 379.86
  Q 340.31 375.18 342.72 370.16
  C 344.09 367.31 345.05 364.29 346.08 361.31
  Q 347.00 358.63 347.42 361.43
  C 348.56 368.95 350.75 376.19 354.92 383.16
  Q 358.60 389.29 363.61 394.90
  Q 368.13 399.97 373.27 402.96
  Q 384.33 409.38 396.61 411.28
  Q 426.19 415.86 450.57 404.37
  C 454.78 402.38 459.08 399.69 462.24 396.29
  C 465.32 392.98 469.16 390.65 471.86 387.09
  C 478.39 378.48 483.39 367.81 485.08 357.01
  C 485.87 351.96 486.94 346.92 486.97 341.92
  Q 487.04 331.77 483.30 320.23
  C 480.99 313.10 477.04 308.03 472.30 302.50
  Q 470.10 299.92 467.24 298.06
  Q 461.51 294.33 456.88 292.37
  Q 443.53 286.74 425.43 287.20
  Q 423.90 287.24 425.20 286.43
  Q 428.55 284.33 431.99 282.49
  Q 435.28 280.73 439.20 279.48
  C 450.95 275.74 462.83 274.81 475.21 274.78
  Q 475.82 274.78 475.92 274.18
  L 483.33 227.24
  Q 483.43 226.66 482.84 226.63
  Q 463.46 225.71 446.54 228.56
  Q 427.99 231.68 409.93 240.66
  Q 404.85 243.19 400.01 247.02
  Q 395.29 250.74 390.31 254.17
  C 387.77 255.91 385.58 258.20 383.15 260.17
  Q 382.29 260.87 382.50 259.77
  Z"
/>
<path fill="#ffffff" d="
  M 382.50 259.77
  Q 382.29 260.87 383.15 260.17
  C 385.58 258.20 387.77 255.91 390.31 254.17
  Q 395.29 250.74 400.01 247.02
  Q 404.85 243.19 409.93 240.66
  Q 427.99 231.68 446.54 228.56
  Q 463.46 225.71 482.84 226.63
  Q 483.43 226.66 483.33 227.24
  L 475.92 274.18
  Q 475.82 274.78 475.21 274.78
  C 462.83 274.81 450.95 275.74 439.20 279.48
  Q 435.28 280.73 431.99 282.49
  Q 428.55 284.33 425.20 286.43
  Q 423.90 287.24 425.43 287.20
  Q 443.53 286.74 456.88 292.37
  Q 461.51 294.33 467.24 298.06
  Q 470.10 299.92 472.30 302.50
  C 477.04 308.03 480.99 313.10 483.30 320.23
  Q 487.04 331.77 486.97 341.92
  C 486.94 346.92 485.87 351.96 485.08 357.01
  C 483.39 367.81 478.39 378.48 471.86 387.09
  C 469.16 390.65 465.32 392.98 462.24 396.29
  C 459.08 399.69 454.78 402.38 450.57 404.37
  Q 426.19 415.86 396.61 411.28
  Q 384.33 409.38 373.27 402.96
  Q 368.13 399.97 363.61 394.90
  Q 358.60 389.29 354.92 383.16
  C 350.75 376.19 348.56 368.95 347.42 361.43
  Q 347.00 358.63 346.08 361.31
  C 345.05 364.29 344.09 367.31 342.72 370.16
  Q 340.31 375.18 338.07 379.86
  Q 336.77 382.60 334.77 384.91
  Q 328.98 391.60 323.20 397.54
  Q 320.64 400.16 316.70 402.48
  Q 299.32 412.72 278.64 409.63
  Q 273.62 408.88 269.08 406.76
  A 0.66 0.66 0.0 0 0 268.14 407.25
  L 264.01 432.02
  A 2.05 2.05 0.0 0 1 262.93 433.50
  Q 251.29 439.56 238.98 444.70
  Q 230.58 448.21 219.50 453.37
  C 216.70 454.68 214.21 456.51 211.20 457.53
  A 0.33 0.33 0.0 0 1 210.77 457.19
  Q 211.08 454.22 211.60 451.24
  Q 214.93 432.56 218.09 413.16
  C 218.85 408.52 220.34 403.82 221.13 399.22
  Q 222.58 390.82 224.26 381.16
  Q 224.55 379.45 223.63 380.93
  Q 222.92 382.06 222.05 382.99
  Q 217.46 387.92 211.22 393.93
  Q 205.34 399.58 199.69 402.47
  Q 191.40 406.72 183.66 408.52
  Q 161.41 413.69 141.64 404.40
  C 137.52 402.46 133.78 399.88 130.76 396.45
  Q 127.06 392.24 123.71 388.57
  Q 120.69 385.26 118.15 378.91
  Q 112.55 364.92 112.91 350.47
  Q 112.95 349.02 111.75 349.84
  L 109.09 351.65
  Q 107.85 352.49 107.64 353.98
  C 106.36 362.97 104.04 370.51 102.58 379.37
  Q 100.46 392.33 97.97 407.14
  Q 97.87 407.77 97.22 407.77
  L 50.13 407.82
  Q 49.01 407.82 49.20 406.72
  Q 56.59 362.87 63.91 319.79
  Q 65.35 311.36 67.65 300.71
  Q 69.76 290.99 70.94 281.78
  Q 71.08 280.71 70.00 280.72
  L 26.49 280.75
  A 0.51 0.50 4.3 0 1 25.98 280.17
  Q 27.01 273.22 28.49 266.67
  C 30.98 255.67 32.62 244.31 34.46 233.59
  A 1.08 1.07 -85.3 0 1 35.52 232.69
  L 80.01 232.75
  Q 80.45 232.75 80.45 232.31
  L 80.51 227.26
  Q 80.51 226.75 80.01 226.75
  L 44.52 226.77
  A 0.53 0.53 0.0 0 1 43.99 226.23
  Q 44.31 214.53 46.20 202.99
  Q 46.87 198.89 48.23 194.17
  Q 49.23 190.69 50.63 185.30
  Q 55.04 168.26 62.80 152.15
  Q 65.34 146.88 68.59 142.00
  C 74.34 133.35 79.23 123.15 87.02 116.01
  C 89.59 113.64 91.40 110.52 93.85 107.91
  Q 98.85 102.57 103.35 98.77
  Q 108.58 94.36 112.98 90.37
  C 119.69 84.30 128.01 79.98 135.60 75.09
  Q 141.86 71.05 147.76 68.35
  C 161.58 62.01 174.68 58.15 189.19 54.41
  Q 197.37 52.30 204.56 51.45
  Q 232.89 48.09 260.47 52.59
  Q 263.05 53.02 265.46 53.84
  C 268.99 55.05 272.65 55.86 276.26 56.68
  Q 279.10 57.33 281.73 58.16
  C 292.73 61.64 299.87 64.10 309.17 68.55
  Q 315.20 71.44 320.82 74.96
  Q 328.65 79.87 336.51 84.86
  Q 338.87 86.36 341.26 88.17
  C 344.84 90.87 347.62 94.26 351.15 96.96
  Q 354.74 99.71 358.42 103.21
  Q 362.83 107.41 364.72 109.97
  Q 368.49 115.10 372.92 119.52
  Q 376.29 122.88 380.15 129.20
  Q 384.36 136.08 388.20 142.11
  Q 392.55 148.95 395.46 155.32
  Q 402.91 171.64 406.53 186.99
  Q 407.87 192.65 409.29 198.58
  C 411.98 209.78 413.09 221.06 412.93 232.47
  A 0.73 0.72 79.6 0 1 412.48 233.13
  C 402.29 237.09 393.74 243.54 385.20 250.47
  A 3.63 3.63 0.0 0 0 383.90 252.63
  L 382.50 259.77
  Z
  M 203.64 78.61
  C 206.76 78.45 212.21 78.12 214.51 75.71
  C 216.90 73.21 216.84 68.55 215.93 65.53
  Q 214.18 59.71 208.01 60.13
  Q 201.30 60.59 194.70 61.44
  A 0.36 0.36 0.0 0 0 194.38 61.85
  L 197.46 88.83
  Q 197.50 89.19 197.87 89.14
  L 203.70 88.30
  Q 203.91 88.27 203.89 88.07
  L 202.90 79.49
  Q 202.80 78.65 203.64 78.61
  Z
  M 259.39 83.97
  A 0.49 0.49 0.0 0 1 259.00 83.39
  L 263.18 61.96
  A 0.49 0.49 0.0 0 0 262.79 61.39
  L 257.43 60.34
  A 0.49 0.49 0.0 0 0 256.85 60.73
  L 251.59 87.25
  A 0.49 0.49 0.0 0 0 251.98 87.82
  L 270.62 91.37
  A 0.49 0.49 0.0 0 0 271.19 90.98
  L 271.94 87.03
  A 0.49 0.49 0.0 0 0 271.56 86.46
  L 259.39 83.97
  Z
  M 139.72 91.50
  Q 141.07 93.94 142.94 95.72
  C 146.57 99.17 149.70 103.43 152.80 107.36
  Q 153.22 107.90 153.84 107.59
  L 157.80 105.60
  Q 158.22 105.40 158.12 104.94
  Q 156.30 96.01 154.35 88.14
  Q 152.53 80.84 155.45 87.77
  Q 158.29 94.54 162.38 102.29
  A 1.35 1.35 0.0 0 0 164.21 102.85
  L 167.32 101.20
  Q 168.33 100.66 167.80 99.64
  L 155.75 76.28
  A 0.66 0.65 -26.4 0 0 154.88 75.99
  L 148.68 79.01
  Q 148.16 79.27 148.28 79.84
  L 152.62 99.46
  Q 152.83 100.43 152.21 99.66
  L 139.70 84.33
  Q 138.98 83.44 137.96 83.97
  L 132.54 86.75
  Q 131.21 87.44 131.86 88.79
  L 143.07 112.16
  Q 143.61 113.29 144.73 112.73
  Q 146.47 111.84 148.23 110.37
  Q 148.95 109.78 148.49 108.97
  C 146.34 105.13 144.82 101.31 142.37 97.59
  Q 140.43 94.65 139.50 91.60
  Q 139.14 90.45 139.72 91.50
  Z
  M 314.58 92.81
  L 317.28 88.13
  A 0.49 0.48 -58.4 0 1 317.96 87.96
  L 328.90 95.13
  Q 329.95 95.82 330.47 94.68
  L 331.99 91.36
  Q 332.39 90.49 331.56 90.02
  L 315.01 80.66
  A 0.56 0.55 -59.6 0 0 314.27 80.86
  C 309.52 88.65 305.98 96.59 301.14 104.19
  Q 300.63 104.98 301.47 105.42
  Q 306.90 108.27 311.40 111.45
  C 313.70 113.07 316.27 114.07 318.64 115.49
  A 0.88 0.88 0.0 0 0 319.86 115.17
  L 321.82 111.70
  Q 322.29 110.87 321.45 110.43
  L 308.76 103.67
  A 0.55 0.54 29.2 0 1 308.54 102.91
  L 311.38 97.99
  Q 311.62 97.57 312.04 97.80
  L 322.84 103.47
  Q 323.68 103.92 324.18 103.11
  L 325.69 100.68
  Q 326.21 99.84 325.35 99.35
  L 314.70 93.27
  Q 314.41 93.10 314.58 92.81
  Z
  M 349.52 192.69
  L 336.27 191.30
  Q 335.65 191.23 335.59 191.85
  C 334.84 199.38 332.95 206.35 332.04 213.81
  Q 330.31 227.93 328.41 241.72
  C 328.08 244.10 329.71 246.16 331.29 247.72
  C 336.90 253.27 342.46 259.32 347.34 265.83
  C 348.63 267.55 351.24 271.05 353.31 272.15
  A 1.09 1.09 0.0 0 1 353.84 273.46
  C 353.28 275.19 352.20 276.67 351.71 278.39
  Q 349.23 287.09 344.69 295.59
  Q 344.40 296.13 344.63 296.70
  Q 347.70 304.48 348.93 314.12
  Q 349.05 315.11 349.58 314.26
  C 351.63 310.92 354.09 308.27 355.92 304.65
  Q 365.93 284.87 369.52 264.46
  C 371.64 252.44 373.52 240.62 372.11 228.40
  C 369.93 209.58 366.07 192.12 357.94 175.17
  Q 354.65 168.32 349.41 160.70
  Q 344.50 153.56 339.94 147.31
  Q 337.09 143.40 332.91 139.74
  Q 328.94 136.28 324.73 131.86
  Q 320.76 127.71 316.35 124.65
  Q 301.89 114.63 289.76 108.71
  Q 277.14 102.55 260.17 99.09
  Q 219.74 90.84 179.40 105.06
  Q 172.74 107.41 167.82 110.28
  Q 164.72 112.09 161.64 113.65
  C 155.69 116.67 150.29 120.60 144.69 124.42
  Q 139.94 127.66 135.49 132.22
  Q 131.33 136.48 126.73 141.10
  C 124.46 143.39 121.94 145.37 120.05 148.11
  C 115.70 154.39 111.17 160.31 107.49 166.98
  Q 105.94 169.80 104.09 172.86
  Q 100.71 178.45 97.74 186.71
  Q 88.93 211.17 88.84 234.42
  Q 88.84 235.10 89.52 235.10
  L 101.02 235.18
  A 0.89 0.89 0.0 0 0 101.91 234.32
  Q 102.23 221.81 104.27 213.60
  Q 107.07 202.39 111.23 190.50
  Q 111.37 190.08 111.65 189.76
  A 0.33 0.33 0.0 0 1 112.23 189.93
  L 113.12 196.48
  A 0.74 0.74 0.0 0 0 114.25 197.00
  C 120.01 193.41 125.98 190.70 131.60 186.87
  Q 138.37 182.26 147.48 177.93
  C 149.15 177.13 150.34 176.04 151.04 174.27
  C 155.06 164.10 159.09 153.81 163.83 143.96
  Q 166.18 139.08 168.05 134.00
  Q 168.25 133.46 167.73 133.20
  L 161.45 130.05
  A 0.37 0.37 0.0 0 1 161.42 129.40
  Q 180.55 117.45 202.58 112.99
  C 207.78 111.94 212.93 110.13 218.17 109.78
  Q 229.40 109.04 240.67 109.59
  Q 242.56 109.69 240.94 110.66
  L 223.81 121.02
  Q 223.09 121.45 223.79 121.91
  L 255.72 142.83
  Q 257.48 143.98 259.57 144.01
  L 304.83 144.78
  Q 305.40 144.79 305.45 144.23
  L 306.21 135.04
  A 0.27 0.27 0.0 0 1 306.64 134.85
  C 311.91 139.13 318.29 143.21 322.64 148.64
  Q 326.70 153.71 331.37 158.95
  Q 335.92 164.05 338.94 169.15
  Q 346.02 181.11 349.98 192.11
  Q 350.21 192.77 349.52 192.69
  Z
  M 113.8460 142.1825
  A 15.12 13.72 42.9 0 0 112.1095 121.8395
  A 15.12 13.72 42.9 0 0 91.6940 121.5975
  A 15.12 13.72 42.9 0 0 93.4305 141.9405
  A 15.12 13.72 42.9 0 0 113.8460 142.1825
  Z
  M 373.23 128.53
  Q 373.57 128.19 373.16 127.94
  Q 370.97 126.55 369.18 124.35
  A 0.46 0.46 0.0 0 0 368.51 124.30
  C 363.40 128.88 359.28 133.98 353.95 138.25
  Q 350.93 140.66 348.96 137.78
  Q 347.60 135.80 351.13 132.79
  Q 352.16 131.91 351.33 130.84
  L 348.94 127.78
  Q 348.16 126.78 347.35 127.75
  C 344.06 131.67 341.18 136.53 345.36 141.21
  Q 351.59 148.19 358.81 141.93
  Q 365.62 136.03 373.23 128.53
  Z
  M 391.59 192.25
  C 398.57 188.85 400.29 179.85 396.28 173.36
  Q 390.56 164.09 380.77 167.37
  C 377.51 168.46 373.22 171.45 370.81 173.97
  Q 367.00 177.95 368.67 184.64
  Q 370.48 191.86 376.84 194.33
  C 381.66 196.20 387.14 194.41 391.59 192.25
  Z
  M 82.98 187.49
  C 78.83 192.41 71.06 186.77 68.09 183.25
  Q 66.10 180.88 67.41 178.12
  Q 69.42 173.87 73.51 174.47
  Q 74.15 174.56 74.40 173.97
  L 76.24 169.55
  Q 76.48 168.98 75.96 168.65
  C 72.40 166.36 65.66 170.47 63.63 173.53
  Q 59.09 180.36 63.24 187.83
  Q 64.33 189.79 66.01 190.91
  C 71.95 194.87 78.86 197.06 85.56 193.08
  C 88.59 191.28 89.96 188.46 90.58 185.15
  Q 92.20 176.56 84.71 172.63
  Q 84.50 172.52 84.40 172.73
  L 82.21 177.64
  A 0.31 0.31 0.0 0 0 82.30 178.01
  Q 87.49 182.15 82.98 187.49
  Z
  M 248.30 172.94
  Q 225.93 178.87 203.55 184.80
  Q 197.53 186.40 191.64 188.45
  Q 185.41 190.61 179.66 191.75
  Q 179.04 191.87 179.07 192.50
  Q 179.87 211.32 181.61 227.50
  C 182.60 236.78 183.19 246.09 183.71 255.14
  Q 183.75 255.86 184.41 256.14
  Q 190.78 258.86 197.25 261.62
  C 203.37 264.24 209.21 267.38 215.48 269.78
  Q 223.81 272.96 232.85 276.90
  A 0.98 0.97 38.7 0 0 233.79 276.80
  C 239.24 272.98 244.65 269.73 249.57 265.25
  Q 252.83 262.27 257.00 259.41
  Q 270.42 250.16 283.15 239.61
  L 250.39 173.00
  Q 250.16 172.54 249.65 172.54
  Q 248.97 172.54 248.30 172.94
  Z
  M 398.85 303.15
  Q 402.24 295.36 408.78 288.68
  C 410.42 287.01 412.41 285.89 414.01 284.09
  C 417.45 280.23 422.90 277.18 427.48 275.15
  Q 446.19 266.88 468.20 266.73
  A 0.57 0.57 0.0 0 0 468.76 266.25
  L 473.70 235.22
  A 0.37 0.37 0.0 0 0 473.34 234.79
  Q 451.19 234.44 430.70 240.93
  Q 425.13 242.69 421.63 244.64
  Q 417.38 247.01 413.16 249.06
  C 399.64 255.64 387.87 266.55 378.49 278.88
  C 376.25 281.83 374.86 285.12 372.61 287.84
  Q 370.17 290.77 368.54 294.00
  Q 353.52 323.67 355.86 355.47
  Q 356.77 367.77 361.94 378.55
  Q 365.32 385.61 370.64 390.02
  Q 374.73 393.42 380.08 396.99
  C 383.63 399.36 387.23 400.89 391.22 401.87
  Q 413.82 407.40 435.65 401.39
  C 438.56 400.59 442.14 399.45 444.66 397.79
  C 447.97 395.60 451.58 394.23 454.69 391.80
  C 466.40 382.67 474.56 370.26 476.90 355.75
  C 478.92 343.24 479.10 331.35 474.13 319.63
  Q 471.98 314.56 468.69 311.24
  Q 463.19 305.68 455.35 300.76
  Q 453.22 299.42 450.85 298.71
  Q 436.16 294.29 421.54 295.74
  Q 414.14 296.47 410.06 297.84
  Q 404.22 299.81 399.78 303.82
  Q 397.77 305.63 398.85 303.15
  Z
  M 80.92 273.07
  Q 74.89 308.98 68.54 345.88
  C 67.82 350.06 66.52 354.23 65.79 358.39
  Q 62.32 378.33 58.83 399.16
  Q 58.73 399.71 59.29 399.71
  L 90.28 399.77
  A 0.88 0.88 0.0 0 0 91.16 398.92
  Q 91.24 396.87 91.66 394.41
  Q 97.97 357.74 103.77 323.21
  C 104.33 319.87 105.39 316.64 105.99 313.42
  Q 109.25 295.96 112.95 273.01
  A 0.62 0.61 -84.9 0 1 113.55 272.50
  L 157.28 272.51
  A 0.79 0.78 3.7 0 0 158.06 271.83
  Q 159.75 258.67 163.05 244.46
  Q 163.43 242.81 163.46 241.31
  Q 163.47 240.81 162.98 240.81
  L 41.99 240.86
  Q 41.58 240.86 41.52 241.26
  L 36.46 271.94
  Q 36.36 272.52 36.95 272.52
  L 80.46 272.53
  A 0.47 0.46 4.7 0 1 80.92 273.07
  Z
  M 281.12 287.20
  L 281.92 277.04
  Q 281.95 276.68 281.60 276.78
  Q 274.93 278.81 269.39 281.89
  Q 262.93 285.48 259.82 286.75
  Q 254.25 289.02 248.73 291.60
  A 1.98 1.97 81.1 0 0 247.62 293.13
  Q 244.55 317.10 239.94 342.04
  C 239.41 344.93 238.36 347.83 237.86 350.78
  Q 230.07 396.42 222.24 442.55
  Q 222.11 443.33 222.81 442.99
  L 254.76 427.75
  A 2.20 2.18 81.7 0 0 255.99 426.08
  Q 256.77 420.71 257.95 415.78
  C 259.73 408.29 260.91 400.45 262.01 392.77
  A 0.40 0.40 0.0 0 1 262.63 392.50
  Q 266.00 394.73 269.19 397.27
  C 277.68 404.03 293.81 402.69 303.31 399.72
  C 307.16 398.52 310.18 395.79 313.60 393.84
  C 320.20 390.10 326.44 383.01 329.61 376.63
  Q 331.34 373.16 333.51 369.89
  C 335.49 366.90 336.59 363.55 337.65 360.21
  Q 341.89 346.74 342.81 333.06
  C 343.59 321.34 343.21 310.93 339.10 299.93
  C 336.31 292.47 330.37 287.12 323.89 282.55
  Q 321.25 280.69 318.06 279.83
  C 308.77 277.32 299.01 276.76 290.34 280.92
  C 287.18 282.43 284.33 285.31 281.47 287.39
  Q 281.08 287.67 281.12 287.20
  Z
  M 223.39 363.85
  C 229.40 349.43 231.59 333.21 229.27 317.94
  Q 228.18 310.81 224.55 302.42
  C 221.24 294.79 214.41 289.01 207.73 284.34
  Q 203.56 281.42 198.74 280.06
  Q 183.18 275.68 167.59 280.14
  Q 161.36 281.93 155.07 285.95
  Q 149.15 289.75 143.52 294.55
  Q 139.41 298.05 136.14 303.07
  Q 131.77 309.76 129.08 315.45
  C 127.31 319.20 126.32 323.38 124.77 327.21
  Q 123.14 331.24 122.40 335.76
  Q 120.25 348.99 121.98 361.75
  C 122.81 367.91 124.65 371.38 126.74 376.32
  C 129.58 383.04 133.25 388.02 139.06 392.67
  C 141.40 394.53 144.15 395.62 146.64 397.24
  Q 149.33 399.00 152.47 399.97
  C 162.93 403.21 174.51 402.68 185.30 399.63
  C 189.86 398.34 194.05 395.27 198.24 392.94
  C 204.16 389.65 210.26 384.60 213.75 379.15
  C 216.98 374.09 221.11 369.33 223.39 363.85
  Z"
/>
<path fill="#0053bd" d="
  M 202.90 79.49
  L 203.89 88.07
  Q 203.91 88.27 203.70 88.30
  L 197.87 89.14
  Q 197.50 89.19 197.46 88.83
  L 194.38 61.85
  A 0.36 0.36 0.0 0 1 194.70 61.44
  Q 201.30 60.59 208.01 60.13
  Q 214.18 59.71 215.93 65.53
  C 216.84 68.55 216.90 73.21 214.51 75.71
  C 212.21 78.12 206.76 78.45 203.64 78.61
  Q 202.80 78.65 202.90 79.49
  Z
  M 201.33 66.04
  L 202.37 73.53
  A 0.41 0.41 0.0 0 0 202.83 73.88
  L 206.64 73.35
  A 4.75 3.89 -7.9 0 0 210.81 68.85
  L 210.73 68.25
  A 4.75 3.89 -7.9 0 0 205.49 65.05
  L 201.68 65.58
  A 0.41 0.41 0.0 0 0 201.33 66.04
  Z"
/>
<path fill="#0053bd" d="
  M 259.39 83.97
  L 271.56 86.46
  A 0.49 0.49 0.0 0 1 271.94 87.03
  L 271.19 90.98
  A 0.49 0.49 0.0 0 1 270.62 91.37
  L 251.98 87.82
  A 0.49 0.49 0.0 0 1 251.59 87.25
  L 256.85 60.73
  A 0.49 0.49 0.0 0 1 257.43 60.34
  L 262.79 61.39
  A 0.49 0.49 0.0 0 1 263.18 61.96
  L 259.00 83.39
  A 0.49 0.49 0.0 0 0 259.39 83.97
  Z"
/>
<path fill="#ffffff" d="
  M 201.33 66.04
  A 0.41 0.41 0.0 0 1 201.68 65.58
  L 205.49 65.05
  A 4.75 3.89 -7.9 0 1 210.73 68.25
  L 210.81 68.85
  A 4.75 3.89 -7.9 0 1 206.64 73.35
  L 202.83 73.88
  A 0.41 0.41 0.0 0 1 202.37 73.53
  L 201.33 66.04
  Z"
/>
<path fill="#0053bd" d="
  M 139.50 91.60
  Q 140.43 94.65 142.37 97.59
  C 144.82 101.31 146.34 105.13 148.49 108.97
  Q 148.95 109.78 148.23 110.37
  Q 146.47 111.84 144.73 112.73
  Q 143.61 113.29 143.07 112.16
  L 131.86 88.79
  Q 131.21 87.44 132.54 86.75
  L 137.96 83.97
  Q 138.98 83.44 139.70 84.33
  L 152.21 99.66
  Q 152.83 100.43 152.62 99.46
  L 148.28 79.84
  Q 148.16 79.27 148.68 79.01
  L 154.88 75.99
  A 0.66 0.65 -26.4 0 1 155.75 76.28
  L 167.80 99.64
  Q 168.33 100.66 167.32 101.20
  L 164.21 102.85
  A 1.35 1.35 0.0 0 1 162.38 102.29
  Q 158.29 94.54 155.45 87.77
  Q 152.53 80.84 154.35 88.14
  Q 156.30 96.01 158.12 104.94
  Q 158.22 105.40 157.80 105.60
  L 153.84 107.59
  Q 153.22 107.90 152.80 107.36
  C 149.70 103.43 146.57 99.17 142.94 95.72
  Q 141.07 93.94 139.72 91.50
  Q 139.14 90.45 139.50 91.60
  Z"
/>
<path fill="#0053bd" d="
  M 314.70 93.27
  L 325.35 99.35
  Q 326.21 99.84 325.69 100.68
  L 324.18 103.11
  Q 323.68 103.92 322.84 103.47
  L 312.04 97.80
  Q 311.62 97.57 311.38 97.99
  L 308.54 102.91
  A 0.55 0.54 29.2 0 0 308.76 103.67
  L 321.45 110.43
  Q 322.29 110.87 321.82 111.70
  L 319.86 115.17
  A 0.88 0.88 0.0 0 1 318.64 115.49
  C 316.27 114.07 313.70 113.07 311.40 111.45
  Q 306.90 108.27 301.47 105.42
  Q 300.63 104.98 301.14 104.19
  C 305.98 96.59 309.52 88.65 314.27 80.86
  A 0.56 0.55 -59.6 0 1 315.01 80.66
  L 331.56 90.02
  Q 332.39 90.49 331.99 91.36
  L 330.47 94.68
  Q 329.95 95.82 328.90 95.13
  L 317.96 87.96
  A 0.49 0.48 -58.4 0 0 317.28 88.13
  L 314.58 92.81
  Q 314.41 93.10 314.70 93.27
  Z"
/>
<path fill="#0033ae" d="
  M 349.98 192.11
  Q 346.02 181.11 338.94 169.15
  Q 335.92 164.05 331.37 158.95
  Q 326.70 153.71 322.64 148.64
  C 318.29 143.21 311.91 139.13 306.64 134.85
  A 0.27 0.27 0.0 0 0 306.21 135.04
  L 305.45 144.23
  Q 305.40 144.79 304.83 144.78
  L 259.57 144.01
  Q 257.48 143.98 255.72 142.83
  L 223.79 121.91
  Q 223.09 121.45 223.81 121.02
  L 240.94 110.66
  Q 242.56 109.69 240.67 109.59
  Q 229.40 109.04 218.17 109.78
  C 212.93 110.13 207.78 111.94 202.58 112.99
  Q 180.55 117.45 161.42 129.40
  A 0.37 0.37 0.0 0 0 161.45 130.05
  L 167.73 133.20
  Q 168.25 133.46 168.05 134.00
  Q 166.18 139.08 163.83 143.96
  C 159.09 153.81 155.06 164.10 151.04 174.27
  C 150.34 176.04 149.15 177.13 147.48 177.93
  Q 138.37 182.26 131.60 186.87
  C 125.98 190.70 120.01 193.41 114.25 197.00
  A 0.74 0.74 0.0 0 1 113.12 196.48
  L 112.23 189.93
  A 0.33 0.33 0.0 0 0 111.65 189.76
  Q 111.37 190.08 111.23 190.50
  Q 107.07 202.39 104.27 213.60
  Q 102.23 221.81 101.91 234.32
  A 0.89 0.89 0.0 0 1 101.02 235.18
  L 89.52 235.10
  Q 88.84 235.10 88.84 234.42
  Q 88.93 211.17 97.74 186.71
  Q 100.71 178.45 104.09 172.86
  Q 105.94 169.80 107.49 166.98
  C 111.17 160.31 115.70 154.39 120.05 148.11
  C 121.94 145.37 124.46 143.39 126.73 141.10
  Q 131.33 136.48 135.49 132.22
  Q 139.94 127.66 144.69 124.42
  C 150.29 120.60 155.69 116.67 161.64 113.65
  Q 164.72 112.09 167.82 110.28
  Q 172.74 107.41 179.40 105.06
  Q 219.74 90.84 260.17 99.09
  Q 277.14 102.55 289.76 108.71
  Q 301.89 114.63 316.35 124.65
  Q 320.76 127.71 324.73 131.86
  Q 328.94 136.28 332.91 139.74
  Q 337.09 143.40 339.94 147.31
  Q 344.50 153.56 349.41 160.70
  Q 354.65 168.32 357.94 175.17
  C 366.07 192.12 369.93 209.58 372.11 228.40
  C 373.52 240.62 371.64 252.44 369.52 264.46
  Q 365.93 284.87 355.92 304.65
  C 354.09 308.27 351.63 310.92 349.58 314.26
  Q 349.05 315.11 348.93 314.12
  Q 347.70 304.48 344.63 296.70
  Q 344.40 296.13 344.69 295.59
  Q 349.23 287.09 351.71 278.39
  C 352.20 276.67 353.28 275.19 353.84 273.46
  A 1.09 1.09 0.0 0 0 353.31 272.15
  C 351.24 271.05 348.63 267.55 347.34 265.83
  C 342.46 259.32 336.90 253.27 331.29 247.72
  C 329.71 246.16 328.08 244.10 328.41 241.72
  Q 330.31 227.93 332.04 213.81
  C 332.95 206.35 334.84 199.38 335.59 191.85
  Q 335.65 191.23 336.27 191.30
  L 349.52 192.69
  Q 350.21 192.77 349.98 192.11
  Z"
/>
<path fill="#0053bd" d="
  M 113.8460 142.1825
  A 15.12 13.72 42.9 0 1 93.4305 141.9405
  A 15.12 13.72 42.9 0 1 91.6940 121.5975
  A 15.12 13.72 42.9 0 1 112.1095 121.8395
  A 15.12 13.72 42.9 0 1 113.8460 142.1825
  Z
  M 110.0742 138.6749
  A 9.95 7.77 42.6 0 0 108.0093 126.2205
  A 9.95 7.77 42.6 0 0 95.4258 125.2051
  A 9.95 7.77 42.6 0 0 97.4907 137.6595
  A 9.95 7.77 42.6 0 0 110.0742 138.6749
  Z"
/>
<ellipse fill="#ffffff" cx="0.00" cy="0.00" transform="translate(102.75,131.94) rotate(42.6)" rx="9.95" ry="7.77"/>
<path fill="#0053bd" d="
  M 373.23 128.53
  Q 365.62 136.03 358.81 141.93
  Q 351.59 148.19 345.36 141.21
  C 341.18 136.53 344.06 131.67 347.35 127.75
  Q 348.16 126.78 348.94 127.78
  L 351.33 130.84
  Q 352.16 131.91 351.13 132.79
  Q 347.60 135.80 348.96 137.78
  Q 350.93 140.66 353.95 138.25
  C 359.28 133.98 363.40 128.88 368.51 124.30
  A 0.46 0.46 0.0 0 1 369.18 124.35
  Q 370.97 126.55 373.16 127.94
  Q 373.57 128.19 373.23 128.53
  Z"
/>
<path fill="#0053bd" d="
  M 391.59 192.25
  C 387.14 194.41 381.66 196.20 376.84 194.33
  Q 370.48 191.86 368.67 184.64
  Q 367.00 177.95 370.81 173.97
  C 373.22 171.45 377.51 168.46 380.77 167.37
  Q 390.56 164.09 396.28 173.36
  C 400.29 179.85 398.57 188.85 391.59 192.25
  Z
  M 390.29 185.06
  C 394.74 181.68 394.22 176.32 389.21 173.88
  C 382.83 170.77 370.83 177.24 375.05 185.28
  C 378.99 192.78 385.57 188.65 390.29 185.06
  Z"
/>
<path fill="#0053bd" d="
  M 68.09 183.25
  C 71.06 186.77 78.83 192.41 82.98 187.49
  Q 87.49 182.15 82.30 178.01
  A 0.31 0.31 0.0 0 1 82.21 177.64
  L 84.40 172.73
  Q 84.50 172.52 84.71 172.63
  Q 92.20 176.56 90.58 185.15
  C 89.96 188.46 88.59 191.28 85.56 193.08
  C 78.86 197.06 71.95 194.87 66.01 190.91
  Q 64.33 189.79 63.24 187.83
  Q 59.09 180.36 63.63 173.53
  C 65.66 170.47 72.40 166.36 75.96 168.65
  Q 76.48 168.98 76.24 169.55
  L 74.40 173.97
  Q 74.15 174.56 73.51 174.47
  Q 69.42 173.87 67.41 178.12
  Q 66.10 180.88 68.09 183.25
  Z"
/>
<path fill="#0053bd" d="
  M 283.15 239.61
  Q 270.79 235.25 260.44 230.13
  C 258.57 229.21 256.50 228.73 254.71 227.75
  Q 244.68 222.31 233.65 218.06
  A 1.08 1.08 0.0 0 1 233.06 216.61
  C 235.26 211.82 236.47 206.70 238.77 202.04
  C 241.70 196.11 243.51 189.39 245.93 183.19
  Q 248.20 177.38 249.12 174.50
  Q 249.47 173.42 248.30 172.94
  Q 248.97 172.54 249.65 172.54
  Q 250.16 172.54 250.39 173.00
  L 283.15 239.61
  Z"
/>
<path fill="#0029ab" d="
  M 248.30 172.94
  Q 249.47 173.42 249.12 174.50
  Q 248.20 177.38 245.93 183.19
  C 243.51 189.39 241.70 196.11 238.77 202.04
  C 236.47 206.70 235.26 211.82 233.06 216.61
  A 1.08 1.08 0.0 0 0 233.65 218.06
  Q 244.68 222.31 254.71 227.75
  C 256.50 228.73 258.57 229.21 260.44 230.13
  Q 270.79 235.25 283.15 239.61
  Q 270.42 250.16 257.00 259.41
  Q 252.83 262.27 249.57 265.25
  C 244.65 269.73 239.24 272.98 233.79 276.80
  A 0.98 0.97 38.7 0 1 232.85 276.90
  Q 223.81 272.96 215.48 269.78
  C 209.21 267.38 203.37 264.24 197.25 261.62
  Q 190.78 258.86 184.41 256.14
  Q 183.75 255.86 183.71 255.14
  C 183.19 246.09 182.60 236.78 181.61 227.50
  Q 179.87 211.32 179.07 192.50
  Q 179.04 191.87 179.66 191.75
  Q 185.41 190.61 191.64 188.45
  Q 197.53 186.40 203.55 184.80
  Q 225.93 178.87 248.30 172.94
  Z"
/>
<path fill="#ffffff" d="
  M 389.21 173.88
  C 394.22 176.32 394.74 181.68 390.29 185.06
  C 385.57 188.65 378.99 192.78 375.05 185.28
  C 370.83 177.24 382.83 170.77 389.21 173.88
  Z"
/>
<path fill="#0029ab" d="
  M 398.85 303.15
  Q 397.77 305.63 399.78 303.82
  Q 404.22 299.81 410.06 297.84
  Q 414.14 296.47 421.54 295.74
  Q 436.16 294.29 450.85 298.71
  Q 453.22 299.42 455.35 300.76
  Q 463.19 305.68 468.69 311.24
  Q 471.98 314.56 474.13 319.63
  C 479.10 331.35 478.92 343.24 476.90 355.75
  C 474.56 370.26 466.40 382.67 454.69 391.80
  C 451.58 394.23 447.97 395.60 444.66 397.79
  C 442.14 399.45 438.56 400.59 435.65 401.39
  Q 413.82 407.40 391.22 401.87
  C 387.23 400.89 383.63 399.36 380.08 396.99
  Q 374.73 393.42 370.64 390.02
  Q 365.32 385.61 361.94 378.55
  Q 356.77 367.77 355.86 355.47
  Q 353.52 323.67 368.54 294.00
  Q 370.17 290.77 372.61 287.84
  C 374.86 285.12 376.25 281.83 378.49 278.88
  C 387.87 266.55 399.64 255.64 413.16 249.06
  Q 417.38 247.01 421.63 244.64
  Q 425.13 242.69 430.70 240.93
  Q 451.19 234.44 473.34 234.79
  A 0.37 0.37 0.0 0 1 473.70 235.22
  L 468.76 266.25
  A 0.57 0.57 0.0 0 1 468.20 266.73
  Q 446.19 266.88 427.48 275.15
  C 422.90 277.18 417.45 280.23 414.01 284.09
  C 412.41 285.89 410.42 287.01 408.78 288.68
  Q 402.24 295.36 398.85 303.15
  Z
  M 422.57 325.39
  C 411.00 324.65 401.16 325.12 392.41 333.31
  C 386.37 338.95 384.58 348.53 385.74 356.14
  Q 386.68 362.29 389.93 365.22
  Q 396.44 371.08 405.74 372.38
  C 419.29 374.28 438.87 373.27 444.42 357.97
  C 448.31 347.23 447.17 335.36 436.83 329.15
  Q 431.53 325.97 422.57 325.39
  Z"
/>
<path fill="#0029ab" d="
  M 80.92 273.07
  A 0.47 0.46 4.7 0 0 80.46 272.53
  L 36.95 272.52
  Q 36.36 272.52 36.46 271.94
  L 41.52 241.26
  Q 41.58 240.86 41.99 240.86
  L 162.98 240.81
  Q 163.47 240.81 163.46 241.31
  Q 163.43 242.81 163.05 244.46
  Q 159.75 258.67 158.06 271.83
  A 0.79 0.78 3.7 0 1 157.28 272.51
  L 113.55 272.50
  A 0.62 0.61 -84.9 0 0 112.95 273.01
  Q 109.25 295.96 105.99 313.42
  C 105.39 316.64 104.33 319.87 103.77 323.21
  Q 97.97 357.74 91.66 394.41
  Q 91.24 396.87 91.16 398.92
  A 0.88 0.88 0.0 0 1 90.28 399.77
  L 59.29 399.71
  Q 58.73 399.71 58.83 399.16
  Q 62.32 378.33 65.79 358.39
  C 66.52 354.23 67.82 350.06 68.54 345.88
  Q 74.89 308.98 80.92 273.07
  Z"
/>
<path fill="#0029ab" d="
  M 281.12 287.20
  Q 281.08 287.67 281.47 287.39
  C 284.33 285.31 287.18 282.43 290.34 280.92
  C 299.01 276.76 308.77 277.32 318.06 279.83
  Q 321.25 280.69 323.89 282.55
  C 330.37 287.12 336.31 292.47 339.10 299.93
  C 343.21 310.93 343.59 321.34 342.81 333.06
  Q 341.89 346.74 337.65 360.21
  C 336.59 363.55 335.49 366.90 333.51 369.89
  Q 331.34 373.16 329.61 376.63
  C 326.44 383.01 320.20 390.10 313.60 393.84
  C 310.18 395.79 307.16 398.52 303.31 399.72
  C 293.81 402.69 277.68 404.03 269.19 397.27
  Q 266.00 394.73 262.63 392.50
  A 0.40 0.40 0.0 0 0 262.01 392.77
  C 260.91 400.45 259.73 408.29 257.95 415.78
  Q 256.77 420.71 255.99 426.08
  A 2.20 2.18 81.7 0 1 254.76 427.75
  L 222.81 442.99
  Q 222.11 443.33 222.24 442.55
  Q 230.07 396.42 237.86 350.78
  C 238.36 347.83 239.41 344.93 239.94 342.04
  Q 244.55 317.10 247.62 293.13
  A 1.98 1.97 81.1 0 1 248.73 291.60
  Q 254.25 289.02 259.82 286.75
  Q 262.93 285.48 269.39 281.89
  Q 274.93 278.81 281.60 276.78
  Q 281.95 276.68 281.92 277.04
  L 281.12 287.20
  Z
  M 277.52 370.09
  Q 289.79 374.65 298.37 367.74
  Q 303.75 363.41 307.37 351.99
  Q 310.36 342.54 310.70 330.42
  C 310.96 320.89 309.22 310.53 298.23 308.45
  C 288.61 306.63 282.80 311.66 275.65 317.34
  A 1.60 1.55 -15.1 0 0 275.07 318.31
  Q 271.71 337.35 268.22 357.84
  Q 267.87 359.93 267.72 361.99
  A 1.28 1.24 27.2 0 0 268.02 362.88
  Q 272.54 368.24 277.52 370.09
  Z"
/>
<path fill="#0029ab" d="
  M 229.27 317.94
  C 231.59 333.21 229.40 349.43 223.39 363.85
  C 221.11 369.33 216.98 374.09 213.75 379.15
  C 210.26 384.60 204.16 389.65 198.24 392.94
  C 194.05 395.27 189.86 398.34 185.30 399.63
  C 174.51 402.68 162.93 403.21 152.47 399.97
  Q 149.33 399.00 146.64 397.24
  C 144.15 395.62 141.40 394.53 139.06 392.67
  C 133.25 388.02 129.58 383.04 126.74 376.32
  C 124.65 371.38 122.81 367.91 121.98 361.75
  Q 120.25 348.99 122.40 335.76
  Q 123.14 331.24 124.77 327.21
  C 126.32 323.38 127.31 319.20 129.08 315.45
  Q 131.77 309.76 136.14 303.07
  Q 139.41 298.05 143.52 294.55
  Q 149.15 289.75 155.07 285.95
  Q 161.36 281.93 167.59 280.14
  Q 183.18 275.68 198.74 280.06
  Q 203.56 281.42 207.73 284.34
  C 214.41 289.01 221.24 294.79 224.55 302.42
  Q 228.18 310.81 229.27 317.94
  Z
  M 159.42 322.29
  C 155.41 330.04 153.92 338.05 153.59 346.66
  C 153.34 353.19 154.47 362.28 159.19 366.59
  Q 165.42 372.27 173.21 371.38
  Q 180.96 370.48 186.47 365.42
  Q 190.86 361.38 193.94 353.25
  Q 198.75 340.54 197.25 325.71
  C 195.56 308.99 179.28 303.54 166.71 313.68
  Q 161.86 317.58 159.42 322.29
  Z"
/>
<path fill="#ffffff" d="
  M 277.52 370.09
  Q 272.54 368.24 268.02 362.88
  A 1.28 1.24 27.2 0 1 267.72 361.99
  Q 267.87 359.93 268.22 357.84
  Q 271.71 337.35 275.07 318.31
  A 1.60 1.55 -15.1 0 1 275.65 317.34
  C 282.80 311.66 288.61 306.63 298.23 308.45
  C 309.22 310.53 310.96 320.89 310.70 330.42
  Q 310.36 342.54 307.37 351.99
  Q 303.75 363.41 298.37 367.74
  Q 289.79 374.65 277.52 370.09
  Z"
/>
<path fill="#ffffff" d="
  M 159.42 322.29
  Q 161.86 317.58 166.71 313.68
  C 179.28 303.54 195.56 308.99 197.25 325.71
  Q 198.75 340.54 193.94 353.25
  Q 190.86 361.38 186.47 365.42
  Q 180.96 370.48 173.21 371.38
  Q 165.42 372.27 159.19 366.59
  C 154.47 362.28 153.34 353.19 153.59 346.66
  C 153.92 338.05 155.41 330.04 159.42 322.29
  Z"
/>
<path fill="#ffffff" d="
  M 392.41 333.31
  C 401.16 325.12 411.00 324.65 422.57 325.39
  Q 431.53 325.97 436.83 329.15
  C 447.17 335.36 448.31 347.23 444.42 357.97
  C 438.87 373.27 419.29 374.28 405.74 372.38
  Q 396.44 371.08 389.93 365.22
  Q 386.68 362.29 385.74 356.14
  C 384.58 348.53 386.37 338.95 392.41 333.31
  Z"
/>
</svg>
