<?xml version="1.0" encoding="UTF-8" standalone="no"?>
<!DOCTYPE svg PUBLIC "-//W3C//DTD SVG 1.1//EN" "http://www.w3.org/Graphics/SVG/1.1/DTD/svg11.dtd">
<svg xmlns="http://www.w3.org/2000/svg" version="1.1" viewBox="0.00 0.00 320.00 320.00">
<g stroke-width="2.00" fill="none" stroke-linecap="butt">
<path stroke="#a3d5d4" vector-effect="non-scaling-stroke" d="
  M 201.95 133.26
  Q 203.04 135.16 204.40 137.32
  Q 205.02 138.30 206.14 137.53
  A 1.37 1.37 0.0 0 0 206.72 136.15
  L 205.65 130.19
  A 1.62 1.60 -28.1 0 1 206.09 128.77
  L 211.77 122.92
  Q 212.48 122.19 213.16 122.95
  Q 217.14 127.43 220.23 132.53
  A 1.30 1.30 0.0 0 0 222.21 132.83
  Q 223.25 131.89 223.47 130.53
  A 1.64 1.64 0.0 0 0 223.25 129.43
  Q 221.76 127.04 222.67 124.69
  Q 222.89 124.11 222.38 123.75
  L 221.51 123.13
  Q 221.02 122.78 221.17 122.19
  Q 221.36 121.44 221.17 120.67
  Q 221.01 120.07 220.45 119.78
  Q 219.11 119.09 218.25 117.73
  A 2.48 2.47 -39.2 0 1 218.56 114.72
  C 221.67 111.44 224.76 107.92 224.80 103.13
  Q 224.82 101.77 223.48 102.05
  C 218.67 103.08 215.68 107.13 212.89 110.88
  A 1.25 1.24 -73.3 0 1 211.95 111.39
  Q 210.46 111.48 209.03 110.77
  Q 208.55 110.52 208.34 110.02
  Q 208.11 109.45 207.66 109.00
  Q 207.29 108.62 206.77 108.66
  Q 206.22 108.69 205.88 109.14
  Q 204.87 110.49 204.27 108.91
  Q 203.99 108.17 203.22 108.15
  Q 202.74 108.13 202.36 108.43
  Q 201.97 108.74 201.53 109.01
  Q 201.09 109.28 200.58 109.16
  C 198.13 108.59 196.44 107.85 194.84 110.44
  Q 194.19 111.50 195.34 111.96
  Q 200.50 114.03 205.91 117.03
  Q 207.27 117.78 206.35 119.04
  L 201.75 125.38
  A 1.95 1.93 20.5 0 1 199.98 126.18
  Q 197.44 125.94 194.86 126.14
  Q 193.28 126.26 193.17 127.70
  Q 193.12 128.34 193.72 128.58
  L 197.69 130.10
  A 0.58 0.58 0.0 0 1 197.94 131.00
  L 157.56 182.84
  A 0.50 0.49 -44.7 0 1 156.77 182.84
  Q 144.21 166.31 130.42 148.82
  Q 121.95 138.07 119.78 132.58
  C 113.65 117.03 117.41 97.88 130.62 86.86
  Q 147.48 72.79 168.79 78.62
  Q 175.42 80.43 181.92 85.32
  A 1.72 1.70 -31.2 0 0 183.22 85.63
  Q 185.47 85.23 184.83 82.79
  A 2.14 2.11 -80.2 0 0 184.01 81.61
  Q 169.86 71.53 153.46 72.92
  C 117.83 75.93 100.70 116.76 122.23 144.86
  Q 139.06 166.83 155.20 187.65
  Q 157.17 190.20 159.15 187.65
  L 201.45 133.23
  A 0.30 0.30 0.0 0 1 201.95 133.26"
/>
<path stroke="#ab9ec1" vector-effect="non-scaling-stroke" d="
  M 187.51 118.45
  A 30.34 30.34 0.0 0 0 157.17 88.11
  A 30.34 30.34 0.0 0 0 126.83 118.45
  A 30.34 30.34 0.0 0 0 157.17 148.79
  A 30.34 30.34 0.0 0 0 187.51 118.45"
/>
<path stroke="#ab9ec1" vector-effect="non-scaling-stroke" d="
  M 197.47 223.54
  C 202.24 226.82 209.27 226.03 213.02 221.39
  C 217.91 215.32 216.50 204.75 208.93 201.47
  C 205.06 199.79 201.52 200.20 197.85 202.25
  Q 197.21 202.61 197.21 201.87
  L 197.27 192.26
  A 0.27 0.26 -90.0 0 0 197.01 191.99
  L 189.00 191.95
  Q 188.69 191.95 188.69 192.25
  L 188.69 224.43
  Q 188.69 225.17 189.43 225.16
  L 195.91 225.03
  Q 196.60 225.02 196.74 224.34
  Q 196.78 224.15 196.76 223.94
  Q 196.68 223.00 197.47 223.54"
/>
<path stroke="#ab9ec1" vector-effect="non-scaling-stroke" d="
  M 105.26 193.78
  A 0.31 0.31 0.0 0 0 104.97 193.97
  L 96.73 213.41
  A 0.31 0.31 0.0 0 1 96.16 213.41
  L 88.12 193.99
  A 0.31 0.31 0.0 0 0 87.83 193.80
  L 78.84 193.90
  A 0.31 0.31 0.0 0 0 78.56 194.34
  L 91.65 224.93
  A 0.31 0.31 0.0 0 0 91.94 225.12
  L 100.34 225.05
  A 0.31 0.31 0.0 0 0 100.62 224.86
  L 113.68 194.35
  A 0.31 0.31 0.0 0 0 113.40 193.92
  L 105.26 193.78"
/>
<path stroke="#ab9ec1" vector-effect="non-scaling-stroke" d="
  M 127.78 223.20
  L 127.78 224.57
  Q 127.79 225.10 128.32 225.10
  L 135.09 225.13
  Q 135.71 225.13 135.71 224.51
  Q 135.78 218.01 135.71 211.35
  C 135.57 198.66 121.78 198.96 113.41 202.63
  A 1.01 1.01 0.0 0 0 112.92 204.01
  L 115.05 208.29
  Q 115.46 209.11 116.26 208.65
  Q 119.00 207.07 122.33 207.00
  Q 123.95 206.96 125.34 207.81
  Q 126.43 208.48 127.01 209.70
  Q 127.58 210.91 126.25 210.81
  C 119.63 210.35 110.22 210.87 111.77 219.56
  Q 112.36 222.86 115.36 224.28
  Q 122.20 227.49 127.26 222.97
  Q 127.78 222.50 127.78 223.20"
/>
<path stroke="#ab9ec1" vector-effect="non-scaling-stroke" d="
  M 148.57 202.86
  L 148.67 201.52
  Q 148.71 200.84 148.03 200.83
  L 141.23 200.79
  Q 140.49 200.78 140.49 201.52
  L 140.49 224.79
  A 0.38 0.38 0.0 0 0 140.87 225.17
  L 148.75 225.07
  Q 149.11 225.06 149.11 224.70
  Q 149.05 218.81 149.08 214.11
  Q 149.12 207.38 155.98 208.20
  Q 156.75 208.29 156.75 207.52
  L 156.82 201.20
  Q 156.82 200.46 156.09 200.47
  Q 152.04 200.49 149.12 203.13
  A 0.33 0.33 0.0 0 1 148.57 202.86"
/>
<path stroke="#ab9ec1" vector-effect="non-scaling-stroke" d="
  M 185.4499 212.9218
  A 13.80 12.66 -0.2 0 0 171.6058 200.3101
  A 13.80 12.66 -0.2 0 0 157.8501 213.0182
  A 13.80 12.66 -0.2 0 0 171.6942 225.6299
  A 13.80 12.66 -0.2 0 0 185.4499 212.9218"
/>
<path stroke="#ab9ec1" vector-effect="non-scaling-stroke" d="
  M 233.48 223.01
  L 233.50 224.58
  Q 233.51 225.15 234.08 225.14
  L 241.06 225.06
  A 0.37 0.36 -89.2 0 0 241.42 224.70
  Q 241.57 217.61 241.39 211.14
  C 241.05 198.47 227.02 198.96 218.79 202.82
  A 0.66 0.66 0.0 0 0 218.48 203.72
  L 220.84 208.48
  A 0.69 0.69 0.0 0 0 221.82 208.77
  Q 225.02 206.83 228.87 207.05
  A 4.51 4.48 -17.9 0 1 232.06 208.67
  L 232.60 209.32
  Q 233.81 210.77 231.92 210.73
  C 226.44 210.61 216.39 210.33 217.36 218.93
  C 218.07 225.21 225.35 226.49 230.37 224.85
  C 231.47 224.49 232.15 223.56 232.94 222.79
  Q 233.47 222.27 233.48 223.01"
/>
<path stroke="#a3d5d4" vector-effect="non-scaling-stroke" d="
  M 131.56 244.03
  L 127.30 234.23
  Q 126.90 233.33 126.01 233.74
  L 125.68 233.89
  A 0.54 0.53 -24.1 0 0 125.41 234.59
  Q 127.81 240.17 130.30 245.84
  Q 130.69 246.73 131.54 247.15
  A 0.98 0.97 25.1 0 0 132.87 246.67
  L 138.20 234.57
  A 0.54 0.54 0.0 0 0 137.77 233.81
  L 137.29 233.76
  A 0.94 0.92 14.6 0 0 136.34 234.31
  L 132.13 244.03
  Q 131.84 244.68 131.56 244.03"
/>
<path stroke="#a3d5d4" vector-effect="non-scaling-stroke" d="
  M 142.9202 234.7553
  A 0.89 0.89 0.0 0 0 142.0349 233.8606
  L 141.8349 233.8596
  A 0.89 0.89 0.0 0 0 140.9402 234.7449
  L 140.8798 246.2847
  A 0.89 0.89 0.0 0 0 141.7651 247.1794
  L 141.9651 247.1804
  A 0.89 0.89 0.0 0 0 142.8598 246.2951
  L 142.9202 234.7553"
/>
<path stroke="#a3d5d4" vector-effect="non-scaling-stroke" d="
  M 156.11 244.39
  L 157.08 246.42
  A 1.19 1.19 0.0 0 0 158.40 247.08
  L 158.76 247.01
  Q 159.37 246.89 159.11 246.32
  L 153.75 234.58
  A 1.23 1.22 57.3 0 0 151.83 234.16
  Q 151.20 234.70 150.81 235.56
  Q 148.71 240.20 146.58 245.08
  Q 144.99 248.75 148.05 246.19
  Q 148.43 245.87 148.92 244.37
  Q 149.11 243.78 149.73 243.79
  L 155.38 243.91
  Q 155.89 243.92 156.11 244.39"
/>
<path stroke="#a3d5d4" vector-effect="non-scaling-stroke" d="
  M 193.10 242.81
  A 1.45 1.45 0.0 0 1 192.42 245.09
  Q 189.06 246.18 185.87 244.33
  A 0.37 0.37 0.0 0 0 185.35 244.50
  L 185.21 244.81
  A 0.89 0.89 0.0 0 0 185.60 245.95
  C 188.48 247.50 193.86 248.17 195.04 244.32
  C 196.24 240.37 191.10 239.94 188.77 239.11
  Q 188.06 238.86 187.63 238.33
  A 1.50 1.50 0.0 0 1 188.25 235.99
  Q 190.93 234.93 193.77 236.26
  A 0.49 0.49 0.0 0 0 194.44 235.99
  L 194.55 235.69
  A 0.86 0.86 0.0 0 0 194.06 234.59
  Q 190.01 232.99 186.90 234.72
  C 185.30 235.61 185.09 237.66 185.88 239.15
  C 187.36 241.94 191.38 240.68 193.10 242.81"
/>
<path stroke="#a3d5d4" vector-effect="non-scaling-stroke" d="
  M 166.48 236.48
  Q 166.18 239.35 166.27 243.21
  Q 166.31 245.00 165.15 245.38
  Q 163.79 245.83 161.27 244.25
  Q 160.95 244.05 160.74 244.36
  Q 160.35 244.95 160.56 245.56
  Q 160.84 246.39 161.67 246.66
  Q 168.23 248.82 168.24 242.43
  Q 168.24 239.03 168.30 234.74
  Q 168.31 234.01 167.58 234.01
  L 162.00 234.00
  A 0.50 0.50 0.0 0 0 161.50 234.50
  L 161.50 234.90
  A 0.66 0.66 0.0 0 0 162.15 235.55
  L 165.74 235.63
  A 0.77 0.76 -86.2 0 1 166.48 236.48"
/>
<path stroke="#a3d5d4" vector-effect="non-scaling-stroke" d="
  M 175.12 239.60
  A 0.30 0.30 0.0 0 1 174.81 239.30
  L 174.75 235.95
  A 0.30 0.30 0.0 0 1 175.05 235.64
  L 181.83 235.69
  A 0.30 0.30 0.0 0 0 182.11 235.50
  L 182.42 234.74
  A 0.30 0.30 0.0 0 0 182.15 234.32
  L 173.20 234.18
  A 0.30 0.30 0.0 0 0 172.90 234.47
  L 172.86 246.82
  A 0.30 0.30 0.0 0 0 173.16 247.12
  L 182.43 247.05
  A 0.30 0.30 0.0 0 0 182.73 246.74
  L 182.67 245.55
  A 0.30 0.30 0.0 0 0 182.37 245.27
  L 175.00 245.29
  A 0.30 0.30 0.0 0 1 174.70 244.97
  L 174.88 241.53
  A 0.30 0.30 0.0 0 1 175.18 241.24
  L 181.12 241.27
  A 0.30 0.30 0.0 0 0 181.42 241.00
  L 181.52 239.90
  A 0.30 0.30 0.0 0 0 181.22 239.57
  L 175.12 239.60"
/>
<path stroke="#4e7396" vector-effect="non-scaling-stroke" d="
  M 153.34 142.06
  C 146.27 140.60 146.53 135.15 145.53 129.48
  Q 145.42 128.89 144.99 128.48
  C 142.51 126.12 140.24 123.18 140.51 119.60
  A 1.62 1.62 0.0 0 0 138.34 117.96
  Q 133.99 119.55 131.64 116.44
  Q 130.91 115.48 130.88 116.68
  Q 130.57 126.69 136.01 133.91
  C 143.96 144.46 157.71 147.84 169.57 141.58
  Q 174.40 139.04 177.88 134.52
  A 0.41 0.41 0.0 0 0 177.57 133.86
  Q 173.52 133.70 173.55 129.10
  Q 173.58 125.45 173.46 122.18
  Q 173.28 117.38 169.20 118.36
  C 167.82 118.70 166.33 119.41 164.98 118.54
  C 161.95 116.60 162.79 112.09 164.69 109.71
  Q 166.07 107.99 167.04 105.92
  Q 167.23 105.50 167.63 105.25
  L 169.03 104.37
  A 1.19 1.19 0.0 0 0 169.58 103.25
  Q 169.49 102.26 168.92 101.38
  Q 168.36 100.52 168.76 99.58
  Q 168.87 99.30 169.26 99.14
  A 0.49 0.49 0.0 0 1 169.84 99.32
  L 171.03 101.07
  Q 171.58 101.87 172.46 101.47
  Q 172.77 101.33 172.93 100.92
  A 0.71 0.70 -56.7 0 0 172.78 100.18
  Q 171.84 99.22 172.20 98.00
  A 1.38 1.37 24.0 0 0 171.60 96.45
  Q 160.92 89.81 148.68 93.57
  Q 148.56 93.61 148.61 93.72
  L 148.71 93.97
  Q 148.89 94.45 149.34 94.21
  Q 151.41 93.06 154.19 93.11
  A 1.61 1.61 0.0 0 1 155.52 93.87
  Q 156.26 95.06 155.46 96.14
  A 1.29 1.28 -48.9 0 1 153.51 96.28
  Q 152.97 95.72 152.25 95.43
  Q 151.74 95.23 151.26 95.49
  Q 149.21 96.64 147.52 98.45
  Q 147.20 98.79 147.29 99.25
  Q 147.40 99.82 147.92 100.13
  Q 148.46 100.43 148.97 100.09
  L 151.29 98.55
  A 2.08 2.08 0.0 0 1 153.90 98.79
  L 155.11 99.96
  Q 156.27 101.09 154.87 101.91
  Q 152.42 103.35 150.10 104.74
  Q 148.72 105.56 147.77 106.75
  C 145.99 108.97 143.03 108.51 140.48 108.85
  A 1.26 1.26 0.0 0 0 139.57 110.77
  C 141.11 113.25 143.24 115.34 146.28 115.26
  C 149.00 115.20 151.10 115.02 153.74 116.18
  C 158.70 118.36 162.32 121.77 158.34 127.55
  C 156.66 129.97 151.39 135.99 152.90 139.07
  Q 153.38 140.05 154.05 140.92
  Q 155.24 142.45 153.34 142.06"
/>
<path stroke="#4e7396" vector-effect="non-scaling-stroke" d="
  M 180.58 107.17
  C 178.96 106.72 177.33 106.89 175.87 105.92
  Q 174.24 104.85 172.44 104.63
  A 1.90 1.88 31.6 0 0 171.19 104.92
  Q 170.66 105.25 170.65 105.90
  Q 170.64 106.00 170.74 105.99
  C 172.74 105.90 174.65 106.03 176.47 106.94
  Q 178.24 107.83 180.62 108.02
  Q 180.68 108.03 180.69 107.97
  L 180.80 107.53
  Q 180.86 107.24 180.58 107.17"
/>
<path stroke="#ab9ec1" vector-effect="non-scaling-stroke" d="
  M 202.0898 218.7296
  A 5.75 5.12 90.7 0 0 207.2796 213.0426
  A 5.75 5.12 90.7 0 0 202.2302 207.2304
  A 5.75 5.12 90.7 0 0 197.0404 212.9174
  A 5.75 5.12 90.7 0 0 202.0898 218.7296"
/>
<path stroke="#ab9ec1" vector-effect="non-scaling-stroke" d="
  M 125.97 215.04
  L 120.40 215.82
  A 0.91 0.91 0.0 0 0 119.63 216.85
  L 119.68 217.22
  A 3.60 3.38 -8.0 0 0 123.72 220.06
  L 123.95 220.03
  A 3.60 3.38 -8.0 0 0 127.05 216.18
  L 127.00 215.82
  A 0.91 0.91 0.0 0 0 125.97 215.04"
/>
<path stroke="#ab9ec1" vector-effect="non-scaling-stroke" d="
  M 171.5396 218.7391
  A 5.75 5.12 91.0 0 0 176.7592 213.0794
  A 5.75 5.12 91.0 0 0 171.7404 207.2409
  A 5.75 5.12 91.0 0 0 166.5208 212.9006
  A 5.75 5.12 91.0 0 0 171.5396 218.7391"
/>
<path stroke="#ab9ec1" vector-effect="non-scaling-stroke" d="
  M 231.72 215.05
  L 226.12 215.84
  A 0.89 0.89 0.0 0 0 225.36 216.84
  L 225.42 217.30
  A 3.58 3.25 -8.0 0 0 229.42 220.02
  L 229.70 219.98
  A 3.58 3.25 -8.0 0 0 232.79 216.26
  L 232.73 215.81
  A 0.89 0.89 0.0 0 0 231.72 215.05"
/>
<path stroke="#a3d5d4" vector-effect="non-scaling-stroke" d="
  M 150.05 241.73
  A 0.32 0.32 0.0 0 0 150.35 242.17
  L 154.68 242.13
  A 0.32 0.32 0.0 0 0 154.96 241.68
  L 152.75 236.68
  A 0.32 0.32 0.0 0 0 152.16 236.69
  L 150.05 241.73"
/>
</g>
<path fill="#ffffff" d="
  M 0.00 0.00
  L 320.00 0.00
  L 320.00 320.00
  L 0.00 320.00
  L 0.00 0.00
  Z
  M 201.95 133.26
  Q 203.04 135.16 204.40 137.32
  Q 205.02 138.30 206.14 137.53
  A 1.37 1.37 0.0 0 0 206.72 136.15
  L 205.65 130.19
  A 1.62 1.60 -28.1 0 1 206.09 128.77
  L 211.77 122.92
  Q 212.48 122.19 213.16 122.95
  Q 217.14 127.43 220.23 132.53
  A 1.30 1.30 0.0 0 0 222.21 132.83
  Q 223.25 131.89 223.47 130.53
  A 1.64 1.64 0.0 0 0 223.25 129.43
  Q 221.76 127.04 222.67 124.69
  Q 222.89 124.11 222.38 123.75
  L 221.51 123.13
  Q 221.02 122.78 221.17 122.19
  Q 221.36 121.44 221.17 120.67
  Q 221.01 120.07 220.45 119.78
  Q 219.11 119.09 218.25 117.73
  A 2.48 2.47 -39.2 0 1 218.56 114.72
  C 221.67 111.44 224.76 107.92 224.80 103.13
  Q 224.82 101.77 223.48 102.05
  C 218.67 103.08 215.68 107.13 212.89 110.88
  A 1.25 1.24 -73.3 0 1 211.95 111.39
  Q 210.46 111.48 209.03 110.77
  Q 208.55 110.52 208.34 110.02
  Q 208.11 109.45 207.66 109.00
  Q 207.29 108.62 206.77 108.66
  Q 206.22 108.69 205.88 109.14
  Q 204.87 110.49 204.27 108.91
  Q 203.99 108.17 203.22 108.15
  Q 202.74 108.13 202.36 108.43
  Q 201.97 108.74 201.53 109.01
  Q 201.09 109.28 200.58 109.16
  C 198.13 108.59 196.44 107.85 194.84 110.44
  Q 194.19 111.50 195.34 111.96
  Q 200.50 114.03 205.91 117.03
  Q 207.27 117.78 206.35 119.04
  L 201.75 125.38
  A 1.95 1.93 20.5 0 1 199.98 126.18
  Q 197.44 125.94 194.86 126.14
  Q 193.28 126.26 193.17 127.70
  Q 193.12 128.34 193.72 128.58
  L 197.69 130.10
  A 0.58 0.58 0.0 0 1 197.94 131.00
  L 157.56 182.84
  A 0.50 0.49 -44.7 0 1 156.77 182.84
  Q 144.21 166.31 130.42 148.82
  Q 121.95 138.07 119.78 132.58
  C 113.65 117.03 117.41 97.88 130.62 86.86
  Q 147.48 72.79 168.79 78.62
  Q 175.42 80.43 181.92 85.32
  A 1.72 1.70 -31.2 0 0 183.22 85.63
  Q 185.47 85.23 184.83 82.79
  A 2.14 2.11 -80.2 0 0 184.01 81.61
  Q 169.86 71.53 153.46 72.92
  C 117.83 75.93 100.70 116.76 122.23 144.86
  Q 139.06 166.83 155.20 187.65
  Q 157.17 190.20 159.15 187.65
  L 201.45 133.23
  A 0.30 0.30 0.0 0 1 201.95 133.26
  Z
  M 187.51 118.45
  A 30.34 30.34 0.0 0 0 157.17 88.11
  A 30.34 30.34 0.0 0 0 126.83 118.45
  A 30.34 30.34 0.0 0 0 157.17 148.79
  A 30.34 30.34 0.0 0 0 187.51 118.45
  Z
  M 197.47 223.54
  C 202.24 226.82 209.27 226.03 213.02 221.39
  C 217.91 215.32 216.50 204.75 208.93 201.47
  C 205.06 199.79 201.52 200.20 197.85 202.25
  Q 197.21 202.61 197.21 201.87
  L 197.27 192.26
  A 0.27 0.26 -90.0 0 0 197.01 191.99
  L 189.00 191.95
  Q 188.69 191.95 188.69 192.25
  L 188.69 224.43
  Q 188.69 225.17 189.43 225.16
  L 195.91 225.03
  Q 196.60 225.02 196.74 224.34
  Q 196.78 224.15 196.76 223.94
  Q 196.68 223.00 197.47 223.54
  Z
  M 105.26 193.78
  A 0.31 0.31 0.0 0 0 104.97 193.97
  L 96.73 213.41
  A 0.31 0.31 0.0 0 1 96.16 213.41
  L 88.12 193.99
  A 0.31 0.31 0.0 0 0 87.83 193.80
  L 78.84 193.90
  A 0.31 0.31 0.0 0 0 78.56 194.34
  L 91.65 224.93
  A 0.31 0.31 0.0 0 0 91.94 225.12
  L 100.34 225.05
  A 0.31 0.31 0.0 0 0 100.62 224.86
  L 113.68 194.35
  A 0.31 0.31 0.0 0 0 113.40 193.92
  L 105.26 193.78
  Z
  M 127.78 223.20
  L 127.78 224.57
  Q 127.79 225.10 128.32 225.10
  L 135.09 225.13
  Q 135.71 225.13 135.71 224.51
  Q 135.78 218.01 135.71 211.35
  C 135.57 198.66 121.78 198.96 113.41 202.63
  A 1.01 1.01 0.0 0 0 112.92 204.01
  L 115.05 208.29
  Q 115.46 209.11 116.26 208.65
  Q 119.00 207.07 122.33 207.00
  Q 123.95 206.96 125.34 207.81
  Q 126.43 208.48 127.01 209.70
  Q 127.58 210.91 126.25 210.81
  C 119.63 210.35 110.22 210.87 111.77 219.56
  Q 112.36 222.86 115.36 224.28
  Q 122.20 227.49 127.26 222.97
  Q 127.78 222.50 127.78 223.20
  Z
  M 148.57 202.86
  L 148.67 201.52
  Q 148.71 200.84 148.03 200.83
  L 141.23 200.79
  Q 140.49 200.78 140.49 201.52
  L 140.49 224.79
  A 0.38 0.38 0.0 0 0 140.87 225.17
  L 148.75 225.07
  Q 149.11 225.06 149.11 224.70
  Q 149.05 218.81 149.08 214.11
  Q 149.12 207.38 155.98 208.20
  Q 156.75 208.29 156.75 207.52
  L 156.82 201.20
  Q 156.82 200.46 156.09 200.47
  Q 152.04 200.49 149.12 203.13
  A 0.33 0.33 0.0 0 1 148.57 202.86
  Z
  M 185.4499 212.9218
  A 13.80 12.66 -0.2 0 0 171.6058 200.3101
  A 13.80 12.66 -0.2 0 0 157.8501 213.0182
  A 13.80 12.66 -0.2 0 0 171.6942 225.6299
  A 13.80 12.66 -0.2 0 0 185.4499 212.9218
  Z
  M 233.48 223.01
  L 233.50 224.58
  Q 233.51 225.15 234.08 225.14
  L 241.06 225.06
  A 0.37 0.36 -89.2 0 0 241.42 224.70
  Q 241.57 217.61 241.39 211.14
  C 241.05 198.47 227.02 198.96 218.79 202.82
  A 0.66 0.66 0.0 0 0 218.48 203.72
  L 220.84 208.48
  A 0.69 0.69 0.0 0 0 221.82 208.77
  Q 225.02 206.83 228.87 207.05
  A 4.51 4.48 -17.9 0 1 232.06 208.67
  L 232.60 209.32
  Q 233.81 210.77 231.92 210.73
  C 226.44 210.61 216.39 210.33 217.36 218.93
  C 218.07 225.21 225.35 226.49 230.37 224.85
  C 231.47 224.49 232.15 223.56 232.94 222.79
  Q 233.47 222.27 233.48 223.01
  Z
  M 131.56 244.03
  L 127.30 234.23
  Q 126.90 233.33 126.01 233.74
  L 125.68 233.89
  A 0.54 0.53 -24.1 0 0 125.41 234.59
  Q 127.81 240.17 130.30 245.84
  Q 130.69 246.73 131.54 247.15
  A 0.98 0.97 25.1 0 0 132.87 246.67
  L 138.20 234.57
  A 0.54 0.54 0.0 0 0 137.77 233.81
  L 137.29 233.76
  A 0.94 0.92 14.6 0 0 136.34 234.31
  L 132.13 244.03
  Q 131.84 244.68 131.56 244.03
  Z
  M 142.9202 234.7553
  A 0.89 0.89 0.0 0 0 142.0349 233.8606
  L 141.8349 233.8596
  A 0.89 0.89 0.0 0 0 140.9402 234.7449
  L 140.8798 246.2847
  A 0.89 0.89 0.0 0 0 141.7651 247.1794
  L 141.9651 247.1804
  A 0.89 0.89 0.0 0 0 142.8598 246.2951
  L 142.9202 234.7553
  Z
  M 156.11 244.39
  L 157.08 246.42
  A 1.19 1.19 0.0 0 0 158.40 247.08
  L 158.76 247.01
  Q 159.37 246.89 159.11 246.32
  L 153.75 234.58
  A 1.23 1.22 57.3 0 0 151.83 234.16
  Q 151.20 234.70 150.81 235.56
  Q 148.71 240.20 146.58 245.08
  Q 144.99 248.75 148.05 246.19
  Q 148.43 245.87 148.92 244.37
  Q 149.11 243.78 149.73 243.79
  L 155.38 243.91
  Q 155.89 243.92 156.11 244.39
  Z
  M 193.10 242.81
  A 1.45 1.45 0.0 0 1 192.42 245.09
  Q 189.06 246.18 185.87 244.33
  A 0.37 0.37 0.0 0 0 185.35 244.50
  L 185.21 244.81
  A 0.89 0.89 0.0 0 0 185.60 245.95
  C 188.48 247.50 193.86 248.17 195.04 244.32
  C 196.24 240.37 191.10 239.94 188.77 239.11
  Q 188.06 238.86 187.63 238.33
  A 1.50 1.50 0.0 0 1 188.25 235.99
  Q 190.93 234.93 193.77 236.26
  A 0.49 0.49 0.0 0 0 194.44 235.99
  L 194.55 235.69
  A 0.86 0.86 0.0 0 0 194.06 234.59
  Q 190.01 232.99 186.90 234.72
  C 185.30 235.61 185.09 237.66 185.88 239.15
  C 187.36 241.94 191.38 240.68 193.10 242.81
  Z
  M 166.48 236.48
  Q 166.18 239.35 166.27 243.21
  Q 166.31 245.00 165.15 245.38
  Q 163.79 245.83 161.27 244.25
  Q 160.95 244.05 160.74 244.36
  Q 160.35 244.95 160.56 245.56
  Q 160.84 246.39 161.67 246.66
  Q 168.23 248.82 168.24 242.43
  Q 168.24 239.03 168.30 234.74
  Q 168.31 234.01 167.58 234.01
  L 162.00 234.00
  A 0.50 0.50 0.0 0 0 161.50 234.50
  L 161.50 234.90
  A 0.66 0.66 0.0 0 0 162.15 235.55
  L 165.74 235.63
  A 0.77 0.76 -86.2 0 1 166.48 236.48
  Z
  M 175.12 239.60
  A 0.30 0.30 0.0 0 1 174.81 239.30
  L 174.75 235.95
  A 0.30 0.30 0.0 0 1 175.05 235.64
  L 181.83 235.69
  A 0.30 0.30 0.0 0 0 182.11 235.50
  L 182.42 234.74
  A 0.30 0.30 0.0 0 0 182.15 234.32
  L 173.20 234.18
  A 0.30 0.30 0.0 0 0 172.90 234.47
  L 172.86 246.82
  A 0.30 0.30 0.0 0 0 173.16 247.12
  L 182.43 247.05
  A 0.30 0.30 0.0 0 0 182.73 246.74
  L 182.67 245.55
  A 0.30 0.30 0.0 0 0 182.37 245.27
  L 175.00 245.29
  A 0.30 0.30 0.0 0 1 174.70 244.97
  L 174.88 241.53
  A 0.30 0.30 0.0 0 1 175.18 241.24
  L 181.12 241.27
  A 0.30 0.30 0.0 0 0 181.42 241.00
  L 181.52 239.90
  A 0.30 0.30 0.0 0 0 181.22 239.57
  L 175.12 239.60
  Z"
/>
<path fill="#46aaa8" d="
  M 201.95 133.26
  A 0.30 0.30 0.0 0 0 201.45 133.23
  L 159.15 187.65
  Q 157.17 190.20 155.20 187.65
  Q 139.06 166.83 122.23 144.86
  C 100.70 116.76 117.83 75.93 153.46 72.92
  Q 169.86 71.53 184.01 81.61
  A 2.14 2.11 -80.2 0 1 184.83 82.79
  Q 185.47 85.23 183.22 85.63
  A 1.72 1.70 -31.2 0 1 181.92 85.32
  Q 175.42 80.43 168.79 78.62
  Q 147.48 72.79 130.62 86.86
  C 117.41 97.88 113.65 117.03 119.78 132.58
  Q 121.95 138.07 130.42 148.82
  Q 144.21 166.31 156.77 182.84
  A 0.50 0.49 -44.7 0 0 157.56 182.84
  L 197.94 131.00
  A 0.58 0.58 0.0 0 0 197.69 130.10
  L 193.72 128.58
  Q 193.12 128.34 193.17 127.70
  Q 193.28 126.26 194.86 126.14
  Q 197.44 125.94 199.98 126.18
  A 1.95 1.93 20.5 0 0 201.75 125.38
  L 206.35 119.04
  Q 207.27 117.78 205.91 117.03
  Q 200.50 114.03 195.34 111.96
  Q 194.19 111.50 194.84 110.44
  C 196.44 107.85 198.13 108.59 200.58 109.16
  Q 201.09 109.28 201.53 109.01
  Q 201.97 108.74 202.36 108.43
  Q 202.74 108.13 203.22 108.15
  Q 203.99 108.17 204.27 108.91
  Q 204.87 110.49 205.88 109.14
  Q 206.22 108.69 206.77 108.66
  Q 207.29 108.62 207.66 109.00
  Q 208.11 109.45 208.34 110.02
  Q 208.55 110.52 209.03 110.77
  Q 210.46 111.48 211.95 111.39
  A 1.25 1.24 -73.3 0 0 212.89 110.88
  C 215.68 107.13 218.67 103.08 223.48 102.05
  Q 224.82 101.77 224.80 103.13
  C 224.76 107.92 221.67 111.44 218.56 114.72
  A 2.48 2.47 -39.2 0 0 218.25 117.73
  Q 219.11 119.09 220.45 119.78
  Q 221.01 120.07 221.17 120.67
  Q 221.36 121.44 221.17 122.19
  Q 221.02 122.78 221.51 123.13
  L 222.38 123.75
  Q 222.89 124.11 222.67 124.69
  Q 221.76 127.04 223.25 129.43
  A 1.64 1.64 0.0 0 1 223.47 130.53
  Q 223.25 131.89 222.21 132.83
  A 1.30 1.30 0.0 0 1 220.23 132.53
  Q 217.14 127.43 213.16 122.95
  Q 212.48 122.19 211.77 122.92
  L 206.09 128.77
  A 1.62 1.60 -28.1 0 0 205.65 130.19
  L 206.72 136.15
  A 1.37 1.37 0.0 0 1 206.14 137.53
  Q 205.02 138.30 204.40 137.32
  Q 203.04 135.16 201.95 133.26
  Z"
/>
<path fill="#563c83" d="
  M 187.51 118.45
  A 30.34 30.34 0.0 0 1 157.17 148.79
  A 30.34 30.34 0.0 0 1 126.83 118.45
  A 30.34 30.34 0.0 0 1 157.17 88.11
  A 30.34 30.34 0.0 0 1 187.51 118.45
  Z
  M 153.34 142.06
  C 146.27 140.60 146.53 135.15 145.53 129.48
  Q 145.42 128.89 144.99 128.48
  C 142.51 126.12 140.24 123.18 140.51 119.60
  A 1.62 1.62 0.0 0 0 138.34 117.96
  Q 133.99 119.55 131.64 116.44
  Q 130.91 115.48 130.88 116.68
  Q 130.57 126.69 136.01 133.91
  C 143.96 144.46 157.71 147.84 169.57 141.58
  Q 174.40 139.04 177.88 134.52
  A 0.41 0.41 0.0 0 0 177.57 133.86
  Q 173.52 133.70 173.55 129.10
  Q 173.58 125.45 173.46 122.18
  Q 173.28 117.38 169.20 118.36
  C 167.82 118.70 166.33 119.41 164.98 118.54
  C 161.95 116.60 162.79 112.09 164.69 109.71
  Q 166.07 107.99 167.04 105.92
  Q 167.23 105.50 167.63 105.25
  L 169.03 104.37
  A 1.19 1.19 0.0 0 0 169.58 103.25
  Q 169.49 102.26 168.92 101.38
  Q 168.36 100.52 168.76 99.58
  Q 168.87 99.30 169.26 99.14
  A 0.49 0.49 0.0 0 1 169.84 99.32
  L 171.03 101.07
  Q 171.58 101.87 172.46 101.47
  Q 172.77 101.33 172.93 100.92
  A 0.71 0.70 -56.7 0 0 172.78 100.18
  Q 171.84 99.22 172.20 98.00
  A 1.38 1.37 24.0 0 0 171.60 96.45
  Q 160.92 89.81 148.68 93.57
  Q 148.56 93.61 148.61 93.72
  L 148.71 93.97
  Q 148.89 94.45 149.34 94.21
  Q 151.41 93.06 154.19 93.11
  A 1.61 1.61 0.0 0 1 155.52 93.87
  Q 156.26 95.06 155.46 96.14
  A 1.29 1.28 -48.9 0 1 153.51 96.28
  Q 152.97 95.72 152.25 95.43
  Q 151.74 95.23 151.26 95.49
  Q 149.21 96.64 147.52 98.45
  Q 147.20 98.79 147.29 99.25
  Q 147.40 99.82 147.92 100.13
  Q 148.46 100.43 148.97 100.09
  L 151.29 98.55
  A 2.08 2.08 0.0 0 1 153.90 98.79
  L 155.11 99.96
  Q 156.27 101.09 154.87 101.91
  Q 152.42 103.35 150.10 104.74
  Q 148.72 105.56 147.77 106.75
  C 145.99 108.97 143.03 108.51 140.48 108.85
  A 1.26 1.26 0.0 0 0 139.57 110.77
  C 141.11 113.25 143.24 115.34 146.28 115.26
  C 149.00 115.20 151.10 115.02 153.74 116.18
  C 158.70 118.36 162.32 121.77 158.34 127.55
  C 156.66 129.97 151.39 135.99 152.90 139.07
  Q 153.38 140.05 154.05 140.92
  Q 155.24 142.45 153.34 142.06
  Z
  M 180.58 107.17
  C 178.96 106.72 177.33 106.89 175.87 105.92
  Q 174.24 104.85 172.44 104.63
  A 1.90 1.88 31.6 0 0 171.19 104.92
  Q 170.66 105.25 170.65 105.90
  Q 170.64 106.00 170.74 105.99
  C 172.74 105.90 174.65 106.03 176.47 106.94
  Q 178.24 107.83 180.62 108.02
  Q 180.68 108.03 180.69 107.97
  L 180.80 107.53
  Q 180.86 107.24 180.58 107.17
  Z"
/>
<path fill="#46aaa8" d="
  M 153.34 142.06
  Q 155.24 142.45 154.05 140.92
  Q 153.38 140.05 152.90 139.07
  C 151.39 135.99 156.66 129.97 158.34 127.55
  C 162.32 121.77 158.70 118.36 153.74 116.18
  C 151.10 115.02 149.00 115.20 146.28 115.26
  C 143.24 115.34 141.11 113.25 139.57 110.77
  A 1.26 1.26 0.0 0 1 140.48 108.85
  C 143.03 108.51 145.99 108.97 147.77 106.75
  Q 148.72 105.56 150.10 104.74
  Q 152.42 103.35 154.87 101.91
  Q 156.27 101.09 155.11 99.96
  L 153.90 98.79
  A 2.08 2.08 0.0 0 0 151.29 98.55
  L 148.97 100.09
  Q 148.46 100.43 147.92 100.13
  Q 147.40 99.82 147.29 99.25
  Q 147.20 98.79 147.52 98.45
  Q 149.21 96.64 151.26 95.49
  Q 151.74 95.23 152.25 95.43
  Q 152.97 95.72 153.51 96.28
  A 1.29 1.28 -48.9 0 0 155.46 96.14
  Q 156.26 95.06 155.52 93.87
  A 1.61 1.61 0.0 0 0 154.19 93.11
  Q 151.41 93.06 149.34 94.21
  Q 148.89 94.45 148.71 93.97
  L 148.61 93.72
  Q 148.56 93.61 148.68 93.57
  Q 160.92 89.81 171.60 96.45
  A 1.38 1.37 24.0 0 1 172.20 98.00
  Q 171.84 99.22 172.78 100.18
  A 0.71 0.70 -56.7 0 1 172.93 100.92
  Q 172.77 101.33 172.46 101.47
  Q 171.58 101.87 171.03 101.07
  L 169.84 99.32
  A 0.49 0.49 0.0 0 0 169.26 99.14
  Q 168.87 99.30 168.76 99.58
  Q 168.36 100.52 168.92 101.38
  Q 169.49 102.26 169.58 103.25
  A 1.19 1.19 0.0 0 1 169.03 104.37
  L 167.63 105.25
  Q 167.23 105.50 167.04 105.92
  Q 166.07 107.99 164.69 109.71
  C 162.79 112.09 161.95 116.60 164.98 118.54
  C 166.33 119.41 167.82 118.70 169.20 118.36
  Q 173.28 117.38 173.46 122.18
  Q 173.58 125.45 173.55 129.10
  Q 173.52 133.70 177.57 133.86
  A 0.41 0.41 0.0 0 1 177.88 134.52
  Q 174.40 139.04 169.57 141.58
  C 157.71 147.84 143.96 144.46 136.01 133.91
  Q 130.57 126.69 130.88 116.68
  Q 130.91 115.48 131.64 116.44
  Q 133.99 119.55 138.34 117.96
  A 1.62 1.62 0.0 0 1 140.51 119.60
  C 140.24 123.18 142.51 126.12 144.99 128.48
  Q 145.42 128.89 145.53 129.48
  C 146.53 135.15 146.27 140.60 153.34 142.06
  Z"
/>
<path fill="#46aaa8" d="
  M 180.58 107.17
  Q 180.86 107.24 180.80 107.53
  L 180.69 107.97
  Q 180.68 108.03 180.62 108.02
  Q 178.24 107.83 176.47 106.94
  C 174.65 106.03 172.74 105.90 170.74 105.99
  Q 170.64 106.00 170.65 105.90
  Q 170.66 105.25 171.19 104.92
  A 1.90 1.88 31.6 0 1 172.44 104.63
  Q 174.24 104.85 175.87 105.92
  C 177.33 106.89 178.96 106.72 180.58 107.17
  Z"
/>
<path fill="#563c83" d="
  M 196.76 223.94
  Q 196.78 224.15 196.74 224.34
  Q 196.60 225.02 195.91 225.03
  L 189.43 225.16
  Q 188.69 225.17 188.69 224.43
  L 188.69 192.25
  Q 188.69 191.95 189.00 191.95
  L 197.01 191.99
  A 0.27 0.26 90.0 0 1 197.27 192.26
  L 197.21 201.87
  Q 197.21 202.61 197.85 202.25
  C 201.52 200.20 205.06 199.79 208.93 201.47
  C 216.50 204.75 217.91 215.32 213.02 221.39
  C 209.27 226.03 202.24 226.82 197.47 223.54
  Q 196.68 223.00 196.76 223.94
  Z
  M 202.0898 218.7296
  A 5.75 5.12 90.7 0 0 207.2796 213.0426
  A 5.75 5.12 90.7 0 0 202.2302 207.2304
  A 5.75 5.12 90.7 0 0 197.0404 212.9174
  A 5.75 5.12 90.7 0 0 202.0898 218.7296
  Z"
/>
<path fill="#563c83" d="
  M 105.26 193.78
  L 113.40 193.92
  A 0.31 0.31 0.0 0 1 113.68 194.35
  L 100.62 224.86
  A 0.31 0.31 0.0 0 1 100.34 225.05
  L 91.94 225.12
  A 0.31 0.31 0.0 0 1 91.65 224.93
  L 78.56 194.34
  A 0.31 0.31 0.0 0 1 78.84 193.90
  L 87.83 193.80
  A 0.31 0.31 0.0 0 1 88.12 193.99
  L 96.16 213.41
  A 0.31 0.31 0.0 0 0 96.73 213.41
  L 104.97 193.97
  A 0.31 0.31 0.0 0 1 105.26 193.78
  Z"
/>
<path fill="#563c83" d="
  M 127.26 222.97
  Q 122.20 227.49 115.36 224.28
  Q 112.36 222.86 111.77 219.56
  C 110.22 210.87 119.63 210.35 126.25 210.81
  Q 127.58 210.91 127.01 209.70
  Q 126.43 208.48 125.34 207.81
  Q 123.95 206.96 122.33 207.00
  Q 119.00 207.07 116.26 208.65
  Q 115.46 209.11 115.05 208.29
  L 112.92 204.01
  A 1.01 1.01 0.0 0 1 113.41 202.63
  C 121.78 198.96 135.57 198.66 135.71 211.35
  Q 135.78 218.01 135.71 224.51
  Q 135.71 225.13 135.09 225.13
  L 128.32 225.10
  Q 127.79 225.10 127.78 224.57
  L 127.78 223.20
  Q 127.78 222.50 127.26 222.97
  Z
  M 125.97 215.04
  L 120.40 215.82
  A 0.91 0.91 0.0 0 0 119.63 216.85
  L 119.68 217.22
  A 3.60 3.38 -8.0 0 0 123.72 220.06
  L 123.95 220.03
  A 3.60 3.38 -8.0 0 0 127.05 216.18
  L 127.00 215.82
  A 0.91 0.91 0.0 0 0 125.97 215.04
  Z"
/>
<path fill="#563c83" d="
  M 149.12 203.13
  Q 152.04 200.49 156.09 200.47
  Q 156.82 200.46 156.82 201.20
  L 156.75 207.52
  Q 156.75 208.29 155.98 208.20
  Q 149.12 207.38 149.08 214.11
  Q 149.05 218.81 149.11 224.70
  Q 149.11 225.06 148.75 225.07
  L 140.87 225.17
  A 0.38 0.38 0.0 0 1 140.49 224.79
  L 140.49 201.52
  Q 140.49 200.78 141.23 200.79
  L 148.03 200.83
  Q 148.71 200.84 148.67 201.52
  L 148.57 202.86
  A 0.33 0.33 0.0 0 0 149.12 203.13
  Z"
/>
<path fill="#563c83" d="
  M 185.4499 212.9218
  A 13.80 12.66 -0.2 0 1 171.6942 225.6299
  A 13.80 12.66 -0.2 0 1 157.8501 213.0182
  A 13.80 12.66 -0.2 0 1 171.6058 200.3101
  A 13.80 12.66 -0.2 0 1 185.4499 212.9218
  Z
  M 171.5396 218.7391
  A 5.75 5.12 91.0 0 0 176.7592 213.0794
  A 5.75 5.12 91.0 0 0 171.7404 207.2409
  A 5.75 5.12 91.0 0 0 166.5208 212.9006
  A 5.75 5.12 91.0 0 0 171.5396 218.7391
  Z"
/>
<path fill="#563c83" d="
  M 232.94 222.79
  C 232.15 223.56 231.47 224.49 230.37 224.85
  C 225.35 226.49 218.07 225.21 217.36 218.93
  C 216.39 210.33 226.44 210.61 231.92 210.73
  Q 233.81 210.77 232.60 209.32
  L 232.06 208.67
  A 4.51 4.48 -17.9 0 0 228.87 207.05
  Q 225.02 206.83 221.82 208.77
  A 0.69 0.69 0.0 0 1 220.84 208.48
  L 218.48 203.72
  A 0.66 0.66 0.0 0 1 218.79 202.82
  C 227.02 198.96 241.05 198.47 241.39 211.14
  Q 241.57 217.61 241.42 224.70
  A 0.37 0.36 -89.2 0 1 241.06 225.06
  L 234.08 225.14
  Q 233.51 225.15 233.50 224.58
  L 233.48 223.01
  Q 233.47 222.27 232.94 222.79
  Z
  M 231.72 215.05
  L 226.12 215.84
  A 0.89 0.89 0.0 0 0 225.36 216.84
  L 225.42 217.30
  A 3.58 3.25 -8.0 0 0 229.42 220.02
  L 229.70 219.98
  A 3.58 3.25 -8.0 0 0 232.79 216.26
  L 232.73 215.81
  A 0.89 0.89 0.0 0 0 231.72 215.05
  Z"
/>
<ellipse fill="#ffffff" cx="0.00" cy="0.00" transform="translate(171.64,212.99) rotate(91.0)" rx="5.75" ry="5.12"/>
<ellipse fill="#ffffff" cx="0.00" cy="0.00" transform="translate(202.16,212.98) rotate(90.7)" rx="5.75" ry="5.12"/>
<path fill="#ffffff" d="
  M 125.97 215.04
  A 0.91 0.91 0.0 0 1 127.00 215.82
  L 127.05 216.18
  A 3.60 3.38 -8.0 0 1 123.95 220.03
  L 123.72 220.06
  A 3.60 3.38 -8.0 0 1 119.68 217.22
  L 119.63 216.85
  A 0.91 0.91 0.0 0 1 120.40 215.82
  L 125.97 215.04
  Z"
/>
<path fill="#ffffff" d="
  M 231.72 215.05
  A 0.89 0.89 0.0 0 1 232.73 215.81
  L 232.79 216.26
  A 3.58 3.25 -8.0 0 1 229.70 219.98
  L 229.42 220.02
  A 3.58 3.25 -8.0 0 1 225.42 217.30
  L 225.36 216.84
  A 0.89 0.89 0.0 0 1 226.12 215.84
  L 231.72 215.05
  Z"
/>
<path fill="#46aaa8" d="
  M 131.56 244.03
  Q 131.84 244.68 132.13 244.03
  L 136.34 234.31
  A 0.94 0.92 14.6 0 1 137.29 233.76
  L 137.77 233.81
  A 0.54 0.54 0.0 0 1 138.20 234.57
  L 132.87 246.67
  A 0.98 0.97 25.1 0 1 131.54 247.15
  Q 130.69 246.73 130.30 245.84
  Q 127.81 240.17 125.41 234.59
  A 0.54 0.53 -24.1 0 1 125.68 233.89
  L 126.01 233.74
  Q 126.90 233.33 127.30 234.23
  L 131.56 244.03
  Z"
/>
<rect fill="#46aaa8" x="-0.99" y="-6.66" transform="translate(141.90,240.52) rotate(0.3)" width="1.98" height="13.32" rx="0.89"/>
<path fill="#46aaa8" d="
  M 155.38 243.91
  L 149.73 243.79
  Q 149.11 243.78 148.92 244.37
  Q 148.43 245.87 148.05 246.19
  Q 144.99 248.75 146.58 245.08
  Q 148.71 240.20 150.81 235.56
  Q 151.20 234.70 151.83 234.16
  A 1.23 1.22 57.3 0 1 153.75 234.58
  L 159.11 246.32
  Q 159.37 246.89 158.76 247.01
  L 158.40 247.08
  A 1.19 1.19 0.0 0 1 157.08 246.42
  L 156.11 244.39
  Q 155.89 243.92 155.38 243.91
  Z
  M 150.05 241.73
  A 0.32 0.32 0.0 0 0 150.35 242.17
  L 154.68 242.13
  A 0.32 0.32 0.0 0 0 154.96 241.68
  L 152.75 236.68
  A 0.32 0.32 0.0 0 0 152.16 236.69
  L 150.05 241.73
  Z"
/>
<path fill="#46aaa8" d="
  M 193.10 242.81
  C 191.38 240.68 187.36 241.94 185.88 239.15
  C 185.09 237.66 185.30 235.61 186.90 234.72
  Q 190.01 232.99 194.06 234.59
  A 0.86 0.86 0.0 0 1 194.55 235.69
  L 194.44 235.99
  A 0.49 0.49 0.0 0 1 193.77 236.26
  Q 190.93 234.93 188.25 235.99
  A 1.50 1.50 0.0 0 0 187.63 238.33
  Q 188.06 238.86 188.77 239.11
  C 191.10 239.94 196.24 240.37 195.04 244.32
  C 193.86 248.17 188.48 247.50 185.60 245.95
  A 0.89 0.89 0.0 0 1 185.21 244.81
  L 185.35 244.50
  A 0.37 0.37 0.0 0 1 185.87 244.33
  Q 189.06 246.18 192.42 245.09
  A 1.45 1.45 0.0 0 0 193.10 242.81
  Z"
/>
<path fill="#46aaa8" d="
  M 165.74 235.63
  L 162.15 235.55
  A 0.66 0.66 0.0 0 1 161.50 234.90
  L 161.50 234.50
  A 0.50 0.50 0.0 0 1 162.00 234.00
  L 167.58 234.01
  Q 168.31 234.01 168.30 234.74
  Q 168.24 239.03 168.24 242.43
  Q 168.23 248.82 161.67 246.66
  Q 160.84 246.39 160.56 245.56
  Q 160.35 244.95 160.74 244.36
  Q 160.95 244.05 161.27 244.25
  Q 163.79 245.83 165.15 245.38
  Q 166.31 245.00 166.27 243.21
  Q 166.18 239.35 166.48 236.48
  A 0.77 0.76 -86.2 0 0 165.74 235.63
  Z"
/>
<path fill="#46aaa8" d="
  M 175.12 239.60
  L 181.22 239.57
  A 0.30 0.30 0.0 0 1 181.52 239.90
  L 181.42 241.00
  A 0.30 0.30 0.0 0 1 181.12 241.27
  L 175.18 241.24
  A 0.30 0.30 0.0 0 0 174.88 241.53
  L 174.70 244.97
  A 0.30 0.30 0.0 0 0 175.00 245.29
  L 182.37 245.27
  A 0.30 0.30 0.0 0 1 182.67 245.55
  L 182.73 246.74
  A 0.30 0.30 0.0 0 1 182.43 247.05
  L 173.16 247.12
  A 0.30 0.30 0.0 0 1 172.86 246.82
  L 172.90 234.47
  A 0.30 0.30 0.0 0 1 173.20 234.18
  L 182.15 234.32
  A 0.30 0.30 0.0 0 1 182.42 234.74
  L 182.11 235.50
  A 0.30 0.30 0.0 0 1 181.83 235.69
  L 175.05 235.64
  A 0.30 0.30 0.0 0 0 174.75 235.95
  L 174.81 239.30
  A 0.30 0.30 0.0 0 0 175.12 239.60
  Z"
/>
<path fill="#ffffff" d="
  M 150.05 241.73
  L 152.16 236.69
  A 0.32 0.32 0.0 0 1 152.75 236.68
  L 154.96 241.68
  A 0.32 0.32 0.0 0 1 154.68 242.13
  L 150.35 242.17
  A 0.32 0.32 0.0 0 1 150.05 241.73
  Z"
/>
</svg>
