<svg xmlns="http://www.w3.org/2000/svg" width="382.667" height="256" version="1.0" viewBox="0 0 287 192"><path d="m153.8 28.8-5.8 2.7 2.9 4.3c3.3 4.8 7.9 16.1 8.7 21.3.4 2.4-2.2 14.1-8.5 38.4-5 19.2-9.4 38.1-9.7 42-.6 6.2-.4 7.2 1.4 8.8 1.3 1.2 3.6 1.9 6.5 1.9 4.6 0 13-2.1 12.4-3.1-2.8-4.9-3.8-8.8-3.2-12.5 1.6-10.3 8.6-49.3 9.1-50.6.3-.8 2.2 3.4 4.2 9.5 4.2 12.6 7.7 19 13.9 25.6 8.4 9 17.4 8.3 28.1-2 9.2-8.9 17.5-22.5 23.3-38.1 1.5-4.1 2.8-6.7 2.9-5.7 0 .9-1.4 15.8-3.1 32.9-3.4 34.1-3.3 41.4.5 47 3 4.6 8.8 5 15.2 1.3 2.5-1.5 4.4-3 4.2-3.3-2.5-4.5-4.1-9.5-4.5-13.6-.5-5.3 3.4-46 6.8-71.5 2.5-18.6 2.5-22.5-.1-25.1-2.3-2.3-7.6-2.6-14.3-.9l-4.2 1-2.2 8.9c-4.6 19.1-24.3 51.3-34.5 56.6-3.4 1.8-5.6.8-9.3-4-4.8-6.3-8.1-15.3-23.8-64.5-1.4-4.2-6.8-10.1-9.3-10.1-1.1 0-4.5 1.2-7.6 2.8zM65.5 37.6c-14.7 3.7-19 5.1-26 8.4-4.5 2.2-10.5 5.7-13.2 7.9-8.7 6.8-11.8 17.1-7 22.7l2.4 2.7 2.2-3.6c3.8-6.2 14.7-15.3 23.4-19.6 20.2-9.9 41.7-10 50.1 0 2.5 2.9 2.8 3.9 2.3 8.1-.3 2.6-1.3 6-2.1 7.7-4 7.6-14.7 14.1-23.4 14.1-6.8 0-10.6 2.2-13.2 7.5-3.4 7.2-3.2 8 2.4 8.1l4.9.1 6.6 12.9c3.6 7.1 8 15 9.8 17.5 5.9 8.5 13.8 13.9 20 13.9 8.7-.1 21.3-11.7 21.3-19.8 0-3.9-1-4-5.2-.3-9 7.8-14.7 6.6-23.1-4.8C93 114.8 84 98.1 84 95.8c0-.7 3.2-2.9 7.2-4.8 10-4.9 18.2-11.1 21.2-16.2 8.3-14.3 3.9-29.4-10.2-34.9-4.8-1.9-8-2.3-20.2-2.5-8-.2-15.4 0-16.5.2z"/><path d="M49.5 59.1c-3.3 1.2-6.1 2.2-6.3 2.3-.1.2.2 1.6.8 3.2.8 2.3-.6 11.1-7.5 45.3-6.2 31.1-8.1 42.9-7.4 44.3 1.3 2.4 7.7 2.3 13.9-.1 4-1.5 4.5-2 4.2-4.4-.1-1.5 3.3-20.9 7.8-43.1 4.4-22.1 8-41.7 8-43.4 0-2.1-.7-3.6-2.2-4.6-2.9-2-4-2-11.3.5z"/>
    <style>
        path { fill: #000; }
        @media (prefers-color-scheme: dark) {
            path { fill: #FFF; }
        }
    </style>
</svg>
