<?xml version="1.0" encoding="UTF-8" standalone="no"?>
<!DOCTYPE svg PUBLIC "-//W3C//DTD SVG 1.1//EN" "http://www.w3.org/Graphics/SVG/1.1/DTD/svg11.dtd">
<svg xmlns="http://www.w3.org/2000/svg" version="1.1" viewBox="0.00 0.00 150.00 150.00">
<g stroke-width="2.00" fill="none" stroke-linecap="butt">
<path stroke="#fbd3de" vector-effect="non-scaling-stroke" d="
  M 13.36 0.00
  Q 10.82 0.68 9.92 3.69
  C 6.73 14.29 23.08 16.62 23.63 5.75
  Q 23.82 1.77 20.24 0.00"
/>
<path stroke="#fbd3de" vector-effect="non-scaling-stroke" d="
  M 114.31 0.00
  Q 110.66 0.96 110.44 4.77
  C 109.80 15.88 125.88 14.91 124.67 4.97
  Q 124.26 1.59 121.39 0.00"
/>
<path stroke="#db7f86" vector-effect="non-scaling-stroke" d="
  M 60.86 50.44
  L 58.29 56.92
  Q 58.06 57.50 57.43 57.50
  C 53.69 57.54 53.38 63.32 53.95 65.77
  Q 54.21 66.88 53.75 68.10
  Q 52.66 71.03 49.48 71.15"
/>
<path stroke="#9a676c" vector-effect="non-scaling-stroke" d="
  M 49.48 71.15
  C 52.05 63.84 55.86 55.59 55.66 48.14
  Q 55.57 45.02 52.16 44.20"
/>
<path stroke="#db7f86" vector-effect="non-scaling-stroke" d="
  M 52.16 44.20
  Q 49.96 42.77 47.46 43.30
  Q 45.71 43.68 44.66 44.85
  Q 35.00 55.65 26.55 65.99
  Q 26.18 66.44 25.69 66.13
  Q 23.02 64.42 20.28 65.82
  Q 18.72 66.62 18.29 68.81
  Q 17.97 70.44 18.02 72.52"
/>
<path stroke="#9a676c" vector-effect="non-scaling-stroke" d="
  M 18.02 72.52
  Q 16.24 70.44 15.05 69.91"
/>
<path stroke="#db7f86" vector-effect="non-scaling-stroke" d="
  M 15.05 69.91
  Q 13.15 69.53 11.32 70.89
  Q 7.06 74.05 10.20 78.23
  Q 11.66 80.18 14.72 82.89"
/>
<path stroke="#fbd3de" vector-effect="non-scaling-stroke" d="
  M 14.72 82.89
  Q 13.68 83.42 12.57 83.81
  Q 11.16 84.29 10.65 85.00
  C 8.82 87.51 9.13 91.54 10.69 93.93
  Q 12.24 96.31 15.65 96.53
  Q 22.30 96.95 23.51 89.53
  Q 23.93 87.01 22.01 84.28"
/>
<path stroke="#9a676c" vector-effect="non-scaling-stroke" d="
  M 22.01 84.28
  Q 25.58 83.54 27.75 80.32"
/>
<path stroke="#db7f86" vector-effect="non-scaling-stroke" d="
  M 27.75 80.32
  Q 28.13 79.93 28.51 79.98
  Q 31.47 80.36 34.50 82.10
  Q 34.94 82.35 35.01 82.86
  C 35.56 86.94 40.37 86.50 43.09 85.57"
/>
<path stroke="#9a676c" vector-effect="non-scaling-stroke" d="
  M 43.09 85.57
  Q 44.03 85.55 44.70 85.27
  Q 45.17 85.07 45.33 84.59
  L 46.72 80.41"
/>
<path stroke="#db7f86" vector-effect="non-scaling-stroke" d="
  M 46.72 80.41
  L 51.87 79.09
  A 0.72 0.72 0.0 0 1 52.77 79.85
  Q 52.59 81.75 53.53 83.86
  Q 53.74 84.33 54.21 84.53
  Q 56.88 85.70 59.26 84.05"
/>
<path stroke="#9a676c" vector-effect="non-scaling-stroke" d="
  M 59.26 84.05
  Q 62.48 82.90 65.04 80.70"
/>
<path stroke="#db7f86" vector-effect="non-scaling-stroke" d="
  M 65.04 80.70
  Q 65.56 80.66 65.45 80.53"
/>
<path stroke="#e3939b" vector-effect="non-scaling-stroke" d="
  M 65.45 80.53
  Q 66.57 80.40 66.79 81.24
  Q 67.33 83.38 68.00 85.30
  A 1.82 1.81 76.2 0 0 69.99 86.51
  Q 72.59 86.12 72.72 85.58"
/>
<path stroke="#9a676c" vector-effect="non-scaling-stroke" d="
  M 72.72 85.58
  L 80.47 80.98"
/>
<path stroke="#e3939b" vector-effect="non-scaling-stroke" d="
  M 80.47 80.98
  L 80.87 81.26
  Q 81.26 81.53 81.38 81.99
  C 81.91 83.91 82.41 85.52 83.78 87.10
  Q 84.79 88.26 85.88 89.36"
/>
<path stroke="#826970" vector-effect="non-scaling-stroke" d="
  M 85.88 89.36
  Q 84.50 92.50 84.28 96.26
  Q 84.22 97.30 83.43 97.98
  Q 83.06 98.30 83.39 98.67
  Q 83.91 99.24 84.71 99.12
  Q 85.31 99.03 85.58 98.49
  C 86.58 96.53 87.73 95.18 86.56 92.79
  Q 86.12 91.89 86.36 90.80
  Q 86.57 89.84 86.73 90.81
  Q 87.36 94.69 87.73 98.80
  A 0.97 0.97 0.0 0 0 89.05 99.61
  C 90.59 99.01 91.62 100.09 93.17 100.05
  C 96.89 99.95 99.64 97.58 98.88 93.50
  C 98.17 89.65 95.27 88.84 91.82 89.35
  Q 91.13 89.46 91.17 90.15
  L 91.63 98.66
  A 0.23 0.23 0.0 0 1 91.31 98.89
  L 90.88 98.70
  A 0.90 0.87 -86.0 0 1 90.38 98.11
  L 88.16 89.18"
/>
<path stroke="#e3939b" vector-effect="non-scaling-stroke" d="
  M 88.16 89.18
  Q 88.11 89.01 88.25 88.77
  Q 88.41 88.48 88.74 88.39
  Q 95.40 86.77 101.71 83.26
  A 2.19 2.19 0.0 0 1 104.73 84.20
  C 105.48 85.72 106.16 87.41 107.24 88.59
  C 111.13 92.87 115.97 91.42 120.12 88.46
  Q 120.53 88.16 121.04 88.18
  Q 122.21 88.23 123.52 88.82"
/>
<path stroke="#db7f86" vector-effect="non-scaling-stroke" d="
  M 123.52 88.82
  Q 127.66 93.67 133.01 89.47
  Q 134.75 88.11 140.65 81.91
  Q 142.72 79.73 141.73 76.89
  L 141.22 75.44
  Q 140.23 72.62 138.05 74.65
  L 133.62 78.75
  A 1.91 1.91 0.0 0 1 130.71 78.36
  Q 129.45 76.36 130.28 73.60
  Q 131.62 69.13 133.18 64.91
  A 3.48 3.48 0.0 0 0 131.32 60.51
  C 126.83 58.54 123.86 54.50 118.41 57.64
  Q 115.39 59.39 113.49 60.84"
/>
<path stroke="#e3939b" vector-effect="non-scaling-stroke" d="
  M 113.49 60.84
  Q 107.91 63.56 104.97 69.18
  C 104.23 70.60 103.86 72.33 102.30 73.29
  Q 98.18 75.81 91.92 78.37"
/>
<path stroke="#9a676c" vector-effect="non-scaling-stroke" d="
  M 91.92 78.37
  Q 91.66 77.71 91.76 77.48
  Q 94.77 70.77 98.27 64.30
  Q 100.91 59.43 101.73 55.76
  Q 103.59 47.47 98.07 42.88"
/>
<path stroke="#e3939b" vector-effect="non-scaling-stroke" d="
  M 98.07 42.88
  Q 95.97 41.57 93.50 43.29
  Q 92.18 44.22 91.25 45.50
  Q 88.18 49.73 86.15 53.93
  Q 83.59 59.25 81.59 69.46
  C 81.05 72.25 77.83 73.23 75.56 74.27"
/>
<path stroke="#9a676c" vector-effect="non-scaling-stroke" d="
  M 75.56 74.27
  C 75.20 71.07 77.18 69.06 78.12 67.10
  Q 79.31 64.60 79.46 61.63
  Q 79.49 61.06 79.13 60.64
  Q 78.78 60.23 78.27 60.00
  Q 76.42 59.14 78.33 58.47
  Q 86.72 55.52 80.66 49.13"
/>
<path stroke="#e3939b" vector-effect="non-scaling-stroke" d="
  M 80.66 49.13
  Q 77.07 47.75 74.86 50.63
  Q 72.86 53.24 73.90 57.52
  Q 74.01 57.99 73.53 57.98
  Q 71.70 57.95 70.80 59.73
  Q 68.40 64.52 67.24 69.02
  Q 66.63 71.41 63.72 72.62"
/>
<path stroke="#db7f86" vector-effect="non-scaling-stroke" d="
  M 63.72 72.62
  Q 62.41 74.12 60.97 74.42"
/>
<path stroke="#9a676c" vector-effect="non-scaling-stroke" d="
  M 60.97 74.42
  L 62.72 68.61
  Q 62.86 68.13 63.31 67.89
  Q 64.21 67.43 65.17 67.47
  A 1.27 1.27 0.0 0 0 66.33 66.85
  Q 67.60 64.71 67.56 61.67
  Q 67.56 61.02 66.95 60.79
  Q 66.60 60.66 66.32 60.40
  Q 65.90 60.03 66.16 59.53
  C 67.41 57.06 68.42 55.49 68.30 52.28"
/>
<path stroke="#fbd3de" vector-effect="non-scaling-stroke" d="
  M 68.30 52.28
  Q 68.30 54.18 69.49 53.92
  Q 70.75 53.63 73.10 51.97
  A 1.24 1.22 77.8 0 0 73.60 51.18
  Q 74.02 48.62 73.78 45.56
  C 73.60 43.26 71.46 41.80 69.54 40.96
  Q 67.44 40.05 64.63 41.04
  Q 58.41 43.23 60.86 50.44"
/>
<path stroke="#9e7676" vector-effect="non-scaling-stroke" d="
  M 68.30 52.28
  Q 67.48 51.39 66.54 51.23"
/>
<path stroke="#df8d91" vector-effect="non-scaling-stroke" d="
  M 66.54 51.23
  Q 63.66 49.37 60.86 50.44"
/>
<path stroke="#7e221f" vector-effect="non-scaling-stroke" d="
  M 52.16 44.20
  Q 54.24 46.91 54.01 49.00
  C 53.66 51.97 53.17 55.13 52.20 57.92
  Q 50.02 64.23 47.34 71.61
  A 0.47 0.47 0.0 0 0 47.69 72.23
  Q 48.44 72.39 49.48 71.15"
/>
<path stroke="#7e221f" vector-effect="non-scaling-stroke" d="
  M 66.54 51.23
  Q 66.22 51.08 66.05 51.21
  Q 65.72 51.45 65.98 51.76
  C 67.50 53.57 65.50 57.32 64.45 58.95
  A 1.24 1.24 0.0 0 0 64.94 60.73
  Q 65.30 60.92 65.58 61.22
  Q 66.01 61.69 65.86 62.32
  C 65.35 64.37 65.47 67.58 62.23 67.23
  A 1.15 1.15 0.0 0 0 61.01 68.03
  L 59.12 74.18
  A 0.85 0.85 0.0 0 0 60.08 75.27
  Q 61.24 75.07 60.97 74.42"
/>
<path stroke="#7e221f" vector-effect="non-scaling-stroke" d="
  M 65.04 80.70
  Q 65.14 80.56 65.09 80.40
  Q 64.98 80.08 64.67 80.20
  Q 61.44 81.41 59.26 84.05"
/>
<path stroke="#7e221f" vector-effect="non-scaling-stroke" d="
  M 46.72 80.41
  Q 46.82 79.07 44.58 80.52
  Q 44.18 80.78 44.07 81.24
  L 43.09 85.57"
/>
<path stroke="#7e221f" vector-effect="non-scaling-stroke" d="
  M 27.75 80.32
  Q 27.65 79.61 27.44 79.52
  A 1.53 1.47 -62.6 0 0 25.65 80.13
  Q 22.60 84.80 16.99 83.77
  Q 16.73 83.72 16.61 83.95
  Q 16.52 84.09 16.54 84.19"
/>
<path stroke="#df8d91" vector-effect="non-scaling-stroke" d="
  M 16.54 84.19
  Q 15.52 83.81 14.72 82.89"
/>
<path stroke="#7e221f" vector-effect="non-scaling-stroke" d="
  M 15.05 69.91
  Q 14.20 69.77 13.71 69.98
  Q 13.19 70.21 13.60 70.62
  Q 15.83 72.84 17.91 74.51
  Q 18.38 74.88 18.89 74.56
  Q 19.36 74.26 19.02 73.82
  L 18.02 72.52"
/>
<path stroke="#863633" vector-effect="non-scaling-stroke" d="
  M 98.07 42.88
  Q 102.33 50.52 99.57 58.02
  Q 97.61 63.35 94.84 68.11
  C 93.12 71.06 91.82 74.17 90.35 77.22
  Q 90.00 77.95 90.30 78.71
  A 0.76 0.76 0.0 0 0 91.56 78.94
  Q 91.89 78.58 91.92 78.37"
/>
<path stroke="#c74d4e" vector-effect="non-scaling-stroke" d="
  M 113.49 60.84
  Q 115.52 60.08 118.29 58.31
  C 122.94 55.34 127.08 59.12 131.04 61.17
  A 2.63 2.62 -67.1 0 1 132.32 64.34
  Q 130.84 68.77 129.31 73.52
  Q 128.37 76.45 129.68 78.87
  A 2.36 2.35 -26.9 0 0 132.77 79.87
  Q 134.26 79.15 138.10 75.58
  Q 139.94 73.87 140.60 76.30
  L 140.94 77.53
  Q 141.64 80.10 139.84 82.06
  Q 134.74 87.57 131.53 89.84
  Q 128.18 92.20 123.52 88.82"
/>
<path stroke="#6d3838" vector-effect="non-scaling-stroke" d="
  M 88.16 89.18
  Q 87.99 88.52 85.88 89.36"
/>
<path stroke="#863633" vector-effect="non-scaling-stroke" d="
  M 80.47 80.98
  Q 80.41 80.88 80.38 80.73
  Q 80.35 80.58 80.19 80.59
  Q 78.83 80.67 77.27 81.81
  Q 74.30 83.97 72.72 85.58"
/>
<path stroke="#c74d4e" vector-effect="non-scaling-stroke" d="
  M 65.45 80.53
  Q 65.68 79.97 65.49 79.75
  Q 63.29 77.28 64.65 73.46
  Q 64.91 72.72 64.13 72.66
  L 63.72 72.62"
/>
<path stroke="#863633" vector-effect="non-scaling-stroke" d="
  M 80.66 49.13
  Q 82.35 56.11 77.54 57.73
  A 0.56 0.55 84.4 0 0 77.16 58.20
  L 77.12 58.52
  Q 77.00 59.51 76.26 58.84
  Q 76.05 58.64 75.83 58.58
  Q 74.18 58.09 75.59 59.07
  Q 78.11 60.81 77.80 62.77
  Q 77.23 66.31 74.87 69.66
  C 73.93 71.00 73.66 72.69 73.79 74.30
  A 0.92 0.91 -82.4 0 0 74.38 75.08
  Q 75.69 75.59 75.56 74.27"
/>
<path stroke="#9e7676" vector-effect="non-scaling-stroke" d="
  M 22.01 84.28
  Q 18.83 84.89 16.54 84.19"
/>
<path stroke="#826970" vector-effect="non-scaling-stroke" d="
  M 59.85 87.96
  L 59.79 95.96
  A 0.74 0.74 0.0 0 0 60.53 96.71
  L 62.74 96.73
  A 4.49 4.29 -89.6 0 0 67.06 92.27
  L 67.06 91.77
  A 4.49 4.29 -89.6 0 0 62.80 87.25
  L 60.59 87.23
  A 0.74 0.74 0.0 0 0 59.85 87.96"
/>
<path stroke="#826970" vector-effect="non-scaling-stroke" d="
  M 70.7536 97.6844
  A 4.99 4.47 99.3 0 0 75.9712 93.4824
  A 4.99 4.47 99.3 0 0 72.3664 87.8356
  A 4.99 4.47 99.3 0 0 67.1488 92.0376
  A 4.99 4.47 99.3 0 0 70.7536 97.6844"
/>
<path stroke="#826970" vector-effect="non-scaling-stroke" d="
  M 80.26 93.81
  Q 80.54 93.05 80.61 92.28
  Q 80.67 91.70 80.34 91.23
  Q 79.63 90.22 79.25 88.93
  Q 79.09 88.40 78.55 88.25
  Q 77.73 88.03 76.95 88.36
  Q 76.40 88.59 76.45 89.19
  Q 76.83 93.55 76.39 97.76
  A 0.71 0.70 -1.6 0 0 77.21 98.53
  L 78.23 98.36
  A 1.66 1.65 -4.1 0 0 79.61 96.78
  L 79.65 95.22
  Q 79.66 94.84 80.03 94.79
  Q 80.19 94.77 80.29 94.88
  Q 80.43 95.03 80.45 95.24
  Q 80.54 96.75 80.31 98.15
  Q 80.18 98.97 81.00 98.86
  L 82.20 98.71
  Q 82.99 98.61 82.99 97.81
  L 82.99 89.29
  A 0.87 0.86 -86.2 0 0 82.24 88.43
  Q 81.69 88.36 81.11 88.51
  A 0.94 0.94 0.0 0 0 80.48 89.77
  Q 81.27 91.72 80.78 93.78
  Q 80.74 93.96 80.56 93.93
  L 80.30 93.88
  A 0.05 0.05 0.0 0 1 80.26 93.81"
/>
<path stroke="#826970" vector-effect="non-scaling-stroke" d="
  M 103.8215 100.9481
  A 5.53 4.97 103.9 0 0 109.9745 96.7739
  A 5.53 4.97 103.9 0 0 106.4785 90.2119
  A 5.53 4.97 103.9 0 0 100.3255 94.3861
  A 5.53 4.97 103.9 0 0 103.8215 100.9481"
/>
<path stroke="#957a7f" vector-effect="non-scaling-stroke" d="
  M 120.61 99.86
  Q 120.59 99.79 120.66 99.76
  Q 123.17 98.56 124.96 96.80
  C 128.92 92.92 121.30 87.59 118.65 94.14
  Q 118.29 95.02 119.25 95.02
  Q 119.44 95.02 119.60 94.97
  A 1.37 1.34 87.9 0 0 120.52 93.96
  Q 120.69 93.19 121.28 92.82
  Q 121.68 92.57 122.13 92.73
  Q 123.07 93.05 123.78 93.77
  A 1.75 1.74 56.8 0 1 123.19 96.62
  Q 119.26 98.18 118.52 101.95
  Q 118.41 102.52 118.99 102.57
  L 125.31 103.09
  Q 126.01 103.15 126.01 102.45
  L 126.01 101.86
  Q 126.01 100.97 125.12 100.90
  L 121.22 100.61
  Q 120.76 100.57 120.66 100.12
  L 120.61 99.86"
/>
<path stroke="#957a7f" vector-effect="non-scaling-stroke" d="
  M 134.16 97.33
  Q 134.25 97.31 134.34 97.27
  Q 134.87 97.05 135.16 96.55
  Q 136.85 93.67 134.06 92.18
  Q 130.92 90.52 128.99 94.56
  A 0.60 0.59 20.9 0 0 129.36 95.38
  L 129.70 95.48
  Q 130.27 95.64 130.42 95.06
  Q 131.04 92.65 133.56 93.90
  A 1.45 1.45 0.0 0 1 134.29 94.77
  Q 134.58 95.74 133.86 96.35
  A 1.36 1.36 0.0 0 1 132.77 96.67
  L 131.97 96.55
  Q 130.94 96.40 130.84 97.44
  Q 130.78 98.01 131.28 98.47
  A 0.97 0.94 -25.6 0 0 131.99 98.71
  Q 133.33 98.62 134.20 99.63
  A 1.26 1.26 0.0 0 1 134.04 101.44
  C 132.68 102.53 131.08 101.10 130.17 100.10
  Q 129.89 99.80 129.43 99.71
  Q 129.14 99.66 128.86 99.87
  A 0.50 0.48 -26.3 0 0 128.68 100.38
  Q 129.60 104.17 133.05 103.74
  C 135.65 103.42 137.78 98.52 134.16 97.65
  Q 133.54 97.50 134.16 97.33"
/>
<path stroke="#fbd3de" vector-effect="non-scaling-stroke" d="
  M 74.19 131.33
  A 7.09 7.09 0.0 0 0 67.10 124.24
  A 7.09 7.09 0.0 0 0 60.01 131.33
  A 7.09 7.09 0.0 0 0 67.10 138.42
  A 7.09 7.09 0.0 0 0 74.19 131.33"
/>
<path stroke="#863633" vector-effect="non-scaling-stroke" d="
  M 90.4147 61.5552
  A 4.38 0.89 111.5 0 0 92.8481 57.8062
  A 4.38 0.89 111.5 0 0 93.6253 53.4048
  A 4.38 0.89 111.5 0 0 91.1919 57.1538
  A 4.38 0.89 111.5 0 0 90.4147 61.5552"
/>
<path stroke="#863633" vector-effect="non-scaling-stroke" d="
  M 116.97 79.89
  C 119.34 77.60 121.35 74.18 120.83 70.73
  Q 120.72 69.99 120.02 69.75
  C 118.25 69.13 116.24 69.18 115.25 71.05
  C 114.18 73.06 112.19 77.10 113.21 79.23
  A 2.36 2.35 -35.0 0 0 116.97 79.89"
/>
<path stroke="#db7f86" vector-effect="non-scaling-stroke" d="
  M 36.21 71.79
  Q 37.13 71.71 37.79 70.25
  Q 39.33 66.82 39.46 65.00"
/>
<path stroke="#7e221f" vector-effect="non-scaling-stroke" d="
  M 39.46 65.00
  Q 41.02 62.74 41.20 61.13
  Q 41.37 59.52 40.37 60.80
  L 32.68 70.69
  Q 32.14 71.38 32.94 71.72
  Q 34.49 72.38 36.04 72.48
  Q 36.51 72.51 36.33 72.08
  L 36.21 71.79"
/>
<path stroke="#9a676c" vector-effect="non-scaling-stroke" d="
  M 39.46 65.00
  L 35.15 70.59
  A 0.57 0.56 42.0 0 0 35.19 71.32
  Q 35.52 71.66 36.21 71.79"
/>
<path stroke="#9a676c" vector-effect="non-scaling-stroke" d="
  M 115.0298 79.8465
  A 5.50 2.37 112.9 0 0 119.3532 75.7022
  A 5.50 2.37 112.9 0 0 119.3102 69.7135
  A 5.50 2.37 112.9 0 0 114.9868 73.8578
  A 5.50 2.37 112.9 0 0 115.0298 79.8465"
/>
<path stroke="#826970" vector-effect="non-scaling-stroke" d="
  M 62.46 88.77
  L 62.74 95.46
  A 0.05 0.05 0.0 0 0 62.79 95.51
  L 62.84 95.51
  A 3.31 1.68 87.6 0 0 64.38 92.13
  L 64.38 91.95
  A 3.31 1.68 87.6 0 0 62.56 88.72
  L 62.51 88.72
  A 0.05 0.05 0.0 0 0 62.46 88.77"
/>
<path stroke="#826970" vector-effect="non-scaling-stroke" d="
  M 72.2290 96.0371
  A 3.39 1.92 78.1 0 0 73.4087 92.3241
  A 3.39 1.92 78.1 0 0 70.8310 89.4029
  A 3.39 1.92 78.1 0 0 69.6513 93.1159
  A 3.39 1.92 78.1 0 0 72.2290 96.0371"
/>
<path stroke="#826970" vector-effect="non-scaling-stroke" d="
  M 93.16 90.85
  L 93.87 98.58
  A 0.17 0.17 0.0 0 0 94.05 98.73
  L 94.21 98.72
  A 3.60 2.85 84.8 0 0 96.72 94.87
  L 96.64 93.98
  A 3.60 2.85 84.8 0 0 93.48 90.65
  L 93.32 90.67
  A 0.17 0.17 0.0 0 0 93.16 90.85"
/>
<path stroke="#662423" vector-effect="non-scaling-stroke" d="
  M 108.47 95.23
  A 3.95 3.11 74.3 0 0 105.13 91.46"
/>
<path stroke="#826970" vector-effect="non-scaling-stroke" d="
  M 105.13 91.46
  A 3.96 3.12 73.7 0 0 102.86 92.52
  A 3.96 3.11 74.2 0 0 104.48 98.95
  A 3.96 3.12 74.8 0 0 107.35 98.65
  A 3.97 3.11 74.3 0 0 108.47 95.23"
/>
<path stroke="#db7f86" vector-effect="non-scaling-stroke" d="
  M 105.13 91.46
  Q 107.42 93.27 108.47 95.23"
/>
</g>
<path fill="#f7c4d3" d="
  M 0.00 0.00
  L 13.36 0.00
  Q 10.82 0.68 9.92 3.69
  C 6.73 14.29 23.08 16.62 23.63 5.75
  Q 23.82 1.77 20.24 0.00
  L 114.31 0.00
  Q 110.66 0.96 110.44 4.77
  C 109.80 15.88 125.88 14.91 124.67 4.97
  Q 124.26 1.59 121.39 0.00
  L 150.00 0.00
  L 150.00 150.00
  L 0.00 150.00
  L 0.00 0.00
  Z
  M 60.86 50.44
  L 58.29 56.92
  Q 58.06 57.50 57.43 57.50
  C 53.69 57.54 53.38 63.32 53.95 65.77
  Q 54.21 66.88 53.75 68.10
  Q 52.66 71.03 49.48 71.15
  C 52.05 63.84 55.86 55.59 55.66 48.14
  Q 55.57 45.02 52.16 44.20
  Q 49.96 42.77 47.46 43.30
  Q 45.71 43.68 44.66 44.85
  Q 35.00 55.65 26.55 65.99
  Q 26.18 66.44 25.69 66.13
  Q 23.02 64.42 20.28 65.82
  Q 18.72 66.62 18.29 68.81
  Q 17.97 70.44 18.02 72.52
  Q 16.24 70.44 15.05 69.91
  Q 13.15 69.53 11.32 70.89
  Q 7.06 74.05 10.20 78.23
  Q 11.66 80.18 14.72 82.89
  Q 13.68 83.42 12.57 83.81
  Q 11.16 84.29 10.65 85.00
  C 8.82 87.51 9.13 91.54 10.69 93.93
  Q 12.24 96.31 15.65 96.53
  Q 22.30 96.95 23.51 89.53
  Q 23.93 87.01 22.01 84.28
  Q 25.58 83.54 27.75 80.32
  Q 28.13 79.93 28.51 79.98
  Q 31.47 80.36 34.50 82.10
  Q 34.94 82.35 35.01 82.86
  C 35.56 86.94 40.37 86.50 43.09 85.57
  Q 44.03 85.55 44.70 85.27
  Q 45.17 85.07 45.33 84.59
  L 46.72 80.41
  L 51.87 79.09
  A 0.72 0.72 0.0 0 1 52.77 79.85
  Q 52.59 81.75 53.53 83.86
  Q 53.74 84.33 54.21 84.53
  Q 56.88 85.70 59.26 84.05
  Q 62.48 82.90 65.04 80.70
  Q 65.56 80.66 65.45 80.53
  Q 66.57 80.40 66.79 81.24
  Q 67.33 83.38 68.00 85.30
  A 1.82 1.81 76.2 0 0 69.99 86.51
  Q 72.59 86.12 72.72 85.58
  L 80.47 80.98
  L 80.87 81.26
  Q 81.26 81.53 81.38 81.99
  C 81.91 83.91 82.41 85.52 83.78 87.10
  Q 84.79 88.26 85.88 89.36
  Q 84.50 92.50 84.28 96.26
  Q 84.22 97.30 83.43 97.98
  Q 83.06 98.30 83.39 98.67
  Q 83.91 99.24 84.71 99.12
  Q 85.31 99.03 85.58 98.49
  C 86.58 96.53 87.73 95.18 86.56 92.79
  Q 86.12 91.89 86.36 90.80
  Q 86.57 89.84 86.73 90.81
  Q 87.36 94.69 87.73 98.80
  A 0.97 0.97 0.0 0 0 89.05 99.61
  C 90.59 99.01 91.62 100.09 93.17 100.05
  C 96.89 99.95 99.64 97.58 98.88 93.50
  C 98.17 89.65 95.27 88.84 91.82 89.35
  Q 91.13 89.46 91.17 90.15
  L 91.63 98.66
  A 0.23 0.23 0.0 0 1 91.31 98.89
  L 90.88 98.70
  A 0.90 0.87 -86.0 0 1 90.38 98.11
  L 88.16 89.18
  Q 88.11 89.01 88.25 88.77
  Q 88.41 88.48 88.74 88.39
  Q 95.40 86.77 101.71 83.26
  A 2.19 2.19 0.0 0 1 104.73 84.20
  C 105.48 85.72 106.16 87.41 107.24 88.59
  C 111.13 92.87 115.97 91.42 120.12 88.46
  Q 120.53 88.16 121.04 88.18
  Q 122.21 88.23 123.52 88.82
  Q 127.66 93.67 133.01 89.47
  Q 134.75 88.11 140.65 81.91
  Q 142.72 79.73 141.73 76.89
  L 141.22 75.44
  Q 140.23 72.62 138.05 74.65
  L 133.62 78.75
  A 1.91 1.91 0.0 0 1 130.71 78.36
  Q 129.45 76.36 130.28 73.60
  Q 131.62 69.13 133.18 64.91
  A 3.48 3.48 0.0 0 0 131.32 60.51
  C 126.83 58.54 123.86 54.50 118.41 57.64
  Q 115.39 59.39 113.49 60.84
  Q 107.91 63.56 104.97 69.18
  C 104.23 70.60 103.86 72.33 102.30 73.29
  Q 98.18 75.81 91.92 78.37
  Q 91.66 77.71 91.76 77.48
  Q 94.77 70.77 98.27 64.30
  Q 100.91 59.43 101.73 55.76
  Q 103.59 47.47 98.07 42.88
  Q 95.97 41.57 93.50 43.29
  Q 92.18 44.22 91.25 45.50
  Q 88.18 49.73 86.15 53.93
  Q 83.59 59.25 81.59 69.46
  C 81.05 72.25 77.83 73.23 75.56 74.27
  C 75.20 71.07 77.18 69.06 78.12 67.10
  Q 79.31 64.60 79.46 61.63
  Q 79.49 61.06 79.13 60.64
  Q 78.78 60.23 78.27 60.00
  Q 76.42 59.14 78.33 58.47
  Q 86.72 55.52 80.66 49.13
  Q 77.07 47.75 74.86 50.63
  Q 72.86 53.24 73.90 57.52
  Q 74.01 57.99 73.53 57.98
  Q 71.70 57.95 70.80 59.73
  Q 68.40 64.52 67.24 69.02
  Q 66.63 71.41 63.72 72.62
  Q 62.41 74.12 60.97 74.42
  L 62.72 68.61
  Q 62.86 68.13 63.31 67.89
  Q 64.21 67.43 65.17 67.47
  A 1.27 1.27 0.0 0 0 66.33 66.85
  Q 67.60 64.71 67.56 61.67
  Q 67.56 61.02 66.95 60.79
  Q 66.60 60.66 66.32 60.40
  Q 65.90 60.03 66.16 59.53
  C 67.41 57.06 68.42 55.49 68.30 52.28
  Q 68.30 54.18 69.49 53.92
  Q 70.75 53.63 73.10 51.97
  A 1.24 1.22 77.8 0 0 73.60 51.18
  Q 74.02 48.62 73.78 45.56
  C 73.60 43.26 71.46 41.80 69.54 40.96
  Q 67.44 40.05 64.63 41.04
  Q 58.41 43.23 60.86 50.44
  Z
  M 59.85 87.96
  L 59.79 95.96
  A 0.74 0.74 0.0 0 0 60.53 96.71
  L 62.74 96.73
  A 4.49 4.29 -89.6 0 0 67.06 92.27
  L 67.06 91.77
  A 4.49 4.29 -89.6 0 0 62.80 87.25
  L 60.59 87.23
  A 0.74 0.74 0.0 0 0 59.85 87.96
  Z
  M 70.7536 97.6844
  A 4.99 4.47 99.3 0 0 75.9712 93.4824
  A 4.99 4.47 99.3 0 0 72.3664 87.8356
  A 4.99 4.47 99.3 0 0 67.1488 92.0376
  A 4.99 4.47 99.3 0 0 70.7536 97.6844
  Z
  M 80.26 93.81
  Q 80.54 93.05 80.61 92.28
  Q 80.67 91.70 80.34 91.23
  Q 79.63 90.22 79.25 88.93
  Q 79.09 88.40 78.55 88.25
  Q 77.73 88.03 76.95 88.36
  Q 76.40 88.59 76.45 89.19
  Q 76.83 93.55 76.39 97.76
  A 0.71 0.70 -1.6 0 0 77.21 98.53
  L 78.23 98.36
  A 1.66 1.65 -4.1 0 0 79.61 96.78
  L 79.65 95.22
  Q 79.66 94.84 80.03 94.79
  Q 80.19 94.77 80.29 94.88
  Q 80.43 95.03 80.45 95.24
  Q 80.54 96.75 80.31 98.15
  Q 80.18 98.97 81.00 98.86
  L 82.20 98.71
  Q 82.99 98.61 82.99 97.81
  L 82.99 89.29
  A 0.87 0.86 -86.2 0 0 82.24 88.43
  Q 81.69 88.36 81.11 88.51
  A 0.94 0.94 0.0 0 0 80.48 89.77
  Q 81.27 91.72 80.78 93.78
  Q 80.74 93.96 80.56 93.93
  L 80.30 93.88
  A 0.05 0.05 0.0 0 1 80.26 93.81
  Z
  M 103.8215 100.9481
  A 5.53 4.97 103.9 0 0 109.9745 96.7739
  A 5.53 4.97 103.9 0 0 106.4785 90.2119
  A 5.53 4.97 103.9 0 0 100.3255 94.3861
  A 5.53 4.97 103.9 0 0 103.8215 100.9481
  Z
  M 120.61 99.86
  Q 120.59 99.79 120.66 99.76
  Q 123.17 98.56 124.96 96.80
  C 128.92 92.92 121.30 87.59 118.65 94.14
  Q 118.29 95.02 119.25 95.02
  Q 119.44 95.02 119.60 94.97
  A 1.37 1.34 87.9 0 0 120.52 93.96
  Q 120.69 93.19 121.28 92.82
  Q 121.68 92.57 122.13 92.73
  Q 123.07 93.05 123.78 93.77
  A 1.75 1.74 56.8 0 1 123.19 96.62
  Q 119.26 98.18 118.52 101.95
  Q 118.41 102.52 118.99 102.57
  L 125.31 103.09
  Q 126.01 103.15 126.01 102.45
  L 126.01 101.86
  Q 126.01 100.97 125.12 100.90
  L 121.22 100.61
  Q 120.76 100.57 120.66 100.12
  L 120.61 99.86
  Z
  M 134.16 97.33
  Q 134.25 97.31 134.34 97.27
  Q 134.87 97.05 135.16 96.55
  Q 136.85 93.67 134.06 92.18
  Q 130.92 90.52 128.99 94.56
  A 0.60 0.59 20.9 0 0 129.36 95.38
  L 129.70 95.48
  Q 130.27 95.64 130.42 95.06
  Q 131.04 92.65 133.56 93.90
  A 1.45 1.45 0.0 0 1 134.29 94.77
  Q 134.58 95.74 133.86 96.35
  A 1.36 1.36 0.0 0 1 132.77 96.67
  L 131.97 96.55
  Q 130.94 96.40 130.84 97.44
  Q 130.78 98.01 131.28 98.47
  A 0.97 0.94 -25.6 0 0 131.99 98.71
  Q 133.33 98.62 134.20 99.63
  A 1.26 1.26 0.0 0 1 134.04 101.44
  C 132.68 102.53 131.08 101.10 130.17 100.10
  Q 129.89 99.80 129.43 99.71
  Q 129.14 99.66 128.86 99.87
  A 0.50 0.48 -26.3 0 0 128.68 100.38
  Q 129.60 104.17 133.05 103.74
  C 135.65 103.42 137.78 98.52 134.16 97.65
  Q 133.54 97.50 134.16 97.33
  Z
  M 74.19 131.33
  A 7.09 7.09 0.0 0 0 67.10 124.24
  A 7.09 7.09 0.0 0 0 60.01 131.33
  A 7.09 7.09 0.0 0 0 67.10 138.42
  A 7.09 7.09 0.0 0 0 74.19 131.33
  Z"
/>
<path fill="#fee1e8" d="
  M 13.36 0.00
  L 20.24 0.00
  Q 23.82 1.77 23.63 5.75
  C 23.08 16.62 6.73 14.29 9.92 3.69
  Q 10.82 0.68 13.36 0.00
  Z"
/>
<path fill="#fee1e8" d="
  M 114.31 0.00
  L 121.39 0.00
  Q 124.26 1.59 124.67 4.97
  C 125.88 14.91 109.80 15.88 110.44 4.77
  Q 110.66 0.96 114.31 0.00
  Z"
/>
<path fill="#fee1e8" d="
  M 68.30 52.28
  Q 67.48 51.39 66.54 51.23
  Q 63.66 49.37 60.86 50.44
  Q 58.41 43.23 64.63 41.04
  Q 67.44 40.05 69.54 40.96
  C 71.46 41.80 73.60 43.26 73.78 45.56
  Q 74.02 48.62 73.60 51.18
  A 1.24 1.22 77.8 0 1 73.10 51.97
  Q 70.75 53.63 69.49 53.92
  Q 68.30 54.18 68.30 52.28
  Z"
/>
<path fill="#ce6162" d="
  M 98.07 42.88
  Q 102.33 50.52 99.57 58.02
  Q 97.61 63.35 94.84 68.11
  C 93.12 71.06 91.82 74.17 90.35 77.22
  Q 90.00 77.95 90.30 78.71
  A 0.76 0.76 0.0 0 0 91.56 78.94
  Q 91.89 78.58 91.92 78.37
  Q 98.18 75.81 102.30 73.29
  C 103.86 72.33 104.23 70.60 104.97 69.18
  Q 107.91 63.56 113.49 60.84
  Q 115.52 60.08 118.29 58.31
  C 122.94 55.34 127.08 59.12 131.04 61.17
  A 2.63 2.62 -67.1 0 1 132.32 64.34
  Q 130.84 68.77 129.31 73.52
  Q 128.37 76.45 129.68 78.87
  A 2.36 2.35 -26.9 0 0 132.77 79.87
  Q 134.26 79.15 138.10 75.58
  Q 139.94 73.87 140.60 76.30
  L 140.94 77.53
  Q 141.64 80.10 139.84 82.06
  Q 134.74 87.57 131.53 89.84
  Q 128.18 92.20 123.52 88.82
  Q 122.21 88.23 121.04 88.18
  Q 120.53 88.16 120.12 88.46
  C 115.97 91.42 111.13 92.87 107.24 88.59
  C 106.16 87.41 105.48 85.72 104.73 84.20
  A 2.19 2.19 0.0 0 0 101.71 83.26
  Q 95.40 86.77 88.74 88.39
  Q 88.41 88.48 88.25 88.77
  Q 88.11 89.01 88.16 89.18
  Q 87.99 88.52 85.88 89.36
  Q 84.79 88.26 83.78 87.10
  C 82.41 85.52 81.91 83.91 81.38 81.99
  Q 81.26 81.53 80.87 81.26
  L 80.47 80.98
  Q 80.41 80.88 80.38 80.73
  Q 80.35 80.58 80.19 80.59
  Q 78.83 80.67 77.27 81.81
  Q 74.30 83.97 72.72 85.58
  Q 72.59 86.12 69.99 86.51
  A 1.82 1.81 76.2 0 1 68.00 85.30
  Q 67.33 83.38 66.79 81.24
  Q 66.57 80.40 65.45 80.53
  Q 65.68 79.97 65.49 79.75
  Q 63.29 77.28 64.65 73.46
  Q 64.91 72.72 64.13 72.66
  L 63.72 72.62
  Q 66.63 71.41 67.24 69.02
  Q 68.40 64.52 70.80 59.73
  Q 71.70 57.95 73.53 57.98
  Q 74.01 57.99 73.90 57.52
  Q 72.86 53.24 74.86 50.63
  Q 77.07 47.75 80.66 49.13
  Q 82.35 56.11 77.54 57.73
  A 0.56 0.55 84.4 0 0 77.16 58.20
  L 77.12 58.52
  Q 77.00 59.51 76.26 58.84
  Q 76.05 58.64 75.83 58.58
  Q 74.18 58.09 75.59 59.07
  Q 78.11 60.81 77.80 62.77
  Q 77.23 66.31 74.87 69.66
  C 73.93 71.00 73.66 72.69 73.79 74.30
  A 0.92 0.91 -82.4 0 0 74.38 75.08
  Q 75.69 75.59 75.56 74.27
  C 77.83 73.23 81.05 72.25 81.59 69.46
  Q 83.59 59.25 86.15 53.93
  Q 88.18 49.73 91.25 45.50
  Q 92.18 44.22 93.50 43.29
  Q 95.97 41.57 98.07 42.88
  Z
  M 90.4147 61.5552
  A 4.38 0.89 111.5 0 0 92.8481 57.8062
  A 4.38 0.89 111.5 0 0 93.6253 53.4048
  A 4.38 0.89 111.5 0 0 91.1919 57.1538
  A 4.38 0.89 111.5 0 0 90.4147 61.5552
  Z
  M 116.97 79.89
  C 119.34 77.60 121.35 74.18 120.83 70.73
  Q 120.72 69.99 120.02 69.75
  C 118.25 69.13 116.24 69.18 115.25 71.05
  C 114.18 73.06 112.19 77.10 113.21 79.23
  A 2.36 2.35 -35.0 0 0 116.97 79.89
  Z"
/>
<path fill="#3d0a04" d="
  M 98.07 42.88
  Q 103.59 47.47 101.73 55.76
  Q 100.91 59.43 98.27 64.30
  Q 94.77 70.77 91.76 77.48
  Q 91.66 77.71 91.92 78.37
  Q 91.89 78.58 91.56 78.94
  A 0.76 0.76 0.0 0 1 90.30 78.71
  Q 90.00 77.95 90.35 77.22
  C 91.82 74.17 93.12 71.06 94.84 68.11
  Q 97.61 63.35 99.57 58.02
  Q 102.33 50.52 98.07 42.88
  Z"
/>
<path fill="#bf3939" d="
  M 52.16 44.20
  Q 54.24 46.91 54.01 49.00
  C 53.66 51.97 53.17 55.13 52.20 57.92
  Q 50.02 64.23 47.34 71.61
  A 0.47 0.47 0.0 0 0 47.69 72.23
  Q 48.44 72.39 49.48 71.15
  Q 52.66 71.03 53.75 68.10
  Q 54.21 66.88 53.95 65.77
  C 53.38 63.32 53.69 57.54 57.43 57.50
  Q 58.06 57.50 58.29 56.92
  L 60.86 50.44
  Q 63.66 49.37 66.54 51.23
  Q 66.22 51.08 66.05 51.21
  Q 65.72 51.45 65.98 51.76
  C 67.50 53.57 65.50 57.32 64.45 58.95
  A 1.24 1.24 0.0 0 0 64.94 60.73
  Q 65.30 60.92 65.58 61.22
  Q 66.01 61.69 65.86 62.32
  C 65.35 64.37 65.47 67.58 62.23 67.23
  A 1.15 1.15 0.0 0 0 61.01 68.03
  L 59.12 74.18
  A 0.85 0.85 0.0 0 0 60.08 75.27
  Q 61.24 75.07 60.97 74.42
  Q 62.41 74.12 63.72 72.62
  L 64.13 72.66
  Q 64.91 72.72 64.65 73.46
  Q 63.29 77.28 65.49 79.75
  Q 65.68 79.97 65.45 80.53
  Q 65.56 80.66 65.04 80.70
  Q 65.14 80.56 65.09 80.40
  Q 64.98 80.08 64.67 80.20
  Q 61.44 81.41 59.26 84.05
  Q 56.88 85.70 54.21 84.53
  Q 53.74 84.33 53.53 83.86
  Q 52.59 81.75 52.77 79.85
  A 0.72 0.72 0.0 0 0 51.87 79.09
  L 46.72 80.41
  Q 46.82 79.07 44.58 80.52
  Q 44.18 80.78 44.07 81.24
  L 43.09 85.57
  C 40.37 86.50 35.56 86.94 35.01 82.86
  Q 34.94 82.35 34.50 82.10
  Q 31.47 80.36 28.51 79.98
  Q 28.13 79.93 27.75 80.32
  Q 27.65 79.61 27.44 79.52
  A 1.53 1.47 -62.6 0 0 25.65 80.13
  Q 22.60 84.80 16.99 83.77
  Q 16.73 83.72 16.61 83.95
  Q 16.52 84.09 16.54 84.19
  Q 15.52 83.81 14.72 82.89
  Q 11.66 80.18 10.20 78.23
  Q 7.06 74.05 11.32 70.89
  Q 13.15 69.53 15.05 69.91
  Q 14.20 69.77 13.71 69.98
  Q 13.19 70.21 13.60 70.62
  Q 15.83 72.84 17.91 74.51
  Q 18.38 74.88 18.89 74.56
  Q 19.36 74.26 19.02 73.82
  L 18.02 72.52
  Q 17.97 70.44 18.29 68.81
  Q 18.72 66.62 20.28 65.82
  Q 23.02 64.42 25.69 66.13
  Q 26.18 66.44 26.55 65.99
  Q 35.00 55.65 44.66 44.85
  Q 45.71 43.68 47.46 43.30
  Q 49.96 42.77 52.16 44.20
  Z
  M 36.21 71.79
  Q 37.13 71.71 37.79 70.25
  Q 39.33 66.82 39.46 65.00
  Q 41.02 62.74 41.20 61.13
  Q 41.37 59.52 40.37 60.80
  L 32.68 70.69
  Q 32.14 71.38 32.94 71.72
  Q 34.49 72.38 36.04 72.48
  Q 36.51 72.51 36.33 72.08
  L 36.21 71.79
  Z"
/>
<path fill="#3d0a04" d="
  M 52.16 44.20
  Q 55.57 45.02 55.66 48.14
  C 55.86 55.59 52.05 63.84 49.48 71.15
  Q 48.44 72.39 47.69 72.23
  A 0.47 0.47 0.0 0 1 47.34 71.61
  Q 50.02 64.23 52.20 57.92
  C 53.17 55.13 53.66 51.97 54.01 49.00
  Q 54.24 46.91 52.16 44.20
  Z"
/>
<path fill="#3d0a04" d="
  M 80.66 49.13
  Q 86.72 55.52 78.33 58.47
  Q 76.42 59.14 78.27 60.00
  Q 78.78 60.23 79.13 60.64
  Q 79.49 61.06 79.46 61.63
  Q 79.31 64.60 78.12 67.10
  C 77.18 69.06 75.20 71.07 75.56 74.27
  Q 75.69 75.59 74.38 75.08
  A 0.92 0.91 -82.4 0 1 73.79 74.30
  C 73.66 72.69 73.93 71.00 74.87 69.66
  Q 77.23 66.31 77.80 62.77
  Q 78.11 60.81 75.59 59.07
  Q 74.18 58.09 75.83 58.58
  Q 76.05 58.64 76.26 58.84
  Q 77.00 59.51 77.12 58.52
  L 77.16 58.20
  A 0.56 0.55 84.4 0 1 77.54 57.73
  Q 82.35 56.11 80.66 49.13
  Z"
/>
<path fill="#3d0a04" d="
  M 66.54 51.23
  Q 67.48 51.39 68.30 52.28
  C 68.42 55.49 67.41 57.06 66.16 59.53
  Q 65.90 60.03 66.32 60.40
  Q 66.60 60.66 66.95 60.79
  Q 67.56 61.02 67.56 61.67
  Q 67.60 64.71 66.33 66.85
  A 1.27 1.27 0.0 0 1 65.17 67.47
  Q 64.21 67.43 63.31 67.89
  Q 62.86 68.13 62.72 68.61
  L 60.97 74.42
  Q 61.24 75.07 60.08 75.27
  A 0.85 0.85 0.0 0 1 59.12 74.18
  L 61.01 68.03
  A 1.15 1.15 0.0 0 1 62.23 67.23
  C 65.47 67.58 65.35 64.37 65.86 62.32
  Q 66.01 61.69 65.58 61.22
  Q 65.30 60.92 64.94 60.73
  A 1.24 1.24 0.0 0 1 64.45 58.95
  C 65.50 57.32 67.50 53.57 65.98 51.76
  Q 65.72 51.45 66.05 51.21
  Q 66.22 51.08 66.54 51.23
  Z"
/>
<ellipse fill="#3d0a04" cx="0.00" cy="0.00" transform="translate(92.02,57.48) rotate(111.5)" rx="4.38" ry="0.89"/>
<path fill="#bf3939" d="
  M 123.52 88.82
  Q 128.18 92.20 131.53 89.84
  Q 134.74 87.57 139.84 82.06
  Q 141.64 80.10 140.94 77.53
  L 140.60 76.30
  Q 139.94 73.87 138.10 75.58
  Q 134.26 79.15 132.77 79.87
  A 2.36 2.35 -26.9 0 1 129.68 78.87
  Q 128.37 76.45 129.31 73.52
  Q 130.84 68.77 132.32 64.34
  A 2.63 2.62 -67.1 0 0 131.04 61.17
  C 127.08 59.12 122.94 55.34 118.29 58.31
  Q 115.52 60.08 113.49 60.84
  Q 115.39 59.39 118.41 57.64
  C 123.86 54.50 126.83 58.54 131.32 60.51
  A 3.48 3.48 0.0 0 1 133.18 64.91
  Q 131.62 69.13 130.28 73.60
  Q 129.45 76.36 130.71 78.36
  A 1.91 1.91 0.0 0 0 133.62 78.75
  L 138.05 74.65
  Q 140.23 72.62 141.22 75.44
  L 141.73 76.89
  Q 142.72 79.73 140.65 81.91
  Q 134.75 88.11 133.01 89.47
  Q 127.66 93.67 123.52 88.82
  Z"
/>
<path fill="#3d0a04" d="
  M 39.46 65.00
  L 35.15 70.59
  A 0.57 0.56 42.0 0 0 35.19 71.32
  Q 35.52 71.66 36.21 71.79
  L 36.33 72.08
  Q 36.51 72.51 36.04 72.48
  Q 34.49 72.38 32.94 71.72
  Q 32.14 71.38 32.68 70.69
  L 40.37 60.80
  Q 41.37 59.52 41.20 61.13
  Q 41.02 62.74 39.46 65.00
  Z"
/>
<path fill="#f7c4d3" d="
  M 39.46 65.00
  Q 39.33 66.82 37.79 70.25
  Q 37.13 71.71 36.21 71.79
  Q 35.52 71.66 35.19 71.32
  A 0.57 0.56 42.0 0 1 35.15 70.59
  L 39.46 65.00
  Z"
/>
<path fill="#3d0a04" d="
  M 120.83 70.73
  C 121.35 74.18 119.34 77.60 116.97 79.89
  A 2.36 2.35 -35.0 0 1 113.21 79.23
  C 112.19 77.10 114.18 73.06 115.25 71.05
  C 116.24 69.18 118.25 69.13 120.02 69.75
  Q 120.72 69.99 120.83 70.73
  Z
  M 115.0298 79.8465
  A 5.50 2.37 112.9 0 0 119.3532 75.7022
  A 5.50 2.37 112.9 0 0 119.3102 69.7135
  A 5.50 2.37 112.9 0 0 114.9868 73.8578
  A 5.50 2.37 112.9 0 0 115.0298 79.8465
  Z"
/>
<path fill="#3d0a04" d="
  M 15.05 69.91
  Q 16.24 70.44 18.02 72.52
  L 19.02 73.82
  Q 19.36 74.26 18.89 74.56
  Q 18.38 74.88 17.91 74.51
  Q 15.83 72.84 13.60 70.62
  Q 13.19 70.21 13.71 69.98
  Q 14.20 69.77 15.05 69.91
  Z"
/>
<ellipse fill="#f7c4d3" cx="0.00" cy="0.00" transform="translate(117.17,74.78) rotate(112.9)" rx="5.50" ry="2.37"/>
<path fill="#3d0a04" d="
  M 27.75 80.32
  Q 25.58 83.54 22.01 84.28
  Q 18.83 84.89 16.54 84.19
  Q 16.52 84.09 16.61 83.95
  Q 16.73 83.72 16.99 83.77
  Q 22.60 84.80 25.65 80.13
  A 1.53 1.47 -62.6 0 1 27.44 79.52
  Q 27.65 79.61 27.75 80.32
  Z"
/>
<path fill="#3d0a04" d="
  M 46.72 80.41
  L 45.33 84.59
  Q 45.17 85.07 44.70 85.27
  Q 44.03 85.55 43.09 85.57
  L 44.07 81.24
  Q 44.18 80.78 44.58 80.52
  Q 46.82 79.07 46.72 80.41
  Z"
/>
<path fill="#3d0a04" d="
  M 65.04 80.70
  Q 62.48 82.90 59.26 84.05
  Q 61.44 81.41 64.67 80.20
  Q 64.98 80.08 65.09 80.40
  Q 65.14 80.56 65.04 80.70
  Z"
/>
<path fill="#3d0a04" d="
  M 80.47 80.98
  L 72.72 85.58
  Q 74.30 83.97 77.27 81.81
  Q 78.83 80.67 80.19 80.59
  Q 80.35 80.58 80.38 80.73
  Q 80.41 80.88 80.47 80.98
  Z"
/>
<path fill="#fee1e8" d="
  M 14.72 82.89
  Q 15.52 83.81 16.54 84.19
  Q 18.83 84.89 22.01 84.28
  Q 23.93 87.01 23.51 89.53
  Q 22.30 96.95 15.65 96.53
  Q 12.24 96.31 10.69 93.93
  C 9.13 91.54 8.82 87.51 10.65 85.00
  Q 11.16 84.29 12.57 83.81
  Q 13.68 83.42 14.72 82.89
  Z"
/>
<path fill="#0c0e0d" d="
  M 59.85 87.96
  A 0.74 0.74 0.0 0 1 60.59 87.23
  L 62.80 87.25
  A 4.49 4.29 -89.6 0 1 67.06 91.77
  L 67.06 92.27
  A 4.49 4.29 -89.6 0 1 62.74 96.73
  L 60.53 96.71
  A 0.74 0.74 0.0 0 1 59.79 95.96
  L 59.85 87.96
  Z
  M 62.46 88.77
  L 62.74 95.46
  A 0.05 0.05 0.0 0 0 62.79 95.51
  L 62.84 95.51
  A 3.31 1.68 87.6 0 0 64.38 92.13
  L 64.38 91.95
  A 3.31 1.68 87.6 0 0 62.56 88.72
  L 62.51 88.72
  A 0.05 0.05 0.0 0 0 62.46 88.77
  Z"
/>
<path fill="#0c0e0d" d="
  M 70.7536 97.6844
  A 4.99 4.47 99.3 0 1 67.1488 92.0376
  A 4.99 4.47 99.3 0 1 72.3664 87.8356
  A 4.99 4.47 99.3 0 1 75.9712 93.4824
  A 4.99 4.47 99.3 0 1 70.7536 97.6844
  Z
  M 72.2290 96.0371
  A 3.39 1.92 78.1 0 0 73.4087 92.3241
  A 3.39 1.92 78.1 0 0 70.8310 89.4029
  A 3.39 1.92 78.1 0 0 69.6513 93.1159
  A 3.39 1.92 78.1 0 0 72.2290 96.0371
  Z"
/>
<path fill="#0c0e0d" d="
  M 80.26 93.81
  A 0.05 0.05 0.0 0 0 80.30 93.88
  L 80.56 93.93
  Q 80.74 93.96 80.78 93.78
  Q 81.27 91.72 80.48 89.77
  A 0.94 0.94 0.0 0 1 81.11 88.51
  Q 81.69 88.36 82.24 88.43
  A 0.87 0.86 -86.2 0 1 82.99 89.29
  L 82.99 97.81
  Q 82.99 98.61 82.20 98.71
  L 81.00 98.86
  Q 80.18 98.97 80.31 98.15
  Q 80.54 96.75 80.45 95.24
  Q 80.43 95.03 80.29 94.88
  Q 80.19 94.77 80.03 94.79
  Q 79.66 94.84 79.65 95.22
  L 79.61 96.78
  A 1.66 1.65 -4.1 0 1 78.23 98.36
  L 77.21 98.53
  A 0.71 0.70 -1.6 0 1 76.39 97.76
  Q 76.83 93.55 76.45 89.19
  Q 76.40 88.59 76.95 88.36
  Q 77.73 88.03 78.55 88.25
  Q 79.09 88.40 79.25 88.93
  Q 79.63 90.22 80.34 91.23
  Q 80.67 91.70 80.61 92.28
  Q 80.54 93.05 80.26 93.81
  Z"
/>
<path fill="#f7c4d3" d="
  M 62.46 88.77
  A 0.05 0.05 0.0 0 1 62.51 88.72
  L 62.56 88.72
  A 3.31 1.68 87.6 0 1 64.38 91.95
  L 64.38 92.13
  A 3.31 1.68 87.6 0 1 62.84 95.51
  L 62.79 95.51
  A 0.05 0.05 0.0 0 1 62.74 95.46
  L 62.46 88.77
  Z"
/>
<path fill="#0c0e0d" d="
  M 88.16 89.18
  L 90.38 98.11
  A 0.90 0.87 -86.0 0 0 90.88 98.70
  L 91.31 98.89
  A 0.23 0.23 0.0 0 0 91.63 98.66
  L 91.17 90.15
  Q 91.13 89.46 91.82 89.35
  C 95.27 88.84 98.17 89.65 98.88 93.50
  C 99.64 97.58 96.89 99.95 93.17 100.05
  C 91.62 100.09 90.59 99.01 89.05 99.61
  A 0.97 0.97 0.0 0 1 87.73 98.80
  Q 87.36 94.69 86.73 90.81
  Q 86.57 89.84 86.36 90.80
  Q 86.12 91.89 86.56 92.79
  C 87.73 95.18 86.58 96.53 85.58 98.49
  Q 85.31 99.03 84.71 99.12
  Q 83.91 99.24 83.39 98.67
  Q 83.06 98.30 83.43 97.98
  Q 84.22 97.30 84.28 96.26
  Q 84.50 92.50 85.88 89.36
  Q 87.99 88.52 88.16 89.18
  Z
  M 93.16 90.85
  L 93.87 98.58
  A 0.17 0.17 0.0 0 0 94.05 98.73
  L 94.21 98.72
  A 3.60 2.85 84.8 0 0 96.72 94.87
  L 96.64 93.98
  A 3.60 2.85 84.8 0 0 93.48 90.65
  L 93.32 90.67
  A 0.17 0.17 0.0 0 0 93.16 90.85
  Z"
/>
<ellipse fill="#f7c4d3" cx="0.00" cy="0.00" transform="translate(71.53,92.72) rotate(78.1)" rx="3.39" ry="1.92"/>
<path fill="#0c0e0d" d="
  M 103.8215 100.9481
  A 5.53 4.97 103.9 0 1 100.3255 94.3861
  A 5.53 4.97 103.9 0 1 106.4785 90.2119
  A 5.53 4.97 103.9 0 1 109.9745 96.7739
  A 5.53 4.97 103.9 0 1 103.8215 100.9481
  Z
  M 108.47 95.23
  A 3.95 3.11 74.3 0 0 105.13 91.46
  A 3.96 3.12 73.7 0 0 102.86 92.52
  A 3.96 3.11 74.2 0 0 104.48 98.95
  A 3.96 3.12 74.8 0 0 107.35 98.65
  A 3.97 3.11 74.3 0 0 108.47 95.23
  Z"
/>
<path fill="#f7c4d3" d="
  M 93.16 90.85
  A 0.17 0.17 0.0 0 1 93.32 90.67
  L 93.48 90.65
  A 3.60 2.85 84.8 0 1 96.64 93.98
  L 96.72 94.87
  A 3.60 2.85 84.8 0 1 94.21 98.72
  L 94.05 98.73
  A 0.17 0.17 0.0 0 1 93.87 98.58
  L 93.16 90.85
  Z"
/>
<path fill="#332f2b" d="
  M 120.61 99.86
  L 120.66 100.12
  Q 120.76 100.57 121.22 100.61
  L 125.12 100.90
  Q 126.01 100.97 126.01 101.86
  L 126.01 102.45
  Q 126.01 103.15 125.31 103.09
  L 118.99 102.57
  Q 118.41 102.52 118.52 101.95
  Q 119.26 98.18 123.19 96.62
  A 1.75 1.74 56.8 0 0 123.78 93.77
  Q 123.07 93.05 122.13 92.73
  Q 121.68 92.57 121.28 92.82
  Q 120.69 93.19 120.52 93.96
  A 1.37 1.34 87.9 0 1 119.60 94.97
  Q 119.44 95.02 119.25 95.02
  Q 118.29 95.02 118.65 94.14
  C 121.30 87.59 128.92 92.92 124.96 96.80
  Q 123.17 98.56 120.66 99.76
  Q 120.59 99.79 120.61 99.86
  Z"
/>
<path fill="#f7c4d3" d="
  M 105.13 91.46
  Q 107.42 93.27 108.47 95.23
  A 3.97 3.11 74.3 0 1 107.35 98.65
  A 3.96 3.12 74.8 0 1 104.48 98.95
  A 3.96 3.11 74.2 0 1 102.86 92.52
  A 3.96 3.12 73.7 0 1 105.13 91.46
  Z"
/>
<path fill="#bf3939" d="
  M 105.13 91.46
  A 3.95 3.11 74.3 0 1 108.47 95.23
  Q 107.42 93.27 105.13 91.46
  Z"
/>
<path fill="#332f2b" d="
  M 134.16 97.65
  C 137.78 98.52 135.65 103.42 133.05 103.74
  Q 129.60 104.17 128.68 100.38
  A 0.50 0.48 -26.3 0 1 128.86 99.87
  Q 129.14 99.66 129.43 99.71
  Q 129.89 99.80 130.17 100.10
  C 131.08 101.10 132.68 102.53 134.04 101.44
  A 1.26 1.26 0.0 0 0 134.20 99.63
  Q 133.33 98.62 131.99 98.71
  A 0.97 0.94 -25.6 0 1 131.28 98.47
  Q 130.78 98.01 130.84 97.44
  Q 130.94 96.40 131.97 96.55
  L 132.77 96.67
  A 1.36 1.36 0.0 0 0 133.86 96.35
  Q 134.58 95.74 134.29 94.77
  A 1.45 1.45 0.0 0 0 133.56 93.90
  Q 131.04 92.65 130.42 95.06
  Q 130.27 95.64 129.70 95.48
  L 129.36 95.38
  A 0.60 0.59 20.9 0 1 128.99 94.56
  Q 130.92 90.52 134.06 92.18
  Q 136.85 93.67 135.16 96.55
  Q 134.87 97.05 134.34 97.27
  Q 134.25 97.31 134.16 97.33
  Q 133.54 97.50 134.16 97.65
  Z"
/>
<circle fill="#fee1e8" cx="67.10" cy="131.33" r="7.09"/>
</svg>
