<?xml version="1.0" encoding="UTF-8" standalone="no"?>
<!DOCTYPE svg PUBLIC "-//W3C//DTD SVG 1.1//EN" "http://www.w3.org/Graphics/SVG/1.1/DTD/svg11.dtd">
<svg xmlns="http://www.w3.org/2000/svg" version="1.1" viewBox="0.00 0.00 512.00 512.00">
<g stroke-width="2.00" fill="none" stroke-linecap="butt">
<path stroke="#fbe591" vector-effect="non-scaling-stroke" d="
  M 300.49 130.96
  L 300.62 132.73
  Q 300.69 133.68 301.40 133.05
  Q 303.31 131.37 305.83 132.39
  Q 306.85 132.80 306.50 131.75
  L 306.10 130.55
  Q 305.90 129.95 306.04 129.33
  Q 306.25 128.44 306.90 127.67
  Q 307.90 126.48 306.36 126.73
  Q 303.89 127.14 303.05 125.02
  Q 302.83 124.47 302.27 124.37
  A 0.66 0.66 0.0 0 0 301.49 124.99
  Q 301.39 127.85 298.72 127.80
  Q 298.34 127.80 298.04 128.06
  Q 297.93 128.16 297.86 128.29
  A 0.47 0.46 23.8 0 0 298.13 128.96
  Q 299.30 129.34 300.10 130.13
  Q 300.45 130.47 300.49 130.96"
/>
<path stroke="#fbe591" vector-effect="non-scaling-stroke" d="
  M 262.60 152.49
  Q 264.36 151.22 266.54 151.52
  Q 267.40 151.64 267.33 150.78
  Q 267.15 148.68 268.32 146.93
  Q 268.74 146.30 267.99 146.24
  Q 266.20 146.11 264.65 145.32
  A 0.86 0.86 0.0 0 1 264.27 144.91
  Q 264.09 144.47 263.68 144.36
  Q 263.12 144.22 262.94 144.78
  Q 262.27 146.96 259.96 147.54
  Q 259.26 147.72 259.74 148.26
  Q 260.23 148.80 260.92 149.10
  A 1.18 1.18 0.0 0 1 261.63 149.99
  L 262.02 152.25
  A 0.37 0.37 0.0 0 0 262.60 152.49"
/>
<path stroke="#fbe591" vector-effect="non-scaling-stroke" d="
  M 251.59 168.57
  Q 252.88 169.68 253.53 171.33
  Q 253.81 172.03 254.52 171.80
  Q 256.02 171.31 257.68 171.55
  Q 258.69 171.69 258.54 170.68
  Q 258.32 169.21 258.90 167.80
  Q 259.33 166.75 258.21 166.67
  Q 256.61 166.54 255.50 165.40
  A 0.52 0.52 0.0 0 0 254.69 165.48
  Q 253.65 167.11 251.66 168.04
  A 0.32 0.32 0.0 0 0 251.59 168.57"
/>
<path stroke="#fbe591" vector-effect="non-scaling-stroke" d="
  M 290.46 173.07
  A 0.32 0.32 0.0 0 1 290.14 172.91
  L 287.14 167.50
  A 0.32 0.32 0.0 0 0 286.54 167.61
  L 285.51 173.70
  A 0.32 0.32 0.0 0 1 285.25 173.96
  L 279.18 175.15
  A 0.32 0.32 0.0 0 0 279.10 175.74
  L 284.58 178.61
  A 0.32 0.32 0.0 0 1 284.75 178.93
  L 283.99 185.07
  A 0.32 0.32 0.0 0 0 284.54 185.34
  L 288.96 181.02
  A 0.32 0.32 0.0 0 1 289.31 180.95
  L 294.92 183.57
  A 0.32 0.32 0.0 0 0 295.34 183.13
  L 292.60 177.59
  A 0.32 0.32 0.0 0 1 292.65 177.23
  L 296.86 172.71
  A 0.32 0.32 0.0 0 0 296.58 172.17
  L 290.46 173.07"
/>
<path stroke="#fbe591" vector-effect="non-scaling-stroke" d="
  M 260.97 193.33
  A 0.33 0.33 0.0 0 1 260.64 193.17
  L 257.61 187.81
  A 0.33 0.33 0.0 0 0 257.00 187.91
  L 255.93 193.97
  A 0.33 0.33 0.0 0 1 255.67 194.24
  L 249.64 195.46
  A 0.33 0.33 0.0 0 0 249.55 196.07
  L 254.98 198.96
  A 0.33 0.33 0.0 0 1 255.15 199.29
  L 254.45 205.40
  A 0.33 0.33 0.0 0 0 255.01 205.68
  L 259.43 201.41
  A 0.33 0.33 0.0 0 1 259.80 201.34
  L 265.40 203.90
  A 0.33 0.33 0.0 0 0 265.83 203.46
  L 263.13 197.93
  A 0.33 0.33 0.0 0 1 263.19 197.56
  L 267.35 193.03
  A 0.33 0.33 0.0 0 0 267.06 192.48
  L 260.97 193.33"
/>
<path stroke="#fbe591" vector-effect="non-scaling-stroke" d="
  M 303.52 205.12
  L 303.42 203.23
  Q 303.38 202.40 302.65 202.81
  Q 302.12 203.11 301.76 203.60
  Q 301.33 204.16 300.63 204.08
  Q 299.75 203.98 298.94 203.64
  Q 297.04 202.83 298.04 204.63
  Q 299.23 206.77 297.03 208.34
  Q 296.09 209.00 297.24 209.00
  L 299.44 208.99
  Q 300.06 208.99 300.41 209.49
  L 301.59 211.14
  Q 302.07 211.81 302.40 211.05
  C 303.09 209.43 302.58 208.06 305.10 207.86
  Q 306.43 207.75 305.44 206.85
  Q 304.81 206.28 304.02 205.88
  A 0.92 0.91 12.1 0 1 303.52 205.12"
/>
<path stroke="#bc91a5" vector-effect="non-scaling-stroke" d="
  M 116.02 252.38
  A 46.97 35.90 0.0 0 0 69.05 216.48
  A 46.97 35.90 0.0 0 0 22.08 252.38
  A 46.97 35.90 0.0 0 0 69.05 288.28
  A 46.97 35.90 0.0 0 0 116.02 252.38"
/>
<path stroke="#bc91a5" vector-effect="non-scaling-stroke" d="
  M 381.95 252.39
  A 46.97 35.90 0.0 0 0 334.98 216.49
  A 46.97 35.90 0.0 0 0 288.01 252.39
  A 46.97 35.90 0.0 0 0 334.98 288.29
  A 46.97 35.90 0.0 0 0 381.95 252.39"
/>
<path stroke="#bc91a5" vector-effect="non-scaling-stroke" d="
  M 166.27 252.58
  Q 166.31 252.47 166.43 252.47
  Q 181.50 252.13 194.63 246.31
  C 199.10 244.33 202.97 241.01 204.14 236.05
  C 207.60 221.41 183.28 217.69 174.19 217.62
  Q 147.90 217.41 124.18 217.64
  Q 123.82 217.64 123.80 218.01
  L 123.77 218.40
  Q 123.70 219.20 124.51 219.18
  Q 130.67 219.03 135.89 219.65
  Q 140.00 220.13 140.00 224.00
  Q 140.00 251.97 140.01 281.21
  A 4.31 4.31 0.0 0 1 135.73 285.52
  L 124.43 285.60
  Q 123.70 285.61 123.78 286.33
  L 123.82 286.68
  A 0.40 0.39 86.0 0 0 124.22 287.04
  L 164.50 286.99
  Q 165.15 286.99 165.14 286.35
  L 165.13 286.01
  A 0.38 0.38 0.0 0 0 164.74 285.64
  Q 159.84 285.83 154.33 285.67
  C 151.60 285.59 148.75 284.28 148.75 281.26
  Q 148.76 266.95 148.75 253.00
  A 0.32 0.32 0.0 0 1 149.08 252.68
  C 164.96 252.85 178.00 262.57 189.70 273.71
  C 203.41 286.77 216.25 301.39 230.39 313.59
  C 245.14 326.30 262.63 335.80 281.79 333.63
  Q 282.85 333.51 281.79 333.37
  Q 270.63 331.96 260.90 326.38
  Q 251.90 321.22 243.77 314.77
  C 225.49 300.28 209.75 283.93 193.39 267.68
  Q 189.69 264.00 185.72 260.28
  Q 179.18 254.16 166.21 252.87
  Q 166.19 252.87 166.20 252.85
  L 166.27 252.58"
/>
<path stroke="#bc91a5" vector-effect="non-scaling-stroke" d="
  M 249.84 219.84
  C 252.60 220.12 254.20 221.27 254.20 224.15
  Q 254.24 252.57 254.20 280.51
  Q 254.19 284.97 249.72 285.02
  L 238.48 285.13
  A 0.50 0.50 0.0 0 0 237.98 285.65
  L 237.99 286.00
  Q 238.03 286.74 238.77 286.74
  L 278.91 286.72
  A 0.54 0.54 0.0 0 0 279.45 286.18
  L 279.45 285.88
  Q 279.44 285.11 278.68 285.14
  Q 273.01 285.31 267.52 285.12
  Q 263.05 284.97 263.05 280.58
  Q 263.06 251.66 263.03 223.43
  C 263.03 218.22 275.56 219.18 278.73 219.35
  A 0.54 0.53 -87.9 0 0 279.29 218.82
  L 279.29 218.48
  Q 279.30 217.92 278.74 217.92
  L 238.50 217.87
  Q 237.97 217.87 237.98 218.40
  L 237.99 218.66
  A 0.65 0.65 0.0 0 0 238.64 219.30
  Q 244.29 219.28 249.84 219.84"
/>
<path stroke="#bc91a5" vector-effect="non-scaling-stroke" d="
  M 410.17 228.82
  Q 443.24 257.79 476.81 287.26
  Q 476.98 287.40 477.18 287.30
  A 0.49 0.48 77.6 0 0 477.46 286.86
  Q 477.44 257.58 477.38 229.08
  C 477.37 225.10 476.27 220.33 482.14 219.67
  Q 488.08 219.00 493.27 219.33
  Q 493.76 219.36 493.76 218.86
  L 493.76 218.49
  A 0.56 0.56 0.0 0 0 493.20 217.94
  L 458.42 217.88
  A 0.58 0.58 0.0 0 0 457.86 218.59
  L 457.92 218.87
  A 0.44 0.44 0.0 0 0 458.34 219.22
  Q 463.60 219.35 468.70 219.65
  C 471.42 219.80 474.26 220.86 474.26 224.00
  Q 474.27 248.26 474.26 273.89
  A 0.43 0.43 0.0 0 1 473.55 274.21
  L 410.32 218.68
  A 3.07 3.06 -24.4 0 0 408.26 217.91
  L 392.51 218.01
  Q 389.67 218.03 392.42 218.74
  C 396.78 219.86 402.64 221.64 405.77 224.91
  A 1.71 1.69 -67.6 0 1 406.24 226.06
  Q 406.32 252.59 406.27 281.85
  C 406.26 284.34 403.03 285.13 400.89 285.08
  Q 396.06 284.98 390.87 285.11
  A 0.84 0.83 -89.6 0 0 390.06 285.92
  L 390.05 286.21
  A 0.48 0.48 0.0 0 0 390.52 286.71
  Q 407.52 286.73 424.50 286.76
  Q 425.35 286.76 425.49 286.66
  Q 426.95 285.62 425.21 285.19
  Q 424.40 284.99 423.28 285.06
  Q 418.14 285.39 413.26 284.89
  C 409.47 284.50 409.60 282.01 409.59 279.01
  Q 409.50 254.86 409.60 229.08
  Q 409.61 228.33 410.17 228.82"
/>
<path stroke="#bc91a5" vector-effect="non-scaling-stroke" d="
  M 347.14 325.89
  Q 347.11 324.71 347.69 323.50
  Q 351.76 315.05 355.79 306.92
  Q 356.23 306.04 355.25 306.02
  L 353.67 305.99
  A 1.42 1.42 0.0 0 0 352.34 306.84
  Q 351.58 308.56 350.58 310.30
  C 348.74 313.52 347.59 316.93 345.53 320.09
  C 344.75 321.29 345.07 322.33 344.84 323.64
  C 344.40 326.21 347.84 328.97 350.09 327.10
  Q 351.60 325.83 352.71 324.33
  Q 352.81 324.20 352.68 324.09
  L 352.68 324.09
  Q 352.53 323.96 352.40 324.10
  Q 351.42 325.18 350.40 326.31
  Q 348.93 327.93 347.46 326.59
  A 0.98 0.97 -69.8 0 1 347.14 325.89"
/>
<path stroke="#bc91a5" vector-effect="non-scaling-stroke" d="
  M 440.83 324.25
  C 441.43 326.60 443.05 328.30 445.52 327.40
  Q 446.02 327.21 446.31 326.78
  Q 446.64 326.29 446.13 326.59
  L 445.36 327.06
  A 1.52 1.51 -8.5 0 1 443.11 325.40
  Q 443.46 324.01 444.13 322.59
  Q 447.95 314.61 451.93 306.76
  Q 452.20 306.23 451.61 306.10
  Q 450.47 305.86 449.28 306.14
  A 1.32 1.29 5.0 0 0 448.39 306.87
  C 447.28 309.33 445.94 311.55 444.83 313.99
  Q 442.96 318.10 440.71 322.11
  C 439.74 323.83 438.08 325.39 436.60 326.70
  Q 435.59 327.59 434.60 326.85
  A 1.54 1.53 31.2 0 1 434.13 324.95
  Q 435.67 321.74 437.28 318.71
  C 438.33 316.74 438.87 312.19 435.87 311.64
  Q 435.54 311.58 435.69 311.88
  Q 436.55 313.57 435.47 315.30
  Q 433.50 318.49 432.23 321.39
  C 430.43 325.52 434.05 330.25 438.10 326.25
  Q 439.17 325.19 439.99 324.09
  Q 440.59 323.29 440.83 324.25"
/>
<path stroke="#bc91a5" vector-effect="non-scaling-stroke" d="
  M 470.75 316.06
  Q 474.43 311.96 476.98 307.53
  Q 477.79 306.13 476.29 306.74
  Q 475.03 307.25 474.57 308.55
  C 473.83 310.65 473.22 312.69 471.61 314.36
  Q 470.66 315.36 470.01 316.55
  Q 469.69 317.14 469.04 317.32
  Q 465.58 318.29 464.68 321.84
  Q 464.07 324.25 466.24 326.44
  Q 467.90 328.11 470.65 327.59
  C 479.25 325.97 477.51 320.24 474.43 314.64
  Q 474.10 314.04 474.04 314.72
  C 473.85 316.72 474.64 318.55 474.36 320.56
  C 473.99 323.21 471.33 327.69 468.00 326.87
  C 464.28 325.95 464.98 321.59 468.41 320.79
  Q 470.71 320.24 470.23 317.97
  A 2.22 2.20 -30.1 0 1 470.75 316.06"
/>
<path stroke="#bc91a5" vector-effect="non-scaling-stroke" d="
  M 277.86 327.11
  A 1.75 1.74 5.3 0 1 276.51 325.49
  C 276.30 321.18 280.42 315.77 283.57 313.11
  Q 285.03 311.88 287.01 312.21
  Q 289.05 312.56 287.17 311.70
  Q 285.55 310.96 283.78 311.63
  C 278.84 313.48 272.86 319.14 274.46 324.93
  C 275.28 327.90 278.52 328.62 280.75 326.50
  Q 282.70 324.64 283.23 323.20
  Q 283.55 322.32 282.93 323.03
  Q 281.32 324.89 279.62 326.60
  Q 278.88 327.34 277.86 327.11"
/>
<path stroke="#bc91a5" vector-effect="non-scaling-stroke" d="
  M 312.26 326.41
  C 310.14 322.64 316.57 315.12 319.32 312.82
  Q 321.08 311.35 322.93 312.37
  Q 323.15 312.49 323.26 312.27
  L 323.27 312.26
  Q 323.35 312.10 323.19 312.00
  Q 321.10 310.77 318.76 311.75
  C 313.62 313.92 309.38 318.25 309.61 323.96
  Q 309.72 326.83 312.44 327.61
  C 315.34 328.45 317.72 325.16 318.77 322.94
  Q 318.79 322.89 318.74 322.87
  L 318.51 322.75
  Q 318.32 322.66 318.22 322.85
  Q 316.83 325.62 314.34 327.00
  A 1.54 1.53 60.7 0 1 312.26 326.41"
/>
<path stroke="#bc91a5" vector-effect="non-scaling-stroke" d="
  M 364.18 323.46
  Q 364.15 325.90 366.02 327.26
  C 369.06 329.47 373.12 323.00 374.30 321.01
  Q 377.03 316.39 380.07 312.40
  A 1.04 1.04 0.0 0 1 381.89 312.70
  C 382.01 313.06 381.97 313.81 381.81 314.17
  Q 379.15 320.40 375.54 326.54
  Q 375.11 327.27 375.96 327.27
  L 378.08 327.27
  Q 378.83 327.27 379.16 326.59
  Q 381.03 322.77 383.26 318.57
  Q 384.18 316.84 385.41 315.47
  Q 387.00 313.71 388.71 312.16
  A 1.11 1.10 50.5 0 1 390.34 312.32
  Q 391.03 313.25 390.50 314.49
  Q 387.82 320.71 384.09 327.00
  A 0.06 0.05 -67.3 0 0 384.12 327.08
  Q 384.95 327.40 387.52 327.24
  Q 387.67 327.23 387.74 327.10
  Q 390.27 322.21 392.84 317.56
  Q 394.27 314.95 398.36 311.91
  Q 399.08 311.37 398.22 311.64
  C 396.29 312.24 394.69 314.52 393.43 316.01
  Q 392.75 316.82 392.76 315.76
  C 392.80 312.22 390.29 310.08 387.38 312.59
  Q 385.91 313.85 385.11 315.14
  Q 383.72 317.38 383.88 314.74
  Q 383.92 314.13 383.85 313.51
  C 383.55 311.09 380.66 311.20 379.41 312.70
  Q 376.66 316.03 373.71 320.98
  Q 371.54 324.62 368.68 327.02
  A 1.17 1.17 0.0 0 1 367.33 327.12
  C 366.21 326.44 366.39 325.05 366.83 324.03
  Q 369.38 318.12 372.38 312.76
  Q 372.96 311.72 371.77 311.75
  L 370.06 311.80
  Q 368.79 311.84 368.29 313.01
  Q 366.83 316.44 364.97 320.11
  Q 363.98 322.06 362.65 323.51
  Q 361.12 325.19 359.59 326.72
  A 1.74 1.74 0.0 0 1 356.83 326.33
  C 354.83 322.68 361.22 315.16 364.09 312.75
  Q 365.74 311.38 367.49 312.54
  Q 367.75 312.71 367.91 312.46
  L 368.06 312.26
  Q 368.10 312.19 368.04 312.14
  C 364.42 309.51 358.90 314.03 356.63 316.88
  C 355.29 318.56 354.68 320.68 353.78 322.62
  A 1.25 1.21 -42.5 0 0 353.73 323.49
  Q 354.43 325.72 355.77 326.84
  C 359.11 329.64 361.76 325.67 363.50 323.24
  Q 364.20 322.27 364.18 323.46"
/>
<path stroke="#bc91a5" vector-effect="non-scaling-stroke" d="
  M 301.81 313.33
  Q 301.91 313.51 302.11 313.50
  Q 302.55 313.49 302.89 313.21
  Q 303.58 312.67 304.29 312.24
  A 1.82 1.81 -10.0 0 1 307.01 314.14
  Q 305.57 321.53 299.23 326.44
  Q 297.92 327.45 296.21 326.85
  Q 295.35 326.55 295.94 327.25
  Q 296.46 327.88 297.28 327.73
  C 302.77 326.71 312.14 320.76 308.49 313.50
  C 307.30 311.14 304.68 311.13 302.69 312.44
  A 0.73 0.73 0.0 0 1 301.85 312.41
  Q 300.40 311.35 298.80 311.93
  A 1.23 1.23 0.0 0 0 298.08 312.58
  Q 295.28 318.62 291.99 323.71
  C 291.38 324.65 291.50 325.59 291.03 326.54
  Q 287.23 334.14 283.23 342.03
  A 0.35 0.35 0.0 0 0 283.53 342.54
  L 285.96 342.55
  A 0.86 0.84 12.6 0 0 286.75 342.06
  Q 293.07 328.64 300.55 315.45
  Q 300.77 315.06 300.74 314.61
  Q 300.67 313.76 301.50 313.24
  A 0.22 0.22 0.0 0 1 301.81 313.33"
/>
<path stroke="#bc91a5" vector-effect="non-scaling-stroke" d="
  M 337.04 312.71
  A 0.96 0.95 -49.4 0 1 337.10 313.52
  Q 334.74 319.62 330.89 326.37
  Q 330.25 327.49 331.54 327.43
  L 333.04 327.37
  Q 333.95 327.33 334.36 326.52
  Q 335.85 323.58 337.55 320.64
  C 338.73 318.58 339.04 315.93 339.20 313.63
  A 1.91 1.90 -77.7 0 0 337.98 311.71
  C 336.56 311.17 334.92 312.02 334.11 313.20
  C 331.03 317.71 328.35 323.38 324.08 326.86
  A 1.33 1.33 0.0 0 1 321.91 325.99
  Q 321.75 324.67 322.36 323.38
  Q 324.91 317.87 327.57 312.96
  Q 328.35 311.54 326.73 311.72
  L 325.21 311.90
  Q 323.85 312.06 323.39 313.34
  Q 321.99 317.26 319.48 321.35
  A 1.40 1.39 -36.3 0 0 319.31 322.44
  C 319.69 323.90 319.41 325.05 320.40 326.37
  C 321.98 328.47 324.47 327.62 325.87 325.99
  Q 329.33 321.98 333.75 314.40
  Q 334.50 313.11 336.09 312.12
  Q 336.55 311.83 337.04 312.71"
/>
<path stroke="#bc91a5" vector-effect="non-scaling-stroke" d="
  M 339.98 320.09
  A 2.12 2.11 -31.6 0 1 340.58 317.60
  L 345.09 313.93
  Q 345.72 313.41 345.89 312.61
  Q 346.19 311.15 344.15 311.84
  Q 343.36 312.11 342.75 312.69
  Q 340.73 314.61 339.40 318.23
  Q 339.21 318.75 339.44 319.25
  Q 339.65 319.72 339.68 320.23
  A 2.38 2.38 0.0 0 0 341.63 322.46
  Q 342.92 322.69 343.96 321.86
  Q 344.39 321.52 343.84 321.60
  Q 343.33 321.67 342.86 321.91
  Q 342.25 322.21 341.65 321.90
  Q 340.52 321.30 339.98 320.09"
/>
<path stroke="#bc91a5" vector-effect="non-scaling-stroke" d="
  M 398.17 325.49
  C 399.28 321.87 402.42 318.83 402.29 315.02
  Q 402.21 312.38 399.75 311.57
  Q 398.96 311.31 399.54 311.91
  Q 400.77 313.20 399.82 314.79
  C 398.07 317.71 395.59 320.82 395.90 324.50
  C 396.14 327.55 399.38 328.73 401.62 326.67
  Q 403.21 325.21 404.20 323.31
  Q 404.25 323.22 404.16 323.16
  L 404.15 323.16
  Q 404.01 323.06 403.91 323.20
  Q 402.52 325.06 400.88 326.61
  Q 399.77 327.65 398.60 326.79
  A 1.19 1.19 0.0 0 1 398.17 325.49"
/>
<path stroke="#bc91a5" vector-effect="non-scaling-stroke" d="
  M 428.63 315.65
  C 429.28 312.53 426.51 309.83 423.98 312.83
  C 421.02 316.32 414.91 329.15 409.04 326.90
  C 406.28 325.84 407.57 322.15 408.55 320.27
  Q 411.28 314.99 415.50 312.30
  Q 417.39 311.11 415.23 311.66
  Q 407.00 313.77 404.73 322.32
  Q 404.62 322.75 404.88 323.11
  C 405.64 324.16 405.55 325.41 406.61 326.34
  C 413.22 332.16 420.50 319.00 423.08 314.84
  Q 423.93 313.48 425.37 312.33
  A 0.83 0.83 0.0 0 1 426.72 312.90
  Q 426.80 313.80 426.42 314.66
  Q 423.71 320.87 420.35 326.63
  Q 419.96 327.30 420.73 327.29
  Q 422.80 327.29 422.89 327.29
  Q 423.65 327.29 423.94 326.65
  C 426.39 321.20 429.38 314.67 434.12 311.91
  Q 434.99 311.40 434.01 311.65
  C 431.90 312.17 430.56 314.40 429.09 315.90
  Q 428.43 316.57 428.63 315.65"
/>
<path stroke="#bc91a5" vector-effect="non-scaling-stroke" d="
  M 417.98 313.50
  C 417.08 316.37 412.75 317.96 410.07 318.96
  Q 410.00 318.98 410.01 319.06
  Q 410.02 319.20 410.09 319.31
  Q 410.22 319.53 410.48 319.48
  C 413.15 318.91 418.15 317.59 419.45 315.07
  C 420.19 313.63 419.68 311.83 417.90 311.56
  Q 417.52 311.51 417.62 311.87
  Q 417.66 312.01 417.75 312.13
  Q 418.21 312.76 417.98 313.50"
/>
<path stroke="#bc91a5" vector-effect="non-scaling-stroke" d="
  M 450.25 323.62
  C 450.83 327.78 455.05 328.94 458.09 326.20
  Q 462.50 322.21 464.04 315.93
  Q 464.21 315.23 463.52 315.44
  C 459.62 316.64 459.83 318.59 460.46 321.90
  Q 460.57 322.48 460.26 322.99
  Q 458.50 325.81 455.83 327.03
  A 2.35 2.35 0.0 0 1 452.61 325.56
  Q 452.29 324.48 452.66 323.07
  Q 454.55 315.81 460.41 311.82
  Q 461.07 311.37 460.29 311.51
  C 457.02 312.08 453.63 315.06 452.04 317.64
  Q 451.16 319.07 449.72 323.12
  Q 449.68 323.23 449.71 323.33
  Q 449.75 323.47 449.96 323.42
  Q 450.21 323.36 450.25 323.62"
/>
<path stroke="#bc91a5" vector-effect="non-scaling-stroke" d="
  M 287.28 327.04
  Q 286.06 326.18 286.59 324.80
  Q 288.58 319.55 292.36 312.77
  Q 292.93 311.76 291.76 311.77
  L 290.33 311.78
  Q 289.00 311.79 288.41 312.99
  L 283.91 322.05
  Q 283.68 322.51 283.86 322.99
  C 284.30 324.17 284.22 325.32 285.06 326.37
  C 286.62 328.34 289.02 328.05 290.31 326.00
  Q 290.76 325.28 290.07 325.77
  L 288.28 327.04
  Q 287.78 327.40 287.28 327.04"
/>
<path stroke="#bc91a5" vector-effect="non-scaling-stroke" d="
  M 462.17 312.02
  C 462.76 312.52 463.11 312.85 463.40 313.60
  Q 463.66 314.27 463.82 313.57
  C 464.05 312.58 463.22 311.78 462.27 311.76
  Q 461.86 311.75 462.17 312.02"
/>
<path stroke="#bc91a5" vector-effect="non-scaling-stroke" d="
  M 446.7532 326.2533
  A 1.67 0.22 132.9 0 0 448.0512 325.1798
  A 1.67 0.22 132.9 0 0 449.0268 323.8067
  A 1.67 0.22 132.9 0 0 447.7288 324.8802
  A 1.67 0.22 132.9 0 0 446.7532 326.2533"
/>
<path stroke="#bc91a5" vector-effect="non-scaling-stroke" d="
  M 106.3342 258.5679
  A 37.83 33.44 9.0 0 0 74.2012 219.6217
  A 37.83 33.44 9.0 0 0 31.6058 246.7321
  A 37.83 33.44 9.0 0 0 63.7388 285.6783
  A 37.83 33.44 9.0 0 0 106.3342 258.5679"
/>
<path stroke="#bc91a5" vector-effect="non-scaling-stroke" d="
  M 372.2644 258.5664
  A 37.82 33.44 9.0 0 0 340.1412 219.6217
  A 37.82 33.44 9.0 0 0 297.5556 246.7336
  A 37.82 33.44 9.0 0 0 329.6788 285.6783
  A 37.82 33.44 9.0 0 0 372.2644 258.5664"
/>
<path stroke="#bc91a5" vector-effect="non-scaling-stroke" d="
  M 173.87 219.35
  Q 162.28 219.14 149.33 219.23
  A 0.58 0.57 -90.0 0 0 148.76 219.81
  L 148.76 250.21
  Q 148.76 250.73 149.28 250.73
  Q 155.38 250.66 160.80 250.77
  Q 168.51 250.93 172.22 250.23
  C 179.13 248.91 188.53 245.94 192.55 240.14
  Q 195.97 235.21 193.98 229.72
  C 191.35 222.41 180.91 219.48 173.87 219.35"
/>
</g>
<path fill="#ffffff" d="
  M 0.00 0.00
  L 512.00 0.00
  L 512.00 512.00
  L 0.00 512.00
  L 0.00 0.00
  Z
  M 300.49 130.96
  L 300.62 132.73
  Q 300.69 133.68 301.40 133.05
  Q 303.31 131.37 305.83 132.39
  Q 306.85 132.80 306.50 131.75
  L 306.10 130.55
  Q 305.90 129.95 306.04 129.33
  Q 306.25 128.44 306.90 127.67
  Q 307.90 126.48 306.36 126.73
  Q 303.89 127.14 303.05 125.02
  Q 302.83 124.47 302.27 124.37
  A 0.66 0.66 0.0 0 0 301.49 124.99
  Q 301.39 127.85 298.72 127.80
  Q 298.34 127.80 298.04 128.06
  Q 297.93 128.16 297.86 128.29
  A 0.47 0.46 23.8 0 0 298.13 128.96
  Q 299.30 129.34 300.10 130.13
  Q 300.45 130.47 300.49 130.96
  Z
  M 262.60 152.49
  Q 264.36 151.22 266.54 151.52
  Q 267.40 151.64 267.33 150.78
  Q 267.15 148.68 268.32 146.93
  Q 268.74 146.30 267.99 146.24
  Q 266.20 146.11 264.65 145.32
  A 0.86 0.86 0.0 0 1 264.27 144.91
  Q 264.09 144.47 263.68 144.36
  Q 263.12 144.22 262.94 144.78
  Q 262.27 146.96 259.96 147.54
  Q 259.26 147.72 259.74 148.26
  Q 260.23 148.80 260.92 149.10
  A 1.18 1.18 0.0 0 1 261.63 149.99
  L 262.02 152.25
  A 0.37 0.37 0.0 0 0 262.60 152.49
  Z
  M 251.59 168.57
  Q 252.88 169.68 253.53 171.33
  Q 253.81 172.03 254.52 171.80
  Q 256.02 171.31 257.68 171.55
  Q 258.69 171.69 258.54 170.68
  Q 258.32 169.21 258.90 167.80
  Q 259.33 166.75 258.21 166.67
  Q 256.61 166.54 255.50 165.40
  A 0.52 0.52 0.0 0 0 254.69 165.48
  Q 253.65 167.11 251.66 168.04
  A 0.32 0.32 0.0 0 0 251.59 168.57
  Z
  M 290.46 173.07
  A 0.32 0.32 0.0 0 1 290.14 172.91
  L 287.14 167.50
  A 0.32 0.32 0.0 0 0 286.54 167.61
  L 285.51 173.70
  A 0.32 0.32 0.0 0 1 285.25 173.96
  L 279.18 175.15
  A 0.32 0.32 0.0 0 0 279.10 175.74
  L 284.58 178.61
  A 0.32 0.32 0.0 0 1 284.75 178.93
  L 283.99 185.07
  A 0.32 0.32 0.0 0 0 284.54 185.34
  L 288.96 181.02
  A 0.32 0.32 0.0 0 1 289.31 180.95
  L 294.92 183.57
  A 0.32 0.32 0.0 0 0 295.34 183.13
  L 292.60 177.59
  A 0.32 0.32 0.0 0 1 292.65 177.23
  L 296.86 172.71
  A 0.32 0.32 0.0 0 0 296.58 172.17
  L 290.46 173.07
  Z
  M 260.97 193.33
  A 0.33 0.33 0.0 0 1 260.64 193.17
  L 257.61 187.81
  A 0.33 0.33 0.0 0 0 257.00 187.91
  L 255.93 193.97
  A 0.33 0.33 0.0 0 1 255.67 194.24
  L 249.64 195.46
  A 0.33 0.33 0.0 0 0 249.55 196.07
  L 254.98 198.96
  A 0.33 0.33 0.0 0 1 255.15 199.29
  L 254.45 205.40
  A 0.33 0.33 0.0 0 0 255.01 205.68
  L 259.43 201.41
  A 0.33 0.33 0.0 0 1 259.80 201.34
  L 265.40 203.90
  A 0.33 0.33 0.0 0 0 265.83 203.46
  L 263.13 197.93
  A 0.33 0.33 0.0 0 1 263.19 197.56
  L 267.35 193.03
  A 0.33 0.33 0.0 0 0 267.06 192.48
  L 260.97 193.33
  Z
  M 303.52 205.12
  L 303.42 203.23
  Q 303.38 202.40 302.65 202.81
  Q 302.12 203.11 301.76 203.60
  Q 301.33 204.16 300.63 204.08
  Q 299.75 203.98 298.94 203.64
  Q 297.04 202.83 298.04 204.63
  Q 299.23 206.77 297.03 208.34
  Q 296.09 209.00 297.24 209.00
  L 299.44 208.99
  Q 300.06 208.99 300.41 209.49
  L 301.59 211.14
  Q 302.07 211.81 302.40 211.05
  C 303.09 209.43 302.58 208.06 305.10 207.86
  Q 306.43 207.75 305.44 206.85
  Q 304.81 206.28 304.02 205.88
  A 0.92 0.91 12.1 0 1 303.52 205.12
  Z
  M 116.02 252.38
  A 46.97 35.90 0.0 0 0 69.05 216.48
  A 46.97 35.90 0.0 0 0 22.08 252.38
  A 46.97 35.90 0.0 0 0 69.05 288.28
  A 46.97 35.90 0.0 0 0 116.02 252.38
  Z
  M 381.95 252.39
  A 46.97 35.90 0.0 0 0 334.98 216.49
  A 46.97 35.90 0.0 0 0 288.01 252.39
  A 46.97 35.90 0.0 0 0 334.98 288.29
  A 46.97 35.90 0.0 0 0 381.95 252.39
  Z
  M 166.27 252.58
  Q 166.31 252.47 166.43 252.47
  Q 181.50 252.13 194.63 246.31
  C 199.10 244.33 202.97 241.01 204.14 236.05
  C 207.60 221.41 183.28 217.69 174.19 217.62
  Q 147.90 217.41 124.18 217.64
  Q 123.82 217.64 123.80 218.01
  L 123.77 218.40
  Q 123.70 219.20 124.51 219.18
  Q 130.67 219.03 135.89 219.65
  Q 140.00 220.13 140.00 224.00
  Q 140.00 251.97 140.01 281.21
  A 4.31 4.31 0.0 0 1 135.73 285.52
  L 124.43 285.60
  Q 123.70 285.61 123.78 286.33
  L 123.82 286.68
  A 0.40 0.39 86.0 0 0 124.22 287.04
  L 164.50 286.99
  Q 165.15 286.99 165.14 286.35
  L 165.13 286.01
  A 0.38 0.38 0.0 0 0 164.74 285.64
  Q 159.84 285.83 154.33 285.67
  C 151.60 285.59 148.75 284.28 148.75 281.26
  Q 148.76 266.95 148.75 253.00
  A 0.32 0.32 0.0 0 1 149.08 252.68
  C 164.96 252.85 178.00 262.57 189.70 273.71
  C 203.41 286.77 216.25 301.39 230.39 313.59
  C 245.14 326.30 262.63 335.80 281.79 333.63
  Q 282.85 333.51 281.79 333.37
  Q 270.63 331.96 260.90 326.38
  Q 251.90 321.22 243.77 314.77
  C 225.49 300.28 209.75 283.93 193.39 267.68
  Q 189.69 264.00 185.72 260.28
  Q 179.18 254.16 166.21 252.87
  Q 166.19 252.87 166.20 252.85
  L 166.27 252.58
  Z
  M 249.84 219.84
  C 252.60 220.12 254.20 221.27 254.20 224.15
  Q 254.24 252.57 254.20 280.51
  Q 254.19 284.97 249.72 285.02
  L 238.48 285.13
  A 0.50 0.50 0.0 0 0 237.98 285.65
  L 237.99 286.00
  Q 238.03 286.74 238.77 286.74
  L 278.91 286.72
  A 0.54 0.54 0.0 0 0 279.45 286.18
  L 279.45 285.88
  Q 279.44 285.11 278.68 285.14
  Q 273.01 285.31 267.52 285.12
  Q 263.05 284.97 263.05 280.58
  Q 263.06 251.66 263.03 223.43
  C 263.03 218.22 275.56 219.18 278.73 219.35
  A 0.54 0.53 -87.9 0 0 279.29 218.82
  L 279.29 218.48
  Q 279.30 217.92 278.74 217.92
  L 238.50 217.87
  Q 237.97 217.87 237.98 218.40
  L 237.99 218.66
  A 0.65 0.65 0.0 0 0 238.64 219.30
  Q 244.29 219.28 249.84 219.84
  Z
  M 410.17 228.82
  Q 443.24 257.79 476.81 287.26
  Q 476.98 287.40 477.18 287.30
  A 0.49 0.48 77.6 0 0 477.46 286.86
  Q 477.44 257.58 477.38 229.08
  C 477.37 225.10 476.27 220.33 482.14 219.67
  Q 488.08 219.00 493.27 219.33
  Q 493.76 219.36 493.76 218.86
  L 493.76 218.49
  A 0.56 0.56 0.0 0 0 493.20 217.94
  L 458.42 217.88
  A 0.58 0.58 0.0 0 0 457.86 218.59
  L 457.92 218.87
  A 0.44 0.44 0.0 0 0 458.34 219.22
  Q 463.60 219.35 468.70 219.65
  C 471.42 219.80 474.26 220.86 474.26 224.00
  Q 474.27 248.26 474.26 273.89
  A 0.43 0.43 0.0 0 1 473.55 274.21
  L 410.32 218.68
  A 3.07 3.06 -24.4 0 0 408.26 217.91
  L 392.51 218.01
  Q 389.67 218.03 392.42 218.74
  C 396.78 219.86 402.64 221.64 405.77 224.91
  A 1.71 1.69 -67.6 0 1 406.24 226.06
  Q 406.32 252.59 406.27 281.85
  C 406.26 284.34 403.03 285.13 400.89 285.08
  Q 396.06 284.98 390.87 285.11
  A 0.84 0.83 -89.6 0 0 390.06 285.92
  L 390.05 286.21
  A 0.48 0.48 0.0 0 0 390.52 286.71
  Q 407.52 286.73 424.50 286.76
  Q 425.35 286.76 425.49 286.66
  Q 426.95 285.62 425.21 285.19
  Q 424.40 284.99 423.28 285.06
  Q 418.14 285.39 413.26 284.89
  C 409.47 284.50 409.60 282.01 409.59 279.01
  Q 409.50 254.86 409.60 229.08
  Q 409.61 228.33 410.17 228.82
  Z
  M 347.14 325.89
  Q 347.11 324.71 347.69 323.50
  Q 351.76 315.05 355.79 306.92
  Q 356.23 306.04 355.25 306.02
  L 353.67 305.99
  A 1.42 1.42 0.0 0 0 352.34 306.84
  Q 351.58 308.56 350.58 310.30
  C 348.74 313.52 347.59 316.93 345.53 320.09
  C 344.75 321.29 345.07 322.33 344.84 323.64
  C 344.40 326.21 347.84 328.97 350.09 327.10
  Q 351.60 325.83 352.71 324.33
  Q 352.81 324.20 352.68 324.09
  L 352.68 324.09
  Q 352.53 323.96 352.40 324.10
  Q 351.42 325.18 350.40 326.31
  Q 348.93 327.93 347.46 326.59
  A 0.98 0.97 -69.8 0 1 347.14 325.89
  Z
  M 440.83 324.25
  C 441.43 326.60 443.05 328.30 445.52 327.40
  Q 446.02 327.21 446.31 326.78
  Q 446.64 326.29 446.13 326.59
  L 445.36 327.06
  A 1.52 1.51 -8.5 0 1 443.11 325.40
  Q 443.46 324.01 444.13 322.59
  Q 447.95 314.61 451.93 306.76
  Q 452.20 306.23 451.61 306.10
  Q 450.47 305.86 449.28 306.14
  A 1.32 1.29 5.0 0 0 448.39 306.87
  C 447.28 309.33 445.94 311.55 444.83 313.99
  Q 442.96 318.10 440.71 322.11
  C 439.74 323.83 438.08 325.39 436.60 326.70
  Q 435.59 327.59 434.60 326.85
  A 1.54 1.53 31.2 0 1 434.13 324.95
  Q 435.67 321.74 437.28 318.71
  C 438.33 316.74 438.87 312.19 435.87 311.64
  Q 435.54 311.58 435.69 311.88
  Q 436.55 313.57 435.47 315.30
  Q 433.50 318.49 432.23 321.39
  C 430.43 325.52 434.05 330.25 438.10 326.25
  Q 439.17 325.19 439.99 324.09
  Q 440.59 323.29 440.83 324.25
  Z
  M 470.75 316.06
  Q 474.43 311.96 476.98 307.53
  Q 477.79 306.13 476.29 306.74
  Q 475.03 307.25 474.57 308.55
  C 473.83 310.65 473.22 312.69 471.61 314.36
  Q 470.66 315.36 470.01 316.55
  Q 469.69 317.14 469.04 317.32
  Q 465.58 318.29 464.68 321.84
  Q 464.07 324.25 466.24 326.44
  Q 467.90 328.11 470.65 327.59
  C 479.25 325.97 477.51 320.24 474.43 314.64
  Q 474.10 314.04 474.04 314.72
  C 473.85 316.72 474.64 318.55 474.36 320.56
  C 473.99 323.21 471.33 327.69 468.00 326.87
  C 464.28 325.95 464.98 321.59 468.41 320.79
  Q 470.71 320.24 470.23 317.97
  A 2.22 2.20 -30.1 0 1 470.75 316.06
  Z
  M 277.86 327.11
  A 1.75 1.74 5.3 0 1 276.51 325.49
  C 276.30 321.18 280.42 315.77 283.57 313.11
  Q 285.03 311.88 287.01 312.21
  Q 289.05 312.56 287.17 311.70
  Q 285.55 310.96 283.78 311.63
  C 278.84 313.48 272.86 319.14 274.46 324.93
  C 275.28 327.90 278.52 328.62 280.75 326.50
  Q 282.70 324.64 283.23 323.20
  Q 283.55 322.32 282.93 323.03
  Q 281.32 324.89 279.62 326.60
  Q 278.88 327.34 277.86 327.11
  Z
  M 312.26 326.41
  C 310.14 322.64 316.57 315.12 319.32 312.82
  Q 321.08 311.35 322.93 312.37
  Q 323.15 312.49 323.26 312.27
  L 323.27 312.26
  Q 323.35 312.10 323.19 312.00
  Q 321.10 310.77 318.76 311.75
  C 313.62 313.92 309.38 318.25 309.61 323.96
  Q 309.72 326.83 312.44 327.61
  C 315.34 328.45 317.72 325.16 318.77 322.94
  Q 318.79 322.89 318.74 322.87
  L 318.51 322.75
  Q 318.32 322.66 318.22 322.85
  Q 316.83 325.62 314.34 327.00
  A 1.54 1.53 60.7 0 1 312.26 326.41
  Z
  M 364.18 323.46
  Q 364.15 325.90 366.02 327.26
  C 369.06 329.47 373.12 323.00 374.30 321.01
  Q 377.03 316.39 380.07 312.40
  A 1.04 1.04 0.0 0 1 381.89 312.70
  C 382.01 313.06 381.97 313.81 381.81 314.17
  Q 379.15 320.40 375.54 326.54
  Q 375.11 327.27 375.96 327.27
  L 378.08 327.27
  Q 378.83 327.27 379.16 326.59
  Q 381.03 322.77 383.26 318.57
  Q 384.18 316.84 385.41 315.47
  Q 387.00 313.71 388.71 312.16
  A 1.11 1.10 50.5 0 1 390.34 312.32
  Q 391.03 313.25 390.50 314.49
  Q 387.82 320.71 384.09 327.00
  A 0.06 0.05 -67.3 0 0 384.12 327.08
  Q 384.95 327.40 387.52 327.24
  Q 387.67 327.23 387.74 327.10
  Q 390.27 322.21 392.84 317.56
  Q 394.27 314.95 398.36 311.91
  Q 399.08 311.37 398.22 311.64
  C 396.29 312.24 394.69 314.52 393.43 316.01
  Q 392.75 316.82 392.76 315.76
  C 392.80 312.22 390.29 310.08 387.38 312.59
  Q 385.91 313.85 385.11 315.14
  Q 383.72 317.38 383.88 314.74
  Q 383.92 314.13 383.85 313.51
  C 383.55 311.09 380.66 311.20 379.41 312.70
  Q 376.66 316.03 373.71 320.98
  Q 371.54 324.62 368.68 327.02
  A 1.17 1.17 0.0 0 1 367.33 327.12
  C 366.21 326.44 366.39 325.05 366.83 324.03
  Q 369.38 318.12 372.38 312.76
  Q 372.96 311.72 371.77 311.75
  L 370.06 311.80
  Q 368.79 311.84 368.29 313.01
  Q 366.83 316.44 364.97 320.11
  Q 363.98 322.06 362.65 323.51
  Q 361.12 325.19 359.59 326.72
  A 1.74 1.74 0.0 0 1 356.83 326.33
  C 354.83 322.68 361.22 315.16 364.09 312.75
  Q 365.74 311.38 367.49 312.54
  Q 367.75 312.71 367.91 312.46
  L 368.06 312.26
  Q 368.10 312.19 368.04 312.14
  C 364.42 309.51 358.90 314.03 356.63 316.88
  C 355.29 318.56 354.68 320.68 353.78 322.62
  A 1.25 1.21 -42.5 0 0 353.73 323.49
  Q 354.43 325.72 355.77 326.84
  C 359.11 329.64 361.76 325.67 363.50 323.24
  Q 364.20 322.27 364.18 323.46
  Z
  M 301.81 313.33
  Q 301.91 313.51 302.11 313.50
  Q 302.55 313.49 302.89 313.21
  Q 303.58 312.67 304.29 312.24
  A 1.82 1.81 -10.0 0 1 307.01 314.14
  Q 305.57 321.53 299.23 326.44
  Q 297.92 327.45 296.21 326.85
  Q 295.35 326.55 295.94 327.25
  Q 296.46 327.88 297.28 327.73
  C 302.77 326.71 312.14 320.76 308.49 313.50
  C 307.30 311.14 304.68 311.13 302.69 312.44
  A 0.73 0.73 0.0 0 1 301.85 312.41
  Q 300.40 311.35 298.80 311.93
  A 1.23 1.23 0.0 0 0 298.08 312.58
  Q 295.28 318.62 291.99 323.71
  C 291.38 324.65 291.50 325.59 291.03 326.54
  Q 287.23 334.14 283.23 342.03
  A 0.35 0.35 0.0 0 0 283.53 342.54
  L 285.96 342.55
  A 0.86 0.84 12.6 0 0 286.75 342.06
  Q 293.07 328.64 300.55 315.45
  Q 300.77 315.06 300.74 314.61
  Q 300.67 313.76 301.50 313.24
  A 0.22 0.22 0.0 0 1 301.81 313.33
  Z
  M 337.04 312.71
  A 0.96 0.95 -49.4 0 1 337.10 313.52
  Q 334.74 319.62 330.89 326.37
  Q 330.25 327.49 331.54 327.43
  L 333.04 327.37
  Q 333.95 327.33 334.36 326.52
  Q 335.85 323.58 337.55 320.64
  C 338.73 318.58 339.04 315.93 339.20 313.63
  A 1.91 1.90 -77.7 0 0 337.98 311.71
  C 336.56 311.17 334.92 312.02 334.11 313.20
  C 331.03 317.71 328.35 323.38 324.08 326.86
  A 1.33 1.33 0.0 0 1 321.91 325.99
  Q 321.75 324.67 322.36 323.38
  Q 324.91 317.87 327.57 312.96
  Q 328.35 311.54 326.73 311.72
  L 325.21 311.90
  Q 323.85 312.06 323.39 313.34
  Q 321.99 317.26 319.48 321.35
  A 1.40 1.39 -36.3 0 0 319.31 322.44
  C 319.69 323.90 319.41 325.05 320.40 326.37
  C 321.98 328.47 324.47 327.62 325.87 325.99
  Q 329.33 321.98 333.75 314.40
  Q 334.50 313.11 336.09 312.12
  Q 336.55 311.83 337.04 312.71
  Z
  M 339.98 320.09
  A 2.12 2.11 -31.6 0 1 340.58 317.60
  L 345.09 313.93
  Q 345.72 313.41 345.89 312.61
  Q 346.19 311.15 344.15 311.84
  Q 343.36 312.11 342.75 312.69
  Q 340.73 314.61 339.40 318.23
  Q 339.21 318.75 339.44 319.25
  Q 339.65 319.72 339.68 320.23
  A 2.38 2.38 0.0 0 0 341.63 322.46
  Q 342.92 322.69 343.96 321.86
  Q 344.39 321.52 343.84 321.60
  Q 343.33 321.67 342.86 321.91
  Q 342.25 322.21 341.65 321.90
  Q 340.52 321.30 339.98 320.09
  Z
  M 398.17 325.49
  C 399.28 321.87 402.42 318.83 402.29 315.02
  Q 402.21 312.38 399.75 311.57
  Q 398.96 311.31 399.54 311.91
  Q 400.77 313.20 399.82 314.79
  C 398.07 317.71 395.59 320.82 395.90 324.50
  C 396.14 327.55 399.38 328.73 401.62 326.67
  Q 403.21 325.21 404.20 323.31
  Q 404.25 323.22 404.16 323.16
  L 404.15 323.16
  Q 404.01 323.06 403.91 323.20
  Q 402.52 325.06 400.88 326.61
  Q 399.77 327.65 398.60 326.79
  A 1.19 1.19 0.0 0 1 398.17 325.49
  Z
  M 428.63 315.65
  C 429.28 312.53 426.51 309.83 423.98 312.83
  C 421.02 316.32 414.91 329.15 409.04 326.90
  C 406.28 325.84 407.57 322.15 408.55 320.27
  Q 411.28 314.99 415.50 312.30
  Q 417.39 311.11 415.23 311.66
  Q 407.00 313.77 404.73 322.32
  Q 404.62 322.75 404.88 323.11
  C 405.64 324.16 405.55 325.41 406.61 326.34
  C 413.22 332.16 420.50 319.00 423.08 314.84
  Q 423.93 313.48 425.37 312.33
  A 0.83 0.83 0.0 0 1 426.72 312.90
  Q 426.80 313.80 426.42 314.66
  Q 423.71 320.87 420.35 326.63
  Q 419.96 327.30 420.73 327.29
  Q 422.80 327.29 422.89 327.29
  Q 423.65 327.29 423.94 326.65
  C 426.39 321.20 429.38 314.67 434.12 311.91
  Q 434.99 311.40 434.01 311.65
  C 431.90 312.17 430.56 314.40 429.09 315.90
  Q 428.43 316.57 428.63 315.65
  Z
  M 417.98 313.50
  C 417.08 316.37 412.75 317.96 410.07 318.96
  Q 410.00 318.98 410.01 319.06
  Q 410.02 319.20 410.09 319.31
  Q 410.22 319.53 410.48 319.48
  C 413.15 318.91 418.15 317.59 419.45 315.07
  C 420.19 313.63 419.68 311.83 417.90 311.56
  Q 417.52 311.51 417.62 311.87
  Q 417.66 312.01 417.75 312.13
  Q 418.21 312.76 417.98 313.50
  Z
  M 450.25 323.62
  C 450.83 327.78 455.05 328.94 458.09 326.20
  Q 462.50 322.21 464.04 315.93
  Q 464.21 315.23 463.52 315.44
  C 459.62 316.64 459.83 318.59 460.46 321.90
  Q 460.57 322.48 460.26 322.99
  Q 458.50 325.81 455.83 327.03
  A 2.35 2.35 0.0 0 1 452.61 325.56
  Q 452.29 324.48 452.66 323.07
  Q 454.55 315.81 460.41 311.82
  Q 461.07 311.37 460.29 311.51
  C 457.02 312.08 453.63 315.06 452.04 317.64
  Q 451.16 319.07 449.72 323.12
  Q 449.68 323.23 449.71 323.33
  Q 449.75 323.47 449.96 323.42
  Q 450.21 323.36 450.25 323.62
  Z
  M 287.28 327.04
  Q 286.06 326.18 286.59 324.80
  Q 288.58 319.55 292.36 312.77
  Q 292.93 311.76 291.76 311.77
  L 290.33 311.78
  Q 289.00 311.79 288.41 312.99
  L 283.91 322.05
  Q 283.68 322.51 283.86 322.99
  C 284.30 324.17 284.22 325.32 285.06 326.37
  C 286.62 328.34 289.02 328.05 290.31 326.00
  Q 290.76 325.28 290.07 325.77
  L 288.28 327.04
  Q 287.78 327.40 287.28 327.04
  Z
  M 462.17 312.02
  C 462.76 312.52 463.11 312.85 463.40 313.60
  Q 463.66 314.27 463.82 313.57
  C 464.05 312.58 463.22 311.78 462.27 311.76
  Q 461.86 311.75 462.17 312.02
  Z
  M 446.7532 326.2533
  A 1.67 0.22 132.9 0 0 448.0512 325.1798
  A 1.67 0.22 132.9 0 0 449.0268 323.8067
  A 1.67 0.22 132.9 0 0 447.7288 324.8802
  A 1.67 0.22 132.9 0 0 446.7532 326.2533
  Z"
/>
<path fill="#f6ca23" d="
  M 300.10 130.13
  Q 299.30 129.34 298.13 128.96
  A 0.47 0.46 23.8 0 1 297.86 128.29
  Q 297.93 128.16 298.04 128.06
  Q 298.34 127.80 298.72 127.80
  Q 301.39 127.85 301.49 124.99
  A 0.66 0.66 0.0 0 1 302.27 124.37
  Q 302.83 124.47 303.05 125.02
  Q 303.89 127.14 306.36 126.73
  Q 307.90 126.48 306.90 127.67
  Q 306.25 128.44 306.04 129.33
  Q 305.90 129.95 306.10 130.55
  L 306.50 131.75
  Q 306.85 132.80 305.83 132.39
  Q 303.31 131.37 301.40 133.05
  Q 300.69 133.68 300.62 132.73
  L 300.49 130.96
  Q 300.45 130.47 300.10 130.13
  Z"
/>
<path fill="#f6ca23" d="
  M 262.60 152.49
  A 0.37 0.37 0.0 0 1 262.02 152.25
  L 261.63 149.99
  A 1.18 1.18 0.0 0 0 260.92 149.10
  Q 260.23 148.80 259.74 148.26
  Q 259.26 147.72 259.96 147.54
  Q 262.27 146.96 262.94 144.78
  Q 263.12 144.22 263.68 144.36
  Q 264.09 144.47 264.27 144.91
  A 0.86 0.86 0.0 0 0 264.65 145.32
  Q 266.20 146.11 267.99 146.24
  Q 268.74 146.30 268.32 146.93
  Q 267.15 148.68 267.33 150.78
  Q 267.40 151.64 266.54 151.52
  Q 264.36 151.22 262.60 152.49
  Z"
/>
<path fill="#f6ca23" d="
  M 251.59 168.57
  A 0.32 0.32 0.0 0 1 251.66 168.04
  Q 253.65 167.11 254.69 165.48
  A 0.52 0.52 0.0 0 1 255.50 165.40
  Q 256.61 166.54 258.21 166.67
  Q 259.33 166.75 258.90 167.80
  Q 258.32 169.21 258.54 170.68
  Q 258.69 171.69 257.68 171.55
  Q 256.02 171.31 254.52 171.80
  Q 253.81 172.03 253.53 171.33
  Q 252.88 169.68 251.59 168.57
  Z"
/>
<path fill="#f6ca23" d="
  M 290.46 173.07
  L 296.58 172.17
  A 0.32 0.32 0.0 0 1 296.86 172.71
  L 292.65 177.23
  A 0.32 0.32 0.0 0 0 292.60 177.59
  L 295.34 183.13
  A 0.32 0.32 0.0 0 1 294.92 183.57
  L 289.31 180.95
  A 0.32 0.32 0.0 0 0 288.96 181.02
  L 284.54 185.34
  A 0.32 0.32 0.0 0 1 283.99 185.07
  L 284.75 178.93
  A 0.32 0.32 0.0 0 0 284.58 178.61
  L 279.10 175.74
  A 0.32 0.32 0.0 0 1 279.18 175.15
  L 285.25 173.96
  A 0.32 0.32 0.0 0 0 285.51 173.70
  L 286.54 167.61
  A 0.32 0.32 0.0 0 1 287.14 167.50
  L 290.14 172.91
  A 0.32 0.32 0.0 0 0 290.46 173.07
  Z"
/>
<path fill="#f6ca23" d="
  M 260.97 193.33
  L 267.06 192.48
  A 0.33 0.33 0.0 0 1 267.35 193.03
  L 263.19 197.56
  A 0.33 0.33 0.0 0 0 263.13 197.93
  L 265.83 203.46
  A 0.33 0.33 0.0 0 1 265.40 203.90
  L 259.80 201.34
  A 0.33 0.33 0.0 0 0 259.43 201.41
  L 255.01 205.68
  A 0.33 0.33 0.0 0 1 254.45 205.40
  L 255.15 199.29
  A 0.33 0.33 0.0 0 0 254.98 198.96
  L 249.55 196.07
  A 0.33 0.33 0.0 0 1 249.64 195.46
  L 255.67 194.24
  A 0.33 0.33 0.0 0 0 255.93 193.97
  L 257.00 187.91
  A 0.33 0.33 0.0 0 1 257.61 187.81
  L 260.64 193.17
  A 0.33 0.33 0.0 0 0 260.97 193.33
  Z"
/>
<path fill="#f6ca23" d="
  M 304.02 205.88
  Q 304.81 206.28 305.44 206.85
  Q 306.43 207.75 305.10 207.86
  C 302.58 208.06 303.09 209.43 302.40 211.05
  Q 302.07 211.81 301.59 211.14
  L 300.41 209.49
  Q 300.06 208.99 299.44 208.99
  L 297.24 209.00
  Q 296.09 209.00 297.03 208.34
  Q 299.23 206.77 298.04 204.63
  Q 297.04 202.83 298.94 203.64
  Q 299.75 203.98 300.63 204.08
  Q 301.33 204.16 301.76 203.60
  Q 302.12 203.11 302.65 202.81
  Q 303.38 202.40 303.42 203.23
  L 303.52 205.12
  A 0.92 0.91 12.1 0 0 304.02 205.88
  Z"
/>
<path fill="#78234b" d="
  M 116.02 252.38
  A 46.97 35.90 0.0 0 1 69.05 288.28
  A 46.97 35.90 0.0 0 1 22.08 252.38
  A 46.97 35.90 0.0 0 1 69.05 216.48
  A 46.97 35.90 0.0 0 1 116.02 252.38
  Z
  M 106.3342 258.5679
  A 37.83 33.44 9.0 0 0 74.2012 219.6217
  A 37.83 33.44 9.0 0 0 31.6058 246.7321
  A 37.83 33.44 9.0 0 0 63.7388 285.6783
  A 37.83 33.44 9.0 0 0 106.3342 258.5679
  Z"
/>
<path fill="#78234b" d="
  M 381.95 252.39
  A 46.97 35.90 0.0 0 1 334.98 288.29
  A 46.97 35.90 0.0 0 1 288.01 252.39
  A 46.97 35.90 0.0 0 1 334.98 216.49
  A 46.97 35.90 0.0 0 1 381.95 252.39
  Z
  M 372.2644 258.5664
  A 37.82 33.44 9.0 0 0 340.1412 219.6217
  A 37.82 33.44 9.0 0 0 297.5556 246.7336
  A 37.82 33.44 9.0 0 0 329.6788 285.6783
  A 37.82 33.44 9.0 0 0 372.2644 258.5664
  Z"
/>
<path fill="#78234b" d="
  M 166.27 252.58
  L 166.20 252.85
  Q 166.19 252.87 166.21 252.87
  Q 179.18 254.16 185.72 260.28
  Q 189.69 264.00 193.39 267.68
  C 209.75 283.93 225.49 300.28 243.77 314.77
  Q 251.90 321.22 260.90 326.38
  Q 270.63 331.96 281.79 333.37
  Q 282.85 333.51 281.79 333.63
  C 262.63 335.80 245.14 326.30 230.39 313.59
  C 216.25 301.39 203.41 286.77 189.70 273.71
  C 178.00 262.57 164.96 252.85 149.08 252.68
  A 0.32 0.32 0.0 0 0 148.75 253.00
  Q 148.76 266.95 148.75 281.26
  C 148.75 284.28 151.60 285.59 154.33 285.67
  Q 159.84 285.83 164.74 285.64
  A 0.38 0.38 0.0 0 1 165.13 286.01
  L 165.14 286.35
  Q 165.15 286.99 164.50 286.99
  L 124.22 287.04
  A 0.40 0.39 86.0 0 1 123.82 286.68
  L 123.78 286.33
  Q 123.70 285.61 124.43 285.60
  L 135.73 285.52
  A 4.31 4.31 0.0 0 0 140.01 281.21
  Q 140.00 251.97 140.00 224.00
  Q 140.00 220.13 135.89 219.65
  Q 130.67 219.03 124.51 219.18
  Q 123.70 219.20 123.77 218.40
  L 123.80 218.01
  Q 123.82 217.64 124.18 217.64
  Q 147.90 217.41 174.19 217.62
  C 183.28 217.69 207.60 221.41 204.14 236.05
  C 202.97 241.01 199.10 244.33 194.63 246.31
  Q 181.50 252.13 166.43 252.47
  Q 166.31 252.47 166.27 252.58
  Z
  M 173.87 219.35
  Q 162.28 219.14 149.33 219.23
  A 0.58 0.57 -90.0 0 0 148.76 219.81
  L 148.76 250.21
  Q 148.76 250.73 149.28 250.73
  Q 155.38 250.66 160.80 250.77
  Q 168.51 250.93 172.22 250.23
  C 179.13 248.91 188.53 245.94 192.55 240.14
  Q 195.97 235.21 193.98 229.72
  C 191.35 222.41 180.91 219.48 173.87 219.35
  Z"
/>
<path fill="#78234b" d="
  M 254.20 224.15
  C 254.20 221.27 252.60 220.12 249.84 219.84
  Q 244.29 219.28 238.64 219.30
  A 0.65 0.65 0.0 0 1 237.99 218.66
  L 237.98 218.40
  Q 237.97 217.87 238.50 217.87
  L 278.74 217.92
  Q 279.30 217.92 279.29 218.48
  L 279.29 218.82
  A 0.54 0.53 -87.9 0 1 278.73 219.35
  C 275.56 219.18 263.03 218.22 263.03 223.43
  Q 263.06 251.66 263.05 280.58
  Q 263.05 284.97 267.52 285.12
  Q 273.01 285.31 278.68 285.14
  Q 279.44 285.11 279.45 285.88
  L 279.45 286.18
  A 0.54 0.54 0.0 0 1 278.91 286.72
  L 238.77 286.74
  Q 238.03 286.74 237.99 286.00
  L 237.98 285.65
  A 0.50 0.50 0.0 0 1 238.48 285.13
  L 249.72 285.02
  Q 254.19 284.97 254.20 280.51
  Q 254.24 252.57 254.20 224.15
  Z"
/>
<path fill="#78234b" d="
  M 410.17 228.82
  Q 409.61 228.33 409.60 229.08
  Q 409.50 254.86 409.59 279.01
  C 409.60 282.01 409.47 284.50 413.26 284.89
  Q 418.14 285.39 423.28 285.06
  Q 424.40 284.99 425.21 285.19
  Q 426.95 285.62 425.49 286.66
  Q 425.35 286.76 424.50 286.76
  Q 407.52 286.73 390.52 286.71
  A 0.48 0.48 0.0 0 1 390.05 286.21
  L 390.06 285.92
  A 0.84 0.83 -89.6 0 1 390.87 285.11
  Q 396.06 284.98 400.89 285.08
  C 403.03 285.13 406.26 284.34 406.27 281.85
  Q 406.32 252.59 406.24 226.06
  A 1.71 1.69 -67.6 0 0 405.77 224.91
  C 402.64 221.64 396.78 219.86 392.42 218.74
  Q 389.67 218.03 392.51 218.01
  L 408.26 217.91
  A 3.07 3.06 -24.4 0 1 410.32 218.68
  L 473.55 274.21
  A 0.43 0.43 0.0 0 0 474.26 273.89
  Q 474.27 248.26 474.26 224.00
  C 474.26 220.86 471.42 219.80 468.70 219.65
  Q 463.60 219.35 458.34 219.22
  A 0.44 0.44 0.0 0 1 457.92 218.87
  L 457.86 218.59
  A 0.58 0.58 0.0 0 1 458.42 217.88
  L 493.20 217.94
  A 0.56 0.56 0.0 0 1 493.76 218.49
  L 493.76 218.86
  Q 493.76 219.36 493.27 219.33
  Q 488.08 219.00 482.14 219.67
  C 476.27 220.33 477.37 225.10 477.38 229.08
  Q 477.44 257.58 477.46 286.86
  A 0.49 0.48 77.6 0 1 477.18 287.30
  Q 476.98 287.40 476.81 287.26
  Q 443.24 257.79 410.17 228.82
  Z"
/>
<ellipse fill="#ffffff" cx="0.00" cy="0.00" transform="translate(68.97,252.65) rotate(9.0)" rx="37.83" ry="33.44"/>
<path fill="#ffffff" d="
  M 173.87 219.35
  C 180.91 219.48 191.35 222.41 193.98 229.72
  Q 195.97 235.21 192.55 240.14
  C 188.53 245.94 179.13 248.91 172.22 250.23
  Q 168.51 250.93 160.80 250.77
  Q 155.38 250.66 149.28 250.73
  Q 148.76 250.73 148.76 250.21
  L 148.76 219.81
  A 0.58 0.57 90.0 0 1 149.33 219.23
  Q 162.28 219.14 173.87 219.35
  Z"
/>
<ellipse fill="#ffffff" cx="0.00" cy="0.00" transform="translate(334.91,252.65) rotate(9.0)" rx="37.82" ry="33.44"/>
<path fill="#78234b" d="
  M 347.14 325.89
  A 0.98 0.97 -69.8 0 0 347.46 326.59
  Q 348.93 327.93 350.40 326.31
  Q 351.42 325.18 352.40 324.10
  Q 352.53 323.96 352.68 324.09
  L 352.68 324.09
  Q 352.81 324.20 352.71 324.33
  Q 351.60 325.83 350.09 327.10
  C 347.84 328.97 344.40 326.21 344.84 323.64
  C 345.07 322.33 344.75 321.29 345.53 320.09
  C 347.59 316.93 348.74 313.52 350.58 310.30
  Q 351.58 308.56 352.34 306.84
  A 1.42 1.42 0.0 0 1 353.67 305.99
  L 355.25 306.02
  Q 356.23 306.04 355.79 306.92
  Q 351.76 315.05 347.69 323.50
  Q 347.11 324.71 347.14 325.89
  Z"
/>
<path fill="#78234b" d="
  M 439.99 324.09
  Q 439.17 325.19 438.10 326.25
  C 434.05 330.25 430.43 325.52 432.23 321.39
  Q 433.50 318.49 435.47 315.30
  Q 436.55 313.57 435.69 311.88
  Q 435.54 311.58 435.87 311.64
  C 438.87 312.19 438.33 316.74 437.28 318.71
  Q 435.67 321.74 434.13 324.95
  A 1.54 1.53 31.2 0 0 434.60 326.85
  Q 435.59 327.59 436.60 326.70
  C 438.08 325.39 439.74 323.83 440.71 322.11
  Q 442.96 318.10 444.83 313.99
  C 445.94 311.55 447.28 309.33 448.39 306.87
  A 1.32 1.29 5.0 0 1 449.28 306.14
  Q 450.47 305.86 451.61 306.10
  Q 452.20 306.23 451.93 306.76
  Q 447.95 314.61 444.13 322.59
  Q 443.46 324.01 443.11 325.40
  A 1.52 1.51 -8.5 0 0 445.36 327.06
  L 446.13 326.59
  Q 446.64 326.29 446.31 326.78
  Q 446.02 327.21 445.52 327.40
  C 443.05 328.30 441.43 326.60 440.83 324.25
  Q 440.59 323.29 439.99 324.09
  Z"
/>
<path fill="#78234b" d="
  M 470.23 317.97
  Q 470.71 320.24 468.41 320.79
  C 464.98 321.59 464.28 325.95 468.00 326.87
  C 471.33 327.69 473.99 323.21 474.36 320.56
  C 474.64 318.55 473.85 316.72 474.04 314.72
  Q 474.10 314.04 474.43 314.64
  C 477.51 320.24 479.25 325.97 470.65 327.59
  Q 467.90 328.11 466.24 326.44
  Q 464.07 324.25 464.68 321.84
  Q 465.58 318.29 469.04 317.32
  Q 469.69 317.14 470.01 316.55
  Q 470.66 315.36 471.61 314.36
  C 473.22 312.69 473.83 310.65 474.57 308.55
  Q 475.03 307.25 476.29 306.74
  Q 477.79 306.13 476.98 307.53
  Q 474.43 311.96 470.75 316.06
  A 2.22 2.20 -30.1 0 0 470.23 317.97
  Z"
/>
<path fill="#78234b" d="
  M 277.86 327.11
  Q 278.88 327.34 279.62 326.60
  Q 281.32 324.89 282.93 323.03
  Q 283.55 322.32 283.23 323.20
  Q 282.70 324.64 280.75 326.50
  C 278.52 328.62 275.28 327.90 274.46 324.93
  C 272.86 319.14 278.84 313.48 283.78 311.63
  Q 285.55 310.96 287.17 311.70
  Q 289.05 312.56 287.01 312.21
  Q 285.03 311.88 283.57 313.11
  C 280.42 315.77 276.30 321.18 276.51 325.49
  A 1.75 1.74 5.3 0 0 277.86 327.11
  Z"
/>
<path fill="#78234b" d="
  M 312.26 326.41
  A 1.54 1.53 60.7 0 0 314.34 327.00
  Q 316.83 325.62 318.22 322.85
  Q 318.32 322.66 318.51 322.75
  L 318.74 322.87
  Q 318.79 322.89 318.77 322.94
  C 317.72 325.16 315.34 328.45 312.44 327.61
  Q 309.72 326.83 309.61 323.96
  C 309.38 318.25 313.62 313.92 318.76 311.75
  Q 321.10 310.77 323.19 312.00
  Q 323.35 312.10 323.27 312.26
  L 323.26 312.27
  Q 323.15 312.49 322.93 312.37
  Q 321.08 311.35 319.32 312.82
  C 316.57 315.12 310.14 322.64 312.26 326.41
  Z"
/>
<path fill="#78234b" d="
  M 363.50 323.24
  C 361.76 325.67 359.11 329.64 355.77 326.84
  Q 354.43 325.72 353.73 323.49
  A 1.25 1.21 -42.5 0 1 353.78 322.62
  C 354.68 320.68 355.29 318.56 356.63 316.88
  C 358.90 314.03 364.42 309.51 368.04 312.14
  Q 368.10 312.19 368.06 312.26
  L 367.91 312.46
  Q 367.75 312.71 367.49 312.54
  Q 365.74 311.38 364.09 312.75
  C 361.22 315.16 354.83 322.68 356.83 326.33
  A 1.74 1.74 0.0 0 0 359.59 326.72
  Q 361.12 325.19 362.65 323.51
  Q 363.98 322.06 364.97 320.11
  Q 366.83 316.44 368.29 313.01
  Q 368.79 311.84 370.06 311.80
  L 371.77 311.75
  Q 372.96 311.72 372.38 312.76
  Q 369.38 318.12 366.83 324.03
  C 366.39 325.05 366.21 326.44 367.33 327.12
  A 1.17 1.17 0.0 0 0 368.68 327.02
  Q 371.54 324.62 373.71 320.98
  Q 376.66 316.03 379.41 312.70
  C 380.66 311.20 383.55 311.09 383.85 313.51
  Q 383.92 314.13 383.88 314.74
  Q 383.72 317.38 385.11 315.14
  Q 385.91 313.85 387.38 312.59
  C 390.29 310.08 392.80 312.22 392.76 315.76
  Q 392.75 316.82 393.43 316.01
  C 394.69 314.52 396.29 312.24 398.22 311.64
  Q 399.08 311.37 398.36 311.91
  Q 394.27 314.95 392.84 317.56
  Q 390.27 322.21 387.74 327.10
  Q 387.67 327.23 387.52 327.24
  Q 384.95 327.40 384.12 327.08
  A 0.06 0.05 -67.3 0 1 384.09 327.00
  Q 387.82 320.71 390.50 314.49
  Q 391.03 313.25 390.34 312.32
  A 1.11 1.10 50.5 0 0 388.71 312.16
  Q 387.00 313.71 385.41 315.47
  Q 384.18 316.84 383.26 318.57
  Q 381.03 322.77 379.16 326.59
  Q 378.83 327.27 378.08 327.27
  L 375.96 327.27
  Q 375.11 327.27 375.54 326.54
  Q 379.15 320.40 381.81 314.17
  C 381.97 313.81 382.01 313.06 381.89 312.70
  A 1.04 1.04 0.0 0 0 380.07 312.40
  Q 377.03 316.39 374.30 321.01
  C 373.12 323.00 369.06 329.47 366.02 327.26
  Q 364.15 325.90 364.18 323.46
  Q 364.20 322.27 363.50 323.24
  Z"
/>
<path fill="#78234b" d="
  M 301.50 313.24
  Q 300.67 313.76 300.74 314.61
  Q 300.77 315.06 300.55 315.45
  Q 293.07 328.64 286.75 342.06
  A 0.86 0.84 12.6 0 1 285.96 342.55
  L 283.53 342.54
  A 0.35 0.35 0.0 0 1 283.23 342.03
  Q 287.23 334.14 291.03 326.54
  C 291.50 325.59 291.38 324.65 291.99 323.71
  Q 295.28 318.62 298.08 312.58
  A 1.23 1.23 0.0 0 1 298.80 311.93
  Q 300.40 311.35 301.85 312.41
  A 0.73 0.73 0.0 0 0 302.69 312.44
  C 304.68 311.13 307.30 311.14 308.49 313.50
  C 312.14 320.76 302.77 326.71 297.28 327.73
  Q 296.46 327.88 295.94 327.25
  Q 295.35 326.55 296.21 326.85
  Q 297.92 327.45 299.23 326.44
  Q 305.57 321.53 307.01 314.14
  A 1.82 1.81 -10.0 0 0 304.29 312.24
  Q 303.58 312.67 302.89 313.21
  Q 302.55 313.49 302.11 313.50
  Q 301.91 313.51 301.81 313.33
  A 0.22 0.22 0.0 0 0 301.50 313.24
  Z"
/>
<path fill="#78234b" d="
  M 337.04 312.71
  Q 336.55 311.83 336.09 312.12
  Q 334.50 313.11 333.75 314.40
  Q 329.33 321.98 325.87 325.99
  C 324.47 327.62 321.98 328.47 320.40 326.37
  C 319.41 325.05 319.69 323.90 319.31 322.44
  A 1.40 1.39 -36.3 0 1 319.48 321.35
  Q 321.99 317.26 323.39 313.34
  Q 323.85 312.06 325.21 311.90
  L 326.73 311.72
  Q 328.35 311.54 327.57 312.96
  Q 324.91 317.87 322.36 323.38
  Q 321.75 324.67 321.91 325.99
  A 1.33 1.33 0.0 0 0 324.08 326.86
  C 328.35 323.38 331.03 317.71 334.11 313.20
  C 334.92 312.02 336.56 311.17 337.98 311.71
  A 1.91 1.90 -77.7 0 1 339.20 313.63
  C 339.04 315.93 338.73 318.58 337.55 320.64
  Q 335.85 323.58 334.36 326.52
  Q 333.95 327.33 333.04 327.37
  L 331.54 327.43
  Q 330.25 327.49 330.89 326.37
  Q 334.74 319.62 337.10 313.52
  A 0.96 0.95 -49.4 0 0 337.04 312.71
  Z"
/>
<path fill="#78234b" d="
  M 339.98 320.09
  Q 340.52 321.30 341.65 321.90
  Q 342.25 322.21 342.86 321.91
  Q 343.33 321.67 343.84 321.60
  Q 344.39 321.52 343.96 321.86
  Q 342.92 322.69 341.63 322.46
  A 2.38 2.38 0.0 0 1 339.68 320.23
  Q 339.65 319.72 339.44 319.25
  Q 339.21 318.75 339.40 318.23
  Q 340.73 314.61 342.75 312.69
  Q 343.36 312.11 344.15 311.84
  Q 346.19 311.15 345.89 312.61
  Q 345.72 313.41 345.09 313.93
  L 340.58 317.60
  A 2.12 2.11 -31.6 0 0 339.98 320.09
  Z"
/>
<path fill="#78234b" d="
  M 398.17 325.49
  A 1.19 1.19 0.0 0 0 398.60 326.79
  Q 399.77 327.65 400.88 326.61
  Q 402.52 325.06 403.91 323.20
  Q 404.01 323.06 404.15 323.16
  L 404.16 323.16
  Q 404.25 323.22 404.20 323.31
  Q 403.21 325.21 401.62 326.67
  C 399.38 328.73 396.14 327.55 395.90 324.50
  C 395.59 320.82 398.07 317.71 399.82 314.79
  Q 400.77 313.20 399.54 311.91
  Q 398.96 311.31 399.75 311.57
  Q 402.21 312.38 402.29 315.02
  C 402.42 318.83 399.28 321.87 398.17 325.49
  Z"
/>
<path fill="#78234b" d="
  M 429.09 315.90
  C 430.56 314.40 431.90 312.17 434.01 311.65
  Q 434.99 311.40 434.12 311.91
  C 429.38 314.67 426.39 321.20 423.94 326.65
  Q 423.65 327.29 422.89 327.29
  Q 422.80 327.29 420.73 327.29
  Q 419.96 327.30 420.35 326.63
  Q 423.71 320.87 426.42 314.66
  Q 426.80 313.80 426.72 312.90
  A 0.83 0.83 0.0 0 0 425.37 312.33
  Q 423.93 313.48 423.08 314.84
  C 420.50 319.00 413.22 332.16 406.61 326.34
  C 405.55 325.41 405.64 324.16 404.88 323.11
  Q 404.62 322.75 404.73 322.32
  Q 407.00 313.77 415.23 311.66
  Q 417.39 311.11 415.50 312.30
  Q 411.28 314.99 408.55 320.27
  C 407.57 322.15 406.28 325.84 409.04 326.90
  C 414.91 329.15 421.02 316.32 423.98 312.83
  C 426.51 309.83 429.28 312.53 428.63 315.65
  Q 428.43 316.57 429.09 315.90
  Z"
/>
<path fill="#78234b" d="
  M 417.75 312.13
  Q 417.66 312.01 417.62 311.87
  Q 417.52 311.51 417.90 311.56
  C 419.68 311.83 420.19 313.63 419.45 315.07
  C 418.15 317.59 413.15 318.91 410.48 319.48
  Q 410.22 319.53 410.09 319.31
  Q 410.02 319.20 410.01 319.06
  Q 410.00 318.98 410.07 318.96
  C 412.75 317.96 417.08 316.37 417.98 313.50
  Q 418.21 312.76 417.75 312.13
  Z"
/>
<path fill="#78234b" d="
  M 449.96 323.42
  Q 449.75 323.47 449.71 323.33
  Q 449.68 323.23 449.72 323.12
  Q 451.16 319.07 452.04 317.64
  C 453.63 315.06 457.02 312.08 460.29 311.51
  Q 461.07 311.37 460.41 311.82
  Q 454.55 315.81 452.66 323.07
  Q 452.29 324.48 452.61 325.56
  A 2.35 2.35 0.0 0 0 455.83 327.03
  Q 458.50 325.81 460.26 322.99
  Q 460.57 322.48 460.46 321.90
  C 459.83 318.59 459.62 316.64 463.52 315.44
  Q 464.21 315.23 464.04 315.93
  Q 462.50 322.21 458.09 326.20
  C 455.05 328.94 450.83 327.78 450.25 323.62
  Q 450.21 323.36 449.96 323.42
  Z"
/>
<path fill="#78234b" d="
  M 288.28 327.04
  L 290.07 325.77
  Q 290.76 325.28 290.31 326.00
  C 289.02 328.05 286.62 328.34 285.06 326.37
  C 284.22 325.32 284.30 324.17 283.86 322.99
  Q 283.68 322.51 283.91 322.05
  L 288.41 312.99
  Q 289.00 311.79 290.33 311.78
  L 291.76 311.77
  Q 292.93 311.76 292.36 312.77
  Q 288.58 319.55 286.59 324.80
  Q 286.06 326.18 287.28 327.04
  Q 287.78 327.40 288.28 327.04
  Z"
/>
<path fill="#78234b" d="
  M 463.40 313.60
  C 463.11 312.85 462.76 312.52 462.17 312.02
  Q 461.86 311.75 462.27 311.76
  C 463.22 311.78 464.05 312.58 463.82 313.57
  Q 463.66 314.27 463.40 313.60
  Z"
/>
<ellipse fill="#78234b" cx="0.00" cy="0.00" transform="translate(447.89,325.03) rotate(132.9)" rx="1.67" ry="0.22"/>
</svg>
