<svg xmlns="http://www.w3.org/2000/svg" viewBox="0 0 150 150"><g fill="none" stroke-width="2"><path stroke="#d2edb6" d="M6.07 0q1.75.74 2.87 2.52.6.95-.33 1.58L0 9.94" vector-effect="non-scaling-stroke"/><path stroke="#bde498" d="m16.33 0 14.09 19.94a.67.67 0 0 0 .94.16l26.5-19a.47.46-55.5 0 0-.15-.83q-.37-.1-.21-.27M0 31.23q3.27-1.29 6.19-3.89a.8.8 0 0 0 .11-1.07l-3.75-5.08a1.09 1.09 0 0 0-1.88.22L0 22.98" vector-effect="non-scaling-stroke"/><path stroke="#82d982" d="M69.684.627a1.64.64-5 0 0-1.69-.495 1.64.64-5 0 0-1.578.78 1.64.64-5 0 0 1.69.496 1.64.64-5 0 0 1.578-.78M123.24.78q.33-.26-.07-.37-1.4-.35-3.2-.09a.39.39 0 0 0-.16.71q1.64 1.14 3.43-.25" vector-effect="non-scaling-stroke"/><path stroke="#fdd98c" d="M77.58 9.65q-3.75 2.21-5.27.16" vector-effect="non-scaling-stroke"/><path stroke="#e4f2d2" d="M72.31 9.81q-1.34-1.35-1.67-3.01a1.46 1.45 65.9 0 0-2.3-.88l-4.09 3.06a.95.95 0 0 0 .04 1.56q.94.63.97 1.77" vector-effect="non-scaling-stroke"/><path stroke="#f0988f" d="M65.26 12.31q-1.66.66-2.25 3.26" vector-effect="non-scaling-stroke"/><path stroke="#fbe8bb" d="M63.01 15.57q-1.11-1.04-2.29-.92a.81.8-86.4 0 0-.7.62l-.24 1.01q-.13.52-.66.62-2.25.42-3.46 2.29-1.37 2.13.63 5.64" vector-effect="non-scaling-stroke"/><path stroke="#f0988f" d="M56.29 24.83q-1.12 3.15-2.27 2.98" vector-effect="non-scaling-stroke"/><path stroke="#fab483" d="M54.02 27.81c-3.47-.96-4.63 2.74-2.64 5.13" vector-effect="non-scaling-stroke"/><path stroke="#f0988f" d="M51.38 32.94q-.09.87-.3.73" vector-effect="non-scaling-stroke"/><path stroke="#eea7c3" d="M51.08 33.67q-3.69 6.04 3.43 8.5" vector-effect="non-scaling-stroke"/><path stroke="#8abedb" d="M54.51 42.17q-1.58 2.94-1.21 6.08.59 4.97 5.39 7.14" vector-effect="non-scaling-stroke"/><path stroke="#bde498" d="M58.69 55.39q-.87 4.53 2.77 4.23" vector-effect="non-scaling-stroke"/><path stroke="#92d1c9" d="M61.46 59.62q-.61 5.23 2.72 8.58.29.29.41.66.15.43-.24.7-.59.41-.81 1.11c-.93 2.99-.19 6.02 3.24 6.71q3.35.67 5.1-2.12a.48.48 0 0 1 .85.09c1.09 2.98 4.06 2.29 6.47 1.43" vector-effect="non-scaling-stroke"/><path stroke="#bde498" d="M79.2 76.78q3.56 1.36 7.31.06" vector-effect="non-scaling-stroke"/><path stroke="#8fc68e" d="M86.51 76.84q2.08.14 2.62.04 1.23-.25.95-1.66" vector-effect="non-scaling-stroke"/><path stroke="#bde498" d="M90.08 75.22c.14-3.38 1.48-6.55-.16-9.8a.89.89 0 0 1 .32-1.15q3.73-2.35 4.45-6.66.09-.52.51-.85 1.79-1.4 1.52-3.5" vector-effect="non-scaling-stroke"/><path stroke="#8bafa5" d="m96.72 53.26.52-.15" vector-effect="non-scaling-stroke"/><path stroke="#8bc8de" d="M97.24 53.11q6.67-3.13 4.06-11.03" vector-effect="non-scaling-stroke"/><path stroke="#fdd98c" d="M101.3 42.08q3.51-.78 2.58-3.76-.15-.48-.57-.75l-1.6-1.02" vector-effect="non-scaling-stroke"/><path stroke="#fab483" d="M101.71 36.55q4.9-8.8-3.41-13.35-.42-.23-.46-.7l-.28-3.38" vector-effect="non-scaling-stroke"/><path stroke="#e4fe8c" d="m97.56 19.12 7.71-6.15a1 .99-37.6 0 0 .18-1.37l-5.35-7.28a.77.76-35.6 0 0-1.05-.17l-7.26 4.99q-1.18.82-.38 2l4.06 6.02" vector-effect="non-scaling-stroke"/><path stroke="#fab483" d="M95.47 17.16q-2.73-.01-2.61-2.12a.64.64 0 0 0-.63-.68q-.52-.02-1.03.19a.71.69-15.4 0 0-.44.75q.12.86.92 1.32a.46.45 38.4 0 1 .09.73l-.44.42" vector-effect="non-scaling-stroke"/><path stroke="#fdd98c" d="M91.33 17.77q-2.2-4.58-6.64-7.52" vector-effect="non-scaling-stroke"/><path stroke="#99b380" d="m84.69 10.25 2.36-1.34a.87.87 0 0 0 .28-1.26l-4.41-6.14q-.61-.86-1.46-.24L75.4 5.66q-.82.6-.15 1.36l2.33 2.63" vector-effect="non-scaling-stroke"/><path stroke="#978c0d" d="M84.69 10.25q-3.59-1.17-7.11-.6" vector-effect="non-scaling-stroke"/><path stroke="#f88d10" d="M91.33 17.77q-2.02.69-1.54 3.47.17 1.02.28 2.06.06.51-.36.8-2.6 1.83-3.29 5.1-.13.62.17 1.17.46.86.21 1.68-.66 2.2-1.6.11-.82-1.83-2.99-2.22-3.78-.67-7.72.15" vector-effect="non-scaling-stroke"/><path stroke="#ee721c" d="M74.49 30.09q-.08-4.97-3.82-8.5-.36-.34-.01-.69 4.16-4.11.06-8.57" vector-effect="non-scaling-stroke"/><path stroke="#e2cb5f" d="M72.31 9.81q-.3-.18-.54-.18a.52.5 85.8 0 0-.48.57q.28 2.23-.57 2.13" vector-effect="non-scaling-stroke"/><path stroke="#d58b62" d="M70.72 12.33q-2.38-1.17-5.46-.02" vector-effect="non-scaling-stroke"/><path stroke="#f88d10" d="m101.71 36.55-3.69 2.82" vector-effect="non-scaling-stroke"/><path stroke="#867d62" d="M98.02 39.37q-1.35-1.2-3.49-1.11" vector-effect="non-scaling-stroke"/><path stroke="#cd4a12" d="m94.53 38.26-3.28.35" vector-effect="non-scaling-stroke"/><path stroke="#f9a078" d="M91.25 38.61q-.78-.84-1.64-.85-.55-.01-.58.53-.05.76.2 1.49" vector-effect="non-scaling-stroke"/><path stroke="#867d62" d="M89.23 39.78q.07.06.14.11" vector-effect="non-scaling-stroke"/><path stroke="#866329" d="M89.37 39.89q-3.21 3.32-2.29 7.07" vector-effect="non-scaling-stroke"/><path stroke="#dfa656" d="M87.08 46.96q-2.22 1.56-4.27 2.71-.5.27-.64.61-.26.61.31.96" vector-effect="non-scaling-stroke"/><path stroke="#cd4a12" d="m82.48 51.24-.68.1q-.51.07-.64.57-.39 1.54-1.77 3.37" vector-effect="non-scaling-stroke"/><path stroke="#e95c47" d="M79.39 55.28q1.08-1.46-.51-3.23" vector-effect="non-scaling-stroke"/><path stroke="#fab483" d="M78.88 52.05q.37-.36.16-1.03" vector-effect="non-scaling-stroke"/><path stroke="#eb4d13" d="M79.04 51.02q2.09.59 2.72-1.28.17-.49-.19-.87-2.86-2.93-6.67-1.1-.46.22-.49.74-.05.79.28 1.74" vector-effect="non-scaling-stroke"/><path stroke="#e95c47" d="m74.69 50.25-.59.02q-.43.02-.5-.4-.05-.33-.18-.59" vector-effect="non-scaling-stroke"/><path stroke="#fab483" d="M73.42 49.28q-.47-1.02-1.81-1.68" vector-effect="non-scaling-stroke"/><path stroke="#85735f" d="M71.61 47.6q-.25-.22-.35-.74" vector-effect="non-scaling-stroke"/><path stroke="#866329" d="M71.26 46.86q.24-3.68-2.24-5.74" vector-effect="non-scaling-stroke"/><path stroke="#85735f" d="m69.02 41.12-.32-.39" vector-effect="non-scaling-stroke"/><path stroke="#867d62" d="m68.7 40.73-.05-1.49" vector-effect="non-scaling-stroke"/><path stroke="#eb4d13" d="M74.49 30.09q-.59 5.38-5.62 7.91-.59.3-.22 1.24" vector-effect="non-scaling-stroke"/><path stroke="#7c616e" d="M68.65 39.24q-.56-.49-1.17-.47" vector-effect="non-scaling-stroke"/><path stroke="#df4052" d="M67.48 38.77q1.1-1.91 1.37-4.16" vector-effect="non-scaling-stroke"/><path stroke="#f0988f" d="M68.85 34.61q4.36-3.95.09-9.66" vector-effect="non-scaling-stroke"/><path stroke="#df4052" d="M68.94 24.95q-.08-1.24-.66-2.5a1.05 1.04 87.7 0 0-.58-.54l-3.38-1.23a.55.55 0 0 0-.68.78q.68 1.31-.28 1.76" vector-effect="non-scaling-stroke"/><path stroke="#ef8583" d="M63.36 23.22q-3.66 1.6-4.95 4.37" vector-effect="non-scaling-stroke"/><path stroke="#df4052" d="M58.41 27.59q-.98 1.59-.53 3.53.35 1.52 1.48 2.62a2.47 2.45 31.2 0 1 .63 2.52q-.84 2.6-1.66.69" vector-effect="non-scaling-stroke"/><path stroke="#ef8583" d="M58.33 36.95q-.27-1.45-1.48-1.34-.51.05-.74-.4l-.3-.57q-.25-.5-.8-.62-.56-.12-1 .24a.81.8 54.9 0 0-.18 1.04q.43.71 1.29.98.58.18 0 .37-1.33.46-1.92-.88-.46-1.05-1.21-.49" vector-effect="non-scaling-stroke"/><path stroke="#df4052" d="M51.99 35.28q-.89.01-.91-1.61" vector-effect="non-scaling-stroke"/><path stroke="#eb4d13" d="M51.38 32.94q.03-.76 2.78-1.04a.66.66 0 0 0 .59-.57q.2-1.52-.73-3.52" vector-effect="non-scaling-stroke"/><path stroke="#ec814b" d="M56.29 24.83q-.41-.99.07-1.64.31-.42.77-.15 2.97 1.79 4.6-1.09.21-.38.01-.77-.28-.52.1-1a.99.98-66.3 0 1 .93-.37q.15.03.29.06.84.23.56-.59-.63-1.85-.61-3.71" vector-effect="non-scaling-stroke"/><path stroke="#eea7c3" d="m73.42 49.28-1.38 3.15" vector-effect="non-scaling-stroke"/><path stroke="#92d1c9" d="M72.04 52.43q-2.25.63-1.85-.6" vector-effect="non-scaling-stroke"/><path stroke="#656757" d="m78.81 57.33-2.02-.64" vector-effect="non-scaling-stroke"/><path stroke="#c4938d" d="M76.79 56.69q-.52-.17-.6.1" vector-effect="non-scaling-stroke"/><path stroke="#656757" d="M76.19 56.79q-1.57-.17-2.94-2.04-.66-.9-.12-1.73" vector-effect="non-scaling-stroke"/><path stroke="#dfb310" d="m97.56 19.12-2.09-1.96" vector-effect="non-scaling-stroke"/><path stroke="#eea7c3" d="M75.97 50.72q.35 1.89 1.59 2.66.46.29.79-.13.39-.51.53-1.2" vector-effect="non-scaling-stroke"/><path stroke="#c13d51" d="M79.39 55.28q-2.47 1.02-5.49-2.17-.46-.49-.77-.09" vector-effect="non-scaling-stroke"/><path stroke="#81798c" d="M73.13 53.02q-.34-.51-1.09-.59" vector-effect="non-scaling-stroke"/><path stroke="#89a26b" d="M101.3 42.08q-.66-1.64-3.28-2.71" vector-effect="non-scaling-stroke"/><path stroke="#b7e089" d="m87.56 49.11-4.6 2.21" vector-effect="non-scaling-stroke"/><path stroke="#b78861" d="M82.96 51.32q-.19.1-.48-.08" vector-effect="non-scaling-stroke"/><path stroke="#1687ba" d="m68.7 40.73-.3-.08q-.46-.12-.28.32 1.39 3.33.03 5.56" vector-effect="non-scaling-stroke"/><path stroke="#44b8da" d="m68.15 46.53-.1-3.14a1.89 1.89 0 0 0-1.91-1.83l-8.63.09" vector-effect="non-scaling-stroke"/><path stroke="#177884" d="m97.24 53.11-.62-.65q-.33-.35-.82-.41-3.27-.4-5.72-2.33-.35-.27-.43-.7-.06-.36-.08-.91" vector-effect="non-scaling-stroke"/><path stroke="#44b8da" d="m89.57 48.11 2.89 1.38" vector-effect="non-scaling-stroke"/><path stroke="#7cc6de" d="M92.46 49.49q2.81.6 3.15-2.29.12-1.08.09-2.08a.5.5 0 0 1 .57-.51l.35.04a1.28 1.28 0 0 1 1.08 1.05q.09.51.36.94.42.67.55-.11.65-4.07-2.87-4.97-.46-.12-.56.35-.32 1.64.2 3.22a.68.67-24.9 0 1-.29.79q-.77.48-2.51.06" vector-effect="non-scaling-stroke"/><path stroke="#44b8da" d="M92.58 45.98q-.25-1.15-.69-1.76-.51-.69-1.48-.38-.83.27-1.47.94" vector-effect="non-scaling-stroke"/><path stroke="#177884" d="m88.94 44.78.43-4.89" vector-effect="non-scaling-stroke"/><path stroke="#d18282" d="M91.25 38.61q.06.08.13.16" vector-effect="non-scaling-stroke"/><path stroke="#89b5d3" d="M91.38 38.77q-.27 1.07-2.15 1.01" vector-effect="non-scaling-stroke"/><path stroke="#449ea1" d="M88.94 44.78q-2.13 3.04.63 3.33" vector-effect="non-scaling-stroke"/><path stroke="#49943d" d="M96.72 53.26q-2.59.91-4.85.18" vector-effect="non-scaling-stroke"/><path stroke="#5e9d5c" d="M91.87 53.44q-2.97-1.5-4.31-4.33" vector-effect="non-scaling-stroke"/><path stroke="#70a178" d="m87.56 49.11-.48-2.15" vector-effect="non-scaling-stroke"/><path stroke="#5e5e6d" d="M94.53 38.26q-1.16 1.52-3.15.51" vector-effect="non-scaling-stroke"/><path stroke="#f0988f" d="M79.04 51.02q-1.24-1.85-3.07-.3" vector-effect="non-scaling-stroke"/><path stroke="#df4052" d="M75.97 50.72q-.98.5-1.28-.47" vector-effect="non-scaling-stroke"/><path stroke="#166e80" d="M69.02 41.12q-.49 2.41 1.06 4.19.26.29.32.67.13.75.86.88" vector-effect="non-scaling-stroke"/><path stroke="#8abedb" d="m71.61 47.6-1.42 4.23" vector-effect="non-scaling-stroke"/><path stroke="#1d90a4" d="M70.19 51.83q-2.95 4.39-8.22 4.2" vector-effect="non-scaling-stroke"/><path stroke="#48a373" d="M61.97 56.03q-2.01-.03-3.28-.64" vector-effect="non-scaling-stroke"/><path stroke="#43aed7" d="M56.72 42.02q-.35.16-.55.42-.17.23-.15.64.07 2.72.28 5.41.13 1.73 2.06 1.12" vector-effect="non-scaling-stroke"/><path stroke="#1687ba" d="m58.36 49.61 1.46.03" vector-effect="non-scaling-stroke"/><path stroke="#8abedb" d="M59.82 49.64q1.37.78 1.3 2.43-.04 1.14 1.09 1.14h.54a1.11 1.1 1.4 0 0 1.1-1.04q.1-1.6 1.4-2.92" vector-effect="non-scaling-stroke"/><path stroke="#43aed7" d="M65.25 49.25q1.01.4 1.97.25.55-.08.62-.62l.31-2.35" vector-effect="non-scaling-stroke"/><path stroke="#eea7c3" d="M68.94 24.95c-2.89-.06-4.02 1.71-4.88 4.35a1.05 1.05 0 0 0 .44 1.2q1 .65 1.17 1.84.08.62.68.8.17.05.34-.03.5-.25.51-.82 0-1.18.66-2.14.25-.37.69-.36.84.01 1.16.81.24.62-.11 1.22-.73 1.22-1.99 1.5-.28.06-.33.34-.07.35.02.69.14.52.62.56.43.03.93-.3" vector-effect="non-scaling-stroke"/><path stroke="#7a70a2" d="M67.48 38.77q-.42.22-.89-.02" vector-effect="non-scaling-stroke"/><path stroke="#8f3a7f" d="M66.59 38.75c-1.52-.77-4.33-1.52-5.98-.82q-.56.24-1.13.06a1.18 1.16-50.4 0 0-.87.09q-2.54 1.39-4.21 3.72" vector-effect="non-scaling-stroke"/><path stroke="#79669e" d="M54.4 41.8q.06.19.11.37" vector-effect="non-scaling-stroke"/><path stroke="#ed94b7" d="M51.99 35.28q-.73.73-.68 1.54.04.78.82.87 1.18.14 1.95 1 .57.61 1.31.23.59-.3.7-.93.11-.54.63-.36 1.32.45 1.61-.68M58.41 27.59q.13 1.13.81 1.61.67.46 1.4.11 2.22-1.09 2.34-3.04.03-.54.58-.52 1.56.08 2.05-1.68.15-.55-.39-.69-.98-.24-1.84-.16" vector-effect="non-scaling-stroke"/><path stroke="#83cfc8" d="M76.19 56.79q-.43.14-.98.14-.36-.01-.69.03-.69.07-.44.65a.97.96 51.5 0 1-.1.92q-1.76 2.52-5.1 1.46-.15-.05-.23.08l-.22.34a.31.3-73.5 0 0 .25.47q1.67 0 3.08.78.46.25.77-.17.29-.4.76-.45.66-.06.56.59l-.22 1.38q-.06.38.06.75.18.57-.06 1.14-.21.48-.73.47l-4.75-.16a1.03 1.03 0 0 1-1-1.06l.2-7.31q.01-.34-.33-.4l-.28-.04q-.29-.05-.34.23-.77 3.96 0 7.99.28 1.44 1.75 1.46l5.55.05q.87.01.91-.86.08-2.01-.02-4.07c-.07-1.44.9-2.59 2-3.37q.47-.33.2-1.14" vector-effect="non-scaling-stroke"/><path stroke="#219858" d="M79.4 61.79q-2.05.88-3.39 2.98-.22.36-.64.46-.2.04-.32.21-1.39 2.02-.54 4.05.14.36.46-.01" vector-effect="non-scaling-stroke"/><path stroke="#64bf80" d="M74.97 69.48q-.08.12-.09.23-.03.27.24.27l2.43.01" vector-effect="non-scaling-stroke"/><path stroke="#92d1c9" d="m77.55 69.99 2.43 2.52" vector-effect="non-scaling-stroke"/><path stroke="#4fb661" d="m79.98 72.51-.78 4.27M61.46 59.62q1.74-3.49.51-3.59" vector-effect="non-scaling-stroke"/><path stroke="#8fd24f" d="M91.87 53.44q1.05 3.25.32 6.06a2.07 2.06 5.5 0 1-1.86 1.53l-4.16.28" vector-effect="non-scaling-stroke"/><path stroke="#54c739" d="m86.17 61.31-3.91-.8q-.63-.13-.63-.77v-1.35q0-.37-.36-.26l-.42.13q-.2.07-.22.28-.21 2.69 1.36 4.48.37.42 1.42.89.75.34 1.45.92" vector-effect="non-scaling-stroke"/><path stroke="#d2edb6" d="M84.86 64.83q-3.08-.23-5.95.84" vector-effect="non-scaling-stroke"/><path stroke="#61b445" d="M78.91 65.67q.65-2.15.49-3.88" vector-effect="non-scaling-stroke"/><path stroke="#64bf80" d="m79.4 61.79-.59-4.46" vector-effect="non-scaling-stroke"/><path stroke="#a58345" d="M78.81 57.33c2.87-.04 4.05-3.68 4.15-6.01" vector-effect="non-scaling-stroke"/><path stroke="#b8effb" d="M65.25 49.25q.29-.01.01-.48" vector-effect="non-scaling-stroke"/><path stroke="#44b8da" d="M65.26 48.77q.97.06 1.63-.37a.8.79-19.1 0 0 .36-.73l-.32-3.68a.93.92 86.7 0 0-.94-.84l-7.47.14a.86.86 0 0 0-.8.59q-1 3.12.64 5.73" vector-effect="non-scaling-stroke"/><path stroke="#2b5b9a" d="M66.59 38.75q-3.09.54-6.12-.15-.49-.11-.8.28l-2.16 2.77" vector-effect="non-scaling-stroke"/><path stroke="#5981b7" d="m57.51 41.65-.79.37" vector-effect="non-scaling-stroke"/><path stroke="#2b5197" d="M56.72 42.02q-1.03.22-2.32-.22" vector-effect="non-scaling-stroke"/><path stroke="#aaedfb" d="M92.46 49.49q-.51-.59-1.06-.91-.44-.26-.46-.76-.02-.98 1.64-1.84" vector-effect="non-scaling-stroke"/><path stroke="#4cab27" d="M90.08 75.22q-.15-.9-.18-1.84-.02-.74-.56-.27-.18.15-.34 0-.44-.39-1.01-.27-3.52.72-1.48 4" vector-effect="non-scaling-stroke"/><path stroke="#bde498" d="m79.98 72.51 5.16.21q.52.03.84-.38c2.18-2.77 2.78-5.41-1.14-7.4" vector-effect="non-scaling-stroke"/><path stroke="#3fbe1a" d="m84.84 64.94 3.3-.19q.55-.03.52-.58-.04-.81-.63-1.52-.31-.37-.76-.54-.73-.26-1.1-.8" vector-effect="non-scaling-stroke"/><path stroke="#8bc8de" d="M65.26 48.77q-1.13-1.12-2.77-1.51-.64-.16-.67-.81l-.07-1.6q-.03-.44-.44-.29l-.47.18a.4.39 87.4 0 0-.25.28q-.16.77.2 1.49.3.58-.3.82l-.58.23q-.58.23-.77.83-.29.91.68 1.25" vector-effect="non-scaling-stroke"/><path stroke="#d2edb6" d="m77.55 69.99-.01-2.37" vector-effect="non-scaling-stroke"/><path stroke="#8fc68e" d="m78.91 65.67-1.37 1.95" vector-effect="non-scaling-stroke"/><path stroke="#61b445" d="M77.54 67.62q-1.23 1.47-2.57 1.86" vector-effect="non-scaling-stroke"/><path stroke="#82d982" d="M84.84 64.94q1.51.34.02-.11" vector-effect="non-scaling-stroke"/><path stroke="#99b380" d="M115.325 1.654a.87.87 0 0 0-1.229-.064l-1.694 1.525a.87.87 0 0 0-.065 1.23l1.298 1.44a.87.87 0 0 0 1.229.065l1.694-1.525a.87.87 0 0 0 .065-1.23l-1.298-1.44" vector-effect="non-scaling-stroke"/><path stroke="#bde498" d="M149 5.47q.3.67.66.02.39-.72.06-1.69a.34.33 52.5 0 0-.59-.08q-.56.79-.13 1.75" vector-effect="non-scaling-stroke"/><path stroke="#e4f2d2" d="M134.51 5.75a1.08 1.08 0 0 0-1.55-.23l-3.04 2.41a1.08 1.08 0 0 0-.24 1.44l2.12 3.21a1.08 1.08 0 0 0 1.5.31l3.34-2.21a1.08 1.08 0 0 0 .28-1.53l-2.41-3.4" vector-effect="non-scaling-stroke"/><path stroke="#82d982" d="M121.095 5.795a.81.81 0 0 0-1.132-.175l-6.23 4.56a.81.81 0 0 0-.175 1.131l4.547 6.214a.81.81 0 0 0 1.132.175l6.23-4.56a.81.81 0 0 0 .175-1.131l-4.547-6.214" vector-effect="non-scaling-stroke"/><path stroke="#d2958e" d="M54.48 25.22a1.03 1.03 0 0 0-1.03-1.03 1.03 1.03 0 0 0-1.03 1.03 1.03 1.03 0 0 0 1.03 1.03 1.03 1.03 0 0 0 1.03-1.03M53.078 43.202a1.18.97-3.3 0 0-1.234-.9 1.18.97-3.3 0 0-1.122 1.036 1.18.97-3.3 0 0 1.234.9 1.18.97-3.3 0 0 1.122-1.036" vector-effect="non-scaling-stroke"/><path stroke="#818080" d="M65.27 89.42q.66.28.39.94-.71 1.77.46 2.93.3.29.72.23c.95-.13 1.81-.15 2.62.45q2.4 1.76 4.34 3.73c1.5 1.52 4.82 1.32 6.31-.11q2.14-2.04 4.59-3.8.35-.25.78-.26l1.97-.05q.69-.01.82-.69.25-1.26-.05-2.52-.13-.53.31-.84.69-.48.92-1.28.16-.6-.18-1.11l-.34-.51a.98.98 0 0 1 .02-1.11q.97-1.38.1-2.73-.46-.7.03-1.38.59-.85.35-1.75-.36-1.3-1.71-1.3l-21.69-.02a1.71 1.71 0 0 0-1.48 2.57q.81 1.38-.05 2.59-.45.63.01 1.24.85 1.13.1 2.32-.44.71-.2 1.51.21.68.86.95" vector-effect="non-scaling-stroke"/><path stroke="#f0988f" d="M128.4 99.49a.54.54 0 0 0-.48-.8h-2.89a.54.54 0 0 0-.47.27l-2.39 4.25a.54.54 0 0 0 .45.8l2.93.11a.54.54 0 0 0 .5-.28l2.35-4.35" vector-effect="non-scaling-stroke"/><path stroke="#818080" d="M49.9 105.69q-.73-.06-1.4.14-.51.14-.51.68l.08 11.01q0 .7.7.7h3.03q.51 0 .5-.52l-.03-4.44q-.03-3.56 1.21-.22.82 2.21 1.87 4.53.26.6.91.61l3.54.05q.74.01.75-.72l.24-10.92" vector-effect="non-scaling-stroke"/><path stroke="#ddddde" d="M60.79 106.59q1.87 0 2.27.28" vector-effect="non-scaling-stroke"/><path stroke="#818080" d="M63.06 106.87c-1.18 2.84-2.04 8.99 1.31 10.77 2.28 1.2 5.94 1.14 8.22.19 3.53-1.48 2.72-8.12 1.59-10.86" vector-effect="non-scaling-stroke"/><path stroke="#ddddde" d="m74.18 106.97 2.24.24" vector-effect="non-scaling-stroke"/><path stroke="#818080" d="m76.42 107.21.03 10.18a.78.77 1.2 0 0 .75.77l2.73.08q.97.03.87-.93-.43-3.92-.14-6.84.22-2.21.61-.02l1.24 7.1q.11.66.78.67l1.98.03q.7.01.83-.68l1.64-8.07q.03-.18.22-.15l.3.04q.06.01.06.07-.28 4.08-.33 8.14-.01.57.55.57l2.95.05q.62.01.63-.61l.19-10.74" vector-effect="non-scaling-stroke"/><path stroke="#ddddde" d="M92.31 106.87q1.87 1.04 3.99-.22" vector-effect="non-scaling-stroke"/><path stroke="#818080" d="m96.3 106.65-3.25 10.8q-.23.78.58.76l2.71-.04q.67-.01 1.08-.54 1.26-1.65 3.86-.65.2.08.23.29.02.15.06.3a.8.79-6.6 0 0 .76.59l3.45.07q.64.01.45-.6l-3.66-11.66" vector-effect="non-scaling-stroke"/><path stroke="#ddddde" d="M102.57 105.97q-1.13-.67-2.63-.73-.49-.01-.57-.5-.06-.3-.33-.48-.66-.46-1.4-.44c-3.39.09-6.44-1.08-9.77-1.28q-7.33-.43-14.74-.44c-.62 0-.98.3-1.63.29q-10.14-.23-19.61 1.8-.45.09-.59.54-.22.76-1.4.96" vector-effect="non-scaling-stroke"/><path stroke="#5f5e5f" d="M102.57 105.97q-4.89-1.06-6.27.68M92.31 106.87l-.12-.73q-.09-.54-.64-.53l-5.09.08a1.12 1.11-.5 0 0-1.1 1.11q-.02 3.07-1.01 5.55-.4 1.01-.5-.07l-.53-5.74a1.02 1.01 87.3 0 0-1.02-.93l-5.01.04q-.55.01-.72.53-.17.54-.15 1.03M74.18 106.97q-5.51-3.46-11.12-.1M60.79 106.59q-.95-1.55-3.89-.76-.62.16-.58.79.13 2.62.21 5.38.01.3-.28.41-.32.11-.45-.21l-2.17-5.65q-.15-.38-.53-.53-1.36-.51-3.2-.33" vector-effect="non-scaling-stroke"/><path stroke="#818080" d="m18.37 109.24 2.38-.12a.6.6 0 0 0 .57-.62l-.04-2.02q-.02-.78-.8-.78l-9.8-.01q-.63 0-.79.6-.3 1.05.02 2.22.21.76.98.73l1.74-.06a.79.78 1 0 1 .81.83q-.24 4.07.03 7.77.03.42.45.42h3.4q.51 0 .51-.52l-.05-7.8q-.01-.6.59-.64" vector-effect="non-scaling-stroke"/><path stroke="#f0988f" d="M125.98 106.35a.62.62 0 0 0-.615-.625l-3.34-.03a.62.62 0 0 0-.626.615l-.098 11.28a.62.62 0 0 0 .614.625l3.34.03a.62.62 0 0 0 .626-.615l.098-11.28" vector-effect="non-scaling-stroke"/><path stroke="#818080" d="M26.57 113.27a.35.35 0 0 1 .35-.3l3.31.08a.35.35 0 0 0 .35-.36l-.07-1.6a.35.35 0 0 0-.34-.33l-3.42-.01a.35.35 0 0 1-.34-.42l.22-1.11a.35.35 0 0 1 .37-.28l4.98.31a.35.35 0 0 0 .37-.34l.12-2.82a.35.35 0 0 0-.35-.36l-9.56-.03a.35.35 0 0 0-.35.35l-.1 11.82a.35.35 0 0 0 .35.35h9.61a.35.35 0 0 0 .34-.35l-.04-2.83a.35.35 0 0 0-.35-.34l-5.25.09a.35.35 0 0 1-.36-.39l.16-1.13M38.5 109.02l.02-2.65a.65.65 0 0 0-.65-.66l-3.08.02q-.73 0-.73.73v11.07q0 .71.72.71l3.19-.02a.61.6 86.1 0 0 .59-.68q-.18-1.32.12-2.72a.72.72 0 0 1 1.33-.2l1.33 2.45q.64 1.19 1.99 1.17l3.38-.05q.91-.01.42-.78l-3.95-6.15q-.2-.32.03-.62l3.45-4.36q.44-.57-.27-.56l-3.99.01q-.72 0-1.13.57-1.02 1.41-1.86 2.95-.92 1.7-.91-.23M111.95 111.76l2.48 5.96q.19.47.69.47l3.8.05q.68.01.68-.66l.06-11.4q0-.48-.48-.47l-3.2.05q-.44 0-.56.42c-.45 1.65.13 4-.02 5.75q-.12 1.24-.58.08l-2.35-5.78a.8.79 79.1 0 0-.74-.51l-3.96.01q-.75 0-.75.75l.06 11.38q.01.28.28.28l3.84.06q.17 0 .17-.17-.2-3.4-.01-6.17.09-1.3.59-.1M131.85 116.84q2.55-.69 3.62.84.37.53 1.01.53l2.85.01a.62.61 81 0 0 .58-.81l-3.57-11.14a.84.82-8.4 0 0-.8-.58l-4.57.04q-.65 0-.85.63l-3.63 11.45q-.12.41.3.41l3.7-.02q.49 0 .69-.45l.24-.54q.13-.29.43-.37M90.03 123.85q-.12-.91.47-1.6.32-.38-.02-.73-.23-.23-.57-.11a.59.59 0 0 0-.4.5l-.47 4.45a.34.34 0 0 0 .31.38l.34.03q.18.01.22-.16.31-1.36.12-2.76M32.77 123.17l-.02 3.12a.87.87 0 0 0 .86.87l.96.01a2.35 2.27.4 0 0 2.37-2.26v-.32a2.35 2.27.4 0 0-2.33-2.28l-.96-.01a.87.87 0 0 0-.88.87M54.44 123.27q.44-.48.06-.82-.48-.45-.96-.01-.71.65-1.6.98c-1.05.38-1.25 1.67-.85 2.59a1.89 1.89 0 0 0 2.2 1.08q1.88-.47.95-2.73a1.03 1.02 55.5 0 1 .2-1.09M63 123.72q-.11.19-.28.33a.6.6 0 0 0 .23 1.05q.15.04.27.13a.49.48-44 0 1-.02.79q-.41.28-.88.15-.4-.12-.53.28l-.09.26a.3.3 0 0 0 .24.38q1.71.24 2.66-.98a.63.63 0 0 0-.01-.79q-.68-.84-.22-1.8.2-.42-.16-.73-1.01-.85-2.31-.38-.49.18-.06.48.3.22.69.15.95-.15.47.68M67.4 125.76q-.3.42-.85.43-.59.01-.51.59l.03.26q.02.15.17.14 3.72-.38 2.56-3.75a1.69 1.68-18.2 0 0-2.11-1.06q-1.05.33-1.23 1.52-.05.37.2.66.54.61 1.38.57.84-.04.36.64M81.96 125.17q-1.01.05-2.11.35-.8.21-.79-.59.01-.73.32-1.53a.51.5 27.5 0 0-.2-.62q-1.09-.69-2.83-.32-.6.13-.6.74l-.01 2.72a1.16 1.15 10.9 0 0 .73 1.07q1.47.58 2.7-.55.39-.36.88-.14l1.54.7a1.23 1.21-42.7 0 0 .96.03q1.85-.75 1-2.68-.55-1.25-1.99-1.1-.93.09-.28.77.36.37.81.65.73.46-.13.5M86.49 124.05q.83 1.08.63 2.54a.4.39-33.1 0 0 .77.16q.36-1.22.14-2.51a1.13 1.13 0 0 0-1.1-.94q-.71-.02-1.09-.61-.2-.32-.54-.47-.18-.08-.35-.04-.37.09-.35.46l.2 3.96q.01.14.15.18l.42.13q.39.11.39-.29l.05-2.35q.02-1.07.68-.22M100.51 123.97q.17-.07.25-.22.3-.58-.26-.9-1.1-.61-2.24-.62a1.27 1.26 87.9 0 0-1.26 1.36l.2 2.83q.03.46.48.57 1.62.37 2.79-.38.65-.42.47-1.16-.1-.4-.49-.62-.87-.49.06-.86M102.96 126.68l.03-4.12q0-.23-.22-.26l-.4-.06a.4.39-86.3 0 0-.45.4l.08 3.85q.01.42.43.41h.32q.21-.01.21-.22M41.48 125.22a1.93 1.93 0 0 0-1.93-1.93 1.93 1.93 0 0 0-1.93 1.93 1.93 1.93 0 0 0 1.93 1.93 1.93 1.93 0 0 0 1.93-1.93M44.69 124.58q.31.82.08 1.65a.59.59 0 0 0 .45.74q.38.08.5-.29.87-2.67-1.3-3.51a1.17 1.14 42.9 0 0-.9.02q-1.85.83-1.06 3.58a.38.38 0 0 0 .69.1q.57-.88.22-1.95a.44.43-19.8 0 1 .26-.54l.31-.12q.54-.22.75.32M48.07 125.89q.01-.22.1-.43a.42.42 0 0 0-.39-.59q-.94.01-1.03 1.09a1.03 1.03 0 0 0 .71 1.07q1.33.43 2.02-.12a2.08 2.08 0 0 0-.38-3.5q-.46-.22-1.6-.1-.11.01-.21.07-.19.13-.05.42a.46.41 82 0 0 .26.22q1.47.42 1.16 1.96-.04.2-.25.22-.35.04-.34-.31M59.25 125.22a1.93 1.93 0 0 0-1.93-1.93 1.93 1.93 0 0 0-1.93 1.93 1.93 1.93 0 0 0 1.93 1.93 1.93 1.93 0 0 0 1.93-1.93M92.35 125.2q-.47-.07-.93.1-1.26.47-.14 1.21 1.49.97 2.26.62a2.09 2.05 47 0 0 .09-3.68q-.87-.49-1.94.14-.65.38.1.31.84-.08 1.06.75.17.65-.5.55M105.23 125.45q-.13-.41-.54-.56-.55-.19-.77.35-.34.83.2 1.36a1.91 1.88-55.9 0 0 3.06-.61q.27-.62-.09-1.76-.17-.51-.67-.69-.93-.34-1.94-.26-.22.02-.2.24l.03.28q.02.23.25.24 1.04.05 1.21 1.06.04.17-.01.35-.26.86-.53 0M110.6 124.88v1.6q0 .36.37.39l.37.03a.4.4 0 0 0 .43-.46l-.22-1.77a1.69 1.69 0 0 0-2.86-1q-1.22 1.18-.38 3.07.09.19.28.26.15.05.29 0 .37-.16.24-.55-.35-1.02.18-1.92a.7.7 0 0 1 1.3.35M114.08 124.49q.4-.32.88-.46.25-.09.28-.35.04-.57-1.3-.21a1.85 1.83-10.7 0 0-1.36 1.97q.2 1.81 2.51 1.7.17-.01.21-.16l.07-.28a.14.13 12.5 0 0-.11-.16q-1.3-.21-1.49-1.3-.08-.45.31-.75M117.74 125.43q-.27-.22-.47-.5-.34-.49-.69 0-.68.95.11 1.68.9.85 2.28.34a1.12 1.11-6 0 0 .71-.87q.39-2.59-1.86-2.83-.53-.06-.82.43-.38.63.33.43.3-.09.51.17.3.39.38.87.11.75-.48.28M71.85 124.55a.51.51 0 0 0-.12.9q.5.34 1.08.12a.49.48-32.7 0 0 .18-.8q-.47-.46-1.14-.22M44.21 134.25q.97.86.63 2.3-.09.36.27.41l.35.06a.34.33-77.7 0 0 .38-.25q.77-2.98-1.47-3.51-.54-.12-.8-.61-.23-.4-.61-.42a.6.6 0 0 0-.62.61l.06 3.88q0 .15.14.21l.51.18a.33.33 0 0 0 .44-.3l.06-2.27q.03-.84.66-.29M79.5 136.36q-.86.38-.02.73a1.7 1.69 30.4 0 0 2.01-.52q.9-1.15.58-2.82c-.17-.93-1.08-1.29-1.88-1.51q-.52-.14-.77.34-.28.56-.73 1-.42.41-.73-.08-1.08-1.7-3.04-.81-.07.03-.08.1l-.03.33q-.03.33.31.33l1.15-.03q.93-.01.28.65l-1.75 1.77a.69.69 0 0 0 .49 1.18h2.17q.68 0 .18-.46-.36-.34-.89-.32-.98.05-.29-.65l1.23-1.23q.53-.54 1.05.01l.96 1q.61.63-.2.99M87.03 133.71q.34-.54.96-.38.59.15.72-.44.03-.15-.02-.29-.12-.33-.46-.32-2.53.07-2.21 2.36.04.29.33.3.22 0 .36-.17a.4.39-53.6 0 1 .5-.08q.64.4.74 1.03.11.69-.57.58l-.86-.13q-.18-.02-.31.11-.41.45.83.85.31.11.63.06.85-.11 1.45-.98.29-.42.1-.89-.69-1.67-1.97-1.32a.2.19 8.3 0 1-.22-.29M93.2 136.65l-.85-.29a.55.54-62.7 0 1-.26-.84l.84-1.13a.95.94-38.7 0 0 .11-.96q-.78-1.76-2.76-.77-.05.03-.05.08v.44q0 .34.32.22.49-.18.96 0 .55.22.28.74-.49.93-1.43 1.47a.76.75 78.8 0 0-.39.59q-.03.32.17.57.3.36.76.31 2.52-.26 4.8.13a1.19 1.18-71.3 0 0 1.24-.62q.43-.83.02-1.58-.24-.42-.07-.87.54-1.41-1.17-1.83-1.65-.41-1.18 1.22.34 1.17 1.31 1.91a.45.45 0 0 1 .16.49q-.13.45-.45.35-.89-.27-1.6.25-.35.26-.76.12M99.843 137.179a2.44 1.98 91.8 0 0 2.056-2.377 2.44 1.98 91.8 0 0-1.902-2.5 2.44 1.98 91.8 0 0-2.056 2.376 2.44 1.98 91.8 0 0 1.902 2.5M105.942 133.583a1.19 1.19 0 0 0-1.188-1.192l-.72-.002a1.19 1.19 0 0 0-1.192 1.188l-.004 2.4a1.19 1.19 0 0 0 1.188 1.192l.72.002a1.19 1.19 0 0 0 1.192-1.188l.004-2.4M113.726 137.199a2.42 1.99 88.2 0 0 1.913-2.482 2.42 1.99 88.2 0 0-2.065-2.356 2.42 1.99 88.2 0 0-1.913 2.482 2.42 1.99 88.2 0 0 2.065 2.356M37 135.01q-.3-.99-.26-2 .02-.45-.43-.46l-.38-.02a.48.48 0 0 0-.48.59l.77 3.29a.92.91 8.6 0 0 .44.59q.38.2.75.15a.79.78-6.2 0 0 .68-.84q-.03-.41.35-.52.44-.13.49.33.11.86.98 1.05.82.18.97-.64l.61-3.2a.64.63-86.8 0 0-.67-.75l-.39.03a.34.34 0 0 0-.3.42q.3 1.22-.06 2.13-.26.65-.52.01l-.6-1.46q-.25-.6-.66-.1-.52.63-.78 1.41-.27.79-.51-.01M52.15 135.02q.08-.17.25-.26.86-.47.16-1.16l-.71-.71q-.71-.7-.8.3-.15 1.83.24 3.38a.86.84-1.4 0 0 .68.63q.27.05.54 0 1.03-.2.23-.88l-.41-.36q-.47-.4-.18-.94M83.81 135.13q-.23.95.17 1.77a.47.47 0 0 0 .89-.19l.09-3.45q.02-.43-.35-.64-.56-.34-1.16-.1a.64.64 0 0 0-.27.97l.4.54q.37.5.23 1.1M110.13 134.06q.35-.75-.09-1.43a.58.58 0 0 0-.78-.18q-1.64.97-2.38 2.67-.57 1.32.8.88.99-.32 1.5.56.39.66.98.19.52-.42.6-1.13.04-.33-.28-.45-.15-.06-.25-.19-.33-.43-.1-.92M71.46 133.44q-.41.47-.18 1.01a.49.49 0 0 0 .95-.2v-.53q-.02-1.14-.77-.28M48.4 135.91q-.03-.39-.2-.71-.33-.6-.86-.16-.94.77-.1 1.77a1.35 1.33-19.7 0 0 1.03.48q1.74 0 1.91-1.47.32-2.69-2.64-2.5-.3.02-.21.3l.13.49q.05.15.21.16 1.06.09 1.18 1.07.04.31-.07.62-.3.89-.38-.05M55.85 134.24q.2-.18.45-.32.95-.56-.15-.63-.94-.06-1.92.53a.63.62-41 0 0-.08 1.03q.59.47 1.37.75.98.33.04.75-.41.18-.82-.1a.27.26 22.5 0 0-.4.16l-.06.29q-.02.1.07.16 1.54.94 2.56-.31a1 1 0 0 0-.55-1.61l-.36-.08q-.7-.15-.15-.62M59.38 136.19q-.2-.37-.13-.78.07-.48-.41-.42l-.31.04q-.43.06-.52.49-.36 1.89 1.83 1.71 1.4-.12 1.31-1.52l-.09-1.38q-.05-.69-.73-.8l-1.61-.25a.37.36 84.1 0 0-.39.49q.19.53.76.54a.72.72 0 0 1 .69.64q.06.6-.07 1.19-.11.48-.33.05M62.99 137.96q.95-.8 2.12-1.32a1.27 1.27 0 0 0 .76-1.15q.01-.78-.43-1.42a1.9 1.88-26.2 0 0-2.17-.73c-1.83.63-1.26 2.71-1.25 4.18q.01 1.26.97.44M69.33 136.84a1.49 1.49 0 0 0 1.01-1.68q-.24-1.32-1.42-1.83a1.6 1.6 0 0 0-2.23 1.42l-.08 3q-.04 1.27.83.34.84-.91 1.89-1.25M72.33 136.6a.6.6 0 0 0-.6-.6.6.6 0 0 0-.6.6.6.6 0 0 0 .6.6.6.6 0 0 0 .6-.6" vector-effect="non-scaling-stroke"/><path stroke="#f9c148" d="M78.65 20.92q-.25.33-.55.04" vector-effect="non-scaling-stroke"/><path stroke="#fdd87e" d="M78.1 20.96q-.81-.92-.78-1.51.07-1.21 1.25-.94.94.21 1.56-.37a.46.46 0 0 0-.05-.71q-1.26-.9-1.43-2.25-.07-.57.5-.65.57-.09.95.37.85 1.01.79 2.33-.03.48.45.53 2.81.29 3.49-1.92a2.32 2.31 24.3 0 0-1.01-2.66q-2.89-1.76-4.95.61-.33.37-.82.36-1.98-.02-2.78 1.65-.25.52.02 1.03l.8 1.57q.28.54-.1 1.01c-1.4 1.76-.14 2.61-.35 4.3q-.07.55-.59.72-.65.21-.69.88-.02.55.53.54c2-.06 3.44 1.09 5.53.77q2.54-.39 5.35-.77 1.01-.14.22-.78l-.9-.73q-.98-.8-.49-1.97.44-1.06.04-2.02-.47-1.13-1.69-.53-.71.34-1.06.95a.92.92 0 0 0 .09 1.06q.74.88.73 1.88-.01.76-.77.81l-.33.02q-.75.05-.62-.68l.38-2.27q.1-.54-.37-.83-1.21-.75-2.35.16" vector-effect="non-scaling-stroke"/><path stroke="#fbe7ad" d="m78.1 20.96-.75 2.7q-.23.83.62 1.03l.5.12q.95.22.77-.74l-.59-3.15" vector-effect="non-scaling-stroke"/><path stroke="#ef8583" d="M70.769 14.87a2.09 2.09 0 0 0-2.043-2.138l-1.9-.043a2.09 2.09 0 0 0-2.136 2.042l-.058 2.58a2.09 2.09 0 0 0 2.042 2.137l1.9.043a2.09 2.09 0 0 0 2.136-2.042l.059-2.58" vector-effect="non-scaling-stroke"/><path stroke="#dfa656" d="M92.02 19.22q-.14.08-.24.19a.62.6-30.4 0 0-.17.61q.81 2.88 3.9 2.7" vector-effect="non-scaling-stroke"/><path stroke="#f69c3f" d="M95.51 22.72q1.57-2.71-.72-3.84-.45-.22-.93-.11l-1.84.45" vector-effect="non-scaling-stroke"/><path stroke="#e0da8e" d="M95.51 22.72q-1.75-1.57-2.71-3.24-.14-.23-.78-.26" vector-effect="non-scaling-stroke"/><path stroke="#fab483" d="M96.51 32.99q-1.05 1.41-3.01.77-.75-.24-.84-1-.08-.59-.68-.57-1.08.03-1.52.8-.24.42.03.82 2.44 3.5 5.98 1.46c1.67-.96 2.28-3.77 2.43-5.45q.21-2.4-2.22-3.65a2.51 2.51 0 0 0-3.55 1.49c-.4 1.31-.82 3.16.28 4.26q1.34 1.32 2.86.76.64-.24.24.31M75.09 40.46l-1.57 2.93a.87.87 0 0 0 .73 1.28l3.03.09" vector-effect="non-scaling-stroke"/><path stroke="#f69c3f" d="m77.28 44.76 4.2.02" vector-effect="non-scaling-stroke"/><path stroke="#fab483" d="m81.48 44.78 2.55-.18q.54-.04.45-.57-.28-1.62-1.37-3.02" vector-effect="non-scaling-stroke"/><path stroke="#f69c3f" d="m83.11 41.01.86-5.3q.29-1.79-1.52-1.81l-6.82-.07q-1.56-.02-1.56 1.54l.02 4.13q0 .58.55.79l.45.17" vector-effect="non-scaling-stroke"/><path stroke="#fbe8bb" d="M83.11 41.01q-.32-.68-.86-.84" vector-effect="non-scaling-stroke"/><path stroke="#f69c3f" d="m82.25 40.17.42-3.39q.19-1.51-1.33-1.52l-4.51-.02q-1.5-.01-1.5 1.48l-.02 3.45" vector-effect="non-scaling-stroke"/><path stroke="#fbe8bb" d="M75.31 40.17q-.2.21-.22.29M81.48 44.78q-.96-.02-.89-.29.4-1.42-.29-1.5" vector-effect="non-scaling-stroke"/><path stroke="#fdd98c" d="M80.3 42.99q-.99-.99-2.55-.41-1.09.4-.51 1.28" vector-effect="non-scaling-stroke"/><path stroke="#fbe8bb" d="M77.24 43.86q-.23.64.04.9" vector-effect="non-scaling-stroke"/><path stroke="#fab483" d="M82.25 40.17h-6.94" vector-effect="non-scaling-stroke"/><path stroke="#f9c148" d="M80.3 42.99q.31 1.31-3.06.87M58.81 21.97q.01.22.07.42.23.79.8.2l.93-.96q.43-.43-.17-.5-.45-.04-.9-.01-.76.07-.73.85" vector-effect="non-scaling-stroke"/><path stroke="#eea7c3" d="m62.29 33.85-.15.26q-.38.63.22 1.08.15.11.34.18.77.26.52-.52-.38-1.18-.09-2.39.55-2.35-1.93-2.56-.91-.07-.52.75.56 1.19 1.48 2.14a.88.88 0 0 1 .13 1.06" vector-effect="non-scaling-stroke"/><path stroke="#fbe8bb" d="M97.34 27.93q-.9-.4-1.36.57a.54.54 0 0 0 .43.77q.7.08 1.15-.52a.54.54 0 0 0-.22-.82" vector-effect="non-scaling-stroke"/><path stroke="#83cfc8" d="M73.228 58.518A2.39.43 2.1 0 0 70.856 58a2.39.43 2.1 0 0-2.404.342 2.39.43 2.1 0 0 2.372.518 2.39.43 2.1 0 0 2.404-.342M72.01 62.24l-3.47.44q-.25.03-.2.28l.07.31a.39.37-6.8 0 0 .4.3l3.65-.24q.17-.01.17-.18v-.36q0-.62-.62-.55M70 72.99l.65-1.05q.37-.59-.31-.76-1.15-.28-2.07-1.08-.55-.48-1.1.01-.69.62-1.58.87-.87.25-.36.99.67 1 .55 2.23-.08.79.71.65.27-.05.5-.2.48-.32 1.04-.18.57.15 1.01.55a.45.45 0 0 0 .75-.36l-.03-.75q-.02-.49.24-.92M74.16 70.29q.18-.63-.44-.43l-1.15.36q-.47.15-.47.65 0 .27.1.53.23.62.84.33.83-.41 1.12-1.44M75.73 72l-1.46-.04a.4.4 0 0 0-.38.24q-.65 1.35-.09 2.46a1.99 1.98-14.2 0 0 1.84 1.09q3.47-.09 2.57-3.02a.81.8 85.4 0 0-.66-.57l-.35-.05q-.31-.04-.26.26.16 1.18-.37 2.15-.39.74-.9.08-.8-1.04.23-2.23.31-.36-.17-.37" vector-effect="non-scaling-stroke"/><path stroke="#e4f2d2" d="M84.956 67.995a1.6 1.6 0 0 0-1.708-1.485l-1.297.09a1.6 1.6 0 0 0-1.484 1.709l.097 1.396a1.6 1.6 0 0 0 1.708 1.485l1.297-.09a1.6 1.6 0 0 0 1.484-1.709l-.097-1.396" vector-effect="non-scaling-stroke"/><path stroke="#7cbcda" d="M67.59 71.39q-1.05.17-.83 1.29.09.48.57.58.7.15 1.28-.24.69-.48.18-1.15-.46-.6-1.2-.48" vector-effect="non-scaling-stroke"/><path stroke="#363637" d="M85.61 82.025a.41.41 0 0 0-.41-.41l-16.84.03a.41.41 0 0 0-.41.41v.04a.41.41 0 0 0 .41.41l16.84-.03a.41.41 0 0 0 .41-.41v-.04M85.74 85.87a8.68.5-.2 0 0-8.682-.47 8.68.5-.2 0 0-8.678.53 8.68.5-.2 0 0 8.682.47 8.68.5-.2 0 0 8.678-.53M84.39 89.84a7.64.42.3 0 0-7.638-.46 7.64.42.3 0 0-7.642.38 7.64.42.3 0 0 7.638.46 7.64.42.3 0 0 7.642-.38" vector-effect="non-scaling-stroke"/><path stroke="#df4052" d="M126.984 99.766a1.07.86-26.9 0 0-1.343-.283 1.07.86-26.9 0 0-.565 1.251 1.07.86-26.9 0 0 1.343.283 1.07.86-26.9 0 0 .565-1.251" vector-effect="non-scaling-stroke"/><path stroke="#ef8583" d="M123.82 102.45a.64.63 44.5 0 0 .01.62q.42.71 1.2-.2a.58.58 0 0 0-.09-.83q-.63-.47-1.12.41" vector-effect="non-scaling-stroke"/><path stroke="#818080" d="M64.888 108.668a1.01.74 125.9 0 0 1.191-.384 1.01.74 125.9 0 0-.007-1.252 1.01.74 125.9 0 0-1.191.384 1.01.74 125.9 0 0 .007 1.252M72.604 108.11a.97.77 15.6 0 0-.727-1.002.97.77 15.6 0 0-1.141.481.97.77 15.6 0 0 .727 1.003.97.77 15.6 0 0 1.141-.481" vector-effect="non-scaling-stroke"/><path stroke="#818080" d="M68.635 115.99a4.01 1.98 89.5 0 0 1.945-4.027 4.01 1.98 89.5 0 0-2.015-3.993 4.01 1.98 89.5 0 0-1.945 4.027 4.01 1.98 89.5 0 0 2.015 3.993M72.5 115.4q-.37-.79-.99-.17-.25.25-.38.58a.75.75 0 0 0 1.11.91q.67-.43.26-1.32" vector-effect="non-scaling-stroke"/><path stroke="#818080" d="M66.58 116.284a1.01.65 8.2 0 0-.907-.787 1.01.65 8.2 0 0-1.093.499 1.01.65 8.2 0 0 .907.787 1.01.65 8.2 0 0 1.093-.499M16.566 106.957a1.04.75-28.3 0 0-1.272-.167 1.04.75-28.3 0 0-.56 1.153 1.04.75-28.3 0 0 1.272.167 1.04.75-28.3 0 0 .56-1.153M19.035 108.287a.9.78 109.8 0 0 1.039-.583.9.78 109.8 0 0-.43-1.11.9.78 109.8 0 0-1.038.582.9.78 109.8 0 0 .43 1.11M10.89 107.35l.06.37q.07.51.59.53.45.01.84-.15a.66.66 0 0 0 .05-1.2q-.46-.24-1.01-.22-.63.04-.53.67M16.142 116.492a.91.75 58 0 0 .154-1.17.91.75 58 0 0-1.118-.374.91.75 58 0 0-.154 1.17.91.75 58 0 0 1.118.374" vector-effect="non-scaling-stroke"/><path stroke="#7f6d75" d="M51.077 108.488a.99.8 40.1 0 0-.242-1.25.99.8 40.1 0 0-1.272-.026.99.8 40.1 0 0 .242 1.25.99.8 40.1 0 0 1.272.026" vector-effect="non-scaling-stroke"/><path stroke="#818080" d="M59.33 107.52q.06-.6-.54-.62-.29-.01-.56.07-.42.11-.49.53-.09.49.02.96.14.58.67.33.81-.38.9-1.27M50.602 116.945a.9.75 63.5 0 0 .27-1.14.9.75 63.5 0 0-1.074-.47.9.75 63.5 0 0-.27 1.14.9.75 63.5 0 0 1.074.47M59.243 115.897a.94.78-13.7 0 0-1.098-.535.94.78-13.7 0 0-.728.98.94.78-13.7 0 0 1.098.536.94.78-13.7 0 0 .728-.98M79.49 107.81q-.28-1.28-1.32-.68-.55.32-.25.88.27.49.77.6 1.03.22.8-.8M89.67 107.25a.65.62 9.3 0 0-.35.24q-.4.51.09.92a.97.96 39.7 0 0 1.35-.12q.26-.31.23-.72-.04-.7-.71-.5l-.61.18M79.112 116.919a.98.79 53.6 0 0 .054-1.258.98.79 53.6 0 0-1.218-.32.98.79 53.6 0 0-.054 1.258.98.79 53.6 0 0 1.218.32M83.79 115.38q-.43.87.01 1.52.28.43.69.11.59-.45.47-1.19-.04-.26-.25-.43-.19-.15-.41-.22a.41.41 0 0 0-.51.21M89.49 115.55q-.3.62.19 1.1a.7.7 0 0 0 1.13-.23q.19-.47-.12-.94-.36-.54-.91-.24a.69.65-3.8 0 0-.29.31" vector-effect="non-scaling-stroke"/><path stroke="#7f6d75" d="M100.55 107.37a.93.93 0 0 0-.93-.93.93.93 0 0 0-.93.93.93.93 0 0 0 .93.93.93.93 0 0 0 .93-.93" vector-effect="non-scaling-stroke"/><path stroke="#818080" d="m98.94 113.93 1.34.06a.3.3 0 0 0 .32-.29v-.13a3.97.83-87.5 0 0-.65-4l-.28-.01a3.97.83-87.5 0 0-1.01 3.93v.13a.3.3 0 0 0 .28.31M96.048 116.665a1.06.75 84.7 0 0 .649-1.124 1.06.75 84.7 0 0-.845-.986 1.06.75 84.7 0 0-.649 1.124 1.06.75 84.7 0 0 .845.986" vector-effect="non-scaling-stroke"/><path stroke="#818080" d="M102.41 115.66q-.21.65.46.79.41.08.79-.09.51-.23.33-.76-.14-.43-.42-.8a.53.53 0 0 0-.93.15l-.23.71" vector-effect="non-scaling-stroke"/><path stroke="#df4052" d="M123.86 108.777a1.01.88 69.7 0 0 .475-1.252 1.01.88 69.7 0 0-1.175-.642 1.01.88 69.7 0 0-.475 1.252 1.01.88 69.7 0 0 1.175.642" vector-effect="non-scaling-stroke"/><path stroke="#ef8583" d="M123.995 117.014a.92.76 66.6 0 0 .332-1.146.92.76 66.6 0 0-1.062-.542.92.76 66.6 0 0-.332 1.146.92.76 66.6 0 0 1.062.542" vector-effect="non-scaling-stroke"/><path stroke="#818080" d="M25.095 106.738a.89.79-42.6 0 0-1.19.02.89.79-42.6 0 0-.12 1.184.89.79-42.6 0 0 1.19-.02.89.79-42.6 0 0 .12-1.184M29.97 108.232a.91.75 101.4 0 0 .915-.744.91.75 101.4 0 0-.555-1.04.91.75 101.4 0 0-.915.744.91.75 101.4 0 0 .555 1.04M23.926 117.15a.96.76 126.7 0 0 1.183-.316.96.76 126.7 0 0-.035-1.224.96.76 126.7 0 0-1.183.316.96.76 126.7 0 0 .035 1.224M31.03 116.46a.87.87 0 0 0-.87-.87.87.87 0 0 0-.87.87.87.87 0 0 0 .87.87.87.87 0 0 0 .87-.87M37.037 108.418a.95.84 38.2 0 0-.227-1.248.95.84 38.2 0 0-1.267.073.95.84 38.2 0 0 .227 1.247.95.84 38.2 0 0 1.267-.072M41.82 108.13q0 .31.3.37.62.15 1.21-.03a.53.52-20.2 0 0 .34-.72q-.32-.69-1.04-.59-.8.11-.81.97M36.29 117.146a1 .68 84.8 0 0 .587-1.058 1 .68 84.8 0 0-.768-.934 1 .68 84.8 0 0-.586 1.058 1 .68 84.8 0 0 .768.934M44.458 116.194a.94.79 3.3 0 0-.892-.843.94.79 3.3 0 0-.984.735.94.79 3.3 0 0 .892.843.94.79 3.3 0 0 .984-.735M110.18 107.84a.86.86 0 0 0-.86-.86.86.86 0 0 0-.86.86.86.86 0 0 0 .86.86.86.86 0 0 0 .86-.86M117.063 108.67a.93.81 115.3 0 0 1.13-.494.93.81 115.3 0 0-.336-1.187.93.81 115.3 0 0-1.13.495.93.81 115.3 0 0 .336 1.187M109.865 116.854a.9.76 49.5 0 0-.007-1.178.9.76 49.5 0 0-1.163-.19.9.76 49.5 0 0 .007 1.178.9.76 49.5 0 0 1.163.19M116.911 116.982a.9.78 115.6 0 0 1.092-.475.9.78 115.6 0 0-.314-1.149.9.78 115.6 0 0-1.092.475.9.78 115.6 0 0 .314 1.149M132.51 107.4a.54.53-69.4 0 0 .25.56q.33.19.76.17.73-.03.58-.74l-.08-.39a.6.6 0 0 0-.76-.45q-.6.18-.75.85" vector-effect="non-scaling-stroke"/><path stroke="#818080" d="m132.61 114.01 1.32-.02a.29.29 0 0 0 .29-.29v-.14a4.05.82 89.4 0 0-.86-4.04h-.26a4.05.82 89.4 0 0-.78 4.06v.14a.29.29 0 0 0 .29.29M129.408 116.6a1.03.74 101.3 0 0 .928-.865 1.03.74 101.3 0 0-.524-1.155 1.03.74 101.3 0 0-.928.865 1.03.74 101.3 0 0 .524 1.155" vector-effect="non-scaling-stroke"/><path stroke="#818080" d="M137.44 115.05a.36.33 10.5 0 0-.17-.23q-.66-.34-1.06.33-.45.78.26 1.27a.69.69 0 0 0 1.08-.63q-.02-.28-.11-.74M35.13 126.04q1.42-1.66-.27-2.58-.7-.39-.89.39-.25.99.05 1.96a.65.65 0 0 0 1.11.23M52.684 126.32a1.16.71 91.8 0 0 .746-1.138 1.16.71 91.8 0 0-.674-1.181 1.16.71 91.8 0 0-.746 1.137 1.16.71 91.8 0 0 .674 1.181M38.96 125.86a.62.61-4.3 0 0 .45.38q.71.15.81-.57.1-.71-.33-1.25-.37-.45-.72.01-.5.65-.21 1.43M56.78 124.47q-.49.69-.11 1.43a.69.69 0 0 0 1.26-.09q.28-.82-.31-1.41a.56.55 39.7 0 0-.84.07" vector-effect="non-scaling-stroke"/><path stroke="#7f6d75" d="M80.36 135.47q-.12.04-.15.16-.04.16.03.3.03.04.07.07.21.11.32-.09.76-1.31-.05-2.39-.36-.48-.36.12-.01.69.35 1.26.27.41-.21.57" vector-effect="non-scaling-stroke"/><path stroke="#818080" d="M99.782 136.157a1.4.91 94 0 0 1.006-1.334 1.4.91 94 0 0-.81-1.46 1.4.91 94 0 0-1.006 1.333 1.4.91 94 0 0 .81 1.46M113.665 136.219a1.43.87 87.4 0 0 .804-1.469 1.43.87 87.4 0 0-.934-1.388 1.43.87 87.4 0 0-.804 1.468 1.43.87 87.4 0 0 .934 1.388M62.94 135.33q-.01.22-.09.44-.17.5.35.49.7-.01 1.27-.43a.81.8 34.4 0 0-.27-1.42q-1.2-.32-1.26.92M68.227 136.327a1.04.72 99 0 0 .874-.914 1.04.72 99 0 0-.548-1.14 1.04.72 99 0 0-.874.914 1.04.72 99 0 0 .548 1.14" vector-effect="non-scaling-stroke"/></g><path fill="#a4db6d" d="M0 0h6.07q1.75.74 2.87 2.52.6.95-.33 1.58L0 9.94V0Z"/><path fill="#fff" d="M6.07 0h10.26l14.09 19.94a.67.67 0 0 0 .94.16l26.5-19a.47.46-55.5 0 0-.15-.83q-.37-.1-.21-.27H150v150H0V31.23q3.27-1.29 6.19-3.89a.8.8 0 0 0 .11-1.07l-3.75-5.08a1.09 1.09 0 0 0-1.88.22L0 22.98V9.94L8.61 4.1q.93-.63.33-1.58Q7.82.74 6.07 0Zm63.614.627a1.64.64-5 0 0-1.69-.495 1.64.64-5 0 0-1.578.78 1.64.64-5 0 0 1.69.496 1.64.64-5 0 0 1.578-.78ZM123.24.78q.33-.26-.07-.37-1.4-.35-3.2-.09a.39.39 0 0 0-.16.71q1.64 1.14 3.43-.25ZM77.58 9.65q-3.75 2.21-5.27.16-1.34-1.35-1.67-3.01a1.46 1.45 65.9 0 0-2.3-.88l-4.09 3.06a.95.95 0 0 0 .04 1.56q.94.63.97 1.77-1.66.66-2.25 3.26-1.11-1.04-2.29-.92a.81.8-86.4 0 0-.7.62l-.24 1.01q-.13.52-.66.62-2.25.42-3.46 2.29-1.37 2.13.63 5.64-1.12 3.15-2.27 2.98c-3.47-.96-4.63 2.74-2.64 5.13q-.09.87-.3.73-3.69 6.04 3.43 8.5-1.58 2.94-1.21 6.08.59 4.97 5.39 7.14-.87 4.53 2.77 4.23-.61 5.23 2.72 8.58.29.29.41.66.15.43-.24.7-.59.41-.81 1.11c-.93 2.99-.19 6.02 3.24 6.71q3.35.67 5.1-2.12a.48.48 0 0 1 .85.09c1.09 2.98 4.06 2.29 6.47 1.43q3.56 1.36 7.31.06 2.08.14 2.62.04 1.23-.25.95-1.66c.14-3.38 1.48-6.55-.16-9.8a.89.89 0 0 1 .32-1.15q3.73-2.35 4.45-6.66.09-.52.51-.85 1.79-1.4 1.52-3.5l.52-.15q6.67-3.13 4.06-11.03 3.51-.78 2.58-3.76-.15-.48-.57-.75l-1.6-1.02q4.9-8.8-3.41-13.35-.42-.23-.46-.7l-.28-3.38 7.71-6.15a1 .99-37.6 0 0 .18-1.37l-5.35-7.28a.77.76-35.6 0 0-1.05-.17l-7.26 4.99q-1.18.82-.38 2l4.06 6.02q-2.73-.01-2.61-2.12a.64.64 0 0 0-.63-.68q-.52-.02-1.03.19a.71.69-15.4 0 0-.44.75q.12.86.92 1.32a.46.45 38.4 0 1 .09.73l-.44.42q-2.2-4.58-6.64-7.52l2.36-1.34a.87.87 0 0 0 .28-1.26l-4.41-6.14q-.61-.86-1.46-.24L75.4 5.66q-.82.6-.15 1.36l2.33 2.63Zm37.745-7.996a.87.87 0 0 0-1.229-.064l-1.694 1.525a.87.87 0 0 0-.065 1.23l1.298 1.44a.87.87 0 0 0 1.229.065l1.694-1.525a.87.87 0 0 0 .065-1.23l-1.298-1.44ZM149 5.47q.3.67.66.02.39-.72.06-1.69a.34.33 52.5 0 0-.59-.08q-.56.79-.13 1.75Zm-14.49.28a1.08 1.08 0 0 0-1.55-.23l-3.04 2.41a1.08 1.08 0 0 0-.24 1.44l2.12 3.21a1.08 1.08 0 0 0 1.5.31l3.34-2.21a1.08 1.08 0 0 0 .28-1.53l-2.41-3.4Zm-13.415.045a.81.81 0 0 0-1.132-.175l-6.23 4.56a.81.81 0 0 0-.175 1.131l4.547 6.214a.81.81 0 0 0 1.132.175l6.23-4.56a.81.81 0 0 0 .175-1.131l-4.547-6.214ZM54.48 25.22a1.03 1.03 0 0 0-1.03-1.03 1.03 1.03 0 0 0-1.03 1.03 1.03 1.03 0 0 0 1.03 1.03 1.03 1.03 0 0 0 1.03-1.03Zm-1.402 17.982a1.18.97-3.3 0 0-1.234-.9 1.18.97-3.3 0 0-1.122 1.036 1.18.97-3.3 0 0 1.234.9 1.18.97-3.3 0 0 1.122-1.036ZM65.27 89.42q.66.28.39.94-.71 1.77.46 2.93.3.29.72.23c.95-.13 1.81-.15 2.62.45q2.4 1.76 4.34 3.73c1.5 1.52 4.82 1.32 6.31-.11q2.14-2.04 4.59-3.8.35-.25.78-.26l1.97-.05q.69-.01.82-.69.25-1.26-.05-2.52-.13-.53.31-.84.69-.48.92-1.28.16-.6-.18-1.11l-.34-.51a.98.98 0 0 1 .02-1.11q.97-1.38.1-2.73-.46-.7.03-1.38.59-.85.35-1.75-.36-1.3-1.71-1.3l-21.69-.02a1.71 1.71 0 0 0-1.48 2.57q.81 1.38-.05 2.59-.45.63.01 1.24.85 1.13.1 2.32-.44.71-.2 1.51.21.68.86.95Zm63.13 10.07a.54.54 0 0 0-.48-.8h-2.89a.54.54 0 0 0-.47.27l-2.39 4.25a.54.54 0 0 0 .45.8l2.93.11a.54.54 0 0 0 .5-.28l2.35-4.35Zm-78.5 6.2q-.73-.06-1.4.14-.51.14-.51.68l.08 11.01q0 .7.7.7h3.03q.51 0 .5-.52l-.03-4.44q-.03-3.56 1.21-.22.82 2.21 1.87 4.53.26.6.91.61l3.54.05q.74.01.75-.72l.24-10.92q1.87 0 2.27.28c-1.18 2.84-2.04 8.99 1.31 10.77 2.28 1.2 5.94 1.14 8.22.19 3.53-1.48 2.72-8.12 1.59-10.86l2.24.24.03 10.18a.78.77 1.2 0 0 .75.77l2.73.08q.97.03.87-.93-.43-3.92-.14-6.84.22-2.21.61-.02l1.24 7.1q.11.66.78.67l1.98.03q.7.01.83-.68l1.64-8.07q.03-.18.22-.15l.3.04q.06.01.06.07-.28 4.08-.33 8.14-.01.57.55.57l2.95.05q.62.01.63-.61l.19-10.74q1.87 1.04 3.99-.22l-3.25 10.8q-.23.78.58.76l2.71-.04q.67-.01 1.08-.54 1.26-1.65 3.86-.65.2.08.23.29.02.15.06.3a.8.79-6.6 0 0 .76.59l3.45.07q.64.01.45-.6l-3.66-11.66q-1.13-.67-2.63-.73-.49-.01-.57-.5-.06-.3-.33-.48-.66-.46-1.4-.44c-3.39.09-6.44-1.08-9.77-1.28q-7.33-.43-14.74-.44c-.62 0-.98.3-1.63.29q-10.14-.23-19.61 1.8-.45.09-.59.54-.22.76-1.4.96Zm-31.53 3.55 2.38-.12a.6.6 0 0 0 .57-.62l-.04-2.02q-.02-.78-.8-.78l-9.8-.01q-.63 0-.79.6-.3 1.05.02 2.22.21.76.98.73l1.74-.06a.79.78 1 0 1 .81.83q-.24 4.07.03 7.77.03.42.45.42h3.4q.51 0 .51-.52l-.05-7.8q-.01-.6.59-.64Zm107.61-2.89a.62.62 0 0 0-.615-.625l-3.34-.03a.62.62 0 0 0-.626.615l-.098 11.28a.62.62 0 0 0 .614.625l3.34.03a.62.62 0 0 0 .626-.615l.098-11.28Zm-99.41 6.92a.35.35 0 0 1 .35-.3l3.31.08a.35.35 0 0 0 .35-.36l-.07-1.6a.35.35 0 0 0-.34-.33l-3.42-.01a.35.35 0 0 1-.34-.42l.22-1.11a.35.35 0 0 1 .37-.28l4.98.31a.35.35 0 0 0 .37-.34l.12-2.82a.35.35 0 0 0-.35-.36l-9.56-.03a.35.35 0 0 0-.35.35l-.1 11.82a.35.35 0 0 0 .35.35h9.61a.35.35 0 0 0 .34-.35l-.04-2.83a.35.35 0 0 0-.35-.34l-5.25.09a.35.35 0 0 1-.36-.39l.16-1.13Zm11.93-4.25.02-2.65a.65.65 0 0 0-.65-.66l-3.08.02q-.73 0-.73.73v11.07q0 .71.72.71l3.19-.02a.61.6 86.1 0 0 .59-.68q-.18-1.32.12-2.72a.72.72 0 0 1 1.33-.2l1.33 2.45q.64 1.19 1.99 1.17l3.38-.05q.91-.01.42-.78l-3.95-6.15q-.2-.32.03-.62l3.45-4.36q.44-.57-.27-.56l-3.99.01q-.72 0-1.13.57-1.02 1.41-1.86 2.95-.92 1.7-.91-.23Zm73.45 2.74 2.48 5.96q.19.47.69.47l3.8.05q.68.01.68-.66l.06-11.4q0-.48-.48-.47l-3.2.05q-.44 0-.56.42c-.45 1.65.13 4-.02 5.75q-.12 1.24-.58.08l-2.35-5.78a.8.79 79.1 0 0-.74-.51l-3.96.01q-.75 0-.75.75l.06 11.38q.01.28.28.28l3.84.06q.17 0 .17-.17-.2-3.4-.01-6.17.09-1.3.59-.1Zm19.9 5.08q2.55-.69 3.62.84.37.53 1.01.53l2.85.01a.62.61 81 0 0 .58-.81l-3.57-11.14a.84.82-8.4 0 0-.8-.58l-4.57.04q-.65 0-.85.63l-3.63 11.45q-.12.41.3.41l3.7-.02q.49 0 .69-.45l.24-.54q.13-.29.43-.37Zm-41.82 7.01q-.12-.91.47-1.6.32-.38-.02-.73-.23-.23-.57-.11a.59.59 0 0 0-.4.5l-.47 4.45a.34.34 0 0 0 .31.38l.34.03q.18.01.22-.16.31-1.36.12-2.76Zm-57.26-.68-.02 3.12a.87.87 0 0 0 .86.87l.96.01a2.35 2.27.4 0 0 2.37-2.26v-.32a2.35 2.27.4 0 0-2.33-2.28l-.96-.01a.87.87 0 0 0-.88.87Zm21.67.1q.44-.48.06-.82-.48-.45-.96-.01-.71.65-1.6.98c-1.05.38-1.25 1.67-.85 2.59a1.89 1.89 0 0 0 2.2 1.08q1.88-.47.95-2.73a1.03 1.02 55.5 0 1 .2-1.09Zm8.56.45q-.11.19-.28.33a.6.6 0 0 0 .23 1.05q.15.04.27.13a.49.48-44 0 1-.02.79q-.41.28-.88.15-.4-.12-.53.28l-.09.26a.3.3 0 0 0 .24.38q1.71.24 2.66-.98a.63.63 0 0 0-.01-.79q-.68-.84-.22-1.8.2-.42-.16-.73-1.01-.85-2.31-.38-.49.18-.06.48.3.22.69.15.95-.15.47.68Zm4.4 2.04q-.3.42-.85.43-.59.01-.51.59l.03.26q.02.15.17.14 3.72-.38 2.56-3.75a1.69 1.68-18.2 0 0-2.11-1.06q-1.05.33-1.23 1.52-.05.37.2.66.54.61 1.38.57.84-.04.36.64Zm14.56-.59q-1.01.05-2.11.35-.8.21-.79-.59.01-.73.32-1.53a.51.5 27.5 0 0-.2-.62q-1.09-.69-2.83-.32-.6.13-.6.74l-.01 2.72a1.16 1.15 10.9 0 0 .73 1.07q1.47.58 2.7-.55.39-.36.88-.14l1.54.7a1.23 1.21-42.7 0 0 .96.03q1.85-.75 1-2.68-.55-1.25-1.99-1.1-.93.09-.28.77.36.37.81.65.73.46-.13.5Zm4.53-1.12q.83 1.08.63 2.54a.4.39-33.1 0 0 .77.16q.36-1.22.14-2.51a1.13 1.13 0 0 0-1.1-.94q-.71-.02-1.09-.61-.2-.32-.54-.47-.18-.08-.35-.04-.37.09-.35.46l.2 3.96q.01.14.15.18l.42.13q.39.11.39-.29l.05-2.35q.02-1.07.68-.22Zm14.02-.08q.17-.07.25-.22.3-.58-.26-.9-1.1-.61-2.24-.62a1.27 1.26 87.9 0 0-1.26 1.36l.2 2.83q.03.46.48.57 1.62.37 2.79-.38.65-.42.47-1.16-.1-.4-.49-.62-.87-.49.06-.86Zm2.45 2.71.03-4.12q0-.23-.22-.26l-.4-.06a.4.39-86.3 0 0-.45.4l.08 3.85q.01.42.43.41h.32q.21-.01.21-.22Zm-61.48-1.46a1.93 1.93 0 0 0-1.93-1.93 1.93 1.93 0 0 0-1.93 1.93 1.93 1.93 0 0 0 1.93 1.93 1.93 1.93 0 0 0 1.93-1.93Zm3.21-.64q.31.82.08 1.65a.59.59 0 0 0 .45.74q.38.08.5-.29.87-2.67-1.3-3.51a1.17 1.14 42.9 0 0-.9.02q-1.85.83-1.06 3.58a.38.38 0 0 0 .69.1q.57-.88.22-1.95a.44.43-19.8 0 1 .26-.54l.31-.12q.54-.22.75.32Zm3.38 1.31q.01-.22.1-.43a.42.42 0 0 0-.39-.59q-.94.01-1.03 1.09a1.03 1.03 0 0 0 .71 1.07q1.33.43 2.02-.12a2.08 2.08 0 0 0-.38-3.5q-.46-.22-1.6-.1-.11.01-.21.07-.19.13-.05.42a.46.41 82 0 0 .26.22q1.47.42 1.16 1.96-.04.2-.25.22-.35.04-.34-.31Zm11.18-.67a1.93 1.93 0 0 0-1.93-1.93 1.93 1.93 0 0 0-1.93 1.93 1.93 1.93 0 0 0 1.93 1.93 1.93 1.93 0 0 0 1.93-1.93Zm33.1-.02q-.47-.07-.93.1-1.26.47-.14 1.21 1.49.97 2.26.62a2.09 2.05 47 0 0 .09-3.68q-.87-.49-1.94.14-.65.38.1.31.84-.08 1.06.75.17.65-.5.55Zm12.88.25q-.13-.41-.54-.56-.55-.19-.77.35-.34.83.2 1.36a1.91 1.88-55.9 0 0 3.06-.61q.27-.62-.09-1.76-.17-.51-.67-.69-.93-.34-1.94-.26-.22.02-.2.24l.03.28q.02.23.25.24 1.04.05 1.21 1.06.04.17-.01.35-.26.86-.53 0Zm5.37-.57v1.6q0 .36.37.39l.37.03a.4.4 0 0 0 .43-.46l-.22-1.77a1.69 1.69 0 0 0-2.86-1q-1.22 1.18-.38 3.07.09.19.28.26.15.05.29 0 .37-.16.24-.55-.35-1.02.18-1.92a.7.7 0 0 1 1.3.35Zm3.48-.39q.4-.32.88-.46.25-.09.28-.35.04-.57-1.3-.21a1.85 1.83-10.7 0 0-1.36 1.97q.2 1.81 2.51 1.7.17-.01.21-.16l.07-.28a.14.13 12.5 0 0-.11-.16q-1.3-.21-1.49-1.3-.08-.45.31-.75Zm3.66.94q-.27-.22-.47-.5-.34-.49-.69 0-.68.95.11 1.68.9.85 2.28.34a1.12 1.11-6 0 0 .71-.87q.39-2.59-1.86-2.83-.53-.06-.82.43-.38.63.33.43.3-.09.51.17.3.39.38.87.11.75-.48.28Zm-45.89-.88a.51.51 0 0 0-.12.9q.5.34 1.08.12a.49.48-32.7 0 0 .18-.8q-.47-.46-1.14-.22Zm-27.64 9.7q.97.86.63 2.3-.09.36.27.41l.35.06a.34.33-77.7 0 0 .38-.25q.77-2.98-1.47-3.51-.54-.12-.8-.61-.23-.4-.61-.42a.6.6 0 0 0-.62.61l.06 3.88q0 .15.14.21l.51.18a.33.33 0 0 0 .44-.3l.06-2.27q.03-.84.66-.29Zm35.29 2.11q-.86.38-.02.73a1.7 1.69 30.4 0 0 2.01-.52q.9-1.15.58-2.82c-.17-.93-1.08-1.29-1.88-1.51q-.52-.14-.77.34-.28.56-.73 1-.42.41-.73-.08-1.08-1.7-3.04-.81-.07.03-.08.1l-.03.33q-.03.33.31.33l1.15-.03q.93-.01.28.65l-1.75 1.77a.69.69 0 0 0 .49 1.18h2.17q.68 0 .18-.46-.36-.34-.89-.32-.98.05-.29-.65l1.23-1.23q.53-.54 1.05.01l.96 1q.61.63-.2.99Zm7.53-2.65q.34-.54.96-.38.59.15.72-.44.03-.15-.02-.29-.12-.33-.46-.32-2.53.07-2.21 2.36.04.29.33.3.22 0 .36-.17a.4.39-53.6 0 1 .5-.08q.64.4.74 1.03.11.69-.57.58l-.86-.13q-.18-.02-.31.11-.41.45.83.85.31.11.63.06.85-.11 1.45-.98.29-.42.1-.89-.69-1.67-1.97-1.32a.2.19 8.3 0 1-.22-.29Zm6.17 2.94-.85-.29a.55.54-62.7 0 1-.26-.84l.84-1.13a.95.94-38.7 0 0 .11-.96q-.78-1.76-2.76-.77-.05.03-.05.08v.44q0 .34.32.22.49-.18.96 0 .55.22.28.74-.49.93-1.43 1.47a.76.75 78.8 0 0-.39.59q-.03.32.17.57.3.36.76.31 2.52-.26 4.8.13a1.19 1.18-71.3 0 0 1.24-.62q.43-.83.02-1.58-.24-.42-.07-.87.54-1.41-1.17-1.83-1.65-.41-1.18 1.22.34 1.17 1.31 1.91a.45.45 0 0 1 .16.49q-.13.45-.45.35-.89-.27-1.6.25-.35.26-.76.12Zm6.643.529a2.44 1.98 91.8 0 0 2.056-2.377 2.44 1.98 91.8 0 0-1.902-2.5 2.44 1.98 91.8 0 0-2.056 2.376 2.44 1.98 91.8 0 0 1.902 2.5Zm6.1-3.596a1.19 1.19 0 0 0-1.189-1.192l-.72-.002a1.19 1.19 0 0 0-1.192 1.188l-.004 2.4a1.19 1.19 0 0 0 1.188 1.192l.72.002a1.19 1.19 0 0 0 1.192-1.188l.004-2.4Zm7.783 3.616a2.42 1.99 88.2 0 0 1.913-2.482 2.42 1.99 88.2 0 0-2.065-2.356 2.42 1.99 88.2 0 0-1.913 2.482 2.42 1.99 88.2 0 0 2.065 2.356ZM37 135.01q-.3-.99-.26-2 .02-.45-.43-.46l-.38-.02a.48.48 0 0 0-.48.59l.77 3.29a.92.91 8.6 0 0 .44.59q.38.2.75.15a.79.78-6.2 0 0 .68-.84q-.03-.41.35-.52.44-.13.49.33.11.86.98 1.05.82.18.97-.64l.61-3.2a.64.63-86.8 0 0-.67-.75l-.39.03a.34.34 0 0 0-.3.42q.3 1.22-.06 2.13-.26.65-.52.01l-.6-1.46q-.25-.6-.66-.1-.52.63-.78 1.41-.27.79-.51-.01Zm15.15.01q.08-.17.25-.26.86-.47.16-1.16l-.71-.71q-.71-.7-.8.3-.15 1.83.24 3.38a.86.84-1.4 0 0 .68.63q.27.05.54 0 1.03-.2.23-.88l-.41-.36q-.47-.4-.18-.94Zm31.66.11q-.23.95.17 1.77a.47.47 0 0 0 .89-.19l.09-3.45q.02-.43-.35-.64-.56-.34-1.16-.1a.64.64 0 0 0-.27.97l.4.54q.37.5.23 1.1Zm26.32-1.07q.35-.75-.09-1.43a.58.58 0 0 0-.78-.18q-1.64.97-2.38 2.67-.57 1.32.8.88.99-.32 1.5.56.39.66.98.19.52-.42.6-1.13.04-.33-.28-.45-.15-.06-.25-.19-.33-.43-.1-.92Zm-38.67-.62q-.41.47-.18 1.01a.49.49 0 0 0 .95-.2v-.53q-.02-1.14-.77-.28Zm-23.06 2.47q-.03-.39-.2-.71-.33-.6-.86-.16-.94.77-.1 1.77a1.35 1.33-19.7 0 0 1.03.48q1.74 0 1.91-1.47.32-2.69-2.64-2.5-.3.02-.21.3l.13.49q.05.15.21.16 1.06.09 1.18 1.07.04.31-.07.62-.3.89-.38-.05Zm7.45-1.67q.2-.18.45-.32.95-.56-.15-.63-.94-.06-1.92.53a.63.62-41 0 0-.08 1.03q.59.47 1.37.75.98.33.04.75-.41.18-.82-.1a.27.26 22.5 0 0-.4.16l-.06.29q-.02.1.07.16 1.54.94 2.56-.31a1 1 0 0 0-.55-1.61l-.36-.08q-.7-.15-.15-.62Zm3.53 1.95q-.2-.37-.13-.78.07-.48-.41-.42l-.31.04q-.43.06-.52.49-.36 1.89 1.83 1.71 1.4-.12 1.31-1.52l-.09-1.38q-.05-.69-.73-.8l-1.61-.25a.37.36 84.1 0 0-.39.49q.19.53.76.54a.72.72 0 0 1 .69.64q.06.6-.07 1.19-.11.48-.33.05Zm3.61 1.77q.95-.8 2.12-1.32a1.27 1.27 0 0 0 .76-1.15q.01-.78-.43-1.42a1.9 1.88-26.2 0 0-2.17-.73c-1.83.63-1.26 2.71-1.25 4.18q.01 1.26.97.44Zm6.34-1.12a1.49 1.49 0 0 0 1.01-1.68q-.24-1.32-1.42-1.83a1.6 1.6 0 0 0-2.23 1.42l-.08 3q-.04 1.27.83.34.84-.91 1.89-1.25Zm3-.24a.6.6 0 0 0-.6-.6.6.6 0 0 0-.6.6.6.6 0 0 0 .6.6.6.6 0 0 0 .6-.6Z"/><path fill="#7ac930" d="M16.33 0H57.5q-.16.17.21.27a.47.46-55.5 0 1 .15.83l-26.5 19a.67.67 0 0 1-.94-.16L16.33 0Z"/><ellipse fill="#04b304" rx="1.64" ry=".64" transform="rotate(-5 42.843 -778.916)"/><path fill="#04b304" d="M123.24.78q-1.79 1.39-3.43.25a.39.39 0 0 1 .16-.71q1.8-.26 3.2.09.4.11.07.37Z"/><path fill="#336601" d="M84.69 10.25q-3.59-1.17-7.11-.6l-2.33-2.63q-.67-.76.15-1.36l6.06-4.39q.85-.62 1.46.24l4.41 6.14a.87.87 0 0 1-.28 1.26l-2.36 1.34Z"/><rect width="4.02" height="3.68" x="-2.01" y="-1.84" fill="#336601" rx=".87" transform="rotate(-42 62.085 -147.255)"/><path fill="#7ac930" d="M149 5.47q-.43-.96.13-1.75a.34.33 52.5 0 1 .59.08q.33.97-.06 1.69-.36.65-.66-.02Z"/><path fill="#c8fd19" d="m97.56 19.12-2.09-1.96-4.06-6.02q-.8-1.18.38-2l7.26-4.99a.77.76-35.6 0 1 1.05.17l5.35 7.28a1 .99-37.6 0 1-.18 1.37l-7.71 6.15Z"/><path fill="#c9e4a5" d="m134.51 5.75 2.41 3.4a1.08 1.08 0 0 1-.28 1.53l-3.34 2.21a1.08 1.08 0 0 1-1.5-.31l-2.12-3.21a1.08 1.08 0 0 1 .24-1.44l3.04-2.41a1.08 1.08 0 0 1 1.55.23Z"/><rect width="9.34" height="9.32" x="-4.67" y="-4.66" fill="#04b304" rx=".81" transform="rotate(-36.2 77.637 -177.128)"/><path fill="#c9e4a5" d="M72.31 9.81q-.3-.18-.54-.18a.52.5 85.8 0 0-.48.57q.28 2.23-.57 2.13-2.38-1.17-5.46-.02-.03-1.14-.97-1.77a.95.95 0 0 1-.04-1.56l4.09-3.06a1.46 1.45 65.9 0 1 2.3.88q.33 1.66 1.67 3.01Z"/><path fill="#fbb219" d="M77.58 9.65q3.52-.57 7.11.6 4.44 2.94 6.64 7.52-2.02.69-1.54 3.47.17 1.02.28 2.06.06.51-.36.8-2.6 1.83-3.29 5.1-.13.62.17 1.17.46.86.21 1.68-.66 2.2-1.6.11-.82-1.83-2.99-2.22-3.78-.67-7.72.15-.08-4.97-3.82-8.5-.36-.34-.01-.69 4.16-4.11.06-8.57.85.1.57-2.13a.52.5 85.8 0 1 .48-.57q.24 0 .54.18 1.52 2.05 5.27-.16Zm1.07 11.27q-.25.33-.55.04-.81-.92-.78-1.51.07-1.21 1.25-.94.94.21 1.56-.37a.46.46 0 0 0-.05-.71q-1.26-.9-1.43-2.25-.07-.57.5-.65.57-.09.95.37.85 1.01.79 2.33-.03.48.45.53 2.81.29 3.49-1.92a2.32 2.31 24.3 0 0-1.01-2.66q-2.89-1.76-4.95.61-.33.37-.82.36-1.98-.02-2.78 1.65-.25.52.02 1.03l.8 1.57q.28.54-.1 1.01c-1.4 1.76-.14 2.61-.35 4.3q-.07.55-.59.72-.65.21-.69.88-.02.55.53.54c2-.06 3.44 1.09 5.53.77q2.54-.39 5.35-.77 1.01-.14.22-.78l-.9-.73q-.98-.8-.49-1.97.44-1.06.04-2.02-.47-1.13-1.69-.53-.71.34-1.06.95a.92.92 0 0 0 .09 1.06q.74.88.73 1.88-.01.76-.77.81l-.33.02q-.75.05-.62-.68l.38-2.27q.1-.54-.37-.83-1.21-.75-2.35.16Z"/><path fill="#e1311e" d="M70.72 12.33q4.1 4.46-.06 8.57-.35.35.01.69 3.74 3.53 3.82 8.5-.59 5.38-5.62 7.91-.59.3-.22 1.24-.56-.49-1.17-.47 1.1-1.91 1.37-4.16 4.36-3.95.09-9.66-.08-1.24-.66-2.5a1.05 1.04 87.7 0 0-.58-.54l-3.38-1.23a.55.55 0 0 0-.68.78q.68 1.31-.28 1.76-3.66 1.6-4.95 4.37-.98 1.59-.53 3.53.35 1.52 1.48 2.62a2.47 2.45 31.2 0 1 .63 2.52q-.84 2.6-1.66.69-.27-1.45-1.48-1.34-.51.05-.74-.4l-.3-.57q-.25-.5-.8-.62-.56-.12-1 .24a.81.8 54.9 0 0-.18 1.04q.43.71 1.29.98.58.18 0 .37-1.33.46-1.92-.88-.46-1.05-1.21-.49-.89.01-.91-1.61.21.14.3-.73.03-.76 2.78-1.04a.66.66 0 0 0 .59-.57q.2-1.52-.73-3.52 1.15.17 2.27-2.98-.41-.99.07-1.64.31-.42.77-.15 2.97 1.79 4.6-1.09.21-.38.01-.77-.28-.52.1-1a.99.98-66.3 0 1 .93-.37q.15.03.29.06.84.23.56-.59-.63-1.85-.61-3.71.59-2.6 2.25-3.26 3.08-1.15 5.46.02Zm.049 2.54a2.09 2.09 0 0 0-2.043-2.138l-1.9-.043a2.09 2.09 0 0 0-2.136 2.042l-.058 2.58a2.09 2.09 0 0 0 2.042 2.137l1.9.043a2.09 2.09 0 0 0 2.136-2.042l.059-2.58Z"/><path fill="#fffde2" d="m78.1 20.96-.75 2.7q-.23.83.62 1.03l.5.12q.95.22.77-.74l-.59-3.15q1.14-.91 2.35-.16.47.29.37.83l-.38 2.27q-.13.73.62.68l.33-.02q.76-.05.77-.81.01-1-.73-1.88a.92.92 0 0 1-.09-1.06q.35-.61 1.06-.95 1.22-.6 1.69.53.4.96-.04 2.02-.49 1.17.49 1.97l.9.73q.79.64-.22.78-2.81.38-5.35.77c-2.09.32-3.53-.83-5.53-.77q-.55.01-.53-.54.04-.67.69-.88.52-.17.59-.72c.21-1.69-1.05-2.54.35-4.3q.38-.47.1-1.01l-.8-1.57q-.27-.51-.02-1.03.8-1.67 2.78-1.65.49.01.82-.36 2.06-2.37 4.95-.61a2.32 2.31 24.3 0 1 1.01 2.66q-.68 2.21-3.49 1.92-.48-.05-.45-.53.06-1.32-.79-2.33-.38-.46-.95-.37-.57.08-.5.65.17 1.35 1.43 2.25a.46.46 0 0 1 .05.71q-.62.58-1.56.37-1.18-.27-1.25.94-.03.59.78 1.51Z"/><rect width="6.08" height="6.76" x="-3.04" y="-3.38" fill="#fcd8e8" rx="2.09" transform="rotate(1.3 -675.265 2991.705)"/><path fill="#f56807" d="m95.47 17.16 2.09 1.96.28 3.38q.04.47.46.7 8.31 4.55 3.41 13.35l-3.69 2.82q-1.35-1.2-3.49-1.11l-3.28.35q-.78-.84-1.64-.85-.55-.01-.58.53-.05.76.2 1.49.07.06.14.11-3.21 3.32-2.29 7.07-2.22 1.56-4.27 2.71-.5.27-.64.61-.26.61.31.96l-.68.1q-.51.07-.64.57-.39 1.54-1.77 3.37 1.08-1.46-.51-3.23.37-.36.16-1.03 2.09.59 2.72-1.28.17-.49-.19-.87-2.86-2.93-6.67-1.1-.46.22-.49.74-.05.79.28 1.74l-.59.02q-.43.02-.5-.4-.05-.33-.18-.59-.47-1.02-1.81-1.68-.25-.22-.35-.74.24-3.68-2.24-5.74l-.32-.39-.05-1.49q-.37-.94.22-1.24 5.03-2.53 5.62-7.91 3.94-.82 7.72-.15 2.17.39 2.99 2.22.94 2.09 1.6-.11.25-.82-.21-1.68-.3-.55-.17-1.17.69-3.27 3.29-5.1.42-.29.36-.8-.11-1.04-.28-2.06-.48-2.78 1.54-3.47l.44-.42a.46.45 38.4 0 0-.09-.73q-.8-.46-.92-1.32a.71.69-15.4 0 1 .44-.75q.51-.21 1.03-.19a.64.64 0 0 1 .63.68q-.12 2.11 2.61 2.12Zm-3.45 2.06q-.14.08-.24.19a.62.6-30.4 0 0-.17.61q.81 2.88 3.9 2.7 1.57-2.71-.72-3.84-.45-.22-.93-.11l-1.84.45Zm4.49 13.77q-1.05 1.41-3.01.77-.75-.24-.84-1-.08-.59-.68-.57-1.08.03-1.52.8-.24.42.03.82 2.44 3.5 5.98 1.46c1.67-.96 2.28-3.77 2.43-5.45q.21-2.4-2.22-3.65a2.51 2.51 0 0 0-3.55 1.49c-.4 1.31-.82 3.16.28 4.26q1.34 1.32 2.86.76.64-.24.24.31Zm-21.42 7.47-1.57 2.93a.87.87 0 0 0 .73 1.28l3.03.09 4.2.02 2.55-.18q.54-.04.45-.57-.28-1.62-1.37-3.02l.86-5.3q.29-1.79-1.52-1.81l-6.82-.07q-1.56-.02-1.56 1.54l.02 4.13q0 .58.55.79l.45.17Z"/><path fill="#f6d077" d="M63.01 15.57q-.02 1.86.61 3.71.28.82-.56.59-.14-.03-.29-.06a.99.98-66.3 0 0-.93.37q-.38.48-.1 1 .2.39-.01.77-1.63 2.88-4.6 1.09-.46-.27-.77.15-.48.65-.07 1.64-2-3.51-.63-5.64 1.21-1.87 3.46-2.29.53-.1.66-.62l.24-1.01a.81.8-86.4 0 1 .7-.62q1.18-.12 2.29.92Zm-4.2 6.4q.01.22.07.42.23.79.8.2l.93-.96q.43-.43-.17-.5-.45-.04-.9-.01-.76.07-.73.85ZM95.51 22.72q-1.75-1.57-2.71-3.24-.14-.23-.78-.26l1.84-.45q.48-.11.93.11 2.29 1.13.72 3.84Z"/><path fill="#c9e4a5" d="M92.02 19.22q.64.03.78.26.96 1.67 2.71 3.24-3.09.18-3.9-2.7a.62.6-30.4 0 1 .17-.61q.1-.11.24-.19Z"/><path fill="#7ac930" d="M0 31.23v-8.25l.67-1.57a1.09 1.09 0 0 1 1.88-.22l3.75 5.08a.8.8 0 0 1-.11 1.07Q3.27 29.94 0 31.23Z"/><path fill="#dd4f86" d="M68.94 24.95c-2.89-.06-4.02 1.71-4.88 4.35a1.05 1.05 0 0 0 .44 1.2q1 .65 1.17 1.84.08.62.68.8.17.05.34-.03.5-.25.51-.82 0-1.18.66-2.14.25-.37.69-.36.84.01 1.16.81.24.62-.11 1.22-.73 1.22-1.99 1.5-.28.06-.33.34-.07.35.02.69.14.52.62.56.43.03.93-.3-.27 2.25-1.37 4.16-.42.22-.89-.02c-1.52-.77-4.33-1.52-5.98-.82q-.56.24-1.13.06a1.18 1.16-50.4 0 0-.87.09q-2.54 1.39-4.21 3.72.06.19.11.37-7.12-2.46-3.43-8.5.02 1.62.91 1.61-.73.73-.68 1.54.04.78.82.87 1.18.14 1.95 1 .57.61 1.31.23.59-.3.7-.93.11-.54.63-.36 1.32.45 1.61-.68.82 1.91 1.66-.69a2.47 2.45 31.2 0 0-.63-2.52q-1.13-1.1-1.48-2.62-.45-1.94.53-3.53.13 1.13.81 1.61.67.46 1.4.11 2.22-1.09 2.34-3.04.03-.54.58-.52 1.56.08 2.05-1.68.15-.55-.39-.69-.98-.24-1.84-.16.96-.45.28-1.76a.55.55 0 0 1 .68-.78l3.38 1.23a1.05 1.04 87.7 0 1 .58.54q.58 1.26.66 2.5Zm-6.65 8.9-.15.26q-.38.63.22 1.08.15.11.34.18.77.26.52-.52-.38-1.18-.09-2.39.55-2.35-1.93-2.56-.91-.07-.52.75.56 1.19 1.48 2.14a.88.88 0 0 1 .13 1.06Z"/><path fill="#fbb219" d="M59.54 21.12q.45-.03.9.01.6.07.17.5l-.93.96q-.57.59-.8-.2-.06-.2-.07-.42-.03-.78.73-.85Z"/><path fill="#f6d077" d="M78.1 20.96q.3.29.55-.04l.59 3.15q.18.96-.77.74l-.5-.12q-.85-.2-.62-1.03l.75-2.7Z"/><path fill="#fcd8e8" d="M63.36 23.22q.86-.08 1.84.16.54.14.39.69-.49 1.76-2.05 1.68-.55-.02-.58.52-.12 1.95-2.34 3.04-.73.35-1.4-.11-.68-.48-.81-1.61 1.29-2.77 4.95-4.37Z"/><circle cx="53.45" cy="25.22" r="1.03" fill="#a52b1c"/><path fill="#fff" d="M68.94 24.95q4.27 5.71-.09 9.66-.5.33-.93.3-.48-.04-.62-.56-.09-.34-.02-.69.05-.28.33-.34 1.26-.28 1.99-1.5.35-.6.11-1.22-.32-.8-1.16-.81-.44-.01-.69.36-.66.96-.66 2.14-.01.57-.51.82-.17.08-.34.03-.6-.18-.68-.8-.17-1.19-1.17-1.84a1.05 1.05 0 0 1-.44-1.2c.86-2.64 1.99-4.41 4.88-4.35ZM96.27 32.68q-1.52.56-2.86-.76c-1.1-1.1-.68-2.95-.28-4.26a2.51 2.51 0 0 1 3.55-1.49q2.43 1.25 2.22 3.65c-.15 1.68-.76 4.49-2.43 5.45q-3.54 2.04-5.98-1.46-.27-.4-.03-.82.44-.77 1.52-.8.6-.02.68.57.09.76.84 1 1.96.64 3.01-.77.4-.55-.24-.31Zm1.07-4.75q-.9-.4-1.36.57a.54.54 0 0 0 .43.77q.7.08 1.15-.52a.54.54 0 0 0-.22-.82Z"/><path fill="#f56807" d="M54.02 27.81q.93 2 .73 3.52a.66.66 0 0 1-.59.57q-2.75.28-2.78 1.04c-1.99-2.39-.83-6.09 2.64-5.13Z"/><path fill="#f6d077" d="M97.34 27.93a.54.54 0 0 1 .22.82q-.45.6-1.15.52a.54.54 0 0 1-.43-.77q.46-.97 1.36-.57Z"/><path fill="#fff" d="M62.16 32.79q-.92-.95-1.48-2.14-.39-.82.52-.75 2.48.21 1.93 2.56-.29 1.21.09 2.39.25.78-.52.52-.19-.07-.34-.18-.6-.45-.22-1.08l.15-.26a.88.88 0 0 0-.13-1.06Z"/><path fill="#f6d077" d="M83.11 41.01q-.32-.68-.86-.84l.42-3.39q.19-1.51-1.33-1.52l-4.51-.02q-1.5-.01-1.5 1.48l-.02 3.45q-.2.21-.22.29l-.45-.17q-.55-.21-.55-.79l-.02-4.13q0-1.56 1.56-1.54l6.82.07q1.81.02 1.52 1.81l-.86 5.3Z"/><path fill="#fcd8e8" d="M58.33 36.95q-.29 1.13-1.61.68-.52-.18-.63.36-.11.63-.7.93-.74.38-1.31-.23-.77-.86-1.95-1-.78-.09-.82-.87-.05-.81.68-1.54.75-.56 1.21.49.59 1.34 1.92.88.58-.19 0-.37-.86-.27-1.29-.98a.81.8 54.9 0 1 .18-1.04q.44-.36 1-.24.55.12.8.62l.3.57q.23.45.74.4 1.21-.11 1.48 1.34Z"/><path fill="#f56807" d="M82.25 40.17h-6.94l.02-3.45q0-1.49 1.5-1.48l4.51.02q1.52.01 1.33 1.52l-.42 3.39Z"/><path fill="#fbb219" d="m101.71 36.55 1.6 1.02q.42.27.57.75.93 2.98-2.58 3.76-.66-1.64-3.28-2.71l3.69-2.82Z"/><path fill="#402477" d="M66.59 38.75q-3.09.54-6.12-.15-.49-.11-.8.28l-2.16 2.77-.79.37q-1.03.22-2.32-.22 1.67-2.33 4.21-3.72a1.18 1.16-50.4 0 1 .87-.09q.57.18 1.13-.06c1.65-.7 4.46.05 5.98.82Z"/><path fill="#fcd8e8" d="M91.25 38.61q.06.08.13.16-.27 1.07-2.15 1.01-.25-.73-.2-1.49.03-.54.58-.53.86.01 1.64.85Z"/><path fill="#a52b1c" d="M94.53 38.26q-1.16 1.52-3.15.51-.07-.08-.13-.16l3.28-.35Z"/><path fill="#1691bd" d="M94.53 38.26q2.14-.09 3.49 1.11 2.62 1.07 3.28 2.71 2.61 7.9-4.06 11.03l-.62-.65q-.33-.35-.82-.41-3.27-.4-5.72-2.33-.35-.27-.43-.7-.06-.36-.08-.91l2.89 1.38q2.81.6 3.15-2.29.12-1.08.09-2.08a.5.5 0 0 1 .57-.51l.35.04a1.28 1.28 0 0 1 1.08 1.05q.09.51.36.94.42.67.55-.11.65-4.07-2.87-4.97-.46-.12-.56.35-.32 1.64.2 3.22a.68.67-24.9 0 1-.29.79q-.77.48-2.51.06-.25-1.15-.69-1.76-.51-.69-1.48-.38-.83.27-1.47.94l.43-4.89q-.07-.05-.14-.11 1.88.06 2.15-1.01 1.99 1.01 3.15-.51ZM66.59 38.75q.47.24.89.02.61-.02 1.17.47l.05 1.49-.3-.08q-.46-.12-.28.32 1.39 3.33.03 5.56l-.1-3.14a1.89 1.89 0 0 0-1.91-1.83l-8.63.09 2.16-2.77q.31-.39.8-.28 3.03.69 6.12.15Z"/><path fill="#fff" d="M82.25 40.17q.54.16.86.84 1.09 1.4 1.37 3.02.09.53-.45.57l-2.55.18q-.96-.02-.89-.29.4-1.42-.29-1.5-.99-.99-2.55-.41-1.09.4-.51 1.28-.23.64.04.9l-3.03-.09a.87.87 0 0 1-.73-1.28l1.57-2.93q.02-.08.22-.29h6.94Z"/><path fill="#175e4a" d="m89.37 39.89-.43 4.89q-2.13 3.04.63 3.33.02.55.08.91.08.43.43.7 2.45 1.93 5.72 2.33.49.06.82.41l.62.65-.52.15q-2.59.91-4.85.18-2.97-1.5-4.31-4.33l-.48-2.15q-.92-3.75 2.29-7.07Z"/><path fill="#157db6" d="m68.7 40.73.32.39q-.49 2.41 1.06 4.19.26.29.32.67.13.75.86.88.1.52.35.74l-1.42 4.23q-2.95 4.39-8.22 4.2-2.01-.03-3.28-.64-4.8-2.17-5.39-7.14-.37-3.14 1.21-6.08-.05-.18-.11-.37 1.29.44 2.32.22-.35.16-.55.42-.17.23-.15.64.07 2.72.28 5.41.13 1.73 2.06 1.12l1.46.03q1.37.78 1.3 2.43-.04 1.14 1.09 1.14h.54a1.11 1.1 1.4 0 0 1.1-1.04q.1-1.6 1.4-2.92 1.01.4 1.97.25.55-.08.62-.62l.31-2.35q1.36-2.23-.03-5.56-.18-.44.28-.32l.3.08Z"/><path fill="#175e4a" d="M69.02 41.12q2.48 2.06 2.24 5.74-.73-.13-.86-.88-.06-.38-.32-.67-1.55-1.78-1.06-4.19Z"/><path fill="#e2fbfe" d="M92.46 49.49q-.51-.59-1.06-.91-.44-.26-.46-.76-.02-.98 1.64-1.84 1.74.42 2.51-.06a.68.67-24.9 0 0 .29-.79q-.52-1.58-.2-3.22.1-.47.56-.35 3.52.9 2.87 4.97-.13.78-.55.11-.27-.43-.36-.94a1.28 1.28 0 0 0-1.08-1.05l-.35-.04a.5.5 0 0 0-.57.51q.03 1-.09 2.08-.34 2.89-3.15 2.29Z"/><path fill="#71def7" d="m57.51 41.65 8.63-.09a1.89 1.89 0 0 1 1.91 1.83l.1 3.14-.31 2.35q-.07.54-.62.62-.96.15-1.97-.25.29-.01.01-.48.97.06 1.63-.37a.8.79-19.1 0 0 .36-.73l-.32-3.68a.93.92 86.7 0 0-.94-.84l-7.47.14a.86.86 0 0 0-.8.59q-1 3.12.64 5.73-1.93.61-2.06-1.12-.21-2.69-.28-5.41-.02-.41.15-.64.2-.26.55-.42l.79-.37Z"/><ellipse fill="#a52b1c" rx="1.18" ry=".97" transform="rotate(-3.3 777.012 -879.222)"/><path fill="#fbb219" d="M80.3 42.99q.31 1.31-3.06.87-.58-.88.51-1.28 1.56-.58 2.55.41Z"/><path fill="#1691bd" d="M65.26 48.77q-1.13-1.12-2.77-1.51-.64-.16-.67-.81l-.07-1.6q-.03-.44-.44-.29l-.47.18a.4.39 87.4 0 0-.25.28q-.16.77.2 1.49.3.58-.3.82l-.58.23q-.58.23-.77.83-.29.91.68 1.25l-1.46-.03q-1.64-2.61-.64-5.73a.86.86 0 0 1 .8-.59l7.47-.14a.93.92 86.7 0 1 .94.84l.32 3.68a.8.79-19.1 0 1-.36.73q-.66.43-1.63.37Z"/><path fill="#f6d077" d="M80.3 42.99q.69.08.29 1.5-.07.27.89.29l-4.2-.02q-.27-.26-.04-.9 3.37.44 3.06-.87Z"/><path fill="#71def7" d="M92.58 45.98q-1.66.86-1.64 1.84.02.5.46.76.55.32 1.06.91l-2.89-1.38q-2.76-.29-.63-3.33.64-.67 1.47-.94.97-.31 1.48.38.44.61.69 1.76Z"/><path fill="#fff" d="M65.26 48.77q.28.47-.01.48-1.3 1.32-1.4 2.92a1.11 1.1 1.4 0 1-1.1 1.04h-.54q-1.13 0-1.09-1.14.07-1.65-1.3-2.43-.97-.34-.68-1.25.19-.6.77-.83l.58-.23q.6-.24.3-.82-.36-.72-.2-1.49a.4.39 87.4 0 1 .25-.28l.47-.18q.41-.15.44.29l.07 1.6q.03.65.67.81 1.64.39 2.77 1.51Z"/><path fill="#e1311e" d="M79.04 51.02q-1.24-1.85-3.07-.3-.98.5-1.28-.47-.33-.95-.28-1.74.03-.52.49-.74 3.81-1.83 6.67 1.1.36.38.19.87-.63 1.87-2.72 1.28Z"/><path fill="#c9e4a5" d="m87.08 46.96.48 2.15-4.6 2.21q-.19.1-.48-.08-.57-.35-.31-.96.14-.34.64-.61 2.05-1.15 4.27-2.71Z"/><path fill="#fff" d="M71.61 47.6q1.34.66 1.81 1.68l-1.38 3.15q-2.25.63-1.85-.6l1.42-4.23Z"/><path fill="#a4db6d" d="M87.56 49.11q1.34 2.83 4.31 4.33 1.05 3.25.32 6.06a2.07 2.06 5.5 0 1-1.86 1.53l-4.16.28-3.91-.8q-.63-.13-.63-.77v-1.35q0-.37-.36-.26l-.42.13q-.2.07-.22.28-.21 2.69 1.36 4.48.37.42 1.42.89.75.34 1.45.92-3.08-.23-5.95.84.65-2.15.49-3.88l-.59-4.46c2.87-.04 4.05-3.68 4.15-6.01l4.6-2.21Z"/><path fill="#dd4f86" d="M73.42 49.28q.13.26.18.59.07.42.5.4l.59-.02q.3.97 1.28.47.35 1.89 1.59 2.66.46.29.79-.13.39-.51.53-1.2 1.59 1.77.51 3.23-2.47 1.02-5.49-2.17-.46-.49-.77-.09-.34-.51-1.09-.59l1.38-3.15Z"/><path fill="#fff" d="M79.04 51.02q.21.67-.16 1.03-.14.69-.53 1.2-.33.42-.79.13-1.24-.77-1.59-2.66 1.83-1.55 3.07.3Z"/><path fill="#a52b1c" d="M82.48 51.24q.29.18.48.08c-.1 2.33-1.28 5.97-4.15 6.01l-2.02-.64q-.52-.17-.6.1-1.57-.17-2.94-2.04-.66-.9-.12-1.73.31-.4.77.09 3.02 3.19 5.49 2.17 1.38-1.83 1.77-3.37.13-.5.64-.57l.68-.1Z"/><path fill="#24a392" d="M70.19 51.83q-.4 1.23 1.85.6.75.08 1.09.59-.54.83.12 1.73 1.37 1.87 2.94 2.04-.43.14-.98.14-.36-.01-.69.03-.69.07-.44.65a.97.96 51.5 0 1-.1.92q-1.76 2.52-5.1 1.46-.15-.05-.23.08l-.22.34a.31.3-73.5 0 0 .25.47q1.67 0 3.08.78.46.25.77-.17.29-.4.76-.45.66-.06.56.59l-.22 1.38q-.06.38.06.75.18.57-.06 1.14-.21.48-.73.47l-4.75-.16a1.03 1.03 0 0 1-1-1.06l.2-7.31q.01-.34-.33-.4l-.28-.04q-.29-.05-.34.23-.77 3.96 0 7.99.28 1.44 1.75 1.46l5.55.05q.87.01.91-.86.08-2.01-.02-4.07c-.07-1.44.9-2.59 2-3.37q.47-.33.2-1.14l2.02.64.59 4.46q-2.05.88-3.39 2.98-.22.36-.64.46-.2.04-.32.21-1.39 2.02-.54 4.05.14.36.46-.01-.08.12-.09.23-.03.27.24.27l2.43.01 2.43 2.52-.78 4.27c-2.41.86-5.38 1.55-6.47-1.43a.48.48 0 0 0-.85-.09q-1.75 2.79-5.1 2.12c-3.43-.69-4.17-3.72-3.24-6.71q.22-.7.81-1.11.39-.27.24-.7-.12-.37-.41-.66-3.33-3.35-2.72-8.58 1.74-3.49.51-3.59 5.27.19 8.22-4.2Zm3.038 6.688A2.39.43 2.1 0 0 70.856 58a2.39.43 2.1 0 0-2.404.342 2.39.43 2.1 0 0 2.372.518 2.39.43 2.1 0 0 2.404-.342ZM72.01 62.24l-3.47.44q-.25.03-.2.28l.07.31a.39.37-6.8 0 0 .4.3l3.65-.24q.17-.01.17-.18v-.36q0-.62-.62-.55ZM70 72.99l.65-1.05q.37-.59-.31-.76-1.15-.28-2.07-1.08-.55-.48-1.1.01-.69.62-1.58.87-.87.25-.36.99.67 1 .55 2.23-.08.79.71.65.27-.05.5-.2.48-.32 1.04-.18.57.15 1.01.55a.45.45 0 0 0 .75-.36l-.03-.75q-.02-.49.24-.92Zm4.16-2.7q.18-.63-.44-.43l-1.15.36q-.47.15-.47.65 0 .27.1.53.23.62.84.33.83-.41 1.12-1.44ZM75.73 72l-1.46-.04a.4.4 0 0 0-.38.24q-.65 1.35-.09 2.46a1.99 1.98-14.2 0 0 1.84 1.09q3.47-.09 2.57-3.02a.81.8 85.4 0 0-.66-.57l-.35-.05q-.31-.04-.26.26.16 1.18-.37 2.15-.39.74-.9.08-.8-1.04.23-2.23.31-.36-.17-.37Z"/><path fill="#7ac930" d="M96.72 53.26q.27 2.1-1.52 3.5-.42.33-.51.85-.72 4.31-4.45 6.66a.89.89 0 0 0-.32 1.15c1.64 3.25.3 6.42.16 9.8q-.15-.9-.18-1.84-.02-.74-.56-.27-.18.15-.34 0-.44-.39-1.01-.27-3.52.72-1.48 4-3.75 1.3-7.31-.06l.78-4.27 5.16.21q.52.03.84-.38c2.18-2.77 2.78-5.41-1.14-7.4l3.3-.19q.55-.03.52-.58-.04-.81-.63-1.52-.31-.37-.76-.54-.73-.26-1.1-.8l4.16-.28a2.07 2.06 5.5 0 0 1.86-1.53q.73-2.81-.32-6.06 2.26.73 4.85-.18ZM58.69 55.39q1.27.61 3.28.64 1.23.1-.51 3.59-3.64.3-2.77-4.23Z"/><path fill="#e2fbfe" d="M76.19 56.79q.08-.27.6-.1.27.81-.2 1.14c-1.1.78-2.07 1.93-2 3.37q.1 2.06.02 4.07-.04.87-.91.86l-5.55-.05q-1.47-.02-1.75-1.46-.77-4.03 0-7.99.05-.28.34-.23l.28.04q.34.06.33.4l-.2 7.31a1.03 1.03 0 0 0 1 1.06l4.75.16q.52.01.73-.47.24-.57.06-1.14-.12-.37-.06-.75l.22-1.38q.1-.65-.56-.59-.47.05-.76.45-.31.42-.77.17-1.41-.78-3.08-.78a.31.3-73.5 0 1-.25-.47l.22-.34q.08-.13.23-.08 3.34 1.06 5.1-1.46a.97.96 51.5 0 0 .1-.92q-.25-.58.44-.65.33-.04.69-.03.55 0 .98-.14Z"/><ellipse fill="#e2fbfe" rx="2.39" ry=".43" transform="rotate(2.1 -1558.588 1961.776)"/><path fill="#04b304" d="M86.17 61.31q.37.54 1.1.8.45.17.76.54.59.71.63 1.52.03.55-.52.58l-3.3.19q1.51.34.02-.11-.7-.58-1.45-.92-1.05-.47-1.42-.89-1.57-1.79-1.36-4.48.02-.21.22-.28l.42-.13q.36-.11.36.26v1.35q0 .64.63.77l3.91.8Z"/><path fill="#1e8d1d" d="M79.4 61.79q.16 1.73-.49 3.88l-1.37 1.95q-1.23 1.47-2.57 1.86-.32.37-.46.01-.85-2.03.54-4.05.12-.17.32-.21.42-.1.64-.46 1.34-2.1 3.39-2.98Z"/><path fill="#e2fbfe" d="M72.01 62.24q.62-.07.62.55v.36q0 .17-.17.18l-3.65.24a.39.37-6.8 0 1-.4-.3l-.07-.31q-.05-.25.2-.28l3.47-.44Z"/><path fill="#fff" d="M84.86 64.83q1.49.45-.02.11c3.92 1.99 3.32 4.63 1.14 7.4q-.32.41-.84.38l-5.16-.21-2.43-2.52-.01-2.37 1.37-1.95q2.87-1.07 5.95-.84Zm.096 3.165a1.6 1.6 0 0 0-1.708-1.485l-1.297.09a1.6 1.6 0 0 0-1.484 1.709l.097 1.396a1.6 1.6 0 0 0 1.708 1.485l1.297-.09a1.6 1.6 0 0 0 1.484-1.709l-.097-1.396Z"/><rect width="4.5" height="4.6" x="-2.25" y="-2.3" fill="#c9e4a5" rx="1.6" transform="rotate(-4 1027.183 -1150.543)"/><path fill="#a4db6d" d="m77.54 67.62.01 2.37-2.43-.01q-.27 0-.24-.27.01-.11.09-.23 1.34-.39 2.57-1.86Z"/><path fill="#e2fbfe" d="m69.76 73.91.03.75a.45.45 0 0 1-.75.36q-.44-.4-1.01-.55-.56-.14-1.04.18-.23.15-.5.2-.79.14-.71-.65.12-1.23-.55-2.23-.51-.74.36-.99.89-.25 1.58-.87.55-.49 1.1-.01.92.8 2.07 1.08.68.17.31.76L70 72.99q-.26.43-.24.92Zm-2.17-2.52q-1.05.17-.83 1.29.09.48.57.58.7.15 1.28-.24.69-.48.18-1.15-.46-.6-1.2-.48ZM74.16 70.29q-.29 1.03-1.12 1.44-.61.29-.84-.33-.1-.26-.1-.53 0-.5.47-.65l1.15-.36q.62-.2.44.43Z"/><path fill="#157db6" d="M67.59 71.39q.74-.12 1.2.48.51.67-.18 1.15-.58.39-1.28.24-.48-.1-.57-.58-.22-1.12.83-1.29Z"/><path fill="#e2fbfe" d="M75.9 72.37q-1.03 1.19-.23 2.23.51.66.9-.08.53-.97.37-2.15-.05-.3.26-.26l.35.05a.81.8 85.4 0 1 .66.57q.9 2.93-2.57 3.02a1.99 1.98-14.2 0 1-1.84-1.09q-.56-1.11.09-2.46a.4.4 0 0 1 .38-.24l1.46.04q.48.01.17.37Z"/><path fill="#1e8d1d" d="M90.08 75.22q.28 1.41-.95 1.66-.54.1-2.62-.04-2.04-3.28 1.48-4 .57-.12 1.01.27.16.15.34 0 .54-.47.56.27.03.94.18 1.84Z"/><path fill="#020101" d="M65.27 89.42q-.65-.27-.86-.95-.24-.8.2-1.51.75-1.19-.1-2.32-.46-.61-.01-1.24.86-1.21.05-2.59a1.71 1.71 0 0 1 1.48-2.57l21.69.02q1.35 0 1.71 1.3.24.9-.35 1.75-.49.68-.03 1.38.87 1.35-.1 2.73a.98.98 0 0 0-.02 1.11l.34.51q.34.51.18 1.11-.23.8-.92 1.28-.44.31-.31.84.3 1.26.05 2.52-.13.68-.82.69l-1.97.05q-.43.01-.78.26-2.45 1.76-4.59 3.8c-1.49 1.43-4.81 1.63-6.31.11q-1.94-1.97-4.34-3.73c-.81-.6-1.67-.58-2.62-.45q-.42.06-.72-.23-1.17-1.16-.46-2.93.27-.66-.39-.94Zm20.34-7.395a.41.41 0 0 0-.41-.41l-16.84.03a.41.41 0 0 0-.41.41v.04a.41.41 0 0 0 .41.41l16.84-.03a.41.41 0 0 0 .41-.41v-.04Zm.13 3.845a8.68.5-.2 0 0-8.682-.47 8.68.5-.2 0 0-8.678.53 8.68.5-.2 0 0 8.682.47 8.68.5-.2 0 0 8.678-.53Zm-1.35 3.97a7.64.42.3 0 0-7.638-.46 7.64.42.3 0 0-7.642.38 7.64.42.3 0 0 7.638.46 7.64.42.3 0 0 7.642-.38Z"/><rect width="17.66" height=".86" x="-8.83" y="-.43" fill="#6a6b6d" rx=".41" transform="rotate(-.1 47055.295 -43950.658)"/><ellipse fill="#6a6b6d" rx="8.68" ry=".5" transform="rotate(-.2 24647.042 -22033.091)"/><ellipse fill="#6a6b6d" rx="7.64" ry=".42" transform="rotate(.3 -17112.122 14703.037)"/><path fill="#e1311e" d="m128.4 99.49-2.35 4.35a.54.54 0 0 1-.5.28l-2.93-.11a.54.54 0 0 1-.45-.8l2.39-4.25a.54.54 0 0 1 .47-.27h2.89a.54.54 0 0 1 .48.8Zm-1.416.276a1.07.86-26.9 0 0-1.343-.283 1.07.86-26.9 0 0-.565 1.251 1.07.86-26.9 0 0 1.343.283 1.07.86-26.9 0 0 .565-1.251Zm-3.164 2.684a.64.63 44.5 0 0 .01.62q.42.71 1.2-.2a.58.58 0 0 0-.09-.83q-.63-.47-1.12.41Z"/><ellipse fill="#dd4f86" rx="1.07" ry=".86" transform="rotate(-26.9 272.606 -213.364)"/><path fill="#bbbbbc" d="M102.57 105.97q-4.89-1.06-6.27.68-2.12 1.26-3.99.22l-.12-.73q-.09-.54-.64-.53l-5.09.08a1.12 1.11-.5 0 0-1.1 1.11q-.02 3.07-1.01 5.55-.4 1.01-.5-.07l-.53-5.74a1.02 1.01 87.3 0 0-1.02-.93l-5.01.04q-.55.01-.72.53-.17.54-.15 1.03l-2.24-.24q-5.51-3.46-11.12-.1-.4-.28-2.27-.28-.95-1.55-3.89-.76-.62.16-.58.79.13 2.62.21 5.38.01.3-.28.41-.32.11-.45-.21l-2.17-5.65q-.15-.38-.53-.53-1.36-.51-3.2-.33 1.18-.2 1.4-.96.14-.45.59-.54 9.47-2.03 19.61-1.8c.65.01 1.01-.29 1.63-.29q7.41.01 14.74.44c3.33.2 6.38 1.37 9.77 1.28q.74-.02 1.4.44.27.18.33.48.08.49.57.5 1.5.06 2.63.73Z"/><path fill="#fcd8e8" d="M123.82 102.45q.49-.88 1.12-.41a.58.58 0 0 1 .09.83q-.78.91-1.2.2a.64.63 44.5 0 1-.01-.62Z"/><path fill="#020101" d="M74.18 106.97c1.13 2.74 1.94 9.38-1.59 10.86-2.28.95-5.94 1.01-8.22-.19-3.35-1.78-2.49-7.93-1.31-10.77q5.61-3.36 11.12.1Zm-9.292 1.698a1.01.74 125.9 0 0 1.191-.384 1.01.74 125.9 0 0-.007-1.252 1.01.74 125.9 0 0-1.191.384 1.01.74 125.9 0 0 .007 1.252Zm7.716-.557a.97.77 15.6 0 0-.727-1.003.97.77 15.6 0 0-1.141.481.97.77 15.6 0 0 .727 1.003.97.77 15.6 0 0 1.141-.481Zm-3.969 7.879a4.01 1.98 89.5 0 0 1.945-4.027 4.01 1.98 89.5 0 0-2.015-3.993 4.01 1.98 89.5 0 0-1.945 4.027 4.01 1.98 89.5 0 0 2.015 3.993Zm3.865-.59q-.37-.79-.99-.17-.25.25-.38.58a.75.75 0 0 0 1.11.91q.67-.43.26-1.32Zm-5.92.884a1.01.65 8.2 0 0-.907-.787 1.01.65 8.2 0 0-1.093.499 1.01.65 8.2 0 0 .907.787 1.01.65 8.2 0 0 1.093-.499ZM17.78 109.88l.05 7.8q0 .52-.51.52h-3.4q-.42 0-.45-.42-.27-3.7-.03-7.77a.79.78 1 0 0-.81-.83l-1.74.06q-.77.03-.98-.73-.32-1.17-.02-2.22.16-.6.79-.6l9.8.01q.78 0 .8.78l.04 2.02a.6.6 0 0 1-.57.62l-2.38.12q-.6.04-.59.64Zm-1.214-2.923a1.04.75-28.3 0 0-1.272-.167 1.04.75-28.3 0 0-.56 1.153 1.04.75-28.3 0 0 1.272.167 1.04.75-28.3 0 0 .56-1.153Zm2.47 1.33a.9.78 109.8 0 0 1.038-.583.9.78 109.8 0 0-.43-1.11.9.78 109.8 0 0-1.038.582.9.78 109.8 0 0 .43 1.11Zm-8.146-.937.06.37q.07.51.59.53.45.01.84-.15a.66.66 0 0 0 .05-1.2q-.46-.24-1.01-.22-.63.04-.53.67Zm5.252 9.142a.91.75 58 0 0 .154-1.17.91.75 58 0 0-1.118-.374.91.75 58 0 0-.154 1.17.91.75 58 0 0 1.118.374ZM60.79 106.59l-.24 10.92q-.01.73-.75.72l-3.54-.05q-.65-.01-.91-.61-1.05-2.32-1.87-4.53-1.24-3.34-1.21.22l.03 4.44q.01.52-.5.52h-3.03q-.7 0-.7-.7l-.08-11.01q0-.54.51-.68.67-.2 1.4-.14 1.84-.18 3.2.33.38.15.53.53l2.17 5.65q.13.32.45.21.29-.11.28-.41-.08-2.76-.21-5.38-.04-.63.58-.79 2.94-.79 3.89.76Zm-9.713 1.898a.99.8 40.1 0 0-.242-1.25.99.8 40.1 0 0-1.272-.026.99.8 40.1 0 0 .242 1.25.99.8 40.1 0 0 1.272.026Zm8.253-.968q.06-.6-.54-.62-.29-.01-.56.07-.42.11-.49.53-.09.49.02.96.14.58.67.33.81-.38.9-1.27Zm-8.728 9.425a.9.75 63.5 0 0 .27-1.14.9.75 63.5 0 0-1.074-.47.9.75 63.5 0 0-.27 1.14.9.75 63.5 0 0 1.074.47Zm8.641-1.048a.94.78-13.7 0 0-1.098-.535.94.78-13.7 0 0-.728.98.94.78-13.7 0 0 1.098.536.94.78-13.7 0 0 .728-.98ZM92.31 106.87l-.19 10.74q-.01.62-.63.61l-2.95-.05q-.56 0-.55-.57.05-4.06.33-8.14 0-.06-.06-.07l-.3-.04q-.19-.03-.22.15l-1.64 8.07q-.13.69-.83.68l-1.98-.03q-.67-.01-.78-.67l-1.24-7.1q-.39-2.19-.61.02-.29 2.92.14 6.84.1.96-.87.93l-2.73-.08a.78.77 1.2 0 1-.75-.77l-.03-10.18q-.02-.49.15-1.03.17-.52.72-.53l5.01-.04a1.02 1.01 87.3 0 1 1.02.93l.53 5.74q.1 1.08.5.07.99-2.48 1.01-5.55a1.12 1.11-.5 0 1 1.1-1.11l5.09-.08q.55-.01.64.53l.12.73Zm-12.82.94q-.28-1.28-1.32-.68-.55.32-.25.88.27.49.77.6 1.03.22.8-.8Zm10.18-.56a.65.62 9.3 0 0-.35.24q-.4.51.09.92a.97.96 39.7 0 0 1.35-.12q.26-.31.23-.72-.04-.7-.71-.5l-.61.18Zm-10.558 9.669a.98.79 53.6 0 0 .054-1.258.98.79 53.6 0 0-1.218-.32.98.79 53.6 0 0-.054 1.258.98.79 53.6 0 0 1.218.32Zm4.678-1.539q-.43.87.01 1.52.28.43.69.11.59-.45.47-1.19-.04-.26-.25-.43-.19-.15-.41-.22a.41.41 0 0 0-.51.21Zm5.7.17q-.3.62.19 1.1a.7.7 0 0 0 1.13-.23q.19-.47-.12-.94-.36-.54-.91-.24a.69.65-3.8 0 0-.29.31ZM102.57 105.97l3.66 11.66q.19.61-.45.6l-3.45-.07a.8.79-6.6 0 1-.76-.59q-.04-.15-.06-.3-.03-.21-.23-.29-2.6-1-3.86.65-.41.53-1.08.54l-2.71.04q-.81.02-.58-.76l3.25-10.8q1.38-1.74 6.27-.68Zm-2.02 1.4a.93.93 0 0 0-.93-.93.93.93 0 0 0-.93.93.93.93 0 0 0 .93.93.93.93 0 0 0 .93-.93Zm-1.61 6.56 1.34.06a.3.3 0 0 0 .32-.29v-.13a3.97.83-87.5 0 0-.65-4l-.28-.01a3.97.83-87.5 0 0-1.01 3.93v.13a.3.3 0 0 0 .28.31Zm-2.892 2.735a1.06.75 84.7 0 0 .649-1.124 1.06.75 84.7 0 0-.845-.986 1.06.75 84.7 0 0-.649 1.124 1.06.75 84.7 0 0 .845.986Zm6.362-1.005q-.21.65.46.79.41.08.79-.09.51-.23.33-.76-.14-.43-.42-.8a.53.53 0 0 0-.93.15l-.23.71Z"/><path fill="#e1311e" d="M125.88 117.63a.62.62 0 0 1-.625.614l-3.34-.029a.62.62 0 0 1-.614-.625l.098-11.28a.62.62 0 0 1 .626-.614l3.34.029a.62.62 0 0 1 .614.625l-.098 11.28Zm-2.02-8.853a1.01.88 69.7 0 0 .475-1.252 1.01.88 69.7 0 0-1.175-.642 1.01.88 69.7 0 0-.475 1.252 1.01.88 69.7 0 0 1.175.642Zm.135 8.237a.92.76 66.6 0 0 .332-1.146.92.76 66.6 0 0-1.062-.542.92.76 66.6 0 0-.332 1.146.92.76 66.6 0 0 1.062.542Z"/><path fill="#020101" d="m26.57 113.27-.16 1.13a.35.35 0 0 0 .36.39l5.25-.09a.35.35 0 0 1 .35.34l.04 2.83a.35.35 0 0 1-.34.35h-9.61a.35.35 0 0 1-.35-.35l.1-11.82a.35.35 0 0 1 .35-.35l9.56.03a.35.35 0 0 1 .35.36l-.12 2.82a.35.35 0 0 1-.37.34l-4.98-.31a.35.35 0 0 0-.37.28l-.22 1.11a.35.35 0 0 0 .34.42l3.42.01a.35.35 0 0 1 .34.33l.07 1.6a.35.35 0 0 1-.35.36l-3.31-.08a.35.35 0 0 0-.35.3Zm-1.475-6.532a.89.79-42.6 0 0-1.19.02.89.79-42.6 0 0-.12 1.184.89.79-42.6 0 0 1.19-.02.89.79-42.6 0 0 .12-1.184Zm4.875 1.494a.91.75 101.4 0 0 .915-.744.91.75 101.4 0 0-.555-1.04.91.75 101.4 0 0-.915.744.91.75 101.4 0 0 .555 1.04Zm-6.044 8.918a.96.76 126.7 0 0 1.183-.316.96.76 126.7 0 0-.035-1.224.96.76 126.7 0 0-1.183.316.96.76 126.7 0 0 .035 1.224Zm7.104-.69a.87.87 0 0 0-.87-.87.87.87 0 0 0-.87.87.87.87 0 0 0 .87.87.87.87 0 0 0 .87-.87ZM38.5 109.02q-.01 1.93.91.23.84-1.54 1.86-2.95.41-.57 1.13-.57l3.99-.01q.71-.01.27.56l-3.45 4.36q-.23.3-.03.62l3.95 6.15q.49.77-.42.78l-3.38.05q-1.35.02-1.99-1.17l-1.33-2.45a.72.72 0 0 0-1.33.2q-.3 1.4-.12 2.72a.61.6 86.1 0 1-.59.68l-3.19.02q-.72 0-.72-.71v-11.07q0-.73.73-.73l3.08-.02a.65.65 0 0 1 .65.66l-.02 2.65Zm-1.463-.602a.95.84 38.2 0 0-.227-1.248.95.84 38.2 0 0-1.267.073.95.84 38.2 0 0 .227 1.247.95.84 38.2 0 0 1.267-.072Zm4.783-.288q0 .31.3.37.62.15 1.21-.03a.53.52-20.2 0 0 .34-.72q-.32-.69-1.04-.59-.8.11-.81.97Zm-5.53 9.016a1 .68 84.8 0 0 .587-1.058 1 .68 84.8 0 0-.768-.934 1 .68 84.8 0 0-.586 1.058 1 .68 84.8 0 0 .768.934Zm8.168-.952a.94.79 3.3 0 0-.892-.843.94.79 3.3 0 0-.984.735.94.79 3.3 0 0 .892.843.94.79 3.3 0 0 .984-.735ZM111.36 111.86q-.19 2.77.01 6.17 0 .17-.17.17l-3.84-.06q-.27 0-.28-.28l-.06-11.38q0-.75.75-.75l3.96-.01a.8.79 79.1 0 1 .74.51l2.35 5.78q.46 1.16.58-.08c.15-1.75-.43-4.1.02-5.75q.12-.42.56-.42l3.2-.05q.48-.01.48.47l-.06 11.4q0 .67-.68.66l-3.8-.05q-.5 0-.69-.47l-2.48-5.96q-.5-1.2-.59.1Zm-1.18-4.02a.86.86 0 0 0-.86-.86.86.86 0 0 0-.86.86.86.86 0 0 0 .86.86.86.86 0 0 0 .86-.86Zm6.883.83a.93.81 115.3 0 0 1.13-.494.93.81 115.3 0 0-.336-1.187.93.81 115.3 0 0-1.13.495.93.81 115.3 0 0 .336 1.187Zm-7.198 8.184a.9.76 49.5 0 0-.007-1.178.9.76 49.5 0 0-1.163-.19.9.76 49.5 0 0 .007 1.178.9.76 49.5 0 0 1.163.19Zm7.046.128a.9.78 115.6 0 0 1.092-.475.9.78 115.6 0 0-.314-1.149.9.78 115.6 0 0-1.092.475.9.78 115.6 0 0 .314 1.149ZM131.42 117.21l-.24.54q-.2.45-.69.45l-3.7.02q-.42 0-.3-.41l3.63-11.45q.2-.63.85-.63l4.57-.04a.84.82-8.4 0 1 .8.58l3.57 11.14a.62.61 81 0 1-.58.81l-2.85-.01q-.64 0-1.01-.53-1.07-1.53-3.62-.84-.3.08-.43.37Zm1.09-9.81a.54.53-69.4 0 0 .25.56q.33.19.76.17.73-.03.58-.74l-.08-.39a.6.6 0 0 0-.76-.45q-.6.18-.75.85Zm.1 6.61 1.32-.02a.29.29 0 0 0 .29-.29v-.14a4.05.82 89.4 0 0-.86-4.04h-.26a4.05.82 89.4 0 0-.78 4.06v.14a.29.29 0 0 0 .29.29Zm-3.202 2.59a1.03.74 101.3 0 0 .928-.865 1.03.74 101.3 0 0-.524-1.155 1.03.74 101.3 0 0-.928.865 1.03.74 101.3 0 0 .524 1.155Zm8.032-1.55a.36.33 10.5 0 0-.17-.23q-.66-.34-1.06.33-.45.78.26 1.27a.69.69 0 0 0 1.08-.63q-.02-.28-.11-.74Z"/><ellipse fill="#fff" rx="1.04" ry=".75" transform="rotate(-28.3 220.926 22.687)"/><ellipse fill="#fff" rx=".9" ry=".78" transform="rotate(109.8 -28.085 60.516)"/><ellipse fill="#fff" rx=".89" ry=".79" transform="rotate(-42.6 149.876 22.327)"/><ellipse fill="#fff" rx=".91" ry=".75" transform="rotate(101.4 -28.853 66.009)"/><circle cx="99.62" cy="107.37" r=".93" fill="#fcd8e8"/><path fill="#fff" d="M132.51 107.4q.15-.67.75-.85a.6.6 0 0 1 .76.45l.08.39q.15.71-.58.74-.43.02-.76-.17a.54.53-69.4 0 1-.25-.56ZM11.42 106.68q.55-.02 1.01.22a.66.66 0 0 1-.05 1.2q-.39.16-.84.15-.52-.02-.59-.53l-.06-.37q-.1-.63.53-.67Z"/><ellipse fill="#fff" rx=".95" ry=".84" transform="rotate(38.2 -137.552 106.315)"/><path fill="#fff" d="M41.82 108.13q.01-.86.81-.97.72-.1 1.04.59a.53.52-20.2 0 1-.34.72q-.59.18-1.21.03-.3-.06-.3-.37Z"/><ellipse fill="#fcd8e8" rx=".99" ry=".8" transform="rotate(40.1 -122.596 122.864)"/><path fill="#fff" d="M59.33 107.52q-.09.89-.9 1.27-.53.25-.67-.33-.11-.47-.02-.96.07-.42.49-.53.27-.08.56-.07.6.02.54.62Z"/><ellipse fill="#fff" rx="1.01" ry=".74" transform="rotate(125.9 5.205 70.643)"/><ellipse fill="#fff" rx=".97" ry=".77" transform="rotate(15.6 -357.827 315.527)"/><path fill="#fff" d="M79.49 107.81q.23 1.02-.8.8-.5-.11-.77-.6-.3-.56.25-.88 1.04-.6 1.32.68ZM89.67 107.25l.61-.18q.67-.2.71.5.03.41-.23.72a.97.96 39.7 0 1-1.35.12q-.49-.41-.09-.92a.65.62 9.3 0 1 .35-.24Z"/><circle cx="109.32" cy="107.84" r=".86" fill="#fff"/><ellipse fill="#fff" rx=".93" ry=".81" transform="rotate(115.3 24.58 91.114)"/><ellipse fill="#dd4f86" rx="1.01" ry=".88" transform="rotate(69.7 -15.674 142.604)"/><ellipse fill="#fff" rx="4.01" ry="1.98" transform="rotate(89.5 -22.18 90.59)"/><path fill="#fff" d="M98.94 113.93a.3.3 0 0 1-.28-.31v-.13a3.97.83-87.5 0 1 1.01-3.93l.28.01a3.97.83-87.5 0 1 .65 4v.13a.3.3 0 0 1-.32.29l-1.34-.06ZM132.61 114.01a.29.29 0 0 1-.29-.29v-.14a4.05.82 89.4 0 1 .78-4.06h.26a4.05.82 89.4 0 1 .86 4.04v.14a.29.29 0 0 1-.29.29l-1.32.02Z"/><ellipse fill="#fff" rx="1.06" ry=".75" transform="rotate(84.7 -15.44 110.436)"/><path fill="#fff" d="m102.41 115.66.23-.71a.53.53 0 0 1 .93-.15q.28.37.42.8.18.53-.33.76-.38.17-.79.09-.67-.14-.46-.79Z"/><ellipse fill="#fff" rx="1.03" ry=".74" transform="rotate(101.3 17.416 110.932)"/><ellipse fill="#fff" rx=".91" ry=".75" transform="rotate(58 -96.552 71.986)"/><path fill="#fff" d="M137.44 115.05q.09.46.11.74a.69.69 0 0 1-1.08.63q-.71-.49-.26-1.27.4-.67 1.06-.33a.36.33 10.5 0 1 .17.23ZM72.5 115.4q.41.89-.26 1.32a.75.75 0 0 1-1.11-.91q.13-.33.38-.58.62-.62.99.17Z"/><ellipse fill="#fff" rx="1" ry=".68" transform="rotate(84.8 -45.5 77.897)"/><ellipse fill="#fff" rx=".94" ry=".79" transform="rotate(3.3 -1994.147 813.47)"/><ellipse fill="#fff" rx=".9" ry=".75" transform="rotate(63.5 -68.74 98.631)"/><ellipse fill="#fff" rx=".94" ry=".78" transform="rotate(-13.7 512.483 -184.723)"/><ellipse fill="#fff" rx=".98" ry=".79" transform="rotate(53.6 -75.684 135.796)"/><path fill="#fff" d="M83.79 115.38a.41.41 0 0 1 .51-.21q.22.07.41.22.21.17.25.43.12.74-.47 1.19-.41.32-.69-.11-.44-.65-.01-1.52ZM89.49 115.55a.69.65-3.8 0 1 .29-.31q.55-.3.91.24.31.47.12.94a.7.7 0 0 1-1.13.23q-.49-.48-.19-1.1Z"/><ellipse fill="#fff" rx=".9" ry=".76" transform="rotate(49.5 -71.356 176.608)"/><ellipse fill="#fff" rx=".9" ry=".78" transform="rotate(115.6 22.072 95.019)"/><ellipse fill="#fcd8e8" rx=".92" ry=".76" transform="rotate(66.6 -26.611 152.19)"/><ellipse fill="#fff" rx=".96" ry=".76" transform="rotate(126.7 -16.953 64.338)"/><circle cx="30.16" cy="116.46" r=".87" fill="#fff"/><ellipse fill="#fff" rx="1.01" ry=".65" transform="rotate(8.2 -777.328 515.514)"/><path fill="#020101" d="M90.03 123.85q.19 1.4-.12 2.76-.04.17-.22.16l-.34-.03a.34.34 0 0 1-.31-.38l.47-4.45a.59.59 0 0 1 .4-.5q.34-.12.57.11.34.35.02.73-.59.69-.47 1.6ZM32.77 123.17a.87.87 0 0 1 .88-.87l.96.01a2.35 2.27.4 0 1 2.33 2.28v.32a2.35 2.27.4 0 1-2.37 2.26l-.96-.01a.87.87 0 0 1-.86-.87l.02-3.12Zm2.36 2.87q1.42-1.66-.27-2.58-.7-.39-.89.39-.25.99.05 1.96a.65.65 0 0 0 1.11.23ZM54.24 124.36q.93 2.26-.95 2.73a1.89 1.89 0 0 1-2.2-1.08c-.4-.92-.2-2.21.85-2.59q.89-.33 1.6-.98.48-.44.96.01.38.34-.06.82a1.03 1.02 55.5 0 0-.2 1.09Zm-1.556 1.96a1.16.71 91.8 0 0 .746-1.138 1.16.71 91.8 0 0-.674-1.181 1.16.71 91.8 0 0-.746 1.137 1.16.71 91.8 0 0 .674 1.181ZM62.53 123.04q-.39.07-.69-.15-.43-.3.06-.48 1.3-.47 2.31.38.36.31.16.73-.46.96.22 1.8a.63.63 0 0 1 .01.79q-.95 1.22-2.66.98a.3.3 0 0 1-.24-.38l.09-.26q.13-.4.53-.28.47.13.88-.15a.49.48-44 0 0 .02-.79q-.12-.09-.27-.13a.6.6 0 0 1-.23-1.05q.17-.14.28-.33.48-.83-.47-.68ZM67.04 125.12q-.84.04-1.38-.57-.25-.29-.2-.66.18-1.19 1.23-1.52a1.69 1.68-18.2 0 1 2.11 1.06q1.16 3.37-2.56 3.75-.15.01-.17-.14l-.03-.26q-.08-.58.51-.59.55-.01.85-.43.48-.68-.36-.64ZM82.09 124.67q-.45-.28-.81-.65-.65-.68.28-.77 1.44-.15 1.99 1.1.85 1.93-1 2.68a1.23 1.21-42.7 0 1-.96-.03l-1.54-.7q-.49-.22-.88.14-1.23 1.13-2.7.55a1.16 1.15 10.9 0 1-.73-1.07l.01-2.72q0-.61.6-.74 1.74-.37 2.83.32a.51.5 27.5 0 1 .2.62q-.31.8-.32 1.53-.01.8.79.59 1.1-.3 2.11-.35.86-.04.13-.5ZM85.81 124.27l-.05 2.35q0 .4-.39.29l-.42-.13q-.14-.04-.15-.18l-.2-3.96q-.02-.37.35-.46.17-.04.35.04.34.15.54.47.38.59 1.09.61a1.13 1.13 0 0 1 1.1.94q.22 1.29-.14 2.51a.4.39-33.1 0 1-.77-.16q.2-1.46-.63-2.54-.66-.85-.68.22ZM100.45 124.83q.39.22.49.62.18.74-.47 1.16-1.17.75-2.79.38-.45-.11-.48-.57l-.2-2.83a1.27 1.26 87.9 0 1 1.26-1.36q1.14.01 2.24.62.56.32.26.9-.08.15-.25.22-.93.37-.06.86ZM102.96 126.68q0 .21-.21.22h-.32q-.42.01-.43-.41l-.08-3.85a.4.39-86.3 0 1 .45-.4l.4.06q.22.03.22.26l-.03 4.12Z"/><path fill="#fff" d="M35.13 126.04a.65.65 0 0 1-1.11-.23q-.3-.97-.05-1.96.19-.78.89-.39 1.69.92.27 2.58Z"/><path fill="#020101" d="M41.48 125.22a1.93 1.93 0 0 1-1.93 1.93 1.93 1.93 0 0 1-1.93-1.93 1.93 1.93 0 0 1 1.93-1.93 1.93 1.93 0 0 1 1.93 1.93Zm-2.52.64a.62.61-4.3 0 0 .45.38q.71.15.81-.57.1-.71-.33-1.25-.37-.45-.72.01-.5.65-.21 1.43ZM44.69 124.58q-.21-.54-.75-.32l-.31.12a.44.43-19.8 0 0-.26.54q.35 1.07-.22 1.95a.38.38 0 0 1-.69-.1q-.79-2.75 1.06-3.58a1.17 1.14 42.9 0 1 .9-.02q2.17.84 1.3 3.51-.12.37-.5.29a.59.59 0 0 1-.45-.74q.23-.83-.08-1.65ZM48.41 126.2q.21-.02.25-.22.31-1.54-1.16-1.96a.46.41 82 0 1-.26-.22q-.14-.29.05-.42.1-.06.21-.07 1.14-.12 1.6.1a2.08 2.08 0 0 1 .38 3.5q-.69.55-2.02.12a1.03 1.03 0 0 1-.71-1.07q.09-1.08 1.03-1.09a.42.42 0 0 1 .39.59q-.09.21-.1.43-.01.35.34.31ZM59.25 125.22a1.93 1.93 0 0 1-1.93 1.93 1.93 1.93 0 0 1-1.93-1.93 1.93 1.93 0 0 1 1.93-1.93 1.93 1.93 0 0 1 1.93 1.93Zm-2.47-.75q-.49.69-.11 1.43a.69.69 0 0 0 1.26-.09q.28-.82-.31-1.41a.56.55 39.7 0 0-.84.07ZM92.85 124.65q-.22-.83-1.06-.75-.75.07-.1-.31 1.07-.63 1.94-.14a2.09 2.05 47 0 1-.09 3.68q-.77.35-2.26-.62-1.12-.74.14-1.21.46-.17.93-.1.67.1.5-.55ZM105.76 125.45q.05-.18.01-.35-.17-1.01-1.21-1.06-.23-.01-.25-.24l-.03-.28q-.02-.22.2-.24 1.01-.08 1.94.26.5.18.67.69.36 1.14.09 1.76a1.91 1.88-55.9 0 1-3.06.61q-.54-.53-.2-1.36.22-.54.77-.35.41.15.54.56.27.86.53 0ZM110.6 124.88a.7.7 0 0 0-1.3-.35q-.53.9-.18 1.92.13.39-.24.55-.14.05-.29 0-.19-.07-.28-.26-.84-1.89.38-3.07a1.69 1.69 0 0 1 2.86 1l.22 1.77a.4.4 0 0 1-.43.46l-.37-.03q-.37-.03-.37-.39v-1.6ZM113.77 125.24q.19 1.09 1.49 1.3a.14.13 12.5 0 1 .11.16l-.07.28q-.04.15-.21.16-2.31.11-2.51-1.7a1.85 1.83-10.7 0 1 1.36-1.97q1.34-.36 1.3.21-.03.26-.28.35-.48.14-.88.46-.39.3-.31.75ZM118.22 125.15q-.08-.48-.38-.87-.21-.26-.51-.17-.71.2-.33-.43.29-.49.82-.43 2.25.24 1.86 2.83a1.12 1.11-6 0 1-.71.87q-1.38.51-2.28-.34-.79-.73-.11-1.68.35-.49.69 0 .2.28.47.5.59.47.48-.28Z"/><ellipse fill="#fff" rx="1.16" ry=".71" transform="rotate(91.8 -34.284 88.125)"/><path fill="#fff" d="M38.96 125.86q-.29-.78.21-1.43.35-.46.72-.01.43.54.33 1.25-.1.72-.81.57a.62.61-4.3 0 1-.45-.38ZM56.78 124.47a.56.55 39.7 0 1 .84-.07q.59.59.31 1.41a.69.69 0 0 1-1.26.09q-.38-.74.11-1.43Z"/><path fill="#020101" d="M71.85 124.55q.67-.24 1.14.22a.49.48-32.7 0 1-.18.8q-.58.22-1.08-.12a.51.51 0 0 1 .12-.9ZM43.55 134.54l-.06 2.27a.33.33 0 0 1-.44.3l-.51-.18q-.14-.06-.14-.21l-.06-3.88a.6.6 0 0 1 .62-.61q.38.02.61.42.26.49.8.61 2.24.53 1.47 3.51a.34.33-77.7 0 1-.38.25l-.35-.06q-.36-.05-.27-.41.34-1.44-.63-2.3-.63-.55-.66.29ZM79.5 136.36q.81-.36.2-.99l-.96-1q-.52-.55-1.05-.01l-1.23 1.23q-.69.7.29.65.53-.02.89.32.5.46-.18.46h-2.17a.69.69 0 0 1-.49-1.18l1.75-1.77q.65-.66-.28-.65l-1.15.03q-.34 0-.31-.33l.03-.33q.01-.07.08-.1 1.96-.89 3.04.81.31.49.73.08.45-.44.73-1 .25-.48.77-.34c.8.22 1.71.58 1.88 1.51q.32 1.67-.58 2.82a1.7 1.69 30.4 0 1-2.01.52q-.84-.35.02-.73Zm.86-.89q-.12.04-.15.16-.04.16.03.3.03.04.07.07.21.11.32-.09.76-1.31-.05-2.39-.36-.48-.36.12-.01.69.35 1.26.27.41-.21.57ZM87.25 134q1.28-.35 1.97 1.32.19.47-.1.89-.6.87-1.45.98-.32.05-.63-.06-1.24-.4-.83-.85.13-.13.31-.11l.86.13q.68.11.57-.58-.1-.63-.74-1.03a.4.39-53.6 0 0-.5.08q-.14.17-.36.17-.29-.01-.33-.3-.32-2.29 2.21-2.36.34-.01.46.32.05.14.02.29-.13.59-.72.44-.62-.16-.96.38a.2.19 8.3 0 0 .22.29ZM93.96 136.53q.71-.52 1.6-.25.32.1.45-.35a.45.45 0 0 0-.16-.49q-.97-.74-1.31-1.91-.47-1.63 1.18-1.22 1.71.42 1.17 1.83-.17.45.07.87.41.75-.02 1.58a1.19 1.18-71.3 0 1-1.24.62q-2.28-.39-4.8-.13-.46.05-.76-.31-.2-.25-.17-.57a.76.75 78.8 0 1 .39-.59q.94-.54 1.43-1.47.27-.52-.28-.74-.47-.18-.96 0-.32.12-.32-.22v-.44q0-.05.05-.08 1.98-.99 2.76.77a.95.94-38.7 0 1-.11.96l-.84 1.13a.55.54-62.7 0 0 .26.84l.85.29q.41.14.76-.12Z"/><path fill="#020101" d="M99.843 137.179a2.44 1.98 91.8 0 1-1.902-2.501 2.44 1.98 91.8 0 1 2.056-2.377 2.44 1.98 91.8 0 1 1.902 2.501 2.44 1.98 91.8 0 1-2.056 2.377Zm-.06-1.022a1.4.91 94 0 0 1.005-1.334 1.4.91 94 0 0-.81-1.46 1.4.91 94 0 0-1.006 1.333 1.4.91 94 0 0 .81 1.46Z"/><rect width="3.1" height="4.78" x="-1.55" y="-2.39" fill="#020101" rx="1.19" transform="rotate(.1 -77171.037 59878.44)"/><path fill="#020101" d="M113.726 137.199a2.42 1.99 88.2 0 1-2.065-2.357 2.42 1.99 88.2 0 1 1.913-2.48 2.42 1.99 88.2 0 1 2.065 2.356 2.42 1.99 88.2 0 1-1.913 2.48Zm-.061-.98a1.43.87 87.4 0 0 .804-1.469 1.43.87 87.4 0 0-.934-1.388 1.43.87 87.4 0 0-.804 1.468 1.43.87 87.4 0 0 .934 1.388ZM37.51 135.02q.26-.78.78-1.41.41-.5.66.1l.6 1.46q.26.64.52-.01.36-.91.06-2.13a.34.34 0 0 1 .3-.42l.39-.03a.64.63-86.8 0 1 .67.75l-.61 3.2q-.15.82-.97.64-.87-.19-.98-1.05-.05-.46-.49-.33-.38.11-.35.52a.79.78-6.2 0 1-.68.84q-.37.05-.75-.15a.92.91 8.6 0 1-.44-.59l-.77-3.29a.48.48 0 0 1 .48-.59l.38.02q.45.01.43.46-.04 1.01.26 2 .24.8.51.01ZM52.33 135.96l.41.36q.8.68-.23.88-.27.05-.54 0a.86.84-1.4 0 1-.68-.63q-.39-1.55-.24-3.38.09-1 .8-.3l.71.71q.7.69-.16 1.16-.17.09-.25.26-.29.54.18.94ZM83.58 134.03l-.4-.54a.64.64 0 0 1 .27-.97q.6-.24 1.16.1.37.21.35.64l-.09 3.45a.47.47 0 0 1-.89.19q-.4-.82-.17-1.77.14-.6-.23-1.1Z"/><path fill="#020101" d="M110.23 134.98q.1.13.25.19.32.12.28.45-.08.71-.6 1.13-.59.47-.98-.19-.51-.88-1.5-.56-1.37.44-.8-.88.74-1.7 2.38-2.67a.58.58 0 0 1 .78.18q.44.68.09 1.43-.23.49.1.92ZM72.23 133.72v.53a.49.49 0 0 1-.95.2q-.23-.54.18-1.01.75-.86.77.28ZM48.78 135.96q.11-.31.07-.62-.12-.98-1.18-1.07-.16-.01-.21-.16l-.13-.49q-.09-.28.21-.3 2.96-.19 2.64 2.5-.17 1.47-1.91 1.47a1.35 1.33-19.7 0 1-1.03-.48q-.84-1 .1-1.77.53-.44.86.16.17.32.2.71.08.94.38.05ZM56 134.86l.36.08a1 1 0 0 1 .55 1.61q-1.02 1.25-2.56.31-.09-.06-.07-.16l.06-.29a.27.26 22.5 0 1 .4-.16q.41.28.82.1.94-.42-.04-.75-.78-.28-1.37-.75a.63.62-41 0 1 .08-1.03q.98-.59 1.92-.53 1.1.07.15.63-.25.14-.45.32-.55.47.15.62ZM59.71 136.14q.13-.59.07-1.19a.72.72 0 0 0-.69-.64q-.57-.01-.76-.54a.37.36 84.1 0 1 .39-.49l1.61.25q.68.11.73.8l.09 1.38q.09 1.4-1.31 1.52-2.19.18-1.83-1.71.09-.43.52-.49l.31-.04q.48-.06.41.42-.07.41.13.78.22.43.33-.05ZM62.99 137.96q-.96.82-.97-.44c-.01-1.47-.58-3.55 1.25-4.18a1.9 1.88-26.2 0 1 2.17.73q.44.64.43 1.42a1.27 1.27 0 0 1-.76 1.15q-1.17.52-2.12 1.32Zm-.05-2.63q-.01.22-.09.44-.17.5.35.49.7-.01 1.27-.43a.81.8 34.4 0 0-.27-1.42q-1.2-.32-1.26.92ZM69.33 136.84q-1.05.34-1.89 1.25-.87.93-.83-.34l.08-3a1.6 1.6 0 0 1 2.23-1.42q1.18.51 1.42 1.83a1.49 1.49 0 0 1-1.01 1.68Zm-1.103-.513a1.04.72 99 0 0 .874-.914 1.04.72 99 0 0-.548-1.14 1.04.72 99 0 0-.874.914 1.04.72 99 0 0 .548 1.14Z"/><path fill="#fcd8e8" d="M80.57 134.9q-.36-.57-.35-1.26 0-.6.36-.12.81 1.08.05 2.39-.11.2-.32.09-.04-.03-.07-.07-.07-.14-.03-.3.03-.12.15-.16.48-.16.21-.57Z"/><ellipse fill="#fff" rx="1.4" ry=".91" transform="rotate(94 -12.893 113.95)"/><ellipse fill="#fff" rx="1.43" ry=".87" transform="rotate(87.4 -13.725 126.833)"/><path fill="#fff" d="M62.94 135.33q.06-1.24 1.26-.92a.81.8 34.4 0 1 .27 1.42q-.57.42-1.27.43-.52.01-.35-.49.08-.22.09-.44Z"/><ellipse fill="#fff" rx="1.04" ry=".72" transform="rotate(99 -23.584 96.855)"/><circle cx="71.73" cy="136.6" r=".6" fill="#020101"/></svg>